<?xml version="1.0" encoding="UTF-8" standalone="no"?><svg xmlns="http://www.w3.org/2000/svg" xmlns:xlink="http://www.w3.org/1999/xlink" contentStyleType="text/css" height="771px" preserveAspectRatio="none" style="width:2197px;height:771px;background:#FFFFFF;" version="1.1" viewBox="0 0 2197 771" width="2197px" zoomAndPan="magnify"><defs/><g><line style="stroke:#181818;stroke-width:0.5;stroke-dasharray:5.0,5.0;" x1="40" x2="40" y1="81.2969" y2="690.6875"/><line style="stroke:#181818;stroke-width:0.5;stroke-dasharray:5.0,5.0;" x1="121" x2="121" y1="81.2969" y2="690.6875"/><line style="stroke:#181818;stroke-width:0.5;stroke-dasharray:5.0,5.0;" x1="202" x2="202" y1="81.2969" y2="690.6875"/><line style="stroke:#181818;stroke-width:0.5;stroke-dasharray:5.0,5.0;" x1="426.5" x2="426.5" y1="81.2969" y2="690.6875"/><line style="stroke:#181818;stroke-width:0.5;stroke-dasharray:5.0,5.0;" x1="682" x2="682" y1="81.2969" y2="690.6875"/><line style="stroke:#181818;stroke-width:0.5;stroke-dasharray:5.0,5.0;" x1="1042" x2="1042" y1="81.2969" y2="690.6875"/><line style="stroke:#181818;stroke-width:0.5;stroke-dasharray:5.0,5.0;" x1="1293" x2="1293" y1="81.2969" y2="690.6875"/><line style="stroke:#181818;stroke-width:0.5;stroke-dasharray:5.0,5.0;" x1="1663.5" x2="1663.5" y1="81.2969" y2="690.6875"/><text fill="#000000" font-family="sans-serif" font-size="14" lengthAdjust="spacing" textLength="64" x="5" y="77.9951">Engineer</text><ellipse cx="40" cy="13.5" fill="#E2E2F0" rx="8" ry="8" style="stroke:#181818;stroke-width:0.5;"/><path d="M40,21.5 L40,48.5 M27,29.5 L53,29.5 M40,48.5 L27,63.5 M40,48.5 L53,63.5 " fill="none" style="stroke:#181818;stroke-width:0.5;"/><text fill="#000000" font-family="sans-serif" font-size="14" lengthAdjust="spacing" textLength="64" x="5" y="702.6826">Engineer</text><ellipse cx="40" cy="714.4844" fill="#E2E2F0" rx="8" ry="8" style="stroke:#181818;stroke-width:0.5;"/><path d="M40,722.4844 L40,749.4844 M27,730.4844 L53,730.4844 M40,749.4844 L27,764.4844 M40,749.4844 L53,764.4844 " fill="none" style="stroke:#181818;stroke-width:0.5;"/><text fill="#000000" font-family="sans-serif" font-size="14" lengthAdjust="spacing" textLength="66" x="85" y="77.9951">Reviewer</text><ellipse cx="121" cy="13.5" fill="#E2E2F0" rx="8" ry="8" style="stroke:#181818;stroke-width:0.5;"/><path d="M121,21.5 L121,48.5 M108,29.5 L134,29.5 M121,48.5 L108,63.5 M121,48.5 L134,63.5 " fill="none" style="stroke:#181818;stroke-width:0.5;"/><text fill="#000000" font-family="sans-serif" font-size="14" lengthAdjust="spacing" textLength="66" x="85" y="702.6826">Reviewer</text><ellipse cx="121" cy="714.4844" fill="#E2E2F0" rx="8" ry="8" style="stroke:#181818;stroke-width:0.5;"/><path d="M121,722.4844 L121,749.4844 M108,730.4844 L134,730.4844 M121,749.4844 L108,764.4844 M121,749.4844 L134,764.4844 " fill="none" style="stroke:#181818;stroke-width:0.5;"/><text fill="#000000" font-family="sans-serif" font-size="14" lengthAdjust="spacing" textLength="65" x="167" y="77.9951">QA Team</text><ellipse cx="202.5" cy="13.5" fill="#E2E2F0" rx="8" ry="8" style="stroke:#181818;stroke-width:0.5;"/><path d="M202.5,21.5 L202.5,48.5 M189.5,29.5 L215.5,29.5 M202.5,48.5 L189.5,63.5 M202.5,48.5 L215.5,63.5 " fill="none" style="stroke:#181818;stroke-width:0.5;"/><text fill="#000000" font-family="sans-serif" font-size="14" lengthAdjust="spacing" textLength="65" x="167" y="702.6826">QA Team</text><ellipse cx="202.5" cy="714.4844" fill="#E2E2F0" rx="8" ry="8" style="stroke:#181818;stroke-width:0.5;"/><path d="M202.5,722.4844 L202.5,749.4844 M189.5,730.4844 L215.5,730.4844 M202.5,749.4844 L189.5,764.4844 M202.5,749.4844 L215.5,764.4844 " fill="none" style="stroke:#181818;stroke-width:0.5;"/><rect fill="#E2E2F0" height="30.2969" rx="2.5" ry="2.5" style="stroke:#181818;stroke-width:0.5;" width="121" x="366.5" y="50"/><text fill="#000000" font-family="sans-serif" font-size="14" lengthAdjust="spacing" textLength="107" x="373.5" y="69.9951">feature branch</text><rect fill="#E2E2F0" height="30.2969" rx="2.5" ry="2.5" style="stroke:#181818;stroke-width:0.5;" width="121" x="366.5" y="689.6875"/><text fill="#000000" font-family="sans-serif" font-size="14" lengthAdjust="spacing" textLength="107" x="373.5" y="709.6826">feature branch</text><text fill="#000000" font-family="sans-serif" font-size="14" lengthAdjust="spacing" textLength="88" x="635" y="77.9951">Pull Request</text><ellipse cx="682" cy="49" fill="#E2E2F0" rx="12" ry="12" style="stroke:#181818;stroke-width:0.5;"/><polygon fill="#181818" points="678,37,684,32,682,37,684,42,678,37" style="stroke:#181818;stroke-width:1.0;"/><text fill="#000000" font-family="sans-serif" font-size="14" lengthAdjust="spacing" textLength="88" x="635" y="702.6826">Pull Request</text><ellipse cx="682" cy="721.9844" fill="#E2E2F0" rx="12" ry="12" style="stroke:#181818;stroke-width:0.5;"/><polygon fill="#181818" points="678,709.9844,684,704.9844,682,709.9844,684,714.9844,678,709.9844" style="stroke:#181818;stroke-width:1.0;"/><rect fill="#E2E2F0" height="30.2969" rx="2.5" ry="2.5" style="stroke:#181818;stroke-width:0.5;" width="126" x="979" y="50"/><text fill="#000000" font-family="sans-serif" font-size="14" lengthAdjust="spacing" textLength="112" x="986" y="69.9951">develop branch</text><rect fill="#E2E2F0" height="30.2969" rx="2.5" ry="2.5" style="stroke:#181818;stroke-width:0.5;" width="126" x="979" y="689.6875"/><text fill="#000000" font-family="sans-serif" font-size="14" lengthAdjust="spacing" textLength="112" x="986" y="709.6826">develop branch</text><rect fill="#E2E2F0" height="30.2969" rx="2.5" ry="2.5" style="stroke:#181818;stroke-width:0.5;" width="120" x="1233" y="50"/><text fill="#000000" font-family="sans-serif" font-size="14" lengthAdjust="spacing" textLength="106" x="1240" y="69.9951">release branch</text><rect fill="#E2E2F0" height="30.2969" rx="2.5" ry="2.5" style="stroke:#181818;stroke-width:0.5;" width="120" x="1233" y="689.6875"/><text fill="#000000" font-family="sans-serif" font-size="14" lengthAdjust="spacing" textLength="106" x="1240" y="709.6826">release branch</text><rect fill="#E2E2F0" height="30.2969" rx="2.5" ry="2.5" style="stroke:#181818;stroke-width:0.5;" width="103" x="1612.5" y="50"/><text fill="#000000" font-family="sans-serif" font-size="14" lengthAdjust="spacing" textLength="89" x="1619.5" y="69.9951">main branch</text><rect fill="#E2E2F0" height="30.2969" rx="2.5" ry="2.5" style="stroke:#181818;stroke-width:0.5;" width="103" x="1612.5" y="689.6875"/><text fill="#000000" font-family="sans-serif" font-size="14" lengthAdjust="spacing" textLength="89" x="1619.5" y="709.6826">main branch</text><polygon fill="#181818" points="438,108.4297,428,112.4297,438,116.4297,434,112.4297" style="stroke:#181818;stroke-width:1.0;"/><line style="stroke:#181818;stroke-width:1.0;stroke-dasharray:2.0,2.0;" x1="432" x2="1041" y1="112.4297" y2="112.4297"/><text fill="#000000" font-family="sans-serif" font-size="13" lengthAdjust="spacing" textLength="393" x="444" y="107.3638">New branch matching Jira ticket ID and short name is created</text><polygon fill="#181818" points="415,137.5625,425,141.5625,415,145.5625,419,141.5625" style="stroke:#181818;stroke-width:1.0;"/><line style="stroke:#181818;stroke-width:1.0;stroke-dasharray:2.0,2.0;" x1="40" x2="421" y1="141.5625" y2="141.5625"/><text fill="#000000" font-family="sans-serif" font-size="13" lengthAdjust="spacing" textLength="363" x="47" y="136.4966">Engineer implements the feature with idividual commits.</text><polygon fill="#181818" points="670,166.6953,680,170.6953,670,174.6953,674,170.6953" style="stroke:#181818;stroke-width:1.0;"/><line style="stroke:#181818;stroke-width:1.0;stroke-dasharray:2.0,2.0;" x1="427" x2="676" y1="170.6953" y2="170.6953"/><text fill="#000000" font-family="sans-serif" font-size="13" lengthAdjust="spacing" textLength="160" x="434" y="165.6294">*Pull Request* is created</text><line style="stroke:#181818;stroke-width:1.0;stroke-dasharray:2.0,2.0;" x1="682" x2="724" y1="199.8281" y2="199.8281"/><line style="stroke:#181818;stroke-width:1.0;stroke-dasharray:2.0,2.0;" x1="724" x2="724" y1="199.8281" y2="212.8281"/><line style="stroke:#181818;stroke-width:1.0;stroke-dasharray:2.0,2.0;" x1="683" x2="724" y1="212.8281" y2="212.8281"/><polygon fill="#181818" points="693,208.8281,683,212.8281,693,216.8281,689,212.8281" style="stroke:#181818;stroke-width:1.0;"/><text fill="#000000" font-family="sans-serif" font-size="13" lengthAdjust="spacing" textLength="127" x="689" y="194.7622">e2e Tests executed</text><line style="stroke:#181818;stroke-width:1.0;stroke-dasharray:2.0,2.0;" x1="682" x2="724" y1="241.9609" y2="241.9609"/><line style="stroke:#181818;stroke-width:1.0;stroke-dasharray:2.0,2.0;" x1="724" x2="724" y1="241.9609" y2="254.9609"/><line style="stroke:#181818;stroke-width:1.0;stroke-dasharray:2.0,2.0;" x1="683" x2="724" y1="254.9609" y2="254.9609"/><polygon fill="#181818" points="693,250.9609,683,254.9609,693,258.9609,689,254.9609" style="stroke:#181818;stroke-width:1.0;"/><text fill="#000000" font-family="sans-serif" font-size="13" lengthAdjust="spacing" textLength="199" x="689" y="236.895">fungible environment spawned</text><line style="stroke:#181818;stroke-width:1.0;stroke-dasharray:2.0,2.0;" x1="682" x2="724" y1="284.0938" y2="284.0938"/><line style="stroke:#181818;stroke-width:1.0;stroke-dasharray:2.0,2.0;" x1="724" x2="724" y1="284.0938" y2="297.0938"/><line style="stroke:#181818;stroke-width:1.0;stroke-dasharray:2.0,2.0;" x1="683" x2="724" y1="297.0938" y2="297.0938"/><polygon fill="#181818" points="693,293.0938,683,297.0938,693,301.0938,689,297.0938" style="stroke:#181818;stroke-width:1.0;"/><text fill="#000000" font-family="sans-serif" font-size="13" lengthAdjust="spacing" textLength="135" x="689" y="279.0278">custom build created</text><polygon fill="#181818" points="670,322.2266,680,326.2266,670,330.2266,674,326.2266" style="stroke:#181818;stroke-width:1.0;"/><line style="stroke:#181818;stroke-width:1.0;stroke-dasharray:2.0,2.0;" x1="121" x2="676" y1="326.2266" y2="326.2266"/><text fill="#000000" font-family="sans-serif" font-size="13" lengthAdjust="spacing" textLength="213" x="128" y="321.1606">Code review is done by the team</text><polygon fill="#181818" points="670,351.3594,680,355.3594,670,359.3594,674,355.3594" style="stroke:#181818;stroke-width:1.0;"/><line style="stroke:#181818;stroke-width:1.0;stroke-dasharray:2.0,2.0;" x1="40" x2="676" y1="355.3594" y2="355.3594"/><text fill="#000000" font-family="sans-serif" font-size="13" lengthAdjust="spacing" textLength="213" x="47" y="350.2935">Code review changes are applied</text><polygon fill="#181818" points="670,380.4922,680,384.4922,670,388.4922,674,384.4922" style="stroke:#181818;stroke-width:1.0;"/><line style="stroke:#181818;stroke-width:1.0;stroke-dasharray:2.0,2.0;" x1="202.5" x2="676" y1="384.4922" y2="384.4922"/><text fill="#000000" font-family="sans-serif" font-size="13" lengthAdjust="spacing" textLength="337" x="209.5" y="379.4263">QA runs isolated test cases in isolated environments</text><polygon fill="#181818" points="1030,409.625,1040,413.625,1030,417.625,1034,413.625" style="stroke:#181818;stroke-width:1.0;"/><line style="stroke:#181818;stroke-width:1.0;stroke-dasharray:2.0,2.0;" x1="682" x2="1036" y1="413.625" y2="413.625"/><text fill="#000000" font-family="sans-serif" font-size="13" lengthAdjust="spacing" textLength="336" x="689" y="408.5591">Squash commits and merge when all checks passed</text><polygon fill="#181818" points="1281,438.7578,1291,442.7578,1281,446.7578,1285,442.7578" style="stroke:#181818;stroke-width:1.0;"/><line style="stroke:#181818;stroke-width:1.0;stroke-dasharray:2.0,2.0;" x1="1042" x2="1287" y1="442.7578" y2="442.7578"/><text fill="#000000" font-family="sans-serif" font-size="13" lengthAdjust="spacing" textLength="227" x="1049" y="437.6919">We will check out to release branch</text><polygon fill="#181818" points="1281,467.8906,1291,471.8906,1281,475.8906,1285,471.8906" style="stroke:#181818;stroke-width:1.0;"/><line style="stroke:#181818;stroke-width:1.0;stroke-dasharray:2.0,2.0;" x1="40" x2="1287" y1="471.8906" y2="471.8906"/><text fill="#000000" font-family="sans-serif" font-size="13" lengthAdjust="spacing" textLength="505" x="47" y="466.8247">Runtime versions incremented and specific commit message triggers the build</text><polygon fill="#181818" points="1281,497.0234,1291,501.0234,1281,505.0234,1285,501.0234" style="stroke:#181818;stroke-width:1.0;"/><line style="stroke:#181818;stroke-width:1.0;stroke-dasharray:2.0,2.0;" x1="202.5" x2="1287" y1="501.0234" y2="501.0234"/><text fill="#000000" font-family="sans-serif" font-size="13" lengthAdjust="spacing" textLength="119" x="209.5" y="495.9575">QA will test the RC</text><polygon fill="#181818" points="1281,526.1563,1291,530.1563,1281,534.1563,1285,530.1563" style="stroke:#181818;stroke-width:1.0;"/><line style="stroke:#181818;stroke-width:1.0;stroke-dasharray:2.0,2.0;" x1="40" x2="1287" y1="530.1563" y2="530.1563"/><text fill="#000000" font-family="sans-serif" font-size="13" lengthAdjust="spacing" textLength="234" x="47" y="525.0903">Hotfixes will be applied to RC branch</text><polygon fill="#181818" points="1652,555.2891,1662,559.2891,1652,563.2891,1656,559.2891" style="stroke:#181818;stroke-width:1.0;"/><line style="stroke:#181818;stroke-width:1.0;stroke-dasharray:2.0,2.0;" x1="1293" x2="1658" y1="559.2891" y2="559.2891"/><text fill="#000000" font-family="sans-serif" font-size="13" lengthAdjust="spacing" textLength="347" x="1300" y="554.2231">Merging into main will automatically deploy on Rococo</text><polygon fill="#181818" points="1053,584.4219,1043,588.4219,1053,592.4219,1049,588.4219" style="stroke:#181818;stroke-width:1.0;"/><line style="stroke:#181818;stroke-width:1.0;stroke-dasharray:2.0,2.0;" x1="1047" x2="1292" y1="588.4219" y2="588.4219"/><text fill="#000000" font-family="sans-serif" font-size="13" lengthAdjust="spacing" textLength="133" x="1059" y="583.356">Merging into develop</text><line style="stroke:#181818;stroke-width:1.0;stroke-dasharray:2.0,2.0;" x1="1293" x2="1335" y1="617.5547" y2="617.5547"/><line style="stroke:#181818;stroke-width:1.0;stroke-dasharray:2.0,2.0;" x1="1335" x2="1335" y1="617.5547" y2="630.5547"/><line style="stroke:#181818;stroke-width:1.0;stroke-dasharray:2.0,2.0;" x1="1294" x2="1335" y1="630.5547" y2="630.5547"/><polygon fill="#181818" points="1304,626.5547,1294,630.5547,1304,634.5547,1300,630.5547" style="stroke:#181818;stroke-width:1.0;"/><text fill="#000000" font-family="sans-serif" font-size="13" lengthAdjust="spacing" textLength="165" x="1300" y="612.4888">Release branch is deleted</text><line style="stroke:#181818;stroke-width:1.0;stroke-dasharray:2.0,2.0;" x1="1664" x2="1706" y1="659.6875" y2="659.6875"/><line style="stroke:#181818;stroke-width:1.0;stroke-dasharray:2.0,2.0;" x1="1706" x2="1706" y1="659.6875" y2="672.6875"/><line style="stroke:#181818;stroke-width:1.0;stroke-dasharray:2.0,2.0;" x1="1665" x2="1706" y1="672.6875" y2="672.6875"/><polygon fill="#181818" points="1675,668.6875,1665,672.6875,1675,676.6875,1671,672.6875" style="stroke:#181818;stroke-width:1.0;"/><text fill="#000000" font-family="sans-serif" font-size="13" lengthAdjust="spacing" textLength="519" x="1671" y="654.6216">Maunaul steps to automaticaly deploy images into GCP for Kusama and Polkadot</text><!--MD5=[e415daa7dc33907699b7622a97c3f5fb]
@startuml
actor       "Engineer"       as dev
actor       "Reviewer"       as review
actor       "QA Team"       as qa
participant "feature branch" as feature
control "Pull Request" as pr
participant "develop branch" as develop
participant "release branch" as release
participant "main branch" as main

develop - -> feature: New branch matching Jira ticket ID and short name is created
dev - -> feature: Engineer implements the feature with idividual commits.
feature - -> pr: *Pull Request* is created
pr - -> pr: e2e Tests executed
pr - -> pr: fungible environment spawned
pr - -> pr: custom build created
review - -> pr: Code review is done by the team
dev - -> pr: Code review changes are applied
qa - -> pr: QA runs isolated test cases in isolated environments
pr - -> develop: Squash commits and merge when all checks passed
develop - -> release: We will check out to release branch
dev - -> release: Runtime versions incremented and specific commit message triggers the build 
qa - -> release: QA will test the RC
dev - -> release: Hotfixes will be applied to RC branch
release - -> main: Merging into main will automatically deploy on Rococo
release - -> develop: Merging into develop
release - -> release: Release branch is deleted
main - -> main: Maunaul steps to automaticaly deploy images into GCP for Kusama and Polkadot
@enduml

PlantUML version 1.2022.13beta8(Unknown compile time)
(GPL source distribution)
Java Runtime: Java(TM) SE Runtime Environment
JVM: Java HotSpot(TM) 64-Bit Server VM
Default Encoding: UTF-8
Language: en
Country: US
--></g></svg>