<svg xmlns="http://www.w3.org/2000/svg" xmlns:xlink="http://www.w3.org/1999/xlink" contentStyleType="text/css" height="771px" preserveAspectRatio="none" style="width:2238px;height:771px;background:#FFFFFF;" version="1.1" viewBox="0 0 2238 771" width="2238px" zoomAndPan="magnify"><defs/><g><line style="stroke:#181818;stroke-width:0.5;stroke-dasharray:5.0,5.0;" x1="39" x2="39" y1="81.2969" y2="690.6875"/><line style="stroke:#181818;stroke-width:0.5;stroke-dasharray:5.0,5.0;" x1="118.3506" x2="118.3506" y1="81.2969" y2="690.6875"/><line style="stroke:#181818;stroke-width:0.5;stroke-dasharray:5.0,5.0;" x1="199.2988" x2="199.2988" y1="81.2969" y2="690.6875"/><line style="stroke:#181818;stroke-width:0.5;stroke-dasharray:5.0,5.0;" x1="432.8184" x2="432.8184" y1="81.2969" y2="690.6875"/><line style="stroke:#181818;stroke-width:0.5;stroke-dasharray:5.0,5.0;" x1="695.5835" x2="695.5835" y1="81.2969" y2="690.6875"/><line style="stroke:#181818;stroke-width:0.5;stroke-dasharray:5.0,5.0;" x1="1060.0952" x2="1060.0952" y1="81.2969" y2="690.6875"/><line style="stroke:#181818;stroke-width:0.5;stroke-dasharray:5.0,5.0;" x1="1316.6802" x2="1316.6802" y1="81.2969" y2="690.6875"/><line style="stroke:#181818;stroke-width:0.5;stroke-dasharray:5.0,5.0;" x1="1697.3286" x2="1697.3286" y1="81.2969" y2="690.6875"/><text fill="#000000" font-family="sans-serif" font-size="14" lengthAdjust="spacing" textLength="62.3506" x="5" y="77.9951">Engineer</text><ellipse cx="39.1753" cy="13.5" fill="#E2E2F0" rx="8" ry="8" style="stroke:#181818;stroke-width:0.5;"/><path d="M39.1753,21.5 L39.1753,48.5 M26.1753,29.5 L52.1753,29.5 M39.1753,48.5 L26.1753,63.5 M39.1753,48.5 L52.1753,63.5 " fill="none" style="stroke:#181818;stroke-width:0.5;"/><text fill="#000000" font-family="sans-serif" font-size="14" lengthAdjust="spacing" textLength="62.3506" x="5" y="702.6826">Engineer</text><ellipse cx="39.1753" cy="714.4844" fill="#E2E2F0" rx="8" ry="8" style="stroke:#181818;stroke-width:0.5;"/><path d="M39.1753,722.4844 L39.1753,749.4844 M26.1753,730.4844 L52.1753,730.4844 M39.1753,749.4844 L26.1753,764.4844 M39.1753,749.4844 L52.1753,764.4844 " fill="none" style="stroke:#181818;stroke-width:0.5;"/><text fill="#000000" font-family="sans-serif" font-size="14" lengthAdjust="spacing" textLength="64.9482" x="83.3506" y="77.9951">Reviewer</text><ellipse cx="118.8247" cy="13.5" fill="#E2E2F0" rx="8" ry="8" style="stroke:#181818;stroke-width:0.5;"/><path d="M118.8247,21.5 L118.8247,48.5 M105.8247,29.5 L131.8247,29.5 M118.8247,48.5 L105.8247,63.5 M118.8247,48.5 L131.8247,63.5 " fill="none" style="stroke:#181818;stroke-width:0.5;"/><text fill="#000000" font-family="sans-serif" font-size="14" lengthAdjust="spacing" textLength="64.9482" x="83.3506" y="702.6826">Reviewer</text><ellipse cx="118.8247" cy="714.4844" fill="#E2E2F0" rx="8" ry="8" style="stroke:#181818;stroke-width:0.5;"/><path d="M118.8247,722.4844 L118.8247,749.4844 M105.8247,730.4844 L131.8247,730.4844 M118.8247,749.4844 L105.8247,764.4844 M118.8247,749.4844 L131.8247,764.4844 " fill="none" style="stroke:#181818;stroke-width:0.5;"/><text fill="#000000" font-family="sans-serif" font-size="14" lengthAdjust="spacing" textLength="64.4287" x="164.2988" y="77.9951">QA Team</text><ellipse cx="199.5132" cy="13.5" fill="#E2E2F0" rx="8" ry="8" style="stroke:#181818;stroke-width:0.5;"/><path d="M199.5132,21.5 L199.5132,48.5 M186.5132,29.5 L212.5132,29.5 M199.5132,48.5 L186.5132,63.5 M199.5132,48.5 L212.5132,63.5 " fill="none" style="stroke:#181818;stroke-width:0.5;"/><text fill="#000000" font-family="sans-serif" font-size="14" lengthAdjust="spacing" textLength="64.4287" x="164.2988" y="702.6826">QA Team</text><ellipse cx="199.5132" cy="714.4844" fill="#E2E2F0" rx="8" ry="8" style="stroke:#181818;stroke-width:0.5;"/><path d="M199.5132,722.4844 L199.5132,749.4844 M186.5132,730.4844 L212.5132,730.4844 M199.5132,749.4844 L186.5132,764.4844 M199.5132,749.4844 L212.5132,764.4844 " fill="none" style="stroke:#181818;stroke-width:0.5;"/><rect fill="#E2E2F0" height="30.2969" rx="2.5" ry="2.5" style="stroke:#181818;stroke-width:0.5;" width="117.9678" x="374.8184" y="50"/><text fill="#000000" font-family="sans-serif" font-size="14" lengthAdjust="spacing" textLength="103.9678" x="381.8184" y="69.9951">feature branch</text><rect fill="#E2E2F0" height="30.2969" rx="2.5" ry="2.5" style="stroke:#181818;stroke-width:0.5;" width="117.9678" x="374.8184" y="689.6875"/><text fill="#000000" font-family="sans-serif" font-size="14" lengthAdjust="spacing" textLength="103.9678" x="381.8184" y="709.6826">feature branch</text><text fill="#000000" font-family="sans-serif" font-size="14" lengthAdjust="spacing" textLength="87.042" x="649.5835" y="77.9951">Pull Request</text><ellipse cx="696.1045" cy="49" fill="#E2E2F0" rx="12" ry="12" style="stroke:#181818;stroke-width:0.5;"/><polygon fill="#181818" points="692.1045,37,698.1045,32,696.1045,37,698.1045,42,692.1045,37" style="stroke:#181818;stroke-width:1.0;"/><text fill="#000000" font-family="sans-serif" font-size="14" lengthAdjust="spacing" textLength="87.042" x="649.5835" y="702.6826">Pull Request</text><ellipse cx="696.1045" cy="721.9844" fill="#E2E2F0" rx="12" ry="12" style="stroke:#181818;stroke-width:0.5;"/><polygon fill="#181818" points="692.1045,709.9844,698.1045,704.9844,696.1045,709.9844,698.1045,714.9844,692.1045,709.9844" style="stroke:#181818;stroke-width:1.0;"/><rect fill="#E2E2F0" height="30.2969" rx="2.5" ry="2.5" style="stroke:#181818;stroke-width:0.5;" width="122.8555" x="999.0952" y="50"/><text fill="#000000" font-family="sans-serif" font-size="14" lengthAdjust="spacing" textLength="108.8555" x="1006.0952" y="69.9951">develop branch</text><rect fill="#E2E2F0" height="30.2969" rx="2.5" ry="2.5" style="stroke:#181818;stroke-width:0.5;" width="122.8555" x="999.0952" y="689.6875"/><text fill="#000000" font-family="sans-serif" font-size="14" lengthAdjust="spacing" textLength="108.8555" x="1006.0952" y="709.6826">develop branch</text><rect fill="#E2E2F0" height="30.2969" rx="2.5" ry="2.5" style="stroke:#181818;stroke-width:0.5;" width="118.4736" x="1257.6802" y="50"/><text fill="#000000" font-family="sans-serif" font-size="14" lengthAdjust="spacing" textLength="104.4736" x="1264.6802" y="69.9951">release branch</text><rect fill="#E2E2F0" height="30.2969" rx="2.5" ry="2.5" style="stroke:#181818;stroke-width:0.5;" width="118.4736" x="1257.6802" y="689.6875"/><text fill="#000000" font-family="sans-serif" font-size="14" lengthAdjust="spacing" textLength="104.4736" x="1264.6802" y="709.6826">release branch</text><rect fill="#E2E2F0" height="30.2969" rx="2.5" ry="2.5" style="stroke:#181818;stroke-width:0.5;" width="102.0947" x="1646.3286" y="50"/><text fill="#000000" font-family="sans-serif" font-size="14" lengthAdjust="spacing" textLength="88.0947" x="1653.3286" y="69.9951">main branch</text><rect fill="#E2E2F0" height="30.2969" rx="2.5" ry="2.5" style="stroke:#181818;stroke-width:0.5;" width="102.0947" x="1646.3286" y="689.6875"/><text fill="#000000" font-family="sans-serif" font-size="14" lengthAdjust="spacing" textLength="88.0947" x="1653.3286" y="709.6826">main branch</text><polygon fill="#181818" points="444.8022,108.4297,434.8022,112.4297,444.8022,116.4297,440.8022,112.4297" style="stroke:#181818;stroke-width:1.0;"/><line style="stroke:#181818;stroke-width:1.0;stroke-dasharray:2.0,2.0;" x1="438.8022" x2="1059.5229" y1="112.4297" y2="112.4297"/><text fill="#000000" font-family="sans-serif" font-size="13" lengthAdjust="spacing" textLength="402.0859" x="450.8022" y="107.3638">New branch matching Jira ticket ID and short name is created</text><polygon fill="#181818" points="421.8022,137.5625,431.8022,141.5625,421.8022,145.5625,425.8022,141.5625" style="stroke:#181818;stroke-width:1.0;"/><line style="stroke:#181818;stroke-width:1.0;stroke-dasharray:2.0,2.0;" x1="39.1753" x2="427.8022" y1="141.5625" y2="141.5625"/><text fill="#000000" font-family="sans-serif" font-size="13" lengthAdjust="spacing" textLength="370.627" x="46.1753" y="136.4966">Engineer implements the feature with idividual commits.</text><polygon fill="#181818" points="684.1045,166.6953,694.1045,170.6953,684.1045,174.6953,688.1045,170.6953" style="stroke:#181818;stroke-width:1.0;"/><line style="stroke:#181818;stroke-width:1.0;stroke-dasharray:2.0,2.0;" x1="433.8022" x2="690.1045" y1="170.6953" y2="170.6953"/><text fill="#000000" font-family="sans-serif" font-size="13" lengthAdjust="spacing" textLength="162.2778" x="440.8022" y="165.6294">*Pull Request* is created</text><line style="stroke:#181818;stroke-width:1.0;stroke-dasharray:2.0,2.0;" x1="696.1045" x2="738.1045" y1="199.8281" y2="199.8281"/><line style="stroke:#181818;stroke-width:1.0;stroke-dasharray:2.0,2.0;" x1="738.1045" x2="738.1045" y1="199.8281" y2="212.8281"/><line style="stroke:#181818;stroke-width:1.0;stroke-dasharray:2.0,2.0;" x1="697.1045" x2="738.1045" y1="212.8281" y2="212.8281"/><polygon fill="#181818" points="707.1045,208.8281,697.1045,212.8281,707.1045,216.8281,703.1045,212.8281" style="stroke:#181818;stroke-width:1.0;"/><text fill="#000000" font-family="sans-serif" font-size="13" lengthAdjust="spacing" textLength="127.5371" x="703.1045" y="194.7622">e2e Tests executed</text><line style="stroke:#181818;stroke-width:1.0;stroke-dasharray:2.0,2.0;" x1="696.1045" x2="738.1045" y1="241.9609" y2="241.9609"/><line style="stroke:#181818;stroke-width:1.0;stroke-dasharray:2.0,2.0;" x1="738.1045" x2="738.1045" y1="241.9609" y2="254.9609"/><line style="stroke:#181818;stroke-width:1.0;stroke-dasharray:2.0,2.0;" x1="697.1045" x2="738.1045" y1="254.9609" y2="254.9609"/><polygon fill="#181818" points="707.1045,250.9609,697.1045,254.9609,707.1045,258.9609,703.1045,254.9609" style="stroke:#181818;stroke-width:1.0;"/><text fill="#000000" font-family="sans-serif" font-size="13" lengthAdjust="spacing" textLength="202.2363" x="703.1045" y="236.895">fungible environment spawned</text><line style="stroke:#181818;stroke-width:1.0;stroke-dasharray:2.0,2.0;" x1="696.1045" x2="738.1045" y1="284.0938" y2="284.0938"/><line style="stroke:#181818;stroke-width:1.0;stroke-dasharray:2.0,2.0;" x1="738.1045" x2="738.1045" y1="284.0938" y2="297.0938"/><line style="stroke:#181818;stroke-width:1.0;stroke-dasharray:2.0,2.0;" x1="697.1045" x2="738.1045" y1="297.0938" y2="297.0938"/><polygon fill="#181818" points="707.1045,293.0938,697.1045,297.0938,707.1045,301.0938,703.1045,297.0938" style="stroke:#181818;stroke-width:1.0;"/><text fill="#000000" font-family="sans-serif" font-size="13" lengthAdjust="spacing" textLength="137.9092" x="703.1045" y="279.0278">custom build created</text><polygon fill="#181818" points="684.1045,322.2266,694.1045,326.2266,684.1045,330.2266,688.1045,326.2266" style="stroke:#181818;stroke-width:1.0;"/><line style="stroke:#181818;stroke-width:1.0;stroke-dasharray:2.0,2.0;" x1="118.8247" x2="690.1045" y1="326.2266" y2="326.2266"/><text fill="#000000" font-family="sans-serif" font-size="13" lengthAdjust="spacing" textLength="215.1855" x="125.8247" y="321.1606">Code review is done by the team</text><polygon fill="#181818" points="684.1045,351.3594,694.1045,355.3594,684.1045,359.3594,688.1045,355.3594" style="stroke:#181818;stroke-width:1.0;"/><line style="stroke:#181818;stroke-width:1.0;stroke-dasharray:2.0,2.0;" x1="39.1753" x2="690.1045" y1="355.3594" y2="355.3594"/><text fill="#000000" font-family="sans-serif" font-size="13" lengthAdjust="spacing" textLength="216.9565" x="46.1753" y="350.2935">Code review changes are applied</text><polygon fill="#181818" points="684.1045,380.4922,694.1045,384.4922,684.1045,388.4922,688.1045,384.4922" style="stroke:#181818;stroke-width:1.0;"/><line style="stroke:#181818;stroke-width:1.0;stroke-dasharray:2.0,2.0;" x1="199.5132" x2="690.1045" y1="384.4922" y2="384.4922"/><text fill="#000000" font-family="sans-serif" font-size="13" lengthAdjust="spacing" textLength="342.5005" x="206.5132" y="379.4263">QA runs isolated test cases in isolated environments</text><polygon fill="#181818" points="1048.5229,409.625,1058.5229,413.625,1048.5229,417.625,1052.5229,413.625" style="stroke:#181818;stroke-width:1.0;"/><line style="stroke:#181818;stroke-width:1.0;stroke-dasharray:2.0,2.0;" x1="696.1045" x2="1054.5229" y1="413.625" y2="413.625"/><text fill="#000000" font-family="sans-serif" font-size="13" lengthAdjust="spacing" textLength="340.4185" x="703.1045" y="408.5591">Squash commits and merge when all checks passed</text><polygon fill="#181818" points="1304.917,438.7578,1314.917,442.7578,1304.917,446.7578,1308.917,442.7578" style="stroke:#181818;stroke-width:1.0;"/><line style="stroke:#181818;stroke-width:1.0;stroke-dasharray:2.0,2.0;" x1="1060.5229" x2="1310.917" y1="442.7578" y2="442.7578"/><text fill="#000000" font-family="sans-serif" font-size="13" lengthAdjust="spacing" textLength="232.394" x="1067.5229" y="437.6919">We will check out to release branch</text><polygon fill="#181818" points="1304.917,467.8906,1314.917,471.8906,1304.917,475.8906,1308.917,471.8906" style="stroke:#181818;stroke-width:1.0;"/><line style="stroke:#181818;stroke-width:1.0;stroke-dasharray:2.0,2.0;" x1="39.1753" x2="1310.917" y1="471.8906" y2="471.8906"/><text fill="#000000" font-family="sans-serif" font-size="13" lengthAdjust="spacing" textLength="514.1602" x="46.1753" y="466.8247">Runtime versions incremented and specific commit message triggers the build</text><polygon fill="#181818" points="1304.917,497.0234,1314.917,501.0234,1304.917,505.0234,1308.917,501.0234" style="stroke:#181818;stroke-width:1.0;"/><line style="stroke:#181818;stroke-width:1.0;stroke-dasharray:2.0,2.0;" x1="199.5132" x2="1310.917" y1="501.0234" y2="501.0234"/><text fill="#000000" font-family="sans-serif" font-size="13" lengthAdjust="spacing" textLength="121.5322" x="206.5132" y="495.9575">QA will test the RC</text><polygon fill="#181818" points="1304.917,526.1563,1314.917,530.1563,1304.917,534.1563,1308.917,530.1563" style="stroke:#181818;stroke-width:1.0;"/><line style="stroke:#181818;stroke-width:1.0;stroke-dasharray:2.0,2.0;" x1="39.1753" x2="1310.917" y1="530.1563" y2="530.1563"/><text fill="#000000" font-family="sans-serif" font-size="13" lengthAdjust="spacing" textLength="240.2842" x="46.1753" y="525.0903">Hotfixes will be applied to RC branch</text><polygon fill="#181818" points="1685.376,555.2891,1695.376,559.2891,1685.376,563.2891,1689.376,559.2891" style="stroke:#181818;stroke-width:1.0;"/><line style="stroke:#181818;stroke-width:1.0;stroke-dasharray:2.0,2.0;" x1="1316.917" x2="1691.376" y1="559.2891" y2="559.2891"/><text fill="#000000" font-family="sans-serif" font-size="13" lengthAdjust="spacing" textLength="356.459" x="1323.917" y="554.2231">Merging into main will automatically deploy on Rococo</text><polygon fill="#181818" points="1071.5229,584.4219,1061.5229,588.4219,1071.5229,592.4219,1067.5229,588.4219" style="stroke:#181818;stroke-width:1.0;"/><line style="stroke:#181818;stroke-width:1.0;stroke-dasharray:2.0,2.0;" x1="1065.5229" x2="1315.917" y1="588.4219" y2="588.4219"/><text fill="#000000" font-family="sans-serif" font-size="13" lengthAdjust="spacing" textLength="137.8394" x="1077.5229" y="583.356">Merging into develop</text><line style="stroke:#181818;stroke-width:1.0;stroke-dasharray:2.0,2.0;" x1="1316.917" x2="1358.917" y1="617.5547" y2="617.5547"/><line style="stroke:#181818;stroke-width:1.0;stroke-dasharray:2.0,2.0;" x1="1358.917" x2="1358.917" y1="617.5547" y2="630.5547"/><line style="stroke:#181818;stroke-width:1.0;stroke-dasharray:2.0,2.0;" x1="1317.917" x2="1358.917" y1="630.5547" y2="630.5547"/><polygon fill="#181818" points="1327.917,626.5547,1317.917,630.5547,1327.917,634.5547,1323.917,630.5547" style="stroke:#181818;stroke-width:1.0;"/><text fill="#000000" font-family="sans-serif" font-size="13" lengthAdjust="spacing" textLength="168.5557" x="1323.917" y="612.4888">Release branch is deleted</text><line style="stroke:#181818;stroke-width:1.0;stroke-dasharray:2.0,2.0;" x1="1697.376" x2="1739.376" y1="659.6875" y2="659.6875"/><line style="stroke:#181818;stroke-width:1.0;stroke-dasharray:2.0,2.0;" x1="1739.376" x2="1739.376" y1="659.6875" y2="672.6875"/><line style="stroke:#181818;stroke-width:1.0;stroke-dasharray:2.0,2.0;" x1="1698.376" x2="1739.376" y1="672.6875" y2="672.6875"/><polygon fill="#181818" points="1708.376,668.6875,1698.376,672.6875,1708.376,676.6875,1704.376,672.6875" style="stroke:#181818;stroke-width:1.0;"/><text fill="#000000" font-family="sans-serif" font-size="13" lengthAdjust="spacing" textLength="527.4775" x="1704.376" y="654.6216">Maunaul steps to automaticaly deploy images into GCP for Kusama and Polkadot</text><!--SRC=[PLHDZnCn3BtFhx1wN6avSEm12HK42mALWiJPpRWpLZD9cezszz_Zf9FPoTAUwhmyFp-_55Mq7kwVpMSpi27ocxc00NgwThZ67EZAT6imlfHQsA-Fy8TmMg4ks3dqaHKxD14s9yAOFC7Her7Z9aFcKgUiYTvgsEoJrd2WIw8G2yBvbaJaaRPkJJANMfmdJHYQPdEfnKt8PWtAlxkkTdby_50rRk4dtMQaeA8QsGpmZJs2i9qfmjCdGDD36AsFO70Yu03AotNgCsFBLgq7dfocYKmC44Ug0BXn785xldAVK8EoqyGnlElgUIPpVWiFQyiUrYsTNq3qdcGxGLhGCwdqvlIKHCjH4v2vihScYu7Wy6PQd4eXsWcEYNM_TBbdOS7iR4zpFhAMtXhPmKkPB4ey5X_UOjM8Pg00AAEXSvg5-e8BLDBbamb2QNLkAsGXWf9rIisybbSJX2fzNkOMVbyIXh5QMPOraH_4wv4CeDYeHb9d2Hs6SD_Pae8vF5lucrTJeM1JX6YXJTiov7Bfa4na2SILV62Rvp3YNrOfcaje72a-iPh5YQuGK9H5pyCWbug1T-EhBGkvU5CK5Kioxh3xNy5N6q_yB6uLw74nEQi_xAhmEaU-cb_25dw8GJdeR0HO7aiXm2H9G0c-kFOY3ZjjNy0QE5WbtuPdiR-XgezsZNorgx6pv4WgEMr5mKeT9eD9GuZaGXvbfMkHnHCE9IPo_cMtXvFyQNrF0ISirk-jFcDlupy0]--></g></svg>