<svg xmlns="http://www.w3.org/2000/svg" xmlns:xlink="http://www.w3.org/1999/xlink" contentStyleType="text/css" height="771px" preserveAspectRatio="none" style="width:2184px;height:771px;background:#FFFFFF;" version="1.1" viewBox="0 0 2184 771" width="2184px" zoomAndPan="magnify"><defs/><g><line style="stroke:#181818;stroke-width:0.5;stroke-dasharray:5.0,5.0;" x1="39" x2="39" y1="81.2969" y2="690.6875"/><line style="stroke:#181818;stroke-width:0.5;stroke-dasharray:5.0,5.0;" x1="117" x2="117" y1="81.2969" y2="690.6875"/><line style="stroke:#181818;stroke-width:0.5;stroke-dasharray:5.0,5.0;" x1="196" x2="196" y1="81.2969" y2="690.6875"/><line style="stroke:#181818;stroke-width:0.5;stroke-dasharray:5.0,5.0;" x1="421.5" x2="421.5" y1="81.2969" y2="690.6875"/><line style="stroke:#181818;stroke-width:0.5;stroke-dasharray:5.0,5.0;" x1="679.5" x2="679.5" y1="81.2969" y2="690.6875"/><line style="stroke:#181818;stroke-width:0.5;stroke-dasharray:5.0,5.0;" x1="1038.5" x2="1038.5" y1="81.2969" y2="690.6875"/><line style="stroke:#181818;stroke-width:0.5;stroke-dasharray:5.0,5.0;" x1="1285.5" x2="1285.5" y1="81.2969" y2="690.6875"/><line style="stroke:#181818;stroke-width:0.5;stroke-dasharray:5.0,5.0;" x1="1652.5" x2="1652.5" y1="81.2969" y2="690.6875"/><text fill="#000000" font-family="sans-serif" font-size="14" lengthAdjust="spacing" textLength="62" x="5" y="77.9951">Engineer</text><ellipse cx="39" cy="13.5" fill="#E2E2F0" rx="8" ry="8" style="stroke:#181818;stroke-width:0.5;"/><path d="M39,21.5 L39,48.5 M26,29.5 L52,29.5 M39,48.5 L26,63.5 M39,48.5 L52,63.5 " fill="none" style="stroke:#181818;stroke-width:0.5;"/><text fill="#000000" font-family="sans-serif" font-size="14" lengthAdjust="spacing" textLength="62" x="5" y="702.6826">Engineer</text><ellipse cx="39" cy="714.4844" fill="#E2E2F0" rx="8" ry="8" style="stroke:#181818;stroke-width:0.5;"/><path d="M39,722.4844 L39,749.4844 M26,730.4844 L52,730.4844 M39,749.4844 L26,764.4844 M39,749.4844 L52,764.4844 " fill="none" style="stroke:#181818;stroke-width:0.5;"/><text fill="#000000" font-family="sans-serif" font-size="14" lengthAdjust="spacing" textLength="63" x="83" y="77.9951">Reviewer</text><ellipse cx="117.5" cy="13.5" fill="#E2E2F0" rx="8" ry="8" style="stroke:#181818;stroke-width:0.5;"/><path d="M117.5,21.5 L117.5,48.5 M104.5,29.5 L130.5,29.5 M117.5,48.5 L104.5,63.5 M117.5,48.5 L130.5,63.5 " fill="none" style="stroke:#181818;stroke-width:0.5;"/><text fill="#000000" font-family="sans-serif" font-size="14" lengthAdjust="spacing" textLength="63" x="83" y="702.6826">Reviewer</text><ellipse cx="117.5" cy="714.4844" fill="#E2E2F0" rx="8" ry="8" style="stroke:#181818;stroke-width:0.5;"/><path d="M117.5,722.4844 L117.5,749.4844 M104.5,730.4844 L130.5,730.4844 M117.5,749.4844 L104.5,764.4844 M117.5,749.4844 L130.5,764.4844 " fill="none" style="stroke:#181818;stroke-width:0.5;"/><text fill="#000000" font-family="sans-serif" font-size="14" lengthAdjust="spacing" textLength="63" x="162" y="77.9951">QA Team</text><ellipse cx="196.5" cy="13.5" fill="#E2E2F0" rx="8" ry="8" style="stroke:#181818;stroke-width:0.5;"/><path d="M196.5,21.5 L196.5,48.5 M183.5,29.5 L209.5,29.5 M196.5,48.5 L183.5,63.5 M196.5,48.5 L209.5,63.5 " fill="none" style="stroke:#181818;stroke-width:0.5;"/><text fill="#000000" font-family="sans-serif" font-size="14" lengthAdjust="spacing" textLength="63" x="162" y="702.6826">QA Team</text><ellipse cx="196.5" cy="714.4844" fill="#E2E2F0" rx="8" ry="8" style="stroke:#181818;stroke-width:0.5;"/><path d="M196.5,722.4844 L196.5,749.4844 M183.5,730.4844 L209.5,730.4844 M196.5,749.4844 L183.5,764.4844 M196.5,749.4844 L209.5,764.4844 " fill="none" style="stroke:#181818;stroke-width:0.5;"/><rect fill="#E2E2F0" height="30.2969" rx="2.5" ry="2.5" style="stroke:#181818;stroke-width:0.5;" width="115" x="364.5" y="50"/><text fill="#000000" font-family="sans-serif" font-size="14" lengthAdjust="spacing" textLength="101" x="371.5" y="69.9951">feature branch</text><rect fill="#E2E2F0" height="30.2969" rx="2.5" ry="2.5" style="stroke:#181818;stroke-width:0.5;" width="115" x="364.5" y="689.6875"/><text fill="#000000" font-family="sans-serif" font-size="14" lengthAdjust="spacing" textLength="101" x="371.5" y="709.6826">feature branch</text><text fill="#000000" font-family="sans-serif" font-size="14" lengthAdjust="spacing" textLength="87" x="633.5" y="77.9951">Pull Request</text><ellipse cx="680" cy="49" fill="#E2E2F0" rx="12" ry="12" style="stroke:#181818;stroke-width:0.5;"/><polygon fill="#181818" points="676,37,682,32,680,37,682,42,676,37" style="stroke:#181818;stroke-width:1.0;"/><text fill="#000000" font-family="sans-serif" font-size="14" lengthAdjust="spacing" textLength="87" x="633.5" y="702.6826">Pull Request</text><ellipse cx="680" cy="721.9844" fill="#E2E2F0" rx="12" ry="12" style="stroke:#181818;stroke-width:0.5;"/><polygon fill="#181818" points="676,709.9844,682,704.9844,680,709.9844,682,714.9844,676,709.9844" style="stroke:#181818;stroke-width:1.0;"/><rect fill="#E2E2F0" height="30.2969" rx="2.5" ry="2.5" style="stroke:#181818;stroke-width:0.5;" width="121" x="978.5" y="50"/><text fill="#000000" font-family="sans-serif" font-size="14" lengthAdjust="spacing" textLength="107" x="985.5" y="69.9951">develop branch</text><rect fill="#E2E2F0" height="30.2969" rx="2.5" ry="2.5" style="stroke:#181818;stroke-width:0.5;" width="121" x="978.5" y="689.6875"/><text fill="#000000" font-family="sans-serif" font-size="14" lengthAdjust="spacing" textLength="107" x="985.5" y="709.6826">develop branch</text><rect fill="#E2E2F0" height="30.2969" rx="2.5" ry="2.5" style="stroke:#181818;stroke-width:0.5;" width="117" x="1227.5" y="50"/><text fill="#000000" font-family="sans-serif" font-size="14" lengthAdjust="spacing" textLength="103" x="1234.5" y="69.9951">release branch</text><rect fill="#E2E2F0" height="30.2969" rx="2.5" ry="2.5" style="stroke:#181818;stroke-width:0.5;" width="117" x="1227.5" y="689.6875"/><text fill="#000000" font-family="sans-serif" font-size="14" lengthAdjust="spacing" textLength="103" x="1234.5" y="709.6826">release branch</text><rect fill="#E2E2F0" height="30.2969" rx="2.5" ry="2.5" style="stroke:#181818;stroke-width:0.5;" width="99" x="1603.5" y="50"/><text fill="#000000" font-family="sans-serif" font-size="14" lengthAdjust="spacing" textLength="85" x="1610.5" y="69.9951">main branch</text><rect fill="#E2E2F0" height="30.2969" rx="2.5" ry="2.5" style="stroke:#181818;stroke-width:0.5;" width="99" x="1603.5" y="689.6875"/><text fill="#000000" font-family="sans-serif" font-size="14" lengthAdjust="spacing" textLength="85" x="1610.5" y="709.6826">main branch</text><polygon fill="#181818" points="433,108.4297,423,112.4297,433,116.4297,429,112.4297" style="stroke:#181818;stroke-width:1.0;"/><line style="stroke:#181818;stroke-width:1.0;stroke-dasharray:2.0,2.0;" x1="427" x2="1038" y1="112.4297" y2="112.4297"/><text fill="#000000" font-family="sans-serif" font-size="13" lengthAdjust="spacing" textLength="391" x="439" y="107.3638">New branch matching Jira ticket ID and short name is created</text><polygon fill="#181818" points="410,137.5625,420,141.5625,410,145.5625,414,141.5625" style="stroke:#181818;stroke-width:1.0;"/><line style="stroke:#181818;stroke-width:1.0;stroke-dasharray:2.0,2.0;" x1="39" x2="416" y1="141.5625" y2="141.5625"/><text fill="#000000" font-family="sans-serif" font-size="13" lengthAdjust="spacing" textLength="359" x="46" y="136.4966">Engineer implements the feature with idividual commits.</text><polygon fill="#181818" points="668,166.6953,678,170.6953,668,174.6953,672,170.6953" style="stroke:#181818;stroke-width:1.0;"/><line style="stroke:#181818;stroke-width:1.0;stroke-dasharray:2.0,2.0;" x1="422" x2="674" y1="170.6953" y2="170.6953"/><text fill="#000000" font-family="sans-serif" font-size="13" lengthAdjust="spacing" textLength="159" x="429" y="165.6294">*Pull Request* is created</text><line style="stroke:#181818;stroke-width:1.0;stroke-dasharray:2.0,2.0;" x1="680" x2="722" y1="199.8281" y2="199.8281"/><line style="stroke:#181818;stroke-width:1.0;stroke-dasharray:2.0,2.0;" x1="722" x2="722" y1="199.8281" y2="212.8281"/><line style="stroke:#181818;stroke-width:1.0;stroke-dasharray:2.0,2.0;" x1="681" x2="722" y1="212.8281" y2="212.8281"/><polygon fill="#181818" points="691,208.8281,681,212.8281,691,216.8281,687,212.8281" style="stroke:#181818;stroke-width:1.0;"/><text fill="#000000" font-family="sans-serif" font-size="13" lengthAdjust="spacing" textLength="125" x="687" y="194.7622">e2e Tests executed</text><line style="stroke:#181818;stroke-width:1.0;stroke-dasharray:2.0,2.0;" x1="680" x2="722" y1="241.9609" y2="241.9609"/><line style="stroke:#181818;stroke-width:1.0;stroke-dasharray:2.0,2.0;" x1="722" x2="722" y1="241.9609" y2="254.9609"/><line style="stroke:#181818;stroke-width:1.0;stroke-dasharray:2.0,2.0;" x1="681" x2="722" y1="254.9609" y2="254.9609"/><polygon fill="#181818" points="691,250.9609,681,254.9609,691,258.9609,687,254.9609" style="stroke:#181818;stroke-width:1.0;"/><text fill="#000000" font-family="sans-serif" font-size="13" lengthAdjust="spacing" textLength="195" x="687" y="236.895">fungible environment spawned</text><line style="stroke:#181818;stroke-width:1.0;stroke-dasharray:2.0,2.0;" x1="680" x2="722" y1="284.0938" y2="284.0938"/><line style="stroke:#181818;stroke-width:1.0;stroke-dasharray:2.0,2.0;" x1="722" x2="722" y1="284.0938" y2="297.0938"/><line style="stroke:#181818;stroke-width:1.0;stroke-dasharray:2.0,2.0;" x1="681" x2="722" y1="297.0938" y2="297.0938"/><polygon fill="#181818" points="691,293.0938,681,297.0938,691,301.0938,687,297.0938" style="stroke:#181818;stroke-width:1.0;"/><text fill="#000000" font-family="sans-serif" font-size="13" lengthAdjust="spacing" textLength="135" x="687" y="279.0278">custom build created</text><polygon fill="#181818" points="668,322.2266,678,326.2266,668,330.2266,672,326.2266" style="stroke:#181818;stroke-width:1.0;"/><line style="stroke:#181818;stroke-width:1.0;stroke-dasharray:2.0,2.0;" x1="117.5" x2="674" y1="326.2266" y2="326.2266"/><text fill="#000000" font-family="sans-serif" font-size="13" lengthAdjust="spacing" textLength="209" x="124.5" y="321.1606">Code review is done by the team</text><polygon fill="#181818" points="668,351.3594,678,355.3594,668,359.3594,672,355.3594" style="stroke:#181818;stroke-width:1.0;"/><line style="stroke:#181818;stroke-width:1.0;stroke-dasharray:2.0,2.0;" x1="39" x2="674" y1="355.3594" y2="355.3594"/><text fill="#000000" font-family="sans-serif" font-size="13" lengthAdjust="spacing" textLength="210" x="46" y="350.2935">Code review changes are applied</text><polygon fill="#181818" points="668,380.4922,678,384.4922,668,388.4922,672,384.4922" style="stroke:#181818;stroke-width:1.0;"/><line style="stroke:#181818;stroke-width:1.0;stroke-dasharray:2.0,2.0;" x1="196.5" x2="674" y1="384.4922" y2="384.4922"/><text fill="#000000" font-family="sans-serif" font-size="13" lengthAdjust="spacing" textLength="336" x="203.5" y="379.4263">QA runs isolated test cases in isolated environments</text><polygon fill="#181818" points="1027,409.625,1037,413.625,1027,417.625,1031,413.625" style="stroke:#181818;stroke-width:1.0;"/><line style="stroke:#181818;stroke-width:1.0;stroke-dasharray:2.0,2.0;" x1="680" x2="1033" y1="413.625" y2="413.625"/><text fill="#000000" font-family="sans-serif" font-size="13" lengthAdjust="spacing" textLength="335" x="687" y="408.5591">Squash commits and merge when all checks passed</text><polygon fill="#181818" points="1274,438.7578,1284,442.7578,1274,446.7578,1278,442.7578" style="stroke:#181818;stroke-width:1.0;"/><line style="stroke:#181818;stroke-width:1.0;stroke-dasharray:2.0,2.0;" x1="1039" x2="1280" y1="442.7578" y2="442.7578"/><text fill="#000000" font-family="sans-serif" font-size="13" lengthAdjust="spacing" textLength="223" x="1046" y="437.6919">We will check out to release branch</text><polygon fill="#181818" points="1274,467.8906,1284,471.8906,1274,475.8906,1278,471.8906" style="stroke:#181818;stroke-width:1.0;"/><line style="stroke:#181818;stroke-width:1.0;stroke-dasharray:2.0,2.0;" x1="39" x2="1280" y1="471.8906" y2="471.8906"/><text fill="#000000" font-family="sans-serif" font-size="13" lengthAdjust="spacing" textLength="502" x="46" y="466.8247">Runtime versions incremented and specific commit message triggers the build</text><polygon fill="#181818" points="1274,497.0234,1284,501.0234,1274,505.0234,1278,501.0234" style="stroke:#181818;stroke-width:1.0;"/><line style="stroke:#181818;stroke-width:1.0;stroke-dasharray:2.0,2.0;" x1="196.5" x2="1280" y1="501.0234" y2="501.0234"/><text fill="#000000" font-family="sans-serif" font-size="13" lengthAdjust="spacing" textLength="116" x="203.5" y="495.9575">QA will test the RC</text><polygon fill="#181818" points="1274,526.1563,1284,530.1563,1274,534.1563,1278,530.1563" style="stroke:#181818;stroke-width:1.0;"/><line style="stroke:#181818;stroke-width:1.0;stroke-dasharray:2.0,2.0;" x1="39" x2="1280" y1="530.1563" y2="530.1563"/><text fill="#000000" font-family="sans-serif" font-size="13" lengthAdjust="spacing" textLength="230" x="46" y="525.0903">Hotfixes will be applied to RC branch</text><polygon fill="#181818" points="1641,555.2891,1651,559.2891,1641,563.2891,1645,559.2891" style="stroke:#181818;stroke-width:1.0;"/><line style="stroke:#181818;stroke-width:1.0;stroke-dasharray:2.0,2.0;" x1="1286" x2="1647" y1="559.2891" y2="559.2891"/><text fill="#000000" font-family="sans-serif" font-size="13" lengthAdjust="spacing" textLength="343" x="1293" y="554.2231">Merging into main will automatically deploy on Rococo</text><polygon fill="#181818" points="1050,584.4219,1040,588.4219,1050,592.4219,1046,588.4219" style="stroke:#181818;stroke-width:1.0;"/><line style="stroke:#181818;stroke-width:1.0;stroke-dasharray:2.0,2.0;" x1="1044" x2="1285" y1="588.4219" y2="588.4219"/><text fill="#000000" font-family="sans-serif" font-size="13" lengthAdjust="spacing" textLength="133" x="1056" y="583.356">Merging into develop</text><line style="stroke:#181818;stroke-width:1.0;stroke-dasharray:2.0,2.0;" x1="1286" x2="1328" y1="617.5547" y2="617.5547"/><line style="stroke:#181818;stroke-width:1.0;stroke-dasharray:2.0,2.0;" x1="1328" x2="1328" y1="617.5547" y2="630.5547"/><line style="stroke:#181818;stroke-width:1.0;stroke-dasharray:2.0,2.0;" x1="1287" x2="1328" y1="630.5547" y2="630.5547"/><polygon fill="#181818" points="1297,626.5547,1287,630.5547,1297,634.5547,1293,630.5547" style="stroke:#181818;stroke-width:1.0;"/><text fill="#000000" font-family="sans-serif" font-size="13" lengthAdjust="spacing" textLength="164" x="1293" y="612.4888">Release branch is deleted</text><line style="stroke:#181818;stroke-width:1.0;stroke-dasharray:2.0,2.0;" x1="1653" x2="1695" y1="659.6875" y2="659.6875"/><line style="stroke:#181818;stroke-width:1.0;stroke-dasharray:2.0,2.0;" x1="1695" x2="1695" y1="659.6875" y2="672.6875"/><line style="stroke:#181818;stroke-width:1.0;stroke-dasharray:2.0,2.0;" x1="1654" x2="1695" y1="672.6875" y2="672.6875"/><polygon fill="#181818" points="1664,668.6875,1654,672.6875,1664,676.6875,1660,672.6875" style="stroke:#181818;stroke-width:1.0;"/><text fill="#000000" font-family="sans-serif" font-size="13" lengthAdjust="spacing" textLength="517" x="1660" y="654.6216">Maunaul steps to automaticaly deploy images into GCP for Kusama and Polkadot</text><!--SRC=[PLHDZnCn3BtFhx1wN6avSEm12HK42mALWiJPpRWpLZD9cezszz_Zf9FPoTAUwhmyFp-_55Mq7kwVpMSpi27ocxc00NgwThZ67EZAT6imlfHQsA-Fy8TmMg4ks3dqaHKxD14s9yAOFC7Her7Z9aFcKgUiYTvgsEoJrd2WIw8G2yBvbaJaaRPkJJANMfmdJHYQPdEfnKt8PWtAlxkkTdby_50rRk4dtMQaeA8QsGpmZJs2i9qfmjCdGDD36AsFO70Yu03AotNgCsFBLgq7dfocYKmC44Ug0BXn785xldAVK8EoqyGnlElgUIPpVWiFQyiUrYsTNq3qdcGxGLhGCwdqvlIKHCjH4v2vihScYu7Wy6PQd4eXsWcEYNM_TBbdOS7iR4zpFhAMtXhPmKkPB4ey5X_UOjM8Pg00AAEXSvg5-e8BLDBbamb2QNLkAsGXWf9rIisybbSJX2fzNkOMVbyIXh5QMPOraH_4wv4CeDYeHb9d2Hs6SD_Pae8vF5lucrTJeM1JX6YXJTiov7Bfa4na2SILV62Rvp3YNrOfcaje72a-iPh5YQuGK9H5pyCWbug1T-EhBGkvU5CK5Kioxh3xNy5N6q_yB6uLw74nEQi_xAhmEaU-cb_25dw8GJdeR0HO7aiXm2H9G0c-kFOY3ZjjNy0QE5WbtuPdiR-XgezsZNorgx6pv4WgEMr5mKeT9eD9GuZaGXvbfMkHnHCE9IPo_cMtXvFyQNrF0ISirk-jFcDlupy0]--></g></svg>