<?xml version="1.0" encoding="UTF-8" standalone="no"?><svg xmlns="http://www.w3.org/2000/svg" xmlns:xlink="http://www.w3.org/1999/xlink" contentStyleType="text/css" height="570px" preserveAspectRatio="none" style="width:1378px;height:570px;background:#FFFFFF;" version="1.1" viewBox="0 0 1378 570" width="1378px" zoomAndPan="magnify"><defs/><g><line style="stroke:#181818;stroke-width:0.5;stroke-dasharray:5.0,5.0;" x1="40" x2="40" y1="81.2969" y2="489.8906"/><line style="stroke:#181818;stroke-width:0.5;stroke-dasharray:5.0,5.0;" x1="121" x2="121" y1="81.2969" y2="489.8906"/><line style="stroke:#181818;stroke-width:0.5;stroke-dasharray:5.0,5.0;" x1="202" x2="202" y1="81.2969" y2="489.8906"/><line style="stroke:#181818;stroke-width:0.5;stroke-dasharray:5.0,5.0;" x1="426.5" x2="426.5" y1="81.2969" y2="489.8906"/><line style="stroke:#181818;stroke-width:0.5;stroke-dasharray:5.0,5.0;" x1="611" x2="611" y1="81.2969" y2="489.8906"/><line style="stroke:#181818;stroke-width:0.5;stroke-dasharray:5.0,5.0;" x1="970.5" x2="970.5" y1="81.2969" y2="489.8906"/><text fill="#000000" font-family="sans-serif" font-size="14" lengthAdjust="spacing" textLength="64" x="5" y="77.9951">Engineer</text><ellipse cx="40" cy="13.5" fill="#E2E2F0" rx="8" ry="8" style="stroke:#181818;stroke-width:0.5;"/><path d="M40,21.5 L40,48.5 M27,29.5 L53,29.5 M40,48.5 L27,63.5 M40,48.5 L53,63.5 " fill="none" style="stroke:#181818;stroke-width:0.5;"/><text fill="#000000" font-family="sans-serif" font-size="14" lengthAdjust="spacing" textLength="64" x="5" y="501.8857">Engineer</text><ellipse cx="40" cy="513.6875" fill="#E2E2F0" rx="8" ry="8" style="stroke:#181818;stroke-width:0.5;"/><path d="M40,521.6875 L40,548.6875 M27,529.6875 L53,529.6875 M40,548.6875 L27,563.6875 M40,548.6875 L53,563.6875 " fill="none" style="stroke:#181818;stroke-width:0.5;"/><text fill="#000000" font-family="sans-serif" font-size="14" lengthAdjust="spacing" textLength="66" x="85" y="77.9951">Reviewer</text><ellipse cx="121" cy="13.5" fill="#E2E2F0" rx="8" ry="8" style="stroke:#181818;stroke-width:0.5;"/><path d="M121,21.5 L121,48.5 M108,29.5 L134,29.5 M121,48.5 L108,63.5 M121,48.5 L134,63.5 " fill="none" style="stroke:#181818;stroke-width:0.5;"/><text fill="#000000" font-family="sans-serif" font-size="14" lengthAdjust="spacing" textLength="66" x="85" y="501.8857">Reviewer</text><ellipse cx="121" cy="513.6875" fill="#E2E2F0" rx="8" ry="8" style="stroke:#181818;stroke-width:0.5;"/><path d="M121,521.6875 L121,548.6875 M108,529.6875 L134,529.6875 M121,548.6875 L108,563.6875 M121,548.6875 L134,563.6875 " fill="none" style="stroke:#181818;stroke-width:0.5;"/><text fill="#000000" font-family="sans-serif" font-size="14" lengthAdjust="spacing" textLength="65" x="167" y="77.9951">QA Team</text><ellipse cx="202.5" cy="13.5" fill="#E2E2F0" rx="8" ry="8" style="stroke:#181818;stroke-width:0.5;"/><path d="M202.5,21.5 L202.5,48.5 M189.5,29.5 L215.5,29.5 M202.5,48.5 L189.5,63.5 M202.5,48.5 L215.5,63.5 " fill="none" style="stroke:#181818;stroke-width:0.5;"/><text fill="#000000" font-family="sans-serif" font-size="14" lengthAdjust="spacing" textLength="65" x="167" y="501.8857">QA Team</text><ellipse cx="202.5" cy="513.6875" fill="#E2E2F0" rx="8" ry="8" style="stroke:#181818;stroke-width:0.5;"/><path d="M202.5,521.6875 L202.5,548.6875 M189.5,529.6875 L215.5,529.6875 M202.5,548.6875 L189.5,563.6875 M202.5,548.6875 L215.5,563.6875 " fill="none" style="stroke:#181818;stroke-width:0.5;"/><rect fill="#E2E2F0" height="30.2969" rx="2.5" ry="2.5" style="stroke:#181818;stroke-width:0.5;" width="121" x="366.5" y="50"/><text fill="#000000" font-family="sans-serif" font-size="14" lengthAdjust="spacing" textLength="107" x="373.5" y="69.9951">feature branch</text><rect fill="#E2E2F0" height="30.2969" rx="2.5" ry="2.5" style="stroke:#181818;stroke-width:0.5;" width="121" x="366.5" y="488.8906"/><text fill="#000000" font-family="sans-serif" font-size="14" lengthAdjust="spacing" textLength="107" x="373.5" y="508.8857">feature branch</text><text fill="#000000" font-family="sans-serif" font-size="14" lengthAdjust="spacing" textLength="88" x="564" y="77.9951">Pull Request</text><ellipse cx="611" cy="49" fill="#E2E2F0" rx="12" ry="12" style="stroke:#181818;stroke-width:0.5;"/><polygon fill="#181818" points="607,37,613,32,611,37,613,42,607,37" style="stroke:#181818;stroke-width:1.0;"/><text fill="#000000" font-family="sans-serif" font-size="14" lengthAdjust="spacing" textLength="88" x="564" y="501.8857">Pull Request</text><ellipse cx="611" cy="521.1875" fill="#E2E2F0" rx="12" ry="12" style="stroke:#181818;stroke-width:0.5;"/><polygon fill="#181818" points="607,509.1875,613,504.1875,611,509.1875,613,514.1875,607,509.1875" style="stroke:#181818;stroke-width:1.0;"/><rect fill="#E2E2F0" height="30.2969" rx="2.5" ry="2.5" style="stroke:#181818;stroke-width:0.5;" width="103" x="919.5" y="50"/><text fill="#000000" font-family="sans-serif" font-size="14" lengthAdjust="spacing" textLength="89" x="926.5" y="69.9951">main branch</text><rect fill="#E2E2F0" height="30.2969" rx="2.5" ry="2.5" style="stroke:#181818;stroke-width:0.5;" width="103" x="919.5" y="488.8906"/><text fill="#000000" font-family="sans-serif" font-size="14" lengthAdjust="spacing" textLength="89" x="926.5" y="508.8857">main branch</text><polygon fill="#181818" points="438,108.4297,428,112.4297,438,116.4297,434,112.4297" style="stroke:#181818;stroke-width:1.0;"/><line style="stroke:#181818;stroke-width:1.0;stroke-dasharray:2.0,2.0;" x1="432" x2="970" y1="112.4297" y2="112.4297"/><text fill="#000000" font-family="sans-serif" font-size="13" lengthAdjust="spacing" textLength="393" x="444" y="107.3638">New branch matching Jira ticket ID and short name is created</text><polygon fill="#181818" points="415,137.5625,425,141.5625,415,145.5625,419,141.5625" style="stroke:#181818;stroke-width:1.0;"/><line style="stroke:#181818;stroke-width:1.0;stroke-dasharray:2.0,2.0;" x1="40" x2="421" y1="141.5625" y2="141.5625"/><text fill="#000000" font-family="sans-serif" font-size="13" lengthAdjust="spacing" textLength="363" x="47" y="136.4966">Engineer implements the feature with idividual commits.</text><polygon fill="#181818" points="599,166.6953,609,170.6953,599,174.6953,603,170.6953" style="stroke:#181818;stroke-width:1.0;"/><line style="stroke:#181818;stroke-width:1.0;stroke-dasharray:2.0,2.0;" x1="427" x2="605" y1="170.6953" y2="170.6953"/><text fill="#000000" font-family="sans-serif" font-size="13" lengthAdjust="spacing" textLength="160" x="434" y="165.6294">*Pull Request* is created</text><line style="stroke:#181818;stroke-width:1.0;stroke-dasharray:2.0,2.0;" x1="611" x2="653" y1="199.8281" y2="199.8281"/><line style="stroke:#181818;stroke-width:1.0;stroke-dasharray:2.0,2.0;" x1="653" x2="653" y1="199.8281" y2="212.8281"/><line style="stroke:#181818;stroke-width:1.0;stroke-dasharray:2.0,2.0;" x1="612" x2="653" y1="212.8281" y2="212.8281"/><polygon fill="#181818" points="622,208.8281,612,212.8281,622,216.8281,618,212.8281" style="stroke:#181818;stroke-width:1.0;"/><text fill="#000000" font-family="sans-serif" font-size="13" lengthAdjust="spacing" textLength="150" x="618" y="194.7622">Unit tests are executed</text><polygon fill="#181818" points="599,237.9609,609,241.9609,599,245.9609,603,241.9609" style="stroke:#181818;stroke-width:1.0;"/><line style="stroke:#181818;stroke-width:1.0;stroke-dasharray:2.0,2.0;" x1="121" x2="605" y1="241.9609" y2="241.9609"/><text fill="#000000" font-family="sans-serif" font-size="13" lengthAdjust="spacing" textLength="213" x="128" y="236.895">Code review is done by the team</text><polygon fill="#181818" points="599,267.0938,609,271.0938,599,275.0938,603,271.0938" style="stroke:#181818;stroke-width:1.0;"/><line style="stroke:#181818;stroke-width:1.0;stroke-dasharray:2.0,2.0;" x1="40" x2="605" y1="271.0938" y2="271.0938"/><text fill="#000000" font-family="sans-serif" font-size="13" lengthAdjust="spacing" textLength="213" x="47" y="266.0278">Code review changes are applied</text><polygon fill="#181818" points="959,296.2266,969,300.2266,959,304.2266,963,300.2266" style="stroke:#181818;stroke-width:1.0;"/><line style="stroke:#181818;stroke-width:1.0;stroke-dasharray:2.0,2.0;" x1="611" x2="965" y1="300.2266" y2="300.2266"/><text fill="#000000" font-family="sans-serif" font-size="13" lengthAdjust="spacing" textLength="336" x="618" y="295.1606">Squash commits and merge when all checks passed</text><line style="stroke:#181818;stroke-width:1.0;stroke-dasharray:2.0,2.0;" x1="971" x2="1013" y1="329.3594" y2="329.3594"/><line style="stroke:#181818;stroke-width:1.0;stroke-dasharray:2.0,2.0;" x1="1013" x2="1013" y1="329.3594" y2="342.3594"/><line style="stroke:#181818;stroke-width:1.0;stroke-dasharray:2.0,2.0;" x1="972" x2="1013" y1="342.3594" y2="342.3594"/><polygon fill="#181818" points="982,338.3594,972,342.3594,982,346.3594,978,342.3594" style="stroke:#181818;stroke-width:1.0;"/><text fill="#000000" font-family="sans-serif" font-size="13" lengthAdjust="spacing" textLength="274" x="978" y="324.2935">Automatic deploy on develop environment</text><polygon fill="#181818" points="959,367.4922,969,371.4922,959,375.4922,963,371.4922" style="stroke:#181818;stroke-width:1.0;"/><line style="stroke:#181818;stroke-width:1.0;stroke-dasharray:2.0,2.0;" x1="202.5" x2="965" y1="371.4922" y2="371.4922"/><text fill="#000000" font-family="sans-serif" font-size="13" lengthAdjust="spacing" textLength="221" x="209.5" y="366.4263">QA team runs requered test cases</text><polygon fill="#181818" points="959,396.625,969,400.625,959,404.625,963,400.625" style="stroke:#181818;stroke-width:1.0;"/><line style="stroke:#181818;stroke-width:1.0;stroke-dasharray:2.0,2.0;" x1="40" x2="965" y1="400.625" y2="400.625"/><text fill="#000000" font-family="sans-serif" font-size="13" lengthAdjust="spacing" textLength="331" x="47" y="395.5591">Release to production will be triggered by git *TAG*</text><line style="stroke:#181818;stroke-width:1.0;stroke-dasharray:2.0,2.0;" x1="971" x2="1013" y1="429.7578" y2="429.7578"/><line style="stroke:#181818;stroke-width:1.0;stroke-dasharray:2.0,2.0;" x1="1013" x2="1013" y1="429.7578" y2="442.7578"/><line style="stroke:#181818;stroke-width:1.0;stroke-dasharray:2.0,2.0;" x1="972" x2="1013" y1="442.7578" y2="442.7578"/><polygon fill="#181818" points="982,438.7578,972,442.7578,982,446.7578,978,442.7578" style="stroke:#181818;stroke-width:1.0;"/><text fill="#000000" font-family="sans-serif" font-size="13" lengthAdjust="spacing" textLength="393" x="978" y="424.6919">Automation will increase the version and generate changelog</text><polygon fill="#181818" points="959,467.8906,969,471.8906,959,475.8906,963,471.8906" style="stroke:#181818;stroke-width:1.0;"/><line style="stroke:#181818;stroke-width:1.0;stroke-dasharray:2.0,2.0;" x1="40" x2="965" y1="471.8906" y2="471.8906"/><text fill="#000000" font-family="sans-serif" font-size="13" lengthAdjust="spacing" textLength="406" x="47" y="466.8247">Hotfixes will be commited and released as a new patch version</text><!--MD5=[f1e7b5993ce590c64554d4c91cd317f6]
@startuml
actor       "Engineer"       as dev
actor       "Reviewer"       as review
actor       "QA Team"       as qa
participant "feature branch" as feature
control "Pull Request" as pr
participant "main branch" as main

main - -> feature: New branch matching Jira ticket ID and short name is created
dev - -> feature: Engineer implements the feature with idividual commits.
feature - -> pr: *Pull Request* is created
pr - -> pr: Unit tests are executed
review - -> pr: Code review is done by the team
dev - -> pr: Code review changes are applied
pr - -> main: Squash commits and merge when all checks passed
main - -> main: Automatic deploy on develop environment
qa - -> main: QA team runs requered test cases
dev - -> main: Release to production will be triggered by git *TAG*
main - -> main: Automation will increase the version and generate changelog
dev - -> main: Hotfixes will be commited and released as a new patch version
@enduml

PlantUML version 1.2022.14beta1(Unknown compile time)
(GPL source distribution)
Java Runtime: Java(TM) SE Runtime Environment
JVM: Java HotSpot(TM) 64-Bit Server VM
Default Encoding: UTF-8
Language: en
Country: US
--></g></svg>