<svg xmlns="http://www.w3.org/2000/svg" xmlns:xlink="http://www.w3.org/1999/xlink" contentStyleType="text/css" height="570px" preserveAspectRatio="none" style="width:1368px;height:570px;background:#FFFFFF;" version="1.1" viewBox="0 0 1368 570" width="1368px" zoomAndPan="magnify"><defs/><g><line style="stroke:#181818;stroke-width:0.5;stroke-dasharray:5.0,5.0;" x1="39" x2="39" y1="81.2969" y2="489.8906"/><line style="stroke:#181818;stroke-width:0.5;stroke-dasharray:5.0,5.0;" x1="117" x2="117" y1="81.2969" y2="489.8906"/><line style="stroke:#181818;stroke-width:0.5;stroke-dasharray:5.0,5.0;" x1="196" x2="196" y1="81.2969" y2="489.8906"/><line style="stroke:#181818;stroke-width:0.5;stroke-dasharray:5.0,5.0;" x1="421.5" x2="421.5" y1="81.2969" y2="489.8906"/><line style="stroke:#181818;stroke-width:0.5;stroke-dasharray:5.0,5.0;" x1="604.5" x2="604.5" y1="81.2969" y2="489.8906"/><line style="stroke:#181818;stroke-width:0.5;stroke-dasharray:5.0,5.0;" x1="963.5" x2="963.5" y1="81.2969" y2="489.8906"/><text fill="#000000" font-family="sans-serif" font-size="14" lengthAdjust="spacing" textLength="62" x="5" y="77.9951">Engineer</text><ellipse cx="39" cy="13.5" fill="#E2E2F0" rx="8" ry="8" style="stroke:#181818;stroke-width:0.5;"/><path d="M39,21.5 L39,48.5 M26,29.5 L52,29.5 M39,48.5 L26,63.5 M39,48.5 L52,63.5 " fill="none" style="stroke:#181818;stroke-width:0.5;"/><text fill="#000000" font-family="sans-serif" font-size="14" lengthAdjust="spacing" textLength="62" x="5" y="501.8857">Engineer</text><ellipse cx="39" cy="513.6875" fill="#E2E2F0" rx="8" ry="8" style="stroke:#181818;stroke-width:0.5;"/><path d="M39,521.6875 L39,548.6875 M26,529.6875 L52,529.6875 M39,548.6875 L26,563.6875 M39,548.6875 L52,563.6875 " fill="none" style="stroke:#181818;stroke-width:0.5;"/><text fill="#000000" font-family="sans-serif" font-size="14" lengthAdjust="spacing" textLength="63" x="83" y="77.9951">Reviewer</text><ellipse cx="117.5" cy="13.5" fill="#E2E2F0" rx="8" ry="8" style="stroke:#181818;stroke-width:0.5;"/><path d="M117.5,21.5 L117.5,48.5 M104.5,29.5 L130.5,29.5 M117.5,48.5 L104.5,63.5 M117.5,48.5 L130.5,63.5 " fill="none" style="stroke:#181818;stroke-width:0.5;"/><text fill="#000000" font-family="sans-serif" font-size="14" lengthAdjust="spacing" textLength="63" x="83" y="501.8857">Reviewer</text><ellipse cx="117.5" cy="513.6875" fill="#E2E2F0" rx="8" ry="8" style="stroke:#181818;stroke-width:0.5;"/><path d="M117.5,521.6875 L117.5,548.6875 M104.5,529.6875 L130.5,529.6875 M117.5,548.6875 L104.5,563.6875 M117.5,548.6875 L130.5,563.6875 " fill="none" style="stroke:#181818;stroke-width:0.5;"/><text fill="#000000" font-family="sans-serif" font-size="14" lengthAdjust="spacing" textLength="63" x="162" y="77.9951">QA Team</text><ellipse cx="196.5" cy="13.5" fill="#E2E2F0" rx="8" ry="8" style="stroke:#181818;stroke-width:0.5;"/><path d="M196.5,21.5 L196.5,48.5 M183.5,29.5 L209.5,29.5 M196.5,48.5 L183.5,63.5 M196.5,48.5 L209.5,63.5 " fill="none" style="stroke:#181818;stroke-width:0.5;"/><text fill="#000000" font-family="sans-serif" font-size="14" lengthAdjust="spacing" textLength="63" x="162" y="501.8857">QA Team</text><ellipse cx="196.5" cy="513.6875" fill="#E2E2F0" rx="8" ry="8" style="stroke:#181818;stroke-width:0.5;"/><path d="M196.5,521.6875 L196.5,548.6875 M183.5,529.6875 L209.5,529.6875 M196.5,548.6875 L183.5,563.6875 M196.5,548.6875 L209.5,563.6875 " fill="none" style="stroke:#181818;stroke-width:0.5;"/><rect fill="#E2E2F0" height="30.2969" rx="2.5" ry="2.5" style="stroke:#181818;stroke-width:0.5;" width="115" x="364.5" y="50"/><text fill="#000000" font-family="sans-serif" font-size="14" lengthAdjust="spacing" textLength="101" x="371.5" y="69.9951">feature branch</text><rect fill="#E2E2F0" height="30.2969" rx="2.5" ry="2.5" style="stroke:#181818;stroke-width:0.5;" width="115" x="364.5" y="488.8906"/><text fill="#000000" font-family="sans-serif" font-size="14" lengthAdjust="spacing" textLength="101" x="371.5" y="508.8857">feature branch</text><text fill="#000000" font-family="sans-serif" font-size="14" lengthAdjust="spacing" textLength="87" x="558.5" y="77.9951">Pull Request</text><ellipse cx="605" cy="49" fill="#E2E2F0" rx="12" ry="12" style="stroke:#181818;stroke-width:0.5;"/><polygon fill="#181818" points="601,37,607,32,605,37,607,42,601,37" style="stroke:#181818;stroke-width:1.0;"/><text fill="#000000" font-family="sans-serif" font-size="14" lengthAdjust="spacing" textLength="87" x="558.5" y="501.8857">Pull Request</text><ellipse cx="605" cy="521.1875" fill="#E2E2F0" rx="12" ry="12" style="stroke:#181818;stroke-width:0.5;"/><polygon fill="#181818" points="601,509.1875,607,504.1875,605,509.1875,607,514.1875,601,509.1875" style="stroke:#181818;stroke-width:1.0;"/><rect fill="#E2E2F0" height="30.2969" rx="2.5" ry="2.5" style="stroke:#181818;stroke-width:0.5;" width="99" x="914.5" y="50"/><text fill="#000000" font-family="sans-serif" font-size="14" lengthAdjust="spacing" textLength="85" x="921.5" y="69.9951">main branch</text><rect fill="#E2E2F0" height="30.2969" rx="2.5" ry="2.5" style="stroke:#181818;stroke-width:0.5;" width="99" x="914.5" y="488.8906"/><text fill="#000000" font-family="sans-serif" font-size="14" lengthAdjust="spacing" textLength="85" x="921.5" y="508.8857">main branch</text><polygon fill="#181818" points="433,108.4297,423,112.4297,433,116.4297,429,112.4297" style="stroke:#181818;stroke-width:1.0;"/><line style="stroke:#181818;stroke-width:1.0;stroke-dasharray:2.0,2.0;" x1="427" x2="963" y1="112.4297" y2="112.4297"/><text fill="#000000" font-family="sans-serif" font-size="13" lengthAdjust="spacing" textLength="391" x="439" y="107.3638">New branch matching Jira ticket ID and short name is created</text><polygon fill="#181818" points="410,137.5625,420,141.5625,410,145.5625,414,141.5625" style="stroke:#181818;stroke-width:1.0;"/><line style="stroke:#181818;stroke-width:1.0;stroke-dasharray:2.0,2.0;" x1="39" x2="416" y1="141.5625" y2="141.5625"/><text fill="#000000" font-family="sans-serif" font-size="13" lengthAdjust="spacing" textLength="359" x="46" y="136.4966">Engineer implements the feature with idividual commits.</text><polygon fill="#181818" points="593,166.6953,603,170.6953,593,174.6953,597,170.6953" style="stroke:#181818;stroke-width:1.0;"/><line style="stroke:#181818;stroke-width:1.0;stroke-dasharray:2.0,2.0;" x1="422" x2="599" y1="170.6953" y2="170.6953"/><text fill="#000000" font-family="sans-serif" font-size="13" lengthAdjust="spacing" textLength="159" x="429" y="165.6294">*Pull Request* is created</text><line style="stroke:#181818;stroke-width:1.0;stroke-dasharray:2.0,2.0;" x1="605" x2="647" y1="199.8281" y2="199.8281"/><line style="stroke:#181818;stroke-width:1.0;stroke-dasharray:2.0,2.0;" x1="647" x2="647" y1="199.8281" y2="212.8281"/><line style="stroke:#181818;stroke-width:1.0;stroke-dasharray:2.0,2.0;" x1="606" x2="647" y1="212.8281" y2="212.8281"/><polygon fill="#181818" points="616,208.8281,606,212.8281,616,216.8281,612,212.8281" style="stroke:#181818;stroke-width:1.0;"/><text fill="#000000" font-family="sans-serif" font-size="13" lengthAdjust="spacing" textLength="150" x="612" y="194.7622">Unit tests are executed</text><polygon fill="#181818" points="593,237.9609,603,241.9609,593,245.9609,597,241.9609" style="stroke:#181818;stroke-width:1.0;"/><line style="stroke:#181818;stroke-width:1.0;stroke-dasharray:2.0,2.0;" x1="117.5" x2="599" y1="241.9609" y2="241.9609"/><text fill="#000000" font-family="sans-serif" font-size="13" lengthAdjust="spacing" textLength="209" x="124.5" y="236.895">Code review is done by the team</text><polygon fill="#181818" points="593,267.0938,603,271.0938,593,275.0938,597,271.0938" style="stroke:#181818;stroke-width:1.0;"/><line style="stroke:#181818;stroke-width:1.0;stroke-dasharray:2.0,2.0;" x1="39" x2="599" y1="271.0938" y2="271.0938"/><text fill="#000000" font-family="sans-serif" font-size="13" lengthAdjust="spacing" textLength="210" x="46" y="266.0278">Code review changes are applied</text><polygon fill="#181818" points="952,296.2266,962,300.2266,952,304.2266,956,300.2266" style="stroke:#181818;stroke-width:1.0;"/><line style="stroke:#181818;stroke-width:1.0;stroke-dasharray:2.0,2.0;" x1="605" x2="958" y1="300.2266" y2="300.2266"/><text fill="#000000" font-family="sans-serif" font-size="13" lengthAdjust="spacing" textLength="335" x="612" y="295.1606">Squash commits and merge when all checks passed</text><line style="stroke:#181818;stroke-width:1.0;stroke-dasharray:2.0,2.0;" x1="964" x2="1006" y1="329.3594" y2="329.3594"/><line style="stroke:#181818;stroke-width:1.0;stroke-dasharray:2.0,2.0;" x1="1006" x2="1006" y1="329.3594" y2="342.3594"/><line style="stroke:#181818;stroke-width:1.0;stroke-dasharray:2.0,2.0;" x1="965" x2="1006" y1="342.3594" y2="342.3594"/><polygon fill="#181818" points="975,338.3594,965,342.3594,975,346.3594,971,342.3594" style="stroke:#181818;stroke-width:1.0;"/><text fill="#000000" font-family="sans-serif" font-size="13" lengthAdjust="spacing" textLength="271" x="971" y="324.2935">Automatic deploy on develop environment</text><polygon fill="#181818" points="952,367.4922,962,371.4922,952,375.4922,956,371.4922" style="stroke:#181818;stroke-width:1.0;"/><line style="stroke:#181818;stroke-width:1.0;stroke-dasharray:2.0,2.0;" x1="196.5" x2="958" y1="371.4922" y2="371.4922"/><text fill="#000000" font-family="sans-serif" font-size="13" lengthAdjust="spacing" textLength="221" x="203.5" y="366.4263">QA team runs requered test cases</text><polygon fill="#181818" points="952,396.625,962,400.625,952,404.625,956,400.625" style="stroke:#181818;stroke-width:1.0;"/><line style="stroke:#181818;stroke-width:1.0;stroke-dasharray:2.0,2.0;" x1="39" x2="958" y1="400.625" y2="400.625"/><text fill="#000000" font-family="sans-serif" font-size="13" lengthAdjust="spacing" textLength="326" x="46" y="395.5591">Release to production will be triggered by git *TAG*</text><line style="stroke:#181818;stroke-width:1.0;stroke-dasharray:2.0,2.0;" x1="964" x2="1006" y1="429.7578" y2="429.7578"/><line style="stroke:#181818;stroke-width:1.0;stroke-dasharray:2.0,2.0;" x1="1006" x2="1006" y1="429.7578" y2="442.7578"/><line style="stroke:#181818;stroke-width:1.0;stroke-dasharray:2.0,2.0;" x1="965" x2="1006" y1="442.7578" y2="442.7578"/><polygon fill="#181818" points="975,438.7578,965,442.7578,975,446.7578,971,442.7578" style="stroke:#181818;stroke-width:1.0;"/><text fill="#000000" font-family="sans-serif" font-size="13" lengthAdjust="spacing" textLength="390" x="971" y="424.6919">Automation will increase the version and generate changelog</text><polygon fill="#181818" points="952,467.8906,962,471.8906,952,475.8906,956,471.8906" style="stroke:#181818;stroke-width:1.0;"/><line style="stroke:#181818;stroke-width:1.0;stroke-dasharray:2.0,2.0;" x1="39" x2="958" y1="471.8906" y2="471.8906"/><text fill="#000000" font-family="sans-serif" font-size="13" lengthAdjust="spacing" textLength="400" x="46" y="466.8247">Hotfixes will be commited and released as a new patch version</text><!--SRC=[TP9DRjmm38NtFWNXvG3f0MPHOD0MRRCeacbw04PcR28ofQ5aJtBxKlwh9q2zC_NuI7uakXmKvg_-9YqBaTPB01CqD5QurvnfPBhUQ7GAtSeUJ_14sEzK5wmYQcR74IL3_KAO1oLuLXJNrKMoX2eN96lmK3yCtiEPBWEbF2cYtfhqoB9tAFzLDKNlxZwlXaVuHTT5PfBiEfOMxbaHpEgLClpy2YWDf2ve1i6UW1CujNHgAcDmwxPo0kwZfvua9yWThGAuSkw06nwv6T232ttFENsgrlTY5lK8X_ryXtt9g9leZt26R884QBdqHcueafdw9liI6besKOoQ88RsVMehsoAs8JvgNOVIqkoDCNh-LxrWFCBlou2fMuUOCFMahKtPaG3Q0AuZzsgxmPGiUOC_fv-670mvEpkbwCCx12b7HJv481bPWnI0rGLtINOzfMdGGSfv6H-bPe803XEbRPfPVYPF5eOSRBpG32wpLRcozVPiKUMsdGoCHsim3q-dxuV_zRacifHT55CZE9AcybA6Rqb8RKaBEH_Q3zty2Fc5tmpfsi2CpkgNT9rxRSgr8eXj89Q3N4ly1G00]--></g></svg>