<svg xmlns="http://www.w3.org/2000/svg" xmlns:xlink="http://www.w3.org/1999/xlink" contentStyleType="text/css" height="570px" preserveAspectRatio="none" style="width:1399px;height:570px;background:#FFFFFF;" version="1.1" viewBox="0 0 1399 570" width="1399px" zoomAndPan="magnify"><defs/><g><line style="stroke:#181818;stroke-width:0.5;stroke-dasharray:5.0,5.0;" x1="39" x2="39" y1="81.2969" y2="489.8906"/><line style="stroke:#181818;stroke-width:0.5;stroke-dasharray:5.0,5.0;" x1="118.3506" x2="118.3506" y1="81.2969" y2="489.8906"/><line style="stroke:#181818;stroke-width:0.5;stroke-dasharray:5.0,5.0;" x1="199.2988" x2="199.2988" y1="81.2969" y2="489.8906"/><line style="stroke:#181818;stroke-width:0.5;stroke-dasharray:5.0,5.0;" x1="432.8184" x2="432.8184" y1="81.2969" y2="489.8906"/><line style="stroke:#181818;stroke-width:0.5;stroke-dasharray:5.0,5.0;" x1="619.5591" x2="619.5591" y1="81.2969" y2="489.8906"/><line style="stroke:#181818;stroke-width:0.5;stroke-dasharray:5.0,5.0;" x1="984.4512" x2="984.4512" y1="81.2969" y2="489.8906"/><text fill="#000000" font-family="sans-serif" font-size="14" lengthAdjust="spacing" textLength="62.3506" x="5" y="77.9951">Engineer</text><ellipse cx="39.1753" cy="13.5" fill="#E2E2F0" rx="8" ry="8" style="stroke:#181818;stroke-width:0.5;"/><path d="M39.1753,21.5 L39.1753,48.5 M26.1753,29.5 L52.1753,29.5 M39.1753,48.5 L26.1753,63.5 M39.1753,48.5 L52.1753,63.5 " fill="none" style="stroke:#181818;stroke-width:0.5;"/><text fill="#000000" font-family="sans-serif" font-size="14" lengthAdjust="spacing" textLength="62.3506" x="5" y="501.8857">Engineer</text><ellipse cx="39.1753" cy="513.6875" fill="#E2E2F0" rx="8" ry="8" style="stroke:#181818;stroke-width:0.5;"/><path d="M39.1753,521.6875 L39.1753,548.6875 M26.1753,529.6875 L52.1753,529.6875 M39.1753,548.6875 L26.1753,563.6875 M39.1753,548.6875 L52.1753,563.6875 " fill="none" style="stroke:#181818;stroke-width:0.5;"/><text fill="#000000" font-family="sans-serif" font-size="14" lengthAdjust="spacing" textLength="64.9482" x="83.3506" y="77.9951">Reviewer</text><ellipse cx="118.8247" cy="13.5" fill="#E2E2F0" rx="8" ry="8" style="stroke:#181818;stroke-width:0.5;"/><path d="M118.8247,21.5 L118.8247,48.5 M105.8247,29.5 L131.8247,29.5 M118.8247,48.5 L105.8247,63.5 M118.8247,48.5 L131.8247,63.5 " fill="none" style="stroke:#181818;stroke-width:0.5;"/><text fill="#000000" font-family="sans-serif" font-size="14" lengthAdjust="spacing" textLength="64.9482" x="83.3506" y="501.8857">Reviewer</text><ellipse cx="118.8247" cy="513.6875" fill="#E2E2F0" rx="8" ry="8" style="stroke:#181818;stroke-width:0.5;"/><path d="M118.8247,521.6875 L118.8247,548.6875 M105.8247,529.6875 L131.8247,529.6875 M118.8247,548.6875 L105.8247,563.6875 M118.8247,548.6875 L131.8247,563.6875 " fill="none" style="stroke:#181818;stroke-width:0.5;"/><text fill="#000000" font-family="sans-serif" font-size="14" lengthAdjust="spacing" textLength="64.4287" x="164.2988" y="77.9951">QA Team</text><ellipse cx="199.5132" cy="13.5" fill="#E2E2F0" rx="8" ry="8" style="stroke:#181818;stroke-width:0.5;"/><path d="M199.5132,21.5 L199.5132,48.5 M186.5132,29.5 L212.5132,29.5 M199.5132,48.5 L186.5132,63.5 M199.5132,48.5 L212.5132,63.5 " fill="none" style="stroke:#181818;stroke-width:0.5;"/><text fill="#000000" font-family="sans-serif" font-size="14" lengthAdjust="spacing" textLength="64.4287" x="164.2988" y="501.8857">QA Team</text><ellipse cx="199.5132" cy="513.6875" fill="#E2E2F0" rx="8" ry="8" style="stroke:#181818;stroke-width:0.5;"/><path d="M199.5132,521.6875 L199.5132,548.6875 M186.5132,529.6875 L212.5132,529.6875 M199.5132,548.6875 L186.5132,563.6875 M199.5132,548.6875 L212.5132,563.6875 " fill="none" style="stroke:#181818;stroke-width:0.5;"/><rect fill="#E2E2F0" height="30.2969" rx="2.5" ry="2.5" style="stroke:#181818;stroke-width:0.5;" width="117.9678" x="374.8184" y="50"/><text fill="#000000" font-family="sans-serif" font-size="14" lengthAdjust="spacing" textLength="103.9678" x="381.8184" y="69.9951">feature branch</text><rect fill="#E2E2F0" height="30.2969" rx="2.5" ry="2.5" style="stroke:#181818;stroke-width:0.5;" width="117.9678" x="374.8184" y="488.8906"/><text fill="#000000" font-family="sans-serif" font-size="14" lengthAdjust="spacing" textLength="103.9678" x="381.8184" y="508.8857">feature branch</text><text fill="#000000" font-family="sans-serif" font-size="14" lengthAdjust="spacing" textLength="87.042" x="573.5591" y="77.9951">Pull Request</text><ellipse cx="620.0801" cy="49" fill="#E2E2F0" rx="12" ry="12" style="stroke:#181818;stroke-width:0.5;"/><polygon fill="#181818" points="616.0801,37,622.0801,32,620.0801,37,622.0801,42,616.0801,37" style="stroke:#181818;stroke-width:1;"/><text fill="#000000" font-family="sans-serif" font-size="14" lengthAdjust="spacing" textLength="87.042" x="573.5591" y="501.8857">Pull Request</text><ellipse cx="620.0801" cy="521.1875" fill="#E2E2F0" rx="12" ry="12" style="stroke:#181818;stroke-width:0.5;"/><polygon fill="#181818" points="616.0801,509.1875,622.0801,504.1875,620.0801,509.1875,622.0801,514.1875,616.0801,509.1875" style="stroke:#181818;stroke-width:1;"/><rect fill="#E2E2F0" height="30.2969" rx="2.5" ry="2.5" style="stroke:#181818;stroke-width:0.5;" width="102.0947" x="933.4512" y="50"/><text fill="#000000" font-family="sans-serif" font-size="14" lengthAdjust="spacing" textLength="88.0947" x="940.4512" y="69.9951">main branch</text><rect fill="#E2E2F0" height="30.2969" rx="2.5" ry="2.5" style="stroke:#181818;stroke-width:0.5;" width="102.0947" x="933.4512" y="488.8906"/><text fill="#000000" font-family="sans-serif" font-size="14" lengthAdjust="spacing" textLength="88.0947" x="940.4512" y="508.8857">main branch</text><polygon fill="#181818" points="444.8022,108.4297,434.8022,112.4297,444.8022,116.4297,440.8022,112.4297" style="stroke:#181818;stroke-width:1;"/><line style="stroke:#181818;stroke-width:1;stroke-dasharray:2.0,2.0;" x1="438.8022" x2="983.4985" y1="112.4297" y2="112.4297"/><text fill="#000000" font-family="sans-serif" font-size="13" lengthAdjust="spacing" textLength="402.0859" x="450.8022" y="107.3638">New branch matching Jira ticket ID and short name is created</text><polygon fill="#181818" points="421.8022,137.5625,431.8022,141.5625,421.8022,145.5625,425.8022,141.5625" style="stroke:#181818;stroke-width:1;"/><line style="stroke:#181818;stroke-width:1;stroke-dasharray:2.0,2.0;" x1="39.1753" x2="427.8022" y1="141.5625" y2="141.5625"/><text fill="#000000" font-family="sans-serif" font-size="13" lengthAdjust="spacing" textLength="370.627" x="46.1753" y="136.4966">Engineer implements the feature with idividual commits.</text><polygon fill="#181818" points="608.0801,166.6953,618.0801,170.6953,608.0801,174.6953,612.0801,170.6953" style="stroke:#181818;stroke-width:1;"/><line style="stroke:#181818;stroke-width:1;stroke-dasharray:2.0,2.0;" x1="433.8022" x2="614.0801" y1="170.6953" y2="170.6953"/><text fill="#000000" font-family="sans-serif" font-size="13" lengthAdjust="spacing" textLength="162.2778" x="440.8022" y="165.6294">*Pull Request* is created</text><line style="stroke:#181818;stroke-width:1;stroke-dasharray:2.0,2.0;" x1="620.0801" x2="662.0801" y1="199.8281" y2="199.8281"/><line style="stroke:#181818;stroke-width:1;stroke-dasharray:2.0,2.0;" x1="662.0801" x2="662.0801" y1="199.8281" y2="212.8281"/><line style="stroke:#181818;stroke-width:1;stroke-dasharray:2.0,2.0;" x1="621.0801" x2="662.0801" y1="212.8281" y2="212.8281"/><polygon fill="#181818" points="631.0801,208.8281,621.0801,212.8281,631.0801,216.8281,627.0801,212.8281" style="stroke:#181818;stroke-width:1;"/><text fill="#000000" font-family="sans-serif" font-size="13" lengthAdjust="spacing" textLength="152.3311" x="627.0801" y="194.7622">Unit tests are executed</text><polygon fill="#181818" points="608.0801,237.9609,618.0801,241.9609,608.0801,245.9609,612.0801,241.9609" style="stroke:#181818;stroke-width:1;"/><line style="stroke:#181818;stroke-width:1;stroke-dasharray:2.0,2.0;" x1="118.8247" x2="614.0801" y1="241.9609" y2="241.9609"/><text fill="#000000" font-family="sans-serif" font-size="13" lengthAdjust="spacing" textLength="215.1855" x="125.8247" y="236.895">Code review is done by the team</text><polygon fill="#181818" points="608.0801,267.0938,618.0801,271.0938,608.0801,275.0938,612.0801,271.0938" style="stroke:#181818;stroke-width:1;"/><line style="stroke:#181818;stroke-width:1;stroke-dasharray:2.0,2.0;" x1="39.1753" x2="614.0801" y1="271.0938" y2="271.0938"/><text fill="#000000" font-family="sans-serif" font-size="13" lengthAdjust="spacing" textLength="216.9565" x="46.1753" y="266.0278">Code review changes are applied</text><polygon fill="#181818" points="972.4985,296.2266,982.4985,300.2266,972.4985,304.2266,976.4985,300.2266" style="stroke:#181818;stroke-width:1;"/><line style="stroke:#181818;stroke-width:1;stroke-dasharray:2.0,2.0;" x1="620.0801" x2="978.4985" y1="300.2266" y2="300.2266"/><text fill="#000000" font-family="sans-serif" font-size="13" lengthAdjust="spacing" textLength="340.4185" x="627.0801" y="295.1606">Squash commits and merge when all checks passed</text><line style="stroke:#181818;stroke-width:1;stroke-dasharray:2.0,2.0;" x1="984.4985" x2="1026.4985" y1="329.3594" y2="329.3594"/><line style="stroke:#181818;stroke-width:1;stroke-dasharray:2.0,2.0;" x1="1026.4985" x2="1026.4985" y1="329.3594" y2="342.3594"/><line style="stroke:#181818;stroke-width:1;stroke-dasharray:2.0,2.0;" x1="985.4985" x2="1026.4985" y1="342.3594" y2="342.3594"/><polygon fill="#181818" points="995.4985,338.3594,985.4985,342.3594,995.4985,346.3594,991.4985,342.3594" style="stroke:#181818;stroke-width:1;"/><text fill="#000000" font-family="sans-serif" font-size="13" lengthAdjust="spacing" textLength="277.9893" x="991.4985" y="324.2935">Automatic deploy on develop environment</text><polygon fill="#181818" points="972.4985,367.4922,982.4985,371.4922,972.4985,375.4922,976.4985,371.4922" style="stroke:#181818;stroke-width:1;"/><line style="stroke:#181818;stroke-width:1;stroke-dasharray:2.0,2.0;" x1="199.5132" x2="978.4985" y1="371.4922" y2="371.4922"/><text fill="#000000" font-family="sans-serif" font-size="13" lengthAdjust="spacing" textLength="223.1582" x="206.5132" y="366.4263">QA team runs requered test cases</text><polygon fill="#181818" points="972.4985,396.625,982.4985,400.625,972.4985,404.625,976.4985,400.625" style="stroke:#181818;stroke-width:1;"/><line style="stroke:#181818;stroke-width:1;stroke-dasharray:2.0,2.0;" x1="39.1753" x2="978.4985" y1="400.625" y2="400.625"/><text fill="#000000" font-family="sans-serif" font-size="13" lengthAdjust="spacing" textLength="338.2603" x="46.1753" y="395.5591">Release to production will be triggered by git *TAG*</text><line style="stroke:#181818;stroke-width:1;stroke-dasharray:2.0,2.0;" x1="984.4985" x2="1026.4985" y1="429.7578" y2="429.7578"/><line style="stroke:#181818;stroke-width:1;stroke-dasharray:2.0,2.0;" x1="1026.4985" x2="1026.4985" y1="429.7578" y2="442.7578"/><line style="stroke:#181818;stroke-width:1;stroke-dasharray:2.0,2.0;" x1="985.4985" x2="1026.4985" y1="442.7578" y2="442.7578"/><polygon fill="#181818" points="995.4985,438.7578,985.4985,442.7578,995.4985,446.7578,991.4985,442.7578" style="stroke:#181818;stroke-width:1;"/><text fill="#000000" font-family="sans-serif" font-size="13" lengthAdjust="spacing" textLength="401.1465" x="991.4985" y="424.6919">Automation will increase the version and generate changelog</text><polygon fill="#181818" points="972.4985,467.8906,982.4985,471.8906,972.4985,475.8906,976.4985,471.8906" style="stroke:#181818;stroke-width:1;"/><line style="stroke:#181818;stroke-width:1;stroke-dasharray:2.0,2.0;" x1="39.1753" x2="978.4985" y1="471.8906" y2="471.8906"/><text fill="#000000" font-family="sans-serif" font-size="13" lengthAdjust="spacing" textLength="412.1978" x="46.1753" y="466.8247">Hotfixes will be commited and released as a new patch version</text><!--SRC=[TP9DRjmm38NtFWNXvG3f0MPHOD0MRRCeacbw04PcR28ofQ5aJtBxKlwh9q2zC_NuI7uakXmKvg_-9YqBaTPB01CqD5QurvnfPBhUQ7GAtSeUJ_14sEzK5wmYQcR74IL3_KAO1oLuLXJNrKMoX2eN96lmK3yCtiEPBWEbF2cYtfhqoB9tAFzLDKNlxZwlXaVuHTT5PfBiEfOMxbaHpEgLClpy2YWDf2ve1i6UW1CujNHgAcDmwxPo0kwZfvua9yWThGAuSkw06nwv6T232ttFENsgrlTY5lK8X_ryXtt9g9leZt26R884QBdqHcueafdw9liI6besKOoQ88RsVMehsoAs8JvgNOVIqkoDCNh-LxrWFCBlou2fMuUOCFMahKtPaG3Q0AuZzsgxmPGiUOC_fv-670mvEpkbwCCx12b7HJv481bPWnI0rGLtINOzfMdGGSfv6H-bPe803XEbRPfPVYPF5eOSRBpG32wpLRcozVPiKUMsdGoCHsim3q-dxuV_zRacifHT55CZE9AcybA6Rqb8RKaBEH_Q3zty2Fc5tmpfsi2CpkgNT9rxRSgr8eXj89Q3N4ly1G00]--></g></svg>