<svg xmlns="http://www.w3.org/2000/svg" xmlns:xlink="http://www.w3.org/1999/xlink" contentStyleType="text/css" height="769px" preserveAspectRatio="none" style="width:1950px;height:769px;background:#FFFFFF;" version="1.1" viewBox="0 0 1950 769" width="1950px" zoomAndPan="magnify"><defs/><g><rect fill="#ADD8E6" height="757.9219" style="stroke:#181818;stroke-width:0.5;" width="523" x="1365.5" y="6"/><text fill="#000000" font-family="sans-serif" font-size="13" font-weight="bold" lengthAdjust="spacing" textLength="82" x="1586" y="18.0669">Gasp Node</text><rect fill="none" height="410.6641" style="stroke:#000000;stroke-width:1.5;" width="1884.5" x="10" y="156.5625"/><line style="stroke:#181818;stroke-width:0.5;stroke-dasharray:5.0,5.0;" x1="76" x2="76" y1="81.2969" y2="684.625"/><line style="stroke:#181818;stroke-width:0.5;stroke-dasharray:5.0,5.0;" x1="357.5" x2="357.5" y1="81.2969" y2="684.625"/><line style="stroke:#181818;stroke-width:0.5;stroke-dasharray:5.0,5.0;" x1="673" x2="673" y1="81.2969" y2="684.625"/><line style="stroke:#181818;stroke-width:0.5;stroke-dasharray:5.0,5.0;" x1="1177.5" x2="1177.5" y1="81.2969" y2="684.625"/><line style="stroke:#181818;stroke-width:0.5;stroke-dasharray:5.0,5.0;" x1="1303.5" x2="1303.5" y1="81.2969" y2="684.625"/><line style="stroke:#181818;stroke-width:0.5;stroke-dasharray:5.0,5.0;" x1="1423.5" x2="1423.5" y1="81.2969" y2="684.625"/><line style="stroke:#181818;stroke-width:0.5;stroke-dasharray:5.0,5.0;" x1="1812.5" x2="1812.5" y1="81.2969" y2="684.625"/><text fill="#000000" font-family="sans-serif" font-size="14" lengthAdjust="spacing" textLength="107" x="20" y="77.9951">Metamask User</text><ellipse cx="76.5" cy="13.5" fill="#E2E2F0" rx="8" ry="8" style="stroke:#181818;stroke-width:0.5;"/><path d="M76.5,21.5 L76.5,48.5 M63.5,29.5 L89.5,29.5 M76.5,48.5 L63.5,63.5 M76.5,48.5 L89.5,63.5 " fill="none" style="stroke:#181818;stroke-width:0.5;"/><text fill="#000000" font-family="sans-serif" font-size="14" lengthAdjust="spacing" textLength="107" x="20" y="696.6201">Metamask User</text><ellipse cx="76.5" cy="708.4219" fill="#E2E2F0" rx="8" ry="8" style="stroke:#181818;stroke-width:0.5;"/><path d="M76.5,716.4219 L76.5,743.4219 M63.5,724.4219 L89.5,724.4219 M76.5,743.4219 L63.5,758.4219 M76.5,743.4219 L89.5,758.4219 " fill="none" style="stroke:#181818;stroke-width:0.5;"/><rect fill="#E2E2F0" height="30.2969" rx="2.5" ry="2.5" style="stroke:#181818;stroke-width:0.5;" width="132" x="291.5" y="50"/><text fill="#000000" font-family="sans-serif" font-size="14" lengthAdjust="spacing" textLength="118" x="298.5" y="69.9951">app.gasp.finance</text><rect fill="#E2E2F0" height="30.2969" rx="2.5" ry="2.5" style="stroke:#181818;stroke-width:0.5;" width="132" x="291.5" y="683.625"/><text fill="#000000" font-family="sans-serif" font-size="14" lengthAdjust="spacing" textLength="118" x="298.5" y="703.6201">app.gasp.finance</text><rect fill="#E2E2F0" height="30.2969" rx="2.5" ry="2.5" style="stroke:#181818;stroke-width:0.5;" width="43" x="652" y="50"/><text fill="#000000" font-family="sans-serif" font-size="14" lengthAdjust="spacing" textLength="29" x="659" y="69.9951">SDK</text><rect fill="#E2E2F0" height="30.2969" rx="2.5" ry="2.5" style="stroke:#181818;stroke-width:0.5;" width="43" x="652" y="683.625"/><text fill="#000000" font-family="sans-serif" font-size="14" lengthAdjust="spacing" textLength="29" x="659" y="703.6201">SDK</text><text fill="#000000" font-family="sans-serif" font-size="14" lengthAdjust="spacing" textLength="116" x="1116.5" y="77.9951">Metamask Wallet</text><ellipse cx="1177.5" cy="13.5" fill="#E2E2F0" rx="8" ry="8" style="stroke:#181818;stroke-width:0.5;"/><path d="M1177.5,21.5 L1177.5,48.5 M1164.5,29.5 L1190.5,29.5 M1177.5,48.5 L1164.5,63.5 M1177.5,48.5 L1190.5,63.5 " fill="none" style="stroke:#181818;stroke-width:0.5;"/><text fill="#000000" font-family="sans-serif" font-size="14" lengthAdjust="spacing" textLength="116" x="1116.5" y="696.6201">Metamask Wallet</text><ellipse cx="1177.5" cy="708.4219" fill="#E2E2F0" rx="8" ry="8" style="stroke:#181818;stroke-width:0.5;"/><path d="M1177.5,716.4219 L1177.5,743.4219 M1164.5,724.4219 L1190.5,724.4219 M1177.5,743.4219 L1164.5,758.4219 M1177.5,743.4219 L1190.5,758.4219 " fill="none" style="stroke:#181818;stroke-width:0.5;"/><text fill="#000000" font-family="sans-serif" font-size="14" lengthAdjust="spacing" textLength="105" x="1248.5" y="77.9951">Polkadot Wallet</text><ellipse cx="1304" cy="13.5" fill="#E2E2F0" rx="8" ry="8" style="stroke:#181818;stroke-width:0.5;"/><path d="M1304,21.5 L1304,48.5 M1291,29.5 L1317,29.5 M1304,48.5 L1291,63.5 M1304,48.5 L1317,63.5 " fill="none" style="stroke:#181818;stroke-width:0.5;"/><text fill="#000000" font-family="sans-serif" font-size="14" lengthAdjust="spacing" textLength="105" x="1248.5" y="696.6201">Polkadot Wallet</text><ellipse cx="1304" cy="708.4219" fill="#E2E2F0" rx="8" ry="8" style="stroke:#181818;stroke-width:0.5;"/><path d="M1304,716.4219 L1304,743.4219 M1291,724.4219 L1317,724.4219 M1304,743.4219 L1291,758.4219 M1304,743.4219 L1317,758.4219 " fill="none" style="stroke:#181818;stroke-width:0.5;"/><rect fill="#E2E2F0" height="30.2969" rx="2.5" ry="2.5" style="stroke:#181818;stroke-width:0.5;" width="108" x="1369.5" y="50"/><text fill="#000000" font-family="sans-serif" font-size="14" lengthAdjust="spacing" textLength="94" x="1376.5" y="69.9951">Gasp RPC API</text><rect fill="#E2E2F0" height="30.2969" rx="2.5" ry="2.5" style="stroke:#181818;stroke-width:0.5;" width="108" x="1369.5" y="683.625"/><text fill="#000000" font-family="sans-serif" font-size="14" lengthAdjust="spacing" textLength="94" x="1376.5" y="703.6201">Gasp RPC API</text><rect fill="#E2E2F0" height="30.2969" rx="2.5" ry="2.5" style="stroke:#181818;stroke-width:0.5;" width="144" x="1740.5" y="50"/><text fill="#000000" font-family="sans-serif" font-size="14" lengthAdjust="spacing" textLength="130" x="1747.5" y="69.9951">Gasp Extrinsics API</text><rect fill="#E2E2F0" height="30.2969" rx="2.5" ry="2.5" style="stroke:#181818;stroke-width:0.5;" width="144" x="1740.5" y="683.625"/><text fill="#000000" font-family="sans-serif" font-size="14" lengthAdjust="spacing" textLength="130" x="1747.5" y="703.6201">Gasp Extrinsics API</text><polygon fill="#181818" points="345.5,108.4297,355.5,112.4297,345.5,116.4297,349.5,112.4297" style="stroke:#181818;stroke-width:1.0;"/><line style="stroke:#181818;stroke-width:1.0;stroke-dasharray:2.0,2.0;" x1="76.5" x2="351.5" y1="112.4297" y2="112.4297"/><text fill="#000000" font-family="sans-serif" font-size="13" lengthAdjust="spacing" textLength="257" x="83.5" y="107.3638">Click wants to SWAP Token A for token B</text><polygon fill="#181818" points="661.5,137.5625,671.5,141.5625,661.5,145.5625,665.5,141.5625" style="stroke:#181818;stroke-width:1.0;"/><line style="stroke:#181818;stroke-width:1.0;stroke-dasharray:2.0,2.0;" x1="357.5" x2="667.5" y1="141.5625" y2="141.5625"/><text fill="#000000" font-family="sans-serif" font-size="13" lengthAdjust="spacing" textLength="292" x="364.5" y="136.4966">sign transaction with unified sign SDK method</text><path d="M10,156.5625 L74,156.5625 L74,163.6953 L64,173.6953 L10,173.6953 L10,156.5625 " fill="#EEEEEE" style="stroke:#000000;stroke-width:1.5;"/><rect fill="none" height="410.6641" style="stroke:#000000;stroke-width:1.5;" width="1884.5" x="10" y="156.5625"/><text fill="#000000" font-family="sans-serif" font-size="13" font-weight="bold" lengthAdjust="spacing" textLength="19" x="25" y="169.6294">alt</text><text fill="#000000" font-family="sans-serif" font-size="11" font-weight="bold" lengthAdjust="spacing" textLength="175" x="89" y="168.7729">[METAMASK wallet is used]</text><polygon fill="#181818" points="1411.5,190.8281,1421.5,194.8281,1411.5,198.8281,1415.5,194.8281" style="stroke:#181818;stroke-width:1.0;"/><line style="stroke:#181818;stroke-width:1.0;stroke-dasharray:2.0,2.0;" x1="673.5" x2="1417.5" y1="194.8281" y2="194.8281"/><text fill="#000000" font-family="sans-serif" font-size="13" lengthAdjust="spacing" textLength="331" x="680.5" y="189.7622">Specific API to encode my sign method with params</text><polygon fill="#181818" points="684.5,219.9609,674.5,223.9609,684.5,227.9609,680.5,223.9609" style="stroke:#181818;stroke-width:1.0;"/><line style="stroke:#181818;stroke-width:1.0;stroke-dasharray:2.0,2.0;" x1="678.5" x2="1422.5" y1="223.9609" y2="223.9609"/><text fill="#000000" font-family="sans-serif" font-size="13" lengthAdjust="spacing" textLength="356" x="690.5" y="218.895">Returns encoded JSON representation of calling method</text><polygon fill="#181818" points="1165.5,249.0938,1175.5,253.0938,1165.5,257.0938,1169.5,253.0938" style="stroke:#181818;stroke-width:1.0;"/><line style="stroke:#181818;stroke-width:1.0;stroke-dasharray:2.0,2.0;" x1="673.5" x2="1171.5" y1="253.0938" y2="253.0938"/><text fill="#000000" font-family="sans-serif" font-size="13" lengthAdjust="spacing" textLength="480" x="680.5" y="248.0278">Request to sign tx with aritrary JSON encoded data received from Gasp RPC</text><polygon fill="#181818" points="87.5,278.2266,77.5,282.2266,87.5,286.2266,83.5,282.2266" style="stroke:#181818;stroke-width:1.0;"/><line style="stroke:#181818;stroke-width:1.0;stroke-dasharray:2.0,2.0;" x1="81.5" x2="1176.5" y1="282.2266" y2="282.2266"/><text fill="#000000" font-family="sans-serif" font-size="13" lengthAdjust="spacing" textLength="171" x="93.5" y="277.1606">Opening the signing popup</text><polygon fill="#181818" points="1165.5,307.3594,1175.5,311.3594,1165.5,315.3594,1169.5,311.3594" style="stroke:#181818;stroke-width:1.0;"/><line style="stroke:#181818;stroke-width:1.0;stroke-dasharray:2.0,2.0;" x1="76.5" x2="1171.5" y1="311.3594" y2="311.3594"/><text fill="#000000" font-family="sans-serif" font-size="13" lengthAdjust="spacing" textLength="76" x="83.5" y="306.2935">Signs the tx</text><polygon fill="#181818" points="684.5,336.4922,674.5,340.4922,684.5,344.4922,680.5,340.4922" style="stroke:#181818;stroke-width:1.0;"/><line style="stroke:#181818;stroke-width:1.0;stroke-dasharray:2.0,2.0;" x1="678.5" x2="1176.5" y1="340.4922" y2="340.4922"/><text fill="#000000" font-family="sans-serif" font-size="13" lengthAdjust="spacing" textLength="106" x="690.5" y="335.4263">Return signature</text><polygon fill="#181818" points="1800.5,365.625,1810.5,369.625,1800.5,373.625,1804.5,369.625" style="stroke:#181818;stroke-width:1.0;"/><line style="stroke:#181818;stroke-width:1.0;stroke-dasharray:2.0,2.0;" x1="673.5" x2="1806.5" y1="369.625" y2="369.625"/><text fill="#000000" font-family="sans-serif" font-size="13" lengthAdjust="spacing" textLength="336" x="680.5" y="364.5591">Execute (multy)SWAP with signature from Metamask</text><polygon fill="#181818" points="1434.5,394.7578,1424.5,398.7578,1434.5,402.7578,1430.5,398.7578" style="stroke:#181818;stroke-width:1.0;"/><line style="stroke:#181818;stroke-width:1.0;stroke-dasharray:2.0,2.0;" x1="1428.5" x2="1811.5" y1="398.7578" y2="398.7578"/><text fill="#000000" font-family="sans-serif" font-size="13" lengthAdjust="spacing" textLength="365" x="1440.5" y="393.6919">Decode the JSON data with same method it was encoded</text><line style="stroke:#000000;stroke-width:1.0;stroke-dasharray:2.0,2.0;" x1="10" x2="1894.5" y1="407.7578" y2="407.7578"/><text fill="#000000" font-family="sans-serif" font-size="11" font-weight="bold" lengthAdjust="spacing" textLength="173" x="15" y="417.9683">[POLKADOT wallet is used]</text><polygon fill="#181818" points="1292,438.6953,1302,442.6953,1292,446.6953,1296,442.6953" style="stroke:#181818;stroke-width:1.0;"/><line style="stroke:#181818;stroke-width:1.0;stroke-dasharray:2.0,2.0;" x1="673.5" x2="1298" y1="442.6953" y2="442.6953"/><text fill="#000000" font-family="sans-serif" font-size="13" lengthAdjust="spacing" textLength="115" x="680.5" y="437.6294">Request to sign tx</text><polygon fill="#181818" points="87.5,467.8281,77.5,471.8281,87.5,475.8281,83.5,471.8281" style="stroke:#181818;stroke-width:1.0;"/><line style="stroke:#181818;stroke-width:1.0;stroke-dasharray:2.0,2.0;" x1="81.5" x2="1303" y1="471.8281" y2="471.8281"/><text fill="#000000" font-family="sans-serif" font-size="13" lengthAdjust="spacing" textLength="127" x="93.5" y="466.7622">Opening sign popup</text><polygon fill="#181818" points="1292,496.9609,1302,500.9609,1292,504.9609,1296,500.9609" style="stroke:#181818;stroke-width:1.0;"/><line style="stroke:#181818;stroke-width:1.0;stroke-dasharray:2.0,2.0;" x1="76.5" x2="1298" y1="500.9609" y2="500.9609"/><text fill="#000000" font-family="sans-serif" font-size="13" lengthAdjust="spacing" textLength="51" x="83.5" y="495.895">Signs tx</text><polygon fill="#181818" points="684.5,526.0938,674.5,530.0938,684.5,534.0938,680.5,530.0938" style="stroke:#181818;stroke-width:1.0;"/><line style="stroke:#181818;stroke-width:1.0;stroke-dasharray:2.0,2.0;" x1="678.5" x2="1303" y1="530.0938" y2="530.0938"/><text fill="#000000" font-family="sans-serif" font-size="13" lengthAdjust="spacing" textLength="111" x="690.5" y="525.0278">Returns sidned tx</text><polygon fill="#181818" points="1800.5,555.2266,1810.5,559.2266,1800.5,563.2266,1804.5,559.2266" style="stroke:#181818;stroke-width:1.0;"/><line style="stroke:#181818;stroke-width:1.0;stroke-dasharray:2.0,2.0;" x1="673.5" x2="1806.5" y1="559.2266" y2="559.2266"/><text fill="#000000" font-family="sans-serif" font-size="13" lengthAdjust="spacing" textLength="439" x="680.5" y="554.1606">Execute (multy)SWAP with signature from Polkadot compatible wallet</text><line style="stroke:#181818;stroke-width:1.0;stroke-dasharray:2.0,2.0;" x1="1812.5" x2="1854.5" y1="595.3594" y2="595.3594"/><line style="stroke:#181818;stroke-width:1.0;stroke-dasharray:2.0,2.0;" x1="1854.5" x2="1854.5" y1="595.3594" y2="608.3594"/><line style="stroke:#181818;stroke-width:1.0;stroke-dasharray:2.0,2.0;" x1="1813.5" x2="1854.5" y1="608.3594" y2="608.3594"/><polygon fill="#181818" points="1823.5,604.3594,1813.5,608.3594,1823.5,612.3594,1819.5,608.3594" style="stroke:#181818;stroke-width:1.0;"/><text fill="#000000" font-family="sans-serif" font-size="13" lengthAdjust="spacing" textLength="124" x="1819.5" y="590.2935">Executes the SWAP</text><polygon fill="#181818" points="684.5,633.4922,674.5,637.4922,684.5,641.4922,680.5,637.4922" style="stroke:#181818;stroke-width:1.0;"/><line style="stroke:#181818;stroke-width:1.0;stroke-dasharray:2.0,2.0;" x1="678.5" x2="1811.5" y1="637.4922" y2="637.4922"/><text fill="#000000" font-family="sans-serif" font-size="13" lengthAdjust="spacing" textLength="151" x="690.5" y="632.4263">successfull tx execution</text><polygon fill="#181818" points="87.5,662.625,77.5,666.625,87.5,670.625,83.5,666.625" style="stroke:#181818;stroke-width:1.0;"/><line style="stroke:#181818;stroke-width:1.0;stroke-dasharray:2.0,2.0;" x1="81.5" x2="672.5" y1="666.625" y2="666.625"/><text fill="#000000" font-family="sans-serif" font-size="13" lengthAdjust="spacing" textLength="151" x="93.5" y="661.5591">successfull tx execution</text><!--SRC=[dLFBRjim4BppAnRAfJqa7-1302KEYjPnR4GkScQebKsO8bborTX_toNfXv8ub-eaaREpCxChgSW5A4yrHvAzZ5lu7J5KXrCPOU1F8OINWRJINbg2Idf_ivRHttJQIgkmIa0-_01hfhDy4zkj4F9YinTf3DAeNO_q0RjqPYjRHv-ntXaXNjqEgXyi1fvSoqgk7lLwGtTcmFTYCkHvUG_rycTLweDN5p0FEmhQHgrYWJ8GToJGji2zX4Y1mFNrRJ8yWNkZrHRUk3m2EMXUwYMit1OjrD2n2ShlTuB1kOYpc43KQmiKf8tiL3iBRvesC5ZTQMpBBMUNijYubkCm1FE7LJslcnctIYc0pfDf1IJ6pCnk9j1uLCoYalIa1wtYLA3V5zR2MDgnSzb79k32ixHdf27OU2XiuLUpU8A0Fc14IpAhTHqeLg7j-YZnh88F4icV0ICb0SNghhIKGRFhi2-innQj9Caj5Eg__DK5ryDnM4pCX9aunJw1XKUR-j86CtLwzyuFdf6dmMGD3T_6ZAFTY6PaCXD8ViEHVXxrX5S0rK08t_h1qFvx7cesSAeeCezhpFLSTvx257FggNbscXqM0jdZSGgQU9Ydf0MQYB1SFCxgwMBrzPXvwIy5p0Y-kP1KllyKKMOvH3IkVRS3KRUM9v81_vNFwTTLhlUyEwy63yRIxpHARSnQXfOuHu3osmnAOOpTO4nQASnuNiYHlEBzA-0_]--></g></svg>