<svg xmlns="http://www.w3.org/2000/svg" xmlns:xlink="http://www.w3.org/1999/xlink" contentStyleType="text/css" height="769px" preserveAspectRatio="none" style="width:2000px;height:769px;background:#FFFFFF;" version="1.1" viewBox="0 0 2000 769" width="2000px" zoomAndPan="magnify"><defs/><g><rect fill="#ADD8E6" height="757.9219" style="stroke:#181818;stroke-width:0.5;" width="532.6021" x="1405.499" y="6"/><text fill="#000000" font-family="sans-serif" font-size="13" font-weight="bold" lengthAdjust="spacing" textLength="78.9458" x="1632.3271" y="18.0669">Gasp Node</text><rect fill="none" height="410.6641" style="stroke:#000000;stroke-width:1.5;" width="1934.1011" x="10" y="156.5625"/><line style="stroke:#181818;stroke-width:0.5;stroke-dasharray:5.0,5.0;" x1="77" x2="77" y1="81.2969" y2="684.625"/><line style="stroke:#181818;stroke-width:0.5;stroke-dasharray:5.0,5.0;" x1="366.9883" x2="366.9883" y1="81.2969" y2="684.625"/><line style="stroke:#181818;stroke-width:0.5;stroke-dasharray:5.0,5.0;" x1="691.8232" x2="691.8232" y1="81.2969" y2="684.625"/><line style="stroke:#181818;stroke-width:0.5;stroke-dasharray:5.0,5.0;" x1="1210.0869" x2="1210.0869" y1="81.2969" y2="684.625"/><line style="stroke:#181818;stroke-width:0.5;stroke-dasharray:5.0,5.0;" x1="1341.2197" x2="1341.2197" y1="81.2969" y2="684.625"/><line style="stroke:#181818;stroke-width:0.5;stroke-dasharray:5.0,5.0;" x1="1463.499" x2="1463.499" y1="81.2969" y2="684.625"/><line style="stroke:#181818;stroke-width:0.5;stroke-dasharray:5.0,5.0;" x1="1859.1304" x2="1859.1304" y1="81.2969" y2="684.625"/><text fill="#000000" font-family="sans-serif" font-size="14" lengthAdjust="spacing" textLength="108.7393" x="20" y="77.9951">Metamask User</text><ellipse cx="77.3696" cy="13.5" fill="#E2E2F0" rx="8" ry="8" style="stroke:#181818;stroke-width:0.5;"/><path d="M77.3696,21.5 L77.3696,48.5 M64.3696,29.5 L90.3696,29.5 M77.3696,48.5 L64.3696,63.5 M77.3696,48.5 L90.3696,63.5 " fill="none" style="stroke:#181818;stroke-width:0.5;"/><text fill="#000000" font-family="sans-serif" font-size="14" lengthAdjust="spacing" textLength="108.7393" x="20" y="696.6201">Metamask User</text><ellipse cx="77.3696" cy="708.4219" fill="#E2E2F0" rx="8" ry="8" style="stroke:#181818;stroke-width:0.5;"/><path d="M77.3696,716.4219 L77.3696,743.4219 M64.3696,724.4219 L90.3696,724.4219 M77.3696,743.4219 L64.3696,758.4219 M77.3696,743.4219 L90.3696,758.4219 " fill="none" style="stroke:#181818;stroke-width:0.5;"/><rect fill="#E2E2F0" height="30.2969" rx="2.5" ry="2.5" style="stroke:#181818;stroke-width:0.5;" width="134.3535" x="299.9883" y="50"/><text fill="#000000" font-family="sans-serif" font-size="14" lengthAdjust="spacing" textLength="120.3535" x="306.9883" y="69.9951">app.gasp.finance</text><rect fill="#E2E2F0" height="30.2969" rx="2.5" ry="2.5" style="stroke:#181818;stroke-width:0.5;" width="134.3535" x="299.9883" y="683.625"/><text fill="#000000" font-family="sans-serif" font-size="14" lengthAdjust="spacing" textLength="120.3535" x="306.9883" y="703.6201">app.gasp.finance</text><rect fill="#E2E2F0" height="30.2969" rx="2.5" ry="2.5" style="stroke:#181818;stroke-width:0.5;" width="42.8477" x="670.8232" y="50"/><text fill="#000000" font-family="sans-serif" font-size="14" lengthAdjust="spacing" textLength="28.8477" x="677.8232" y="69.9951">SDK</text><rect fill="#E2E2F0" height="30.2969" rx="2.5" ry="2.5" style="stroke:#181818;stroke-width:0.5;" width="42.8477" x="670.8232" y="683.625"/><text fill="#000000" font-family="sans-serif" font-size="14" lengthAdjust="spacing" textLength="28.8477" x="677.8232" y="703.6201">SDK</text><text fill="#000000" font-family="sans-serif" font-size="14" lengthAdjust="spacing" textLength="121.1328" x="1147.0869" y="77.9951">Metamask Wallet</text><ellipse cx="1210.6533" cy="13.5" fill="#E2E2F0" rx="8" ry="8" style="stroke:#181818;stroke-width:0.5;"/><path d="M1210.6533,21.5 L1210.6533,48.5 M1197.6533,29.5 L1223.6533,29.5 M1210.6533,48.5 L1197.6533,63.5 M1210.6533,48.5 L1223.6533,63.5 " fill="none" style="stroke:#181818;stroke-width:0.5;"/><text fill="#000000" font-family="sans-serif" font-size="14" lengthAdjust="spacing" textLength="121.1328" x="1147.0869" y="696.6201">Metamask Wallet</text><ellipse cx="1210.6533" cy="708.4219" fill="#E2E2F0" rx="8" ry="8" style="stroke:#181818;stroke-width:0.5;"/><path d="M1210.6533,716.4219 L1210.6533,743.4219 M1197.6533,724.4219 L1223.6533,724.4219 M1210.6533,743.4219 L1197.6533,758.4219 M1210.6533,743.4219 L1223.6533,758.4219 " fill="none" style="stroke:#181818;stroke-width:0.5;"/><text fill="#000000" font-family="sans-serif" font-size="14" lengthAdjust="spacing" textLength="109.2793" x="1284.2197" y="77.9951">Polkadot Wallet</text><ellipse cx="1341.8594" cy="13.5" fill="#E2E2F0" rx="8" ry="8" style="stroke:#181818;stroke-width:0.5;"/><path d="M1341.8594,21.5 L1341.8594,48.5 M1328.8594,29.5 L1354.8594,29.5 M1341.8594,48.5 L1328.8594,63.5 M1341.8594,48.5 L1354.8594,63.5 " fill="none" style="stroke:#181818;stroke-width:0.5;"/><text fill="#000000" font-family="sans-serif" font-size="14" lengthAdjust="spacing" textLength="109.2793" x="1284.2197" y="696.6201">Polkadot Wallet</text><ellipse cx="1341.8594" cy="708.4219" fill="#E2E2F0" rx="8" ry="8" style="stroke:#181818;stroke-width:0.5;"/><path d="M1341.8594,716.4219 L1341.8594,743.4219 M1328.8594,724.4219 L1354.8594,724.4219 M1341.8594,743.4219 L1328.8594,758.4219 M1341.8594,743.4219 L1354.8594,758.4219 " fill="none" style="stroke:#181818;stroke-width:0.5;"/><rect fill="#E2E2F0" height="30.2969" rx="2.5" ry="2.5" style="stroke:#181818;stroke-width:0.5;" width="108.6025" x="1409.499" y="50"/><text fill="#000000" font-family="sans-serif" font-size="14" lengthAdjust="spacing" textLength="94.6025" x="1416.499" y="69.9951">Gasp RPC API</text><rect fill="#E2E2F0" height="30.2969" rx="2.5" ry="2.5" style="stroke:#181818;stroke-width:0.5;" width="108.6025" x="1409.499" y="683.625"/><text fill="#000000" font-family="sans-serif" font-size="14" lengthAdjust="spacing" textLength="94.6025" x="1416.499" y="703.6201">Gasp RPC API</text><rect fill="#E2E2F0" height="30.2969" rx="2.5" ry="2.5" style="stroke:#181818;stroke-width:0.5;" width="147.9707" x="1786.1304" y="50"/><text fill="#000000" font-family="sans-serif" font-size="14" lengthAdjust="spacing" textLength="133.9707" x="1793.1304" y="69.9951">Gasp Extrinsics API</text><rect fill="#E2E2F0" height="30.2969" rx="2.5" ry="2.5" style="stroke:#181818;stroke-width:0.5;" width="147.9707" x="1786.1304" y="683.625"/><text fill="#000000" font-family="sans-serif" font-size="14" lengthAdjust="spacing" textLength="133.9707" x="1793.1304" y="703.6201">Gasp Extrinsics API</text><polygon fill="#181818" points="355.165,108.4297,365.165,112.4297,355.165,116.4297,359.165,112.4297" style="stroke:#181818;stroke-width:1;"/><line style="stroke:#181818;stroke-width:1;stroke-dasharray:2.0,2.0;" x1="77.3696" x2="361.165" y1="112.4297" y2="112.4297"/><text fill="#000000" font-family="sans-serif" font-size="13" lengthAdjust="spacing" textLength="265.7954" x="84.3696" y="107.3638">Click wants to SWAP Token A for token B</text><polygon fill="#181818" points="680.2471,137.5625,690.2471,141.5625,680.2471,145.5625,684.2471,141.5625" style="stroke:#181818;stroke-width:1;"/><line style="stroke:#181818;stroke-width:1;stroke-dasharray:2.0,2.0;" x1="367.165" x2="686.2471" y1="141.5625" y2="141.5625"/><text fill="#000000" font-family="sans-serif" font-size="13" lengthAdjust="spacing" textLength="301.082" x="374.165" y="136.4966">sign transaction with unified sign SDK method</text><path d="M10,156.5625 L74.4429,156.5625 L74.4429,163.6953 L64.4429,173.6953 L10,173.6953 L10,156.5625 " fill="#EEEEEE" style="stroke:#000000;stroke-width:1.5;"/><rect fill="none" height="410.6641" style="stroke:#000000;stroke-width:1.5;" width="1934.1011" x="10" y="156.5625"/><text fill="#000000" font-family="sans-serif" font-size="13" font-weight="bold" lengthAdjust="spacing" textLength="19.4429" x="25" y="169.6294">alt</text><text fill="#000000" font-family="sans-serif" font-size="11" font-weight="bold" lengthAdjust="spacing" textLength="169.8018" x="89.4429" y="168.7729">[METAMASK wallet is used]</text><polygon fill="#181818" points="1451.8003,190.8281,1461.8003,194.8281,1451.8003,198.8281,1455.8003,194.8281" style="stroke:#181818;stroke-width:1;"/><line style="stroke:#181818;stroke-width:1;stroke-dasharray:2.0,2.0;" x1="692.2471" x2="1457.8003" y1="194.8281" y2="194.8281"/><text fill="#000000" font-family="sans-serif" font-size="13" lengthAdjust="spacing" textLength="338.8442" x="699.2471" y="189.7622">Specific API to encode my sign method with params</text><polygon fill="#181818" points="703.2471,219.9609,693.2471,223.9609,703.2471,227.9609,699.2471,223.9609" style="stroke:#181818;stroke-width:1;"/><line style="stroke:#181818;stroke-width:1;stroke-dasharray:2.0,2.0;" x1="697.2471" x2="1462.8003" y1="223.9609" y2="223.9609"/><text fill="#000000" font-family="sans-serif" font-size="13" lengthAdjust="spacing" textLength="364.4888" x="709.2471" y="218.895">Returns encoded JSON representation of calling method</text><polygon fill="#181818" points="1198.6533,249.0938,1208.6533,253.0938,1198.6533,257.0938,1202.6533,253.0938" style="stroke:#181818;stroke-width:1;"/><line style="stroke:#181818;stroke-width:1;stroke-dasharray:2.0,2.0;" x1="692.2471" x2="1204.6533" y1="253.0938" y2="253.0938"/><text fill="#000000" font-family="sans-serif" font-size="13" lengthAdjust="spacing" textLength="494.4063" x="699.2471" y="248.0278">Request to sign tx with aritrary JSON encoded data received from Gasp RPC</text><polygon fill="#181818" points="88.3696,278.2266,78.3696,282.2266,88.3696,286.2266,84.3696,282.2266" style="stroke:#181818;stroke-width:1;"/><line style="stroke:#181818;stroke-width:1;stroke-dasharray:2.0,2.0;" x1="82.3696" x2="1209.6533" y1="282.2266" y2="282.2266"/><text fill="#000000" font-family="sans-serif" font-size="13" lengthAdjust="spacing" textLength="176.4839" x="94.3696" y="277.1606">Opening the signing popup</text><polygon fill="#181818" points="1198.6533,307.3594,1208.6533,311.3594,1198.6533,315.3594,1202.6533,311.3594" style="stroke:#181818;stroke-width:1;"/><line style="stroke:#181818;stroke-width:1;stroke-dasharray:2.0,2.0;" x1="77.3696" x2="1204.6533" y1="311.3594" y2="311.3594"/><text fill="#000000" font-family="sans-serif" font-size="13" lengthAdjust="spacing" textLength="77.5176" x="84.3696" y="306.2935">Signs the tx</text><polygon fill="#181818" points="703.2471,336.4922,693.2471,340.4922,703.2471,344.4922,699.2471,340.4922" style="stroke:#181818;stroke-width:1;"/><line style="stroke:#181818;stroke-width:1;stroke-dasharray:2.0,2.0;" x1="697.2471" x2="1209.6533" y1="340.4922" y2="340.4922"/><text fill="#000000" font-family="sans-serif" font-size="13" lengthAdjust="spacing" textLength="109.605" x="709.2471" y="335.4263">Return signature</text><polygon fill="#181818" points="1848.1157,365.625,1858.1157,369.625,1848.1157,373.625,1852.1157,369.625" style="stroke:#181818;stroke-width:1;"/><line style="stroke:#181818;stroke-width:1;stroke-dasharray:2.0,2.0;" x1="692.2471" x2="1854.1157" y1="369.625" y2="369.625"/><text fill="#000000" font-family="sans-serif" font-size="13" lengthAdjust="spacing" textLength="345.1855" x="699.2471" y="364.5591">Execute (multy)SWAP with signature from Metamask</text><polygon fill="#181818" points="1474.8003,394.7578,1464.8003,398.7578,1474.8003,402.7578,1470.8003,398.7578" style="stroke:#181818;stroke-width:1;"/><line style="stroke:#181818;stroke-width:1;stroke-dasharray:2.0,2.0;" x1="1468.8003" x2="1859.1157" y1="398.7578" y2="398.7578"/><text fill="#000000" font-family="sans-serif" font-size="13" lengthAdjust="spacing" textLength="372.3154" x="1480.8003" y="393.6919">Decode the JSON data with same method it was encoded</text><line style="stroke:#000000;stroke-width:1;stroke-dasharray:2.0,2.0;" x1="10" x2="1944.1011" y1="407.7578" y2="407.7578"/><text fill="#000000" font-family="sans-serif" font-size="11" font-weight="bold" lengthAdjust="spacing" textLength="166.8638" x="15" y="417.9683">[POLKADOT wallet is used]</text><polygon fill="#181818" points="1329.8594,438.6953,1339.8594,442.6953,1329.8594,446.6953,1333.8594,442.6953" style="stroke:#181818;stroke-width:1;"/><line style="stroke:#181818;stroke-width:1;stroke-dasharray:2.0,2.0;" x1="692.2471" x2="1335.8594" y1="442.6953" y2="442.6953"/><text fill="#000000" font-family="sans-serif" font-size="13" lengthAdjust="spacing" textLength="118.5044" x="699.2471" y="437.6294">Request to sign tx</text><polygon fill="#181818" points="88.3696,467.8281,78.3696,471.8281,88.3696,475.8281,84.3696,471.8281" style="stroke:#181818;stroke-width:1;"/><line style="stroke:#181818;stroke-width:1;stroke-dasharray:2.0,2.0;" x1="82.3696" x2="1340.8594" y1="471.8281" y2="471.8281"/><text fill="#000000" font-family="sans-serif" font-size="13" lengthAdjust="spacing" textLength="130.9141" x="94.3696" y="466.7622">Opening sign popup</text><polygon fill="#181818" points="1329.8594,496.9609,1339.8594,500.9609,1329.8594,504.9609,1333.8594,500.9609" style="stroke:#181818;stroke-width:1;"/><line style="stroke:#181818;stroke-width:1;stroke-dasharray:2.0,2.0;" x1="77.3696" x2="1335.8594" y1="500.9609" y2="500.9609"/><text fill="#000000" font-family="sans-serif" font-size="13" lengthAdjust="spacing" textLength="52.0508" x="84.3696" y="495.895">Signs tx</text><polygon fill="#181818" points="703.2471,526.0938,693.2471,530.0938,703.2471,534.0938,699.2471,530.0938" style="stroke:#181818;stroke-width:1;"/><line style="stroke:#181818;stroke-width:1;stroke-dasharray:2.0,2.0;" x1="697.2471" x2="1340.8594" y1="530.0938" y2="530.0938"/><text fill="#000000" font-family="sans-serif" font-size="13" lengthAdjust="spacing" textLength="114.9053" x="709.2471" y="525.0278">Returns sidned tx</text><polygon fill="#181818" points="1848.1157,555.2266,1858.1157,559.2266,1848.1157,563.2266,1852.1157,559.2266" style="stroke:#181818;stroke-width:1;"/><line style="stroke:#181818;stroke-width:1;stroke-dasharray:2.0,2.0;" x1="692.2471" x2="1854.1157" y1="559.2266" y2="559.2266"/><text fill="#000000" font-family="sans-serif" font-size="13" lengthAdjust="spacing" textLength="453.9146" x="699.2471" y="554.1606">Execute (multy)SWAP with signature from Polkadot compatible wallet</text><line style="stroke:#181818;stroke-width:1;stroke-dasharray:2.0,2.0;" x1="1860.1157" x2="1902.1157" y1="595.3594" y2="595.3594"/><line style="stroke:#181818;stroke-width:1;stroke-dasharray:2.0,2.0;" x1="1902.1157" x2="1902.1157" y1="595.3594" y2="608.3594"/><line style="stroke:#181818;stroke-width:1;stroke-dasharray:2.0,2.0;" x1="1861.1157" x2="1902.1157" y1="608.3594" y2="608.3594"/><polygon fill="#181818" points="1871.1157,604.3594,1861.1157,608.3594,1871.1157,612.3594,1867.1157,608.3594" style="stroke:#181818;stroke-width:1;"/><text fill="#000000" font-family="sans-serif" font-size="13" lengthAdjust="spacing" textLength="126.5977" x="1867.1157" y="590.2935">Executes the SWAP</text><polygon fill="#181818" points="703.2471,633.4922,693.2471,637.4922,703.2471,641.4922,699.2471,637.4922" style="stroke:#181818;stroke-width:1;"/><line style="stroke:#181818;stroke-width:1;stroke-dasharray:2.0,2.0;" x1="697.2471" x2="1859.1157" y1="637.4922" y2="637.4922"/><text fill="#000000" font-family="sans-serif" font-size="13" lengthAdjust="spacing" textLength="155.9238" x="709.2471" y="632.4263">successfull tx execution</text><polygon fill="#181818" points="88.3696,662.625,78.3696,666.625,88.3696,670.625,84.3696,666.625" style="stroke:#181818;stroke-width:1;"/><line style="stroke:#181818;stroke-width:1;stroke-dasharray:2.0,2.0;" x1="82.3696" x2="691.2471" y1="666.625" y2="666.625"/><text fill="#000000" font-family="sans-serif" font-size="13" lengthAdjust="spacing" textLength="155.9238" x="94.3696" y="661.5591">successfull tx execution</text><!--SRC=[dLFBRjim4BppAnRAfJqa7-1302KEYjPnR4GkScQebKsO8bborTX_toNfXv8ub-eaaREpCxChgSW5A4yrHvAzZ5lu7J5KXrCPOU1F8OINWRJINbg2Idf_ivRHttJQIgkmIa0-_01hfhDy4zkj4F9YinTf3DAeNO_q0RjqPYjRHv-ntXaXNjqEgXyi1fvSoqgk7lLwGtTcmFTYCkHvUG_rycTLweDN5p0FEmhQHgrYWJ8GToJGji2zX4Y1mFNrRJ8yWNkZrHRUk3m2EMXUwYMit1OjrD2n2ShlTuB1kOYpc43KQmiKf8tiL3iBRvesC5ZTQMpBBMUNijYubkCm1FE7LJslcnctIYc0pfDf1IJ6pCnk9j1uLCoYalIa1wtYLA3V5zR2MDgnSzb79k32ixHdf27OU2XiuLUpU8A0Fc14IpAhTHqeLg7j-YZnh88F4icV0ICb0SNghhIKGRFhi2-innQj9Caj5Eg__DK5ryDnM4pCX9aunJw1XKUR-j86CtLwzyuFdf6dmMGD3T_6ZAFTY6PaCXD8ViEHVXxrX5S0rK08t_h1qFvx7cesSAeeCezhpFLSTvx257FggNbscXqM0jdZSGgQU9Ydf0MQYB1SFCxgwMBrzPXvwIy5p0Y-kP1KllyKKMOvH3IkVRS3KRUM9v81_vNFwTTLhlUyEwy63yRIxpHARSnQXfOuHu3osmnAOOpTO4nQASnuNiYHlEBzA-0_]--></g></svg>