<svg xmlns="http://www.w3.org/2000/svg" xmlns:xlink="http://www.w3.org/1999/xlink" contentStyleType="text/css" height="440px" preserveAspectRatio="none" style="width:3013px;height:440px;background:#FFFFFF;" version="1.1" viewBox="0 0 3013 440" width="3013px" zoomAndPan="magnify"><defs/><g><!--entity FE--><g id="elem_FE"><rect fill="#F1F1F1" height="46.2969" rx="2.5" ry="2.5" style="stroke:#181818;stroke-width:0.5;" width="103.1094" x="801.84" y="7"/><rect fill="#F1F1F1" height="10" style="stroke:#181818;stroke-width:0.5;" width="15" x="884.9494" y="12"/><rect fill="#F1F1F1" height="2" style="stroke:#181818;stroke-width:0.5;" width="4" x="882.9494" y="14"/><rect fill="#F1F1F1" height="2" style="stroke:#181818;stroke-width:0.5;" width="4" x="882.9494" y="18"/><text fill="#000000" font-family="sans-serif" font-size="14" lengthAdjust="spacing" textLength="63.1094" x="816.84" y="39.9951">Frontend</text></g><!--entity Archive--><g id="elem_Archive"><rect fill="#F1F1F1" height="46.2969" rx="2.5" ry="2.5" style="stroke:#181818;stroke-width:0.5;" width="133.6797" x="359.55" y="259.44"/><rect fill="#F1F1F1" height="10" style="stroke:#181818;stroke-width:0.5;" width="15" x="473.2297" y="264.44"/><rect fill="#F1F1F1" height="2" style="stroke:#181818;stroke-width:0.5;" width="4" x="471.2297" y="266.44"/><rect fill="#F1F1F1" height="2" style="stroke:#181818;stroke-width:0.5;" width="4" x="471.2297" y="270.44"/><text fill="#000000" font-family="sans-serif" font-size="14" lengthAdjust="spacing" textLength="93.6797" x="374.55" y="292.4351">Archive Node</text></g><!--entity Stash--><g id="elem_Stash"><rect fill="#F1F1F1" height="46.2969" rx="2.5" ry="2.5" style="stroke:#181818;stroke-width:0.5;" width="79.1221" x="813.83" y="130.3"/><rect fill="#F1F1F1" height="10" style="stroke:#181818;stroke-width:0.5;" width="15" x="872.9521" y="135.3"/><rect fill="#F1F1F1" height="2" style="stroke:#181818;stroke-width:0.5;" width="4" x="870.9521" y="137.3"/><rect fill="#F1F1F1" height="2" style="stroke:#181818;stroke-width:0.5;" width="4" x="870.9521" y="141.3"/><text fill="#000000" font-family="sans-serif" font-size="14" lengthAdjust="spacing" textLength="39.1221" x="828.83" y="163.2951">Stash</text></g><!--entity TenderlyL1--><g id="elem_TenderlyL1"><rect fill="#F1F1F1" height="46.2969" rx="2.5" ry="2.5" style="stroke:#181818;stroke-width:0.5;" width="122.626" x="1374.08" y="259.44"/><rect fill="#F1F1F1" height="10" style="stroke:#181818;stroke-width:0.5;" width="15" x="1476.706" y="264.44"/><rect fill="#F1F1F1" height="2" style="stroke:#181818;stroke-width:0.5;" width="4" x="1474.706" y="266.44"/><rect fill="#F1F1F1" height="2" style="stroke:#181818;stroke-width:0.5;" width="4" x="1474.706" y="270.44"/><text fill="#000000" font-family="sans-serif" font-size="14" lengthAdjust="spacing" textLength="82.626" x="1389.08" y="292.4351">Tenderly L1</text></g><!--entity Collator--><g id="elem_Collator"><rect fill="#F1F1F1" height="46.2969" rx="2.5" ry="2.5" style="stroke:#181818;stroke-width:0.5;" width="94.5098" x="379.14" y="388.59"/><rect fill="#F1F1F1" height="10" style="stroke:#181818;stroke-width:0.5;" width="15" x="453.6498" y="393.59"/><rect fill="#F1F1F1" height="2" style="stroke:#181818;stroke-width:0.5;" width="4" x="451.6498" y="395.59"/><rect fill="#F1F1F1" height="2" style="stroke:#181818;stroke-width:0.5;" width="4" x="451.6498" y="399.59"/><text fill="#000000" font-family="sans-serif" font-size="14" lengthAdjust="spacing" textLength="54.5098" x="394.14" y="421.5851">Collator</text></g><!--entity Sequencer--><g id="elem_Sequencer"><rect fill="#F1F1F1" height="46.2969" rx="2.5" ry="2.5" style="stroke:#181818;stroke-width:0.5;" width="114.8125" x="1194.99" y="130.3"/><rect fill="#F1F1F1" height="10" style="stroke:#181818;stroke-width:0.5;" width="15" x="1289.8025" y="135.3"/><rect fill="#F1F1F1" height="2" style="stroke:#181818;stroke-width:0.5;" width="4" x="1287.8025" y="137.3"/><rect fill="#F1F1F1" height="2" style="stroke:#181818;stroke-width:0.5;" width="4" x="1287.8025" y="141.3"/><text fill="#000000" font-family="sans-serif" font-size="14" lengthAdjust="spacing" textLength="74.8125" x="1209.99" y="163.2951">Sequencer</text></g><!--entity Updater--><g id="elem_Updater"><rect fill="#F1F1F1" height="46.2969" rx="2.5" ry="2.5" style="stroke:#181818;stroke-width:0.5;" width="96.458" x="2484.17" y="130.3"/><rect fill="#F1F1F1" height="10" style="stroke:#181818;stroke-width:0.5;" width="15" x="2560.628" y="135.3"/><rect fill="#F1F1F1" height="2" style="stroke:#181818;stroke-width:0.5;" width="4" x="2558.628" y="137.3"/><rect fill="#F1F1F1" height="2" style="stroke:#181818;stroke-width:0.5;" width="4" x="2558.628" y="141.3"/><text fill="#000000" font-family="sans-serif" font-size="14" lengthAdjust="spacing" textLength="56.458" x="2499.17" y="163.2951">Updater</text></g><!--entity TenderlyAVS--><g id="elem_TenderlyAVS"><rect fill="#F1F1F1" height="46.2969" rx="2.5" ry="2.5" style="stroke:#181818;stroke-width:0.5;" width="207.3232" x="2516.73" y="259.44"/><rect fill="#F1F1F1" height="10" style="stroke:#181818;stroke-width:0.5;" width="15" x="2704.0532" y="264.44"/><rect fill="#F1F1F1" height="2" style="stroke:#181818;stroke-width:0.5;" width="4" x="2702.0532" y="266.44"/><rect fill="#F1F1F1" height="2" style="stroke:#181818;stroke-width:0.5;" width="4" x="2702.0532" y="270.44"/><text fill="#000000" font-family="sans-serif" font-size="14" lengthAdjust="spacing" textLength="167.3232" x="2531.73" y="292.4351">Tenderly ETH AVS Node</text></g><!--entity AVSAggregator--><g id="elem_AVSAggregator"><rect fill="#F1F1F1" height="46.2969" rx="2.5" ry="2.5" style="stroke:#181818;stroke-width:0.5;" width="151.4873" x="2183.65" y="130.3"/><rect fill="#F1F1F1" height="10" style="stroke:#181818;stroke-width:0.5;" width="15" x="2315.1373" y="135.3"/><rect fill="#F1F1F1" height="2" style="stroke:#181818;stroke-width:0.5;" width="4" x="2313.1373" y="137.3"/><rect fill="#F1F1F1" height="2" style="stroke:#181818;stroke-width:0.5;" width="4" x="2313.1373" y="141.3"/><text fill="#000000" font-family="sans-serif" font-size="14" lengthAdjust="spacing" textLength="111.4873" x="2198.65" y="163.2951">AVS Aggregator</text></g><!--entity AVSOperator--><g id="elem_AVSOperator"><rect fill="#F1F1F1" height="46.2969" rx="2.5" ry="2.5" style="stroke:#181818;stroke-width:0.5;" width="135.1563" x="2774.82" y="130.3"/><rect fill="#F1F1F1" height="10" style="stroke:#181818;stroke-width:0.5;" width="15" x="2889.9763" y="135.3"/><rect fill="#F1F1F1" height="2" style="stroke:#181818;stroke-width:0.5;" width="4" x="2887.9763" y="137.3"/><rect fill="#F1F1F1" height="2" style="stroke:#181818;stroke-width:0.5;" width="4" x="2887.9763" y="141.3"/><text fill="#000000" font-family="sans-serif" font-size="14" lengthAdjust="spacing" textLength="95.1563" x="2789.82" y="163.2951">AVS Operator</text></g><!--entity DepositFerry--><g id="elem_DepositFerry"><rect fill="#F1F1F1" height="46.2969" rx="2.5" ry="2.5" style="stroke:#181818;stroke-width:0.5;" width="134.4316" x="338.18" y="130.3"/><rect fill="#F1F1F1" height="10" style="stroke:#181818;stroke-width:0.5;" width="15" x="452.6116" y="135.3"/><rect fill="#F1F1F1" height="2" style="stroke:#181818;stroke-width:0.5;" width="4" x="450.6116" y="137.3"/><rect fill="#F1F1F1" height="2" style="stroke:#181818;stroke-width:0.5;" width="4" x="450.6116" y="141.3"/><text fill="#000000" font-family="sans-serif" font-size="14" lengthAdjust="spacing" textLength="94.4316" x="353.18" y="163.2951">Deposit Ferry</text></g><!--entity WithdrawalFerry--><g id="elem_WithdrawalFerry"><rect fill="#F1F1F1" height="46.2969" rx="2.5" ry="2.5" style="stroke:#181818;stroke-width:0.5;" width="160.1484" x="1417.32" y="130.3"/><rect fill="#F1F1F1" height="10" style="stroke:#181818;stroke-width:0.5;" width="15" x="1557.4684" y="135.3"/><rect fill="#F1F1F1" height="2" style="stroke:#181818;stroke-width:0.5;" width="4" x="1555.4684" y="137.3"/><rect fill="#F1F1F1" height="2" style="stroke:#181818;stroke-width:0.5;" width="4" x="1555.4684" y="141.3"/><text fill="#000000" font-family="sans-serif" font-size="14" lengthAdjust="spacing" textLength="120.1484" x="1432.32" y="163.2951">Withdrawal Ferry</text></g><!--entity Closer--><g id="elem_Closer"><rect fill="#F1F1F1" height="46.2969" rx="2.5" ry="2.5" style="stroke:#181818;stroke-width:0.5;" width="83.8936" x="584.45" y="130.3"/><rect fill="#F1F1F1" height="10" style="stroke:#181818;stroke-width:0.5;" width="15" x="648.3436" y="135.3"/><rect fill="#F1F1F1" height="2" style="stroke:#181818;stroke-width:0.5;" width="4" x="646.3436" y="137.3"/><rect fill="#F1F1F1" height="2" style="stroke:#181818;stroke-width:0.5;" width="4" x="646.3436" y="141.3"/><text fill="#000000" font-family="sans-serif" font-size="14" lengthAdjust="spacing" textLength="43.8936" x="599.45" y="163.2951">Closer</text></g><!--entity AVSlAggregator--><g id="elem_AVSlAggregator"><ellipse cx="2900.39" cy="282.59" fill="#F1F1F1" rx="8" ry="8" style="stroke:#181818;stroke-width:0.5;"/><text fill="#000000" font-family="sans-serif" font-size="14" lengthAdjust="spacing" textLength="110.9268" x="2844.9266" y="312.5851">AVSlAggregator</text></g><!--link FE to Archive--><g id="link_FE_Archive"><path d="M801.53,32.86 C634.15,39.69 114.75,71.65 38.39,206.59 C6,263.84 233.8222,277.2493 353.2222,280.4493 " fill="none" id="FE-to-Archive" style="stroke:#181818;stroke-width:1;"/><polygon fill="#181818" points="359.22,280.61,350.3304,276.3703,354.2218,280.476,350.1161,284.3674,359.22,280.61" style="stroke:#181818;stroke-width:1;"/><text fill="#000000" font-family="sans-serif" font-size="13" lengthAdjust="spacing" textLength="153.2261" x="141.39" y="158.0069">Storage &amp; Tx Execution</text></g><!--link FE to Stash--><g id="link_FE_Stash"><path d="M853.39,53.68 C853.39,75.47 853.39,102.29 853.39,124.03 " fill="none" id="FE-to-Stash" style="stroke:#181818;stroke-width:1;"/><polygon fill="#181818" points="853.39,130.03,857.39,121.03,853.39,125.03,849.39,121.03,853.39,130.03" style="stroke:#181818;stroke-width:1;"/><text fill="#000000" font-family="sans-serif" font-size="13" lengthAdjust="spacing" textLength="97.8364" x="854.39" y="96.3669">History &amp; Stats</text></g><!--link FE to TenderlyL1--><g id="link_FE_TenderlyL1"><path d="M905.39,30.65 C1107.25,29.96 1834.61,39.27 1971.39,206.59 C1976.18,212.44 1976.44,217.97 1971.39,223.59 C1940.17,258.38 1637.3354,273.9546 1503.1254,279.2246 " fill="none" id="FE-to-TenderlyL1" style="stroke:#181818;stroke-width:1;"/><polygon fill="#181818" points="1497.13,279.46,1506.28,283.1038,1502.1261,279.2638,1505.9661,275.11,1497.13,279.46" style="stroke:#181818;stroke-width:1;"/><text fill="#000000" font-family="sans-serif" font-size="13" lengthAdjust="spacing" textLength="153.2261" x="1938.39" y="158.0069">Storage &amp; Tx Execution</text></g><!--link Archive to Collator--><g id="link_Archive_Collator"><path d="M359.37,283.86 C275.03,286.58 146.51,300.05 193.39,358.59 C216.17,387.02 311.5182,400.4192 372.7982,406.3792 " fill="none" id="Archive-to-Collator" style="stroke:#181818;stroke-width:1;"/><polygon fill="#181818" points="378.77,406.96,370.1995,402.1076,373.7935,406.476,369.4251,410.07,378.77,406.96" style="stroke:#181818;stroke-width:1;"/><text fill="#000000" font-family="sans-serif" font-size="13" lengthAdjust="spacing" textLength="188.6904" x="194.39" y="354.6569">Storage Sync &amp; Tx Execution</text></g><!--link Collator to Archive--><!--link Collator to Archive--><g id="link_Collator_Archive"><path d="M474.06,400.95 C497.39,393.5 523.41,380.61 537.39,358.59 C553.42,333.36 530.9782,316.7545 499.0782,304.2845 " fill="none" id="Collator-to-Archive-1" style="stroke:#181818;stroke-width:1;stroke-dasharray:7.0,7.0;"/><polygon fill="#181818" points="493.49,302.1,500.416,309.1022,498.1468,303.9204,503.3286,301.6513,493.49,302.1" style="stroke:#181818;stroke-width:1;"/><text fill="#000000" font-family="sans-serif" font-size="13" lengthAdjust="spacing" textLength="188.6904" x="543.39" y="354.6569">Storage Sync &amp; Tx Execution</text></g><!--link Stash to Archive--><g id="link_Stash_Archive"><path d="M813.36,159.92 C779.34,164.52 729.19,171.2 685.39,176.59 C627.23,183.76 462.4,162.86 423.39,206.59 C410.9,220.6 411.8065,236.7982 416.3965,253.3482 " fill="none" id="Stash-to-Archive" style="stroke:#181818;stroke-width:1;"/><polygon fill="#181818" points="418,259.13,419.4492,249.3883,416.6637,254.3119,411.7402,251.5264,418,259.13" style="stroke:#181818;stroke-width:1;"/><text fill="#000000" font-family="sans-serif" font-size="13" lengthAdjust="spacing" textLength="101.1689" x="424.39" y="219.6569">Indexes History</text></g><!--link Stash to TenderlyL1--><g id="link_Stash_TenderlyL1"><path d="M880.59,177 C901.17,192.79 930.87,212.89 960.39,223.59 C1035.09,250.66 1257.2952,269.2238 1367.9552,277.1038 " fill="none" id="Stash-to-TenderlyL1" style="stroke:#181818;stroke-width:1;"/><polygon fill="#181818" points="1373.94,277.53,1365.2468,272.9008,1368.9526,277.1749,1364.6786,280.8806,1373.94,277.53" style="stroke:#181818;stroke-width:1;"/><text fill="#000000" font-family="sans-serif" font-size="13" lengthAdjust="spacing" textLength="101.1689" x="961.39" y="219.6569">Indexes History</text></g><!--link Sequencer to TenderlyL1--><g id="link_Sequencer_TenderlyL1"><path d="M1310.1,164.97 C1338.7,172.59 1372.19,185.39 1396.39,206.59 C1412.29,220.52 1420.5912,236.8706 1426.6112,253.4406 " fill="none" id="Sequencer-to-TenderlyL1" style="stroke:#181818;stroke-width:1;"/><polygon fill="#181818" points="1428.66,259.08,1429.3463,249.2551,1426.9527,254.3805,1421.8272,251.9868,1428.66,259.08" style="stroke:#181818;stroke-width:1;"/><text fill="#000000" font-family="sans-serif" font-size="13" lengthAdjust="spacing" textLength="93.8501" x="1410.39" y="219.6569">Read Deposits</text></g><!--link Sequencer to Archive--><g id="link_Sequencer_Archive"><path d="M1194.56,173.12 C1166.74,182.5 1133.07,194.43 1103.39,206.59 C1087.02,213.3 1084.47,218.95 1067.39,223.59 C960.59,252.66 641.1626,271.1831 499.4826,278.2031 " fill="none" id="Sequencer-to-Archive" style="stroke:#181818;stroke-width:1;"/><polygon fill="#181818" points="493.49,278.5,502.6769,282.0497,498.4839,278.2526,502.281,274.0595,493.49,278.5" style="stroke:#181818;stroke-width:1;"/><text fill="#000000" font-family="sans-serif" font-size="13" lengthAdjust="spacing" textLength="112.9883" x="1104.39" y="219.6569">Execute Deposits</text></g><!--link Updater to TenderlyAVS--><g id="link_Updater_TenderlyAVS"><path d="M2556.05,176.88 C2564.61,185.68 2573.99,196.16 2581.39,206.59 C2593.11,223.11 2601.0136,238.1732 2608.1236,253.5632 " fill="none" id="Updater-to-TenderlyAVS" style="stroke:#181818;stroke-width:1;"/><polygon fill="#181818" points="2610.64,259.01,2610.4967,249.1622,2608.543,254.471,2603.2342,252.5173,2610.64,259.01" style="stroke:#181818;stroke-width:1;"/><text fill="#000000" font-family="sans-serif" font-size="13" lengthAdjust="spacing" textLength="122.021" x="2592.39" y="219.6569">Read Merkle Roots</text></g><!--link Updater to TenderlyL1--><g id="link_Updater_TenderlyL1"><path d="M2491.33,176.94 C2454.68,196.99 2406.59,223.25 2405.39,223.59 C2233.69,272.81 1688.3899,280.2541 1502.9299,281.3641 " fill="none" id="Updater-to-TenderlyL1" style="stroke:#181818;stroke-width:1;"/><polygon fill="#181818" points="1496.93,281.4,1505.9538,285.3461,1501.9299,281.3701,1505.9059,277.3462,1496.93,281.4" style="stroke:#181818;stroke-width:1;"/><text fill="#000000" font-family="sans-serif" font-size="13" lengthAdjust="spacing" textLength="134.8877" x="2437.39" y="219.6569">Submit Merkle Roots</text></g><!--link AVSAggregator to Archive--><g id="link_AVSAggregator_Archive"><path d="M2183.35,171.72 C2174.29,173.5 2165.15,175.18 2156.39,176.59 C1966.17,207.33 1917.52,208.84 1725.39,223.59 C1254.41,259.75 691.4883,275.4076 499.4083,279.9676 " fill="none" id="AVSAggregator-to-Archive" style="stroke:#181818;stroke-width:1;"/><polygon fill="#181818" points="493.41,280.11,502.5024,283.8953,498.4086,279.9913,502.3125,275.8975,493.41,280.11" style="stroke:#181818;stroke-width:1;"/><text fill="#000000" font-family="sans-serif" font-size="13" lengthAdjust="spacing" textLength="175.2397" x="1935.39" y="219.6569">Withdrawal Batch Tracking</text></g><!--link AVSAggregator to TenderlyAVS--><g id="link_AVSAggregator_TenderlyAVS"><path d="M2183.5,176.47 C2155.96,188.23 2135.33,204.28 2152.39,223.59 C2176.1,250.41 2379.8119,267.2824 2510.3419,275.5124 " fill="none" id="AVSAggregator-to-TenderlyAVS" style="stroke:#181818;stroke-width:1;"/><polygon fill="#181818" points="2516.33,275.89,2507.5995,271.3316,2511.3399,275.5754,2507.0961,279.3157,2516.33,275.89" style="stroke:#181818;stroke-width:1;"/><text fill="#000000" font-family="sans-serif" font-size="13" lengthAdjust="spacing" textLength="247.146" x="2153.39" y="219.6569">Submit Tasks to Process Merkle Roots</text></g><!--link AVSOperator to TenderlyAVS--><g id="link_AVSOperator_TenderlyAVS"><path d="M2803.88,177 C2780.62,190.58 2750.36,208.17 2723.39,223.59 C2702.73,235.41 2684.8826,245.494 2665.8126,256.194 " fill="none" id="AVSOperator-to-TenderlyAVS" style="stroke:#181818;stroke-width:1;"/><polygon fill="#181818" points="2660.58,259.13,2670.3862,258.2145,2664.9405,256.6834,2666.4716,251.2377,2660.58,259.13" style="stroke:#181818;stroke-width:1;"/><text fill="#000000" font-family="sans-serif" font-size="13" lengthAdjust="spacing" textLength="74.3628" x="2753.39" y="219.6569">Read Tasks</text></g><!--link AVSOperator to AVSlAggregator--><g id="link_AVSOperator_AVSlAggregator"><path d="M2852.63,176.88 C2865.83,205.83 2885.6392,249.2514 2894.3092,268.2514 " fill="none" id="AVSOperator-to-AVSlAggregator" style="stroke:#181818;stroke-width:1;"/><polygon fill="#181818" points="2896.8,273.71,2896.7028,263.8616,2894.7243,269.1612,2889.4247,267.1827,2896.8,273.71" style="stroke:#181818;stroke-width:1;"/><text fill="#000000" font-family="sans-serif" font-size="13" lengthAdjust="spacing" textLength="132.1138" x="2873.39" y="219.6569">Submit Task Results</text></g><!--link DepositFerry to TenderlyL1--><g id="link_DepositFerry_TenderlyL1"><path d="M459.88,177.08 C481.8,186.22 507.31,196.87 530.39,206.59 C548.2,214.09 551.61,219.11 570.39,223.59 C723.29,260.1 1196.5321,275.4931 1367.7921,279.9731 " fill="none" id="DepositFerry-to-TenderlyL1" style="stroke:#181818;stroke-width:1;"/><polygon fill="#181818" points="1373.79,280.13,1364.8977,275.896,1368.7917,279.9992,1364.6885,283.8933,1373.79,280.13" style="stroke:#181818;stroke-width:1;"/><text fill="#000000" font-family="sans-serif" font-size="13" lengthAdjust="spacing" textLength="93.8501" x="571.39" y="219.6569">Read Deposits</text></g><!--link DepositFerry to Archive--><g id="link_DepositFerry_Archive"><path d="M338.01,159.61 C240.07,167.8 67.98,185.09 49.39,206.59 C44.45,212.31 44.47,217.86 49.39,223.59 C88.52,269.2 255.6713,279.1663 353.1413,281.1763 " fill="none" id="DepositFerry-to-Archive" style="stroke:#181818;stroke-width:1;"/><polygon fill="#181818" points="359.14,281.3,350.2244,277.1153,354.1411,281.1969,350.0594,285.1136,359.14,281.3" style="stroke:#181818;stroke-width:1;"/><text fill="#000000" font-family="sans-serif" font-size="13" lengthAdjust="spacing" textLength="157.7773" x="50.39" y="219.6569">Execute Deposits Faster</text></g><!--link WithdrawalFerry to Archive--><g id="link_WithdrawalFerry_Archive"><path d="M1416.98,165.85 C1368.64,174.12 1306.41,187.28 1253.39,206.59 C1238.26,212.11 1236.87,219.13 1221.39,223.59 C1085.43,262.78 665.3784,276.2297 499.4584,280.1097 " fill="none" id="WithdrawalFerry-to-Archive" style="stroke:#181818;stroke-width:1;"/><polygon fill="#181818" points="493.46,280.25,502.5511,284.0385,498.4586,280.1331,502.364,276.0407,493.46,280.25" style="stroke:#181818;stroke-width:1;"/><text fill="#000000" font-family="sans-serif" font-size="13" lengthAdjust="spacing" textLength="133.7388" x="1254.39" y="219.6569">Withdrawal Tracking</text></g><!--link WithdrawalFerry to TenderlyL1--><g id="link_WithdrawalFerry_TenderlyL1"><path d="M1519.96,176.89 C1530.9,190.58 1540.01,208.33 1531.39,223.59 C1522.88,238.69 1513.8584,247.2694 1498.9584,255.9894 " fill="none" id="WithdrawalFerry-to-TenderlyL1" style="stroke:#181818;stroke-width:1;"/><polygon fill="#181818" points="1493.78,259.02,1503.568,257.9264,1498.0953,256.4945,1499.5272,251.0219,1493.78,259.02" style="stroke:#181818;stroke-width:1;"/><text fill="#000000" font-family="sans-serif" font-size="13" lengthAdjust="spacing" textLength="181.6572" x="1535.39" y="219.6569">Execute Withdrawals Faster</text></g><!--link Closer to Archive--><g id="link_Closer_Archive"><path d="M584.19,161.74 C557.37,166.28 521.89,172.08 490.39,176.59 C436.75,184.28 284.28,165.99 248.39,206.59 C212.09,247.68 288.8116,266.0951 353.3016,274.6051 " fill="none" id="Closer-to-Archive" style="stroke:#181818;stroke-width:1;"/><polygon fill="#181818" points="359.25,275.39,350.8506,270.247,354.293,274.7359,349.8041,278.1782,359.25,275.39" style="stroke:#181818;stroke-width:1;"/><text fill="#000000" font-family="sans-serif" font-size="13" lengthAdjust="spacing" textLength="133.7388" x="249.39" y="219.6569">Withdrawal Tracking</text></g><!--link Closer to TenderlyL1--><g id="link_Closer_TenderlyL1"><path d="M642.88,177.04 C655.97,193.06 675.78,213.45 698.39,223.59 C818.42,277.46 1212.82,282.2589 1367.59,282.0289 " fill="none" id="Closer-to-TenderlyL1" style="stroke:#181818;stroke-width:1;"/><polygon fill="#181818" points="1373.59,282.02,1364.5841,278.0334,1368.59,282.0274,1364.596,286.0334,1373.59,282.02" style="stroke:#181818;stroke-width:1;"/><text fill="#000000" font-family="sans-serif" font-size="13" lengthAdjust="spacing" textLength="217.6357" x="699.39" y="219.6569">Execute Non-Ferried Withdrawals</text></g><!--SRC=[ZPHDRvmm48Rl_XMZFJIdZPHh3vLeiYYLahGAD3rKFJZs19mbDhLDklpxcW-33QpQmqhB-9bvNsR6NC0DlWY9O4i4fjvg9L5QGwQ_i4kraXObtm4ra1x2eqIpKhmZF2YE_V4O29dCKbFkmaZkYg6kMhYxwfFyyzrLI5shgg9MwHqX5v0XKv9JtO91_IuOHWup_DsWPAWZcUyrftOHcwGF-IqaJzdit9-uOFI6ZacAGcFHU-dVyIcR8qlsQuqw9FrpoDrWhOomaABMRG-EaJuGaZ-4BRccVsWLm7DmnLzNok3GiM2i6bqZXPAc5BKXwG7s-qz-Kl0HCcUF5WWV83_1uOIiwM3FzUDprAqmZciTvI9sAZFFxdmbuhMw13_M0CzQoLOvWsxiz8lJEg7nNW8cih74oBGVQ_OHAVVjDmjm5XvyuGoISRcYWjtynuhtg8yLmgDI3jvYXturpszk3oAOHEkry17imsTgMGcvfkmePB6H5RiQfN9gZWQiWczQkKjarjf-OS-zMLzX1RhdAj2Fz5oUQQgkVBZc_nh5YZq_3KYfSVqbP74ppZTlQjjMHcJAQytWB3VSjlzG2S3DuWzAxZjzWJmKwgvnmbyRO-TRy-9-psYxTQfegnfBfgFzpr9mZl9Nv2UfH27xD5DJrhln2PUNMv-1ZTlu5m00]--></g></svg>