<?xml version="1.0" encoding="us-ascii" standalone="no"?><svg xmlns="http://www.w3.org/2000/svg" xmlns:xlink="http://www.w3.org/1999/xlink" contentStyleType="text/css" height="2074px" preserveAspectRatio="none" style="width:3478px;height:2074px;background:#FFFFFF;" version="1.1" viewBox="0 0 3478 2074" width="3478px" zoomAndPan="magnify"><defs/><g><rect fill="#ADD8E6" height="2062.8672" style="stroke:#181818;stroke-width:0.5;" width="765.5" x="982" y="6"/><text fill="#000000" font-family="sans-serif" font-size="13" font-weight="bold" lengthAdjust="spacing" textLength="504" x="1112.75" y="18.0669">Bob - dude who runs Mangata Collator + Sequencer as one service</text><rect fill="none" height="798.3516" style="stroke:#000000;stroke-width:1.5;" width="575" x="1579.5" y="454.625"/><rect fill="none" height="767.2188" style="stroke:#000000;stroke-width:1.5;" width="555" x="1589.5" y="478.7578"/><rect fill="none" height="693.9531" style="stroke:#000000;stroke-width:1.5;" width="535" x="1599.5" y="502.8906"/><rect fill="none" height="116.2031" style="stroke:#000000;stroke-width:1.5;" width="385" x="1619.5" y="527.0234"/><rect fill="none" height="116.2031" style="stroke:#000000;stroke-width:1.5;" width="379" x="1619.5" y="657.2266"/><rect fill="none" height="402.4141" style="stroke:#000000;stroke-width:1.5;" width="515" x="1609.5" y="787.4297"/><rect fill="none" height="200.4688" style="stroke:#000000;stroke-width:1.5;" width="495" x="1619.5" y="982.375"/><rect fill="none" height="90.2031" style="stroke:#000000;stroke-width:1.5;" width="403" x="10" y="1882.3672"/><line style="stroke:#181818;stroke-width:0.5;stroke-dasharray:5.0,5.0;" x1="93" x2="93" y1="81.2969" y2="1989.5703"/><line style="stroke:#181818;stroke-width:0.5;stroke-dasharray:5.0,5.0;" x1="315" x2="315" y1="81.2969" y2="1989.5703"/><line style="stroke:#181818;stroke-width:0.5;stroke-dasharray:5.0,5.0;" x1="1052" x2="1052" y1="81.2969" y2="1989.5703"/><line style="stroke:#181818;stroke-width:0.5;stroke-dasharray:5.0,5.0;" x1="1686.5" x2="1686.5" y1="81.2969" y2="1989.5703"/><line style="stroke:#181818;stroke-width:0.5;stroke-dasharray:5.0,5.0;" x1="2403" x2="2403" y1="81.2969" y2="1989.5703"/><line style="stroke:#181818;stroke-width:0.5;stroke-dasharray:5.0,5.0;" x1="2567" x2="2567" y1="81.2969" y2="1989.5703"/><line style="stroke:#181818;stroke-width:0.5;stroke-dasharray:5.0,5.0;" x1="2774.5" x2="2774.5" y1="81.2969" y2="1989.5703"/><line style="stroke:#181818;stroke-width:0.5;stroke-dasharray:5.0,5.0;" x1="3051.5" x2="3051.5" y1="81.2969" y2="1989.5703"/><line style="stroke:#181818;stroke-width:0.5;stroke-dasharray:5.0,5.0;" x1="3417.5" x2="3417.5" y1="81.2969" y2="1989.5703"/><text fill="#000000" font-family="sans-serif" font-size="14" lengthAdjust="spacing" textLength="141" x="20" y="77.9951">ETH Metamask User</text><ellipse cx="93.5" cy="13.5" fill="#E2E2F0" rx="8" ry="8" style="stroke:#181818;stroke-width:0.5;"/><path d="M93.5,21.5 L93.5,48.5 M80.5,29.5 L106.5,29.5 M93.5,48.5 L80.5,63.5 M93.5,48.5 L106.5,63.5 " fill="none" style="stroke:#181818;stroke-width:0.5;"/><text fill="#000000" font-family="sans-serif" font-size="14" lengthAdjust="spacing" textLength="141" x="20" y="2001.5654">ETH Metamask User</text><ellipse cx="93.5" cy="2013.3672" fill="#E2E2F0" rx="8" ry="8" style="stroke:#181818;stroke-width:0.5;"/><path d="M93.5,2021.3672 L93.5,2048.3672 M80.5,2029.3672 L106.5,2029.3672 M93.5,2048.3672 L80.5,2063.3672 M93.5,2048.3672 L106.5,2063.3672 " fill="none" style="stroke:#181818;stroke-width:0.5;"/><rect fill="#E2E2F0" height="30.2969" rx="2.5" ry="2.5" style="stroke:#181818;stroke-width:0.5;" width="175" x="228" y="50"/><text fill="#000000" font-family="sans-serif" font-size="14" lengthAdjust="spacing" textLength="161" x="235" y="69.9951">Mangata ETH Contract</text><rect fill="#E2E2F0" height="30.2969" rx="2.5" ry="2.5" style="stroke:#181818;stroke-width:0.5;" width="175" x="228" y="1988.5703"/><text fill="#000000" font-family="sans-serif" font-size="14" lengthAdjust="spacing" textLength="161" x="235" y="2008.5654">Mangata ETH Contract</text><rect fill="#E2E2F0" height="30.2969" rx="2.5" ry="2.5" style="stroke:#181818;stroke-width:0.5;" width="133" x="986" y="50"/><text fill="#000000" font-family="sans-serif" font-size="14" lengthAdjust="spacing" textLength="119" x="993" y="69.9951">Sequencer (Bob)</text><rect fill="#E2E2F0" height="30.2969" rx="2.5" ry="2.5" style="stroke:#181818;stroke-width:0.5;" width="133" x="986" y="1988.5703"/><text fill="#000000" font-family="sans-serif" font-size="14" lengthAdjust="spacing" textLength="119" x="993" y="2008.5654">Sequencer (Bob)</text><rect fill="#E2E2F0" height="30.2969" rx="2.5" ry="2.5" style="stroke:#181818;stroke-width:0.5;" width="114" x="1629.5" y="50"/><text fill="#000000" font-family="sans-serif" font-size="14" lengthAdjust="spacing" textLength="100" x="1636.5" y="69.9951">Collator (Bob)</text><rect fill="#E2E2F0" height="30.2969" rx="2.5" ry="2.5" style="stroke:#181818;stroke-width:0.5;" width="114" x="1629.5" y="1988.5703"/><text fill="#000000" font-family="sans-serif" font-size="14" lengthAdjust="spacing" textLength="100" x="1636.5" y="2008.5654">Collator (Bob)</text><rect fill="#E2E2F0" height="30.2969" rx="2.5" ry="2.5" style="stroke:#181818;stroke-width:0.5;" width="137" x="2335" y="50"/><text fill="#000000" font-family="sans-serif" font-size="14" lengthAdjust="spacing" textLength="123" x="2342" y="69.9951">Mangata Updater</text><rect fill="#E2E2F0" height="30.2969" rx="2.5" ry="2.5" style="stroke:#181818;stroke-width:0.5;" width="137" x="2335" y="1988.5703"/><text fill="#000000" font-family="sans-serif" font-size="14" lengthAdjust="spacing" textLength="123" x="2342" y="2008.5654">Mangata Updater</text><rect fill="#E2E2F0" height="30.2969" rx="2.5" ry="2.5" style="stroke:#181818;stroke-width:0.5;" width="171" x="2482" y="50"/><text fill="#000000" font-family="sans-serif" font-size="14" lengthAdjust="spacing" textLength="157" x="2489" y="69.9951">Eigen Agregator &amp; TM</text><rect fill="#E2E2F0" height="30.2969" rx="2.5" ry="2.5" style="stroke:#181818;stroke-width:0.5;" width="171" x="2482" y="1988.5703"/><text fill="#000000" font-family="sans-serif" font-size="14" lengthAdjust="spacing" textLength="157" x="2489" y="2008.5654">Eigen Agregator &amp; TM</text><rect fill="#E2E2F0" height="30.2969" style="stroke:#181818;stroke-width:0.5;" width="174" x="2689.5" y="46"/><rect fill="#E2E2F0" height="30.2969" style="stroke:#181818;stroke-width:0.5;" width="174" x="2685.5" y="50"/><text fill="#000000" font-family="sans-serif" font-size="14" lengthAdjust="spacing" textLength="160" x="2692.5" y="69.9951">Eigen Operators (AVS)</text><rect fill="#E2E2F0" height="30.2969" style="stroke:#181818;stroke-width:0.5;" width="174" x="2689.5" y="1988.5703"/><rect fill="#E2E2F0" height="30.2969" style="stroke:#181818;stroke-width:0.5;" width="174" x="2685.5" y="1992.5703"/><text fill="#000000" font-family="sans-serif" font-size="14" lengthAdjust="spacing" textLength="160" x="2692.5" y="2012.5654">Eigen Operators (AVS)</text><rect fill="#E2E2F0" height="30.2969" rx="2.5" ry="2.5" style="stroke:#181818;stroke-width:0.5;" width="154" x="2974.5" y="50"/><text fill="#000000" font-family="sans-serif" font-size="14" lengthAdjust="spacing" textLength="140" x="2981.5" y="69.9951">Eigen ETH Contract</text><rect fill="#E2E2F0" height="30.2969" rx="2.5" ry="2.5" style="stroke:#181818;stroke-width:0.5;" width="154" x="2974.5" y="1988.5703"/><text fill="#000000" font-family="sans-serif" font-size="14" lengthAdjust="spacing" textLength="140" x="2981.5" y="2008.5654">Eigen ETH Contract</text><rect fill="#E2E2F0" height="30.2969" rx="2.5" ry="2.5" style="stroke:#181818;stroke-width:0.5;" width="110" x="3362.5" y="50"/><text fill="#000000" font-family="sans-serif" font-size="14" lengthAdjust="spacing" textLength="96" x="3369.5" y="69.9951">Rococo Relay</text><rect fill="#E2E2F0" height="30.2969" rx="2.5" ry="2.5" style="stroke:#181818;stroke-width:0.5;" width="110" x="3362.5" y="1988.5703"/><text fill="#000000" font-family="sans-serif" font-size="14" lengthAdjust="spacing" textLength="96" x="3369.5" y="2008.5654">Rococo Relay</text><polygon fill="#181818" points="303.5,108.4297,313.5,112.4297,303.5,116.4297,307.5,112.4297" style="stroke:#181818;stroke-width:1.0;"/><line style="stroke:#181818;stroke-width:1.0;stroke-dasharray:2.0,2.0;" x1="93.5" x2="309.5" y1="112.4297" y2="112.4297"/><text fill="#000000" font-family="sans-serif" font-size="13" lengthAdjust="spacing" textLength="198" x="100.5" y="107.3638">Trigger deposit of 1 MGR token</text><line style="stroke:#181818;stroke-width:1.0;stroke-dasharray:2.0,2.0;" x1="1686.5" x2="1728.5" y1="141.5625" y2="141.5625"/><line style="stroke:#181818;stroke-width:1.0;stroke-dasharray:2.0,2.0;" x1="1728.5" x2="1728.5" y1="141.5625" y2="154.5625"/><line style="stroke:#181818;stroke-width:1.0;stroke-dasharray:2.0,2.0;" x1="1687.5" x2="1728.5" y1="154.5625" y2="154.5625"/><polygon fill="#181818" points="1697.5,150.5625,1687.5,154.5625,1697.5,158.5625,1693.5,154.5625" style="stroke:#181818;stroke-width:1.0;"/><text fill="#000000" font-family="sans-serif" font-size="13" lengthAdjust="spacing" textLength="429" x="1693.5" y="136.4966">It is collators (Bob) order to produce a block and he just produced it</text><polygon fill="#181818" points="1674.5,179.6953,1684.5,183.6953,1674.5,187.6953,1678.5,183.6953" style="stroke:#181818;stroke-width:1.0;"/><line style="stroke:#181818;stroke-width:1.0;stroke-dasharray:2.0,2.0;" x1="1052.5" x2="1680.5" y1="183.6953" y2="183.6953"/><text fill="#000000" font-family="sans-serif" font-size="13" lengthAdjust="spacing" textLength="366" x="1059.5" y="178.6294">(Subscription) Checks weather my collator just built block</text><polygon fill="#181818" points="1674.5,208.8281,1684.5,212.8281,1674.5,216.8281,1678.5,212.8281" style="stroke:#181818;stroke-width:1.0;"/><line style="stroke:#181818;stroke-width:1.0;stroke-dasharray:2.0,2.0;" x1="1052.5" x2="1680.5" y1="212.8281" y2="212.8281"/><text fill="#000000" font-family="sans-serif" font-size="13" lengthAdjust="spacing" textLength="610" x="1059.5" y="207.7622">Checks the sequencer_latest_processed_block and sequencer_latest_processed_transaction_id</text><polygon fill="#181818" points="326.5,237.9609,316.5,241.9609,326.5,245.9609,322.5,241.9609" style="stroke:#181818;stroke-width:1.0;"/><line style="stroke:#181818;stroke-width:1.0;stroke-dasharray:2.0,2.0;" x1="320.5" x2="1051.5" y1="241.9609" y2="241.9609"/><text fill="#000000" font-family="sans-serif" font-size="13" lengthAdjust="spacing" textLength="713" x="332.5" y="236.895">Read all ETH dep/with based on sequencer_latest_processed_block sequencer_latest_processed_transaction_id</text><polygon fill="#181818" points="1674.5,267.0938,1684.5,271.0938,1674.5,275.0938,1678.5,271.0938" style="stroke:#181818;stroke-width:1.0;"/><line style="stroke:#181818;stroke-width:1.0;stroke-dasharray:2.0,2.0;" x1="1052.5" x2="1680.5" y1="271.0938" y2="271.0938"/><text fill="#000000" font-family="sans-serif" font-size="13" lengthAdjust="spacing" textLength="375" x="1059.5" y="266.0278">Submit provide_l1_read extr. with all fetched ETH dep/with</text><line style="stroke:#181818;stroke-width:1.0;stroke-dasharray:2.0,2.0;" x1="1686.5" x2="1728.5" y1="300.2266" y2="300.2266"/><line style="stroke:#181818;stroke-width:1.0;stroke-dasharray:2.0,2.0;" x1="1728.5" x2="1728.5" y1="300.2266" y2="313.2266"/><line style="stroke:#181818;stroke-width:1.0;stroke-dasharray:2.0,2.0;" x1="1687.5" x2="1728.5" y1="313.2266" y2="313.2266"/><polygon fill="#181818" points="1697.5,309.2266,1687.5,313.2266,1697.5,317.2266,1693.5,313.2266" style="stroke:#181818;stroke-width:1.0;"/><text fill="#000000" font-family="sans-serif" font-size="13" lengthAdjust="spacing" textLength="336" x="1693.5" y="295.1606">Validates if Sequencer have enough Stake to submit</text><line style="stroke:#181818;stroke-width:1.0;stroke-dasharray:2.0,2.0;" x1="1686.5" x2="1728.5" y1="342.3594" y2="342.3594"/><line style="stroke:#181818;stroke-width:1.0;stroke-dasharray:2.0,2.0;" x1="1728.5" x2="1728.5" y1="342.3594" y2="355.3594"/><line style="stroke:#181818;stroke-width:1.0;stroke-dasharray:2.0,2.0;" x1="1687.5" x2="1728.5" y1="355.3594" y2="355.3594"/><polygon fill="#181818" points="1697.5,351.3594,1687.5,355.3594,1697.5,359.3594,1693.5,355.3594" style="stroke:#181818;stroke-width:1.0;"/><text fill="#000000" font-family="sans-serif" font-size="13" lengthAdjust="spacing" textLength="413" x="1693.5" y="337.2935">Removes the READ right from sequencer (node storage update)</text><line style="stroke:#181818;stroke-width:1.0;stroke-dasharray:2.0,2.0;" x1="1686.5" x2="1728.5" y1="384.4922" y2="384.4922"/><line style="stroke:#181818;stroke-width:1.0;stroke-dasharray:2.0,2.0;" x1="1728.5" x2="1728.5" y1="384.4922" y2="397.4922"/><line style="stroke:#181818;stroke-width:1.0;stroke-dasharray:2.0,2.0;" x1="1687.5" x2="1728.5" y1="397.4922" y2="397.4922"/><polygon fill="#181818" points="1697.5,393.4922,1687.5,397.4922,1697.5,401.4922,1693.5,397.4922" style="stroke:#181818;stroke-width:1.0;"/><text fill="#000000" font-family="sans-serif" font-size="13" lengthAdjust="spacing" textLength="474" x="1693.5" y="379.4263">store new value into pending_l1_reads with dispute period (block number)</text><line style="stroke:#181818;stroke-width:1.0;stroke-dasharray:2.0,2.0;" x1="1686.5" x2="1728.5" y1="426.625" y2="426.625"/><line style="stroke:#181818;stroke-width:1.0;stroke-dasharray:2.0,2.0;" x1="1728.5" x2="1728.5" y1="426.625" y2="439.625"/><line style="stroke:#181818;stroke-width:1.0;stroke-dasharray:2.0,2.0;" x1="1687.5" x2="1728.5" y1="439.625" y2="439.625"/><polygon fill="#181818" points="1697.5,435.625,1687.5,439.625,1697.5,443.625,1693.5,439.625" style="stroke:#181818;stroke-width:1.0;"/><text fill="#000000" font-family="sans-serif" font-size="13" lengthAdjust="spacing" textLength="423" x="1693.5" y="421.5591">Returns back the READ right for sequencer (node storage update)</text><path d="M1579.5,454.625 L2110.5,454.625 L2110.5,461.7578 L2100.5,471.7578 L1579.5,471.7578 L1579.5,454.625 " fill="#EEEEEE" style="stroke:#000000;stroke-width:1.5;"/><rect fill="none" height="798.3516" style="stroke:#000000;stroke-width:1.5;" width="575" x="1579.5" y="454.625"/><text fill="#000000" font-family="sans-serif" font-size="13" font-weight="bold" lengthAdjust="spacing" textLength="486" x="1594.5" y="467.6919">Separate action on Collator (maybe will move to separate UML)</text><path d="M1589.5,478.7578 L1667.5,478.7578 L1667.5,485.8906 L1657.5,495.8906 L1589.5,495.8906 L1589.5,478.7578 " fill="#EEEEEE" style="stroke:#000000;stroke-width:1.5;"/><rect fill="none" height="767.2188" style="stroke:#000000;stroke-width:1.5;" width="555" x="1589.5" y="478.7578"/><text fill="#000000" font-family="sans-serif" font-size="13" font-weight="bold" lengthAdjust="spacing" textLength="33" x="1604.5" y="491.8247">loop</text><text fill="#000000" font-family="sans-serif" font-size="11" font-weight="bold" lengthAdjust="spacing" textLength="258" x="1682.5" y="490.9683">[for each block at end_dispute_period]</text><path d="M1599.5,502.8906 L1677.5,502.8906 L1677.5,510.0234 L1667.5,520.0234 L1599.5,520.0234 L1599.5,502.8906 " fill="#EEEEEE" style="stroke:#000000;stroke-width:1.5;"/><rect fill="none" height="693.9531" style="stroke:#000000;stroke-width:1.5;" width="535" x="1599.5" y="502.8906"/><text fill="#000000" font-family="sans-serif" font-size="13" font-weight="bold" lengthAdjust="spacing" textLength="33" x="1614.5" y="515.9575">loop</text><text fill="#000000" font-family="sans-serif" font-size="11" font-weight="bold" lengthAdjust="spacing" textLength="119" x="1692.5" y="515.1011">[for each l1_read]</text><path d="M1619.5,527.0234 L1685.5,527.0234 L1685.5,534.1563 L1675.5,544.1563 L1619.5,544.1563 L1619.5,527.0234 " fill="#EEEEEE" style="stroke:#000000;stroke-width:1.5;"/><rect fill="none" height="116.2031" style="stroke:#000000;stroke-width:1.5;" width="385" x="1619.5" y="527.0234"/><text fill="#000000" font-family="sans-serif" font-size="13" font-weight="bold" lengthAdjust="spacing" textLength="21" x="1634.5" y="540.0903">alt</text><text fill="#000000" font-family="sans-serif" font-size="11" font-weight="bold" lengthAdjust="spacing" textLength="173" x="1700.5" y="539.2339">[ETH address DOES exists]</text><line style="stroke:#181818;stroke-width:1.0;stroke-dasharray:2.0,2.0;" x1="1686.5" x2="1728.5" y1="565.2891" y2="565.2891"/><line style="stroke:#181818;stroke-width:1.0;stroke-dasharray:2.0,2.0;" x1="1728.5" x2="1728.5" y1="565.2891" y2="578.2891"/><line style="stroke:#181818;stroke-width:1.0;stroke-dasharray:2.0,2.0;" x1="1687.5" x2="1728.5" y1="578.2891" y2="578.2891"/><polygon fill="#181818" points="1697.5,574.2891,1687.5,578.2891,1697.5,582.2891,1693.5,578.2891" style="stroke:#181818;stroke-width:1.0;"/><text fill="#000000" font-family="sans-serif" font-size="13" lengthAdjust="spacing" textLength="238" x="1693.5" y="560.2231">Fetch Mangata version of ETH adress</text><line style="stroke:#000000;stroke-width:1.0;stroke-dasharray:2.0,2.0;" x1="1619.5" x2="2004.5" y1="587.2891" y2="587.2891"/><text fill="#000000" font-family="sans-serif" font-size="11" font-weight="bold" lengthAdjust="spacing" textLength="203" x="1624.5" y="597.4995">[ETH address does NOT exists]</text><line style="stroke:#181818;stroke-width:1.0;stroke-dasharray:2.0,2.0;" x1="1686.5" x2="1728.5" y1="622.2266" y2="622.2266"/><line style="stroke:#181818;stroke-width:1.0;stroke-dasharray:2.0,2.0;" x1="1728.5" x2="1728.5" y1="622.2266" y2="635.2266"/><line style="stroke:#181818;stroke-width:1.0;stroke-dasharray:2.0,2.0;" x1="1687.5" x2="1728.5" y1="635.2266" y2="635.2266"/><polygon fill="#181818" points="1697.5,631.2266,1687.5,635.2266,1697.5,639.2266,1693.5,635.2266" style="stroke:#181818;stroke-width:1.0;"/><text fill="#000000" font-family="sans-serif" font-size="13" lengthAdjust="spacing" textLength="299" x="1693.5" y="617.1606">Creates new ETH compatible Mangata address</text><path d="M1619.5,657.2266 L1685.5,657.2266 L1685.5,664.3594 L1675.5,674.3594 L1619.5,674.3594 L1619.5,657.2266 " fill="#EEEEEE" style="stroke:#000000;stroke-width:1.5;"/><rect fill="none" height="116.2031" style="stroke:#000000;stroke-width:1.5;" width="379" x="1619.5" y="657.2266"/><text fill="#000000" font-family="sans-serif" font-size="13" font-weight="bold" lengthAdjust="spacing" textLength="21" x="1634.5" y="670.2935">alt</text><text fill="#000000" font-family="sans-serif" font-size="11" font-weight="bold" lengthAdjust="spacing" textLength="293" x="1700.5" y="669.437">[ERC20 token DOES exists in Asset Registry]</text><line style="stroke:#181818;stroke-width:1.0;stroke-dasharray:2.0,2.0;" x1="1686.5" x2="1728.5" y1="695.4922" y2="695.4922"/><line style="stroke:#181818;stroke-width:1.0;stroke-dasharray:2.0,2.0;" x1="1728.5" x2="1728.5" y1="695.4922" y2="708.4922"/><line style="stroke:#181818;stroke-width:1.0;stroke-dasharray:2.0,2.0;" x1="1687.5" x2="1728.5" y1="708.4922" y2="708.4922"/><polygon fill="#181818" points="1697.5,704.4922,1687.5,708.4922,1697.5,712.4922,1693.5,708.4922" style="stroke:#181818;stroke-width:1.0;"/><text fill="#000000" font-family="sans-serif" font-size="13" lengthAdjust="spacing" textLength="236" x="1693.5" y="690.4263">Fetch Asset registry version of token</text><line style="stroke:#000000;stroke-width:1.0;stroke-dasharray:2.0,2.0;" x1="1619.5" x2="1998.5" y1="717.4922" y2="717.4922"/><text fill="#000000" font-family="sans-serif" font-size="11" font-weight="bold" lengthAdjust="spacing" textLength="323" x="1624.5" y="727.7026">[ERC20 token does NOT exists in Asset Registry]</text><line style="stroke:#181818;stroke-width:1.0;stroke-dasharray:2.0,2.0;" x1="1686.5" x2="1728.5" y1="752.4297" y2="752.4297"/><line style="stroke:#181818;stroke-width:1.0;stroke-dasharray:2.0,2.0;" x1="1728.5" x2="1728.5" y1="752.4297" y2="765.4297"/><line style="stroke:#181818;stroke-width:1.0;stroke-dasharray:2.0,2.0;" x1="1687.5" x2="1728.5" y1="765.4297" y2="765.4297"/><polygon fill="#181818" points="1697.5,761.4297,1687.5,765.4297,1697.5,769.4297,1693.5,765.4297" style="stroke:#181818;stroke-width:1.0;"/><text fill="#000000" font-family="sans-serif" font-size="13" lengthAdjust="spacing" textLength="284" x="1693.5" y="747.3638">Create a new ERC20 token in Asset Registry</text><path d="M1609.5,787.4297 L1675.5,787.4297 L1675.5,794.5625 L1665.5,804.5625 L1609.5,804.5625 L1609.5,787.4297 " fill="#EEEEEE" style="stroke:#000000;stroke-width:1.5;"/><rect fill="none" height="402.4141" style="stroke:#000000;stroke-width:1.5;" width="515" x="1609.5" y="787.4297"/><text fill="#000000" font-family="sans-serif" font-size="13" font-weight="bold" lengthAdjust="spacing" textLength="21" x="1624.5" y="800.4966">alt</text><text fill="#000000" font-family="sans-serif" font-size="11" font-weight="bold" lengthAdjust="spacing" textLength="133" x="1690.5" y="799.6401">[l1_read is DEPOSIT]</text><line style="stroke:#181818;stroke-width:1.0;stroke-dasharray:2.0,2.0;" x1="1686.5" x2="1728.5" y1="825.6953" y2="825.6953"/><line style="stroke:#181818;stroke-width:1.0;stroke-dasharray:2.0,2.0;" x1="1728.5" x2="1728.5" y1="825.6953" y2="838.6953"/><line style="stroke:#181818;stroke-width:1.0;stroke-dasharray:2.0,2.0;" x1="1687.5" x2="1728.5" y1="838.6953" y2="838.6953"/><polygon fill="#181818" points="1697.5,834.6953,1687.5,838.6953,1697.5,842.6953,1693.5,838.6953" style="stroke:#181818;stroke-width:1.0;"/><text fill="#000000" font-family="sans-serif" font-size="13" lengthAdjust="spacing" textLength="120" x="1693.5" y="820.6294">Mint token for user</text><line style="stroke:#000000;stroke-width:1.0;stroke-dasharray:2.0,2.0;" x1="1609.5" x2="2124.5" y1="847.6953" y2="847.6953"/><text fill="#000000" font-family="sans-serif" font-size="11" font-weight="bold" lengthAdjust="spacing" textLength="165" x="1614.5" y="857.9058">[l1_read is WITHDRAWAL]</text><line style="stroke:#181818;stroke-width:1.0;stroke-dasharray:2.0,2.0;" x1="1686.5" x2="1728.5" y1="882.6328" y2="882.6328"/><line style="stroke:#181818;stroke-width:1.0;stroke-dasharray:2.0,2.0;" x1="1728.5" x2="1728.5" y1="882.6328" y2="895.6328"/><line style="stroke:#181818;stroke-width:1.0;stroke-dasharray:2.0,2.0;" x1="1687.5" x2="1728.5" y1="895.6328" y2="895.6328"/><polygon fill="#181818" points="1697.5,891.6328,1687.5,895.6328,1697.5,899.6328,1693.5,895.6328" style="stroke:#181818;stroke-width:1.0;"/><text fill="#000000" font-family="sans-serif" font-size="13" lengthAdjust="spacing" textLength="123" x="1693.5" y="877.5669">Burn token for user</text><line style="stroke:#000000;stroke-width:1.0;stroke-dasharray:2.0,2.0;" x1="1609.5" x2="2124.5" y1="904.6328" y2="904.6328"/><text fill="#000000" font-family="sans-serif" font-size="11" font-weight="bold" lengthAdjust="spacing" textLength="251" x="1614.5" y="914.8433">[l1_read is DELETE_PENDING)UPDATES]</text><line style="stroke:#181818;stroke-width:1.0;stroke-dasharray:2.0,2.0;" x1="1686.5" x2="1728.5" y1="939.5703" y2="939.5703"/><line style="stroke:#181818;stroke-width:1.0;stroke-dasharray:2.0,2.0;" x1="1728.5" x2="1728.5" y1="939.5703" y2="952.5703"/><line style="stroke:#181818;stroke-width:1.0;stroke-dasharray:2.0,2.0;" x1="1687.5" x2="1728.5" y1="952.5703" y2="952.5703"/><polygon fill="#181818" points="1697.5,948.5703,1687.5,952.5703,1697.5,956.5703,1693.5,952.5703" style="stroke:#181818;stroke-width:1.0;"/><text fill="#000000" font-family="sans-serif" font-size="13" lengthAdjust="spacing" textLength="248" x="1693.5" y="934.5044">Deletes all processed pending updates</text><line style="stroke:#000000;stroke-width:1.0;stroke-dasharray:2.0,2.0;" x1="1609.5" x2="2124.5" y1="961.5703" y2="961.5703"/><text fill="#000000" font-family="sans-serif" font-size="11" font-weight="bold" lengthAdjust="spacing" textLength="214" x="1614.5" y="971.7808">[l1_read is CANCEL_RESOLUTION]</text><path d="M1619.5,982.375 L1685.5,982.375 L1685.5,989.5078 L1675.5,999.5078 L1619.5,999.5078 L1619.5,982.375 " fill="#EEEEEE" style="stroke:#000000;stroke-width:1.5;"/><rect fill="none" height="200.4688" style="stroke:#000000;stroke-width:1.5;" width="495" x="1619.5" y="982.375"/><text fill="#000000" font-family="sans-serif" font-size="13" font-weight="bold" lengthAdjust="spacing" textLength="21" x="1634.5" y="995.4419">alt</text><text fill="#000000" font-family="sans-serif" font-size="11" font-weight="bold" lengthAdjust="spacing" textLength="292" x="1700.5" y="994.5854">[CANCEL_RESOLUTION is CANCEL_APPROVED]</text><line style="stroke:#181818;stroke-width:1.0;stroke-dasharray:2.0,2.0;" x1="1686.5" x2="1728.5" y1="1020.6406" y2="1020.6406"/><line style="stroke:#181818;stroke-width:1.0;stroke-dasharray:2.0,2.0;" x1="1728.5" x2="1728.5" y1="1020.6406" y2="1033.6406"/><line style="stroke:#181818;stroke-width:1.0;stroke-dasharray:2.0,2.0;" x1="1687.5" x2="1728.5" y1="1033.6406" y2="1033.6406"/><polygon fill="#181818" points="1697.5,1029.6406,1687.5,1033.6406,1697.5,1037.6406,1693.5,1033.6406" style="stroke:#181818;stroke-width:1.0;"/><text fill="#000000" font-family="sans-serif" font-size="13" lengthAdjust="spacing" textLength="362" x="1693.5" y="1015.5747">Find malicious l1_read in history with Sequencer address</text><line style="stroke:#181818;stroke-width:1.0;stroke-dasharray:2.0,2.0;" x1="1686.5" x2="1728.5" y1="1062.7734" y2="1062.7734"/><line style="stroke:#181818;stroke-width:1.0;stroke-dasharray:2.0,2.0;" x1="1728.5" x2="1728.5" y1="1062.7734" y2="1075.7734"/><line style="stroke:#181818;stroke-width:1.0;stroke-dasharray:2.0,2.0;" x1="1687.5" x2="1728.5" y1="1075.7734" y2="1075.7734"/><polygon fill="#181818" points="1697.5,1071.7734,1687.5,1075.7734,1697.5,1079.7734,1693.5,1075.7734" style="stroke:#181818;stroke-width:1.0;"/><text fill="#000000" font-family="sans-serif" font-size="13" lengthAdjust="spacing" textLength="225" x="1693.5" y="1057.7075">Call slash_sequencer(seq_address)</text><line style="stroke:#000000;stroke-width:1.0;stroke-dasharray:2.0,2.0;" x1="1619.5" x2="2114.5" y1="1084.7734" y2="1084.7734"/><text fill="#000000" font-family="sans-serif" font-size="11" font-weight="bold" lengthAdjust="spacing" textLength="326" x="1624.5" y="1094.9839">[CANCEL_RESOLUTION is CANCEL_NOT_APPROVED]</text><line style="stroke:#181818;stroke-width:1.0;stroke-dasharray:2.0,2.0;" x1="1686.5" x2="1728.5" y1="1119.7109" y2="1119.7109"/><line style="stroke:#181818;stroke-width:1.0;stroke-dasharray:2.0,2.0;" x1="1728.5" x2="1728.5" y1="1119.7109" y2="1132.7109"/><line style="stroke:#181818;stroke-width:1.0;stroke-dasharray:2.0,2.0;" x1="1687.5" x2="1728.5" y1="1132.7109" y2="1132.7109"/><polygon fill="#181818" points="1697.5,1128.7109,1687.5,1132.7109,1697.5,1136.7109,1693.5,1132.7109" style="stroke:#181818;stroke-width:1.0;"/><text fill="#000000" font-family="sans-serif" font-size="13" lengthAdjust="spacing" textLength="409" x="1693.5" y="1114.645">Find malicious cancel request in history with Sequencer address</text><line style="stroke:#181818;stroke-width:1.0;stroke-dasharray:2.0,2.0;" x1="1686.5" x2="1728.5" y1="1161.8438" y2="1161.8438"/><line style="stroke:#181818;stroke-width:1.0;stroke-dasharray:2.0,2.0;" x1="1728.5" x2="1728.5" y1="1161.8438" y2="1174.8438"/><line style="stroke:#181818;stroke-width:1.0;stroke-dasharray:2.0,2.0;" x1="1687.5" x2="1728.5" y1="1174.8438" y2="1174.8438"/><polygon fill="#181818" points="1697.5,1170.8438,1687.5,1174.8438,1697.5,1178.8438,1693.5,1174.8438" style="stroke:#181818;stroke-width:1.0;"/><text fill="#000000" font-family="sans-serif" font-size="13" lengthAdjust="spacing" textLength="225" x="1693.5" y="1156.7778">Call slash_sequencer(seq_address)</text><line style="stroke:#181818;stroke-width:1.0;stroke-dasharray:2.0,2.0;" x1="1686.5" x2="1728.5" y1="1224.9766" y2="1224.9766"/><line style="stroke:#181818;stroke-width:1.0;stroke-dasharray:2.0,2.0;" x1="1728.5" x2="1728.5" y1="1224.9766" y2="1237.9766"/><line style="stroke:#181818;stroke-width:1.0;stroke-dasharray:2.0,2.0;" x1="1687.5" x2="1728.5" y1="1237.9766" y2="1237.9766"/><polygon fill="#181818" points="1697.5,1233.9766,1687.5,1237.9766,1697.5,1241.9766,1693.5,1237.9766" style="stroke:#181818;stroke-width:1.0;"/><text fill="#000000" font-family="sans-serif" font-size="13" lengthAdjust="spacing" textLength="402" x="1693.5" y="1219.9106">Store succesfull WITHDRAWAL or DEPOSIT to pending_updates</text><polygon fill="#181818" points="1697.5,1277.1094,1687.5,1281.1094,1697.5,1285.1094,1693.5,1281.1094" style="stroke:#181818;stroke-width:1.0;"/><line style="stroke:#181818;stroke-width:1.0;stroke-dasharray:2.0,2.0;" x1="1691.5" x2="2566.5" y1="1281.1094" y2="1281.1094"/><text fill="#000000" font-family="sans-serif" font-size="13" lengthAdjust="spacing" textLength="373" x="1703.5" y="1276.0435">Reads that new N block(s) was produced by some collator</text><polygon fill="#181818" points="2762.5,1306.2422,2772.5,1310.2422,2762.5,1314.2422,2766.5,1310.2422" style="stroke:#181818;stroke-width:1.0;"/><line style="stroke:#181818;stroke-width:1.0;stroke-dasharray:2.0,2.0;" x1="2567.5" x2="2768.5" y1="1310.2422" y2="1310.2422"/><text fill="#000000" font-family="sans-serif" font-size="13" lengthAdjust="spacing" textLength="183" x="2574.5" y="1305.1763">Submits task: Finalize blocks</text><polygon fill="#181818" points="1697.5,1335.375,1687.5,1339.375,1697.5,1343.375,1693.5,1339.375" style="stroke:#181818;stroke-width:1.0;"/><line style="stroke:#181818;stroke-width:1.0;stroke-dasharray:2.0,2.0;" x1="1691.5" x2="2773.5" y1="1339.375" y2="1339.375"/><text fill="#000000" font-family="sans-serif" font-size="13" lengthAdjust="spacing" textLength="204" x="1703.5" y="1334.3091">Reads pending_updates hashes</text><polygon fill="#181818" points="3405.5,1364.5078,3415.5,1368.5078,3405.5,1372.5078,3409.5,1368.5078" style="stroke:#181818;stroke-width:1.0;"/><line style="stroke:#181818;stroke-width:1.0;stroke-dasharray:2.0,2.0;" x1="2774.5" x2="3411.5" y1="1368.5078" y2="1368.5078"/><text fill="#000000" font-family="sans-serif" font-size="13" lengthAdjust="spacing" textLength="210" x="2781.5" y="1363.4419">Check finalisation on Relay chain</text><line style="stroke:#181818;stroke-width:1.0;stroke-dasharray:2.0,2.0;" x1="2774.5" x2="2816.5" y1="1397.6406" y2="1397.6406"/><line style="stroke:#181818;stroke-width:1.0;stroke-dasharray:2.0,2.0;" x1="2816.5" x2="2816.5" y1="1397.6406" y2="1410.6406"/><line style="stroke:#181818;stroke-width:1.0;stroke-dasharray:2.0,2.0;" x1="2775.5" x2="2816.5" y1="1410.6406" y2="1410.6406"/><polygon fill="#181818" points="2785.5,1406.6406,2775.5,1410.6406,2785.5,1414.6406,2781.5,1410.6406" style="stroke:#181818;stroke-width:1.0;"/><text fill="#000000" font-family="sans-serif" font-size="13" lengthAdjust="spacing" textLength="263" x="2781.5" y="1392.5747">(V2) execute try-runtime block validation</text><line style="stroke:#181818;stroke-width:1.0;stroke-dasharray:2.0,2.0;" x1="2774.5" x2="2816.5" y1="1439.7734" y2="1439.7734"/><line style="stroke:#181818;stroke-width:1.0;stroke-dasharray:2.0,2.0;" x1="2816.5" x2="2816.5" y1="1439.7734" y2="1452.7734"/><line style="stroke:#181818;stroke-width:1.0;stroke-dasharray:2.0,2.0;" x1="2775.5" x2="2816.5" y1="1452.7734" y2="1452.7734"/><polygon fill="#181818" points="2785.5,1448.7734,2775.5,1452.7734,2785.5,1456.7734,2781.5,1452.7734" style="stroke:#181818;stroke-width:1.0;"/><text fill="#000000" font-family="sans-serif" font-size="13" lengthAdjust="spacing" textLength="225" x="2781.5" y="1434.7075">Sign the response with operator PK</text><polygon fill="#181818" points="2578.5,1477.9063,2568.5,1481.9063,2578.5,1485.9063,2574.5,1481.9063" style="stroke:#181818;stroke-width:1.0;"/><line style="stroke:#181818;stroke-width:1.0;stroke-dasharray:2.0,2.0;" x1="2572.5" x2="2773.5" y1="1481.9063" y2="1481.9063"/><text fill="#000000" font-family="sans-serif" font-size="13" lengthAdjust="spacing" textLength="135" x="2584.5" y="1476.8403">Returns finished task</text><polygon fill="#181818" points="3039.5,1507.0391,3049.5,1511.0391,3039.5,1515.0391,3043.5,1511.0391" style="stroke:#181818;stroke-width:1.0;"/><line style="stroke:#181818;stroke-width:1.0;stroke-dasharray:2.0,2.0;" x1="2567.5" x2="3045.5" y1="1511.0391" y2="1511.0391"/><text fill="#000000" font-family="sans-serif" font-size="13" lengthAdjust="spacing" textLength="366" x="2574.5" y="1505.9731">Submits TX on ETH Contract with the hashed information</text><line style="stroke:#181818;stroke-width:1.0;stroke-dasharray:2.0,2.0;" x1="3051.5" x2="3093.5" y1="1540.1719" y2="1540.1719"/><line style="stroke:#181818;stroke-width:1.0;stroke-dasharray:2.0,2.0;" x1="3093.5" x2="3093.5" y1="1540.1719" y2="1553.1719"/><line style="stroke:#181818;stroke-width:1.0;stroke-dasharray:2.0,2.0;" x1="3052.5" x2="3093.5" y1="1553.1719" y2="1553.1719"/><polygon fill="#181818" points="3062.5,1549.1719,3052.5,1553.1719,3062.5,1557.1719,3058.5,1553.1719" style="stroke:#181818;stroke-width:1.0;"/><text fill="#000000" font-family="sans-serif" font-size="13" lengthAdjust="spacing" textLength="261" x="3058.5" y="1535.106">Stored block hash in a key-value storage</text><line style="stroke:#181818;stroke-width:1.0;stroke-dasharray:2.0,2.0;" x1="3051.5" x2="3093.5" y1="1582.3047" y2="1582.3047"/><line style="stroke:#181818;stroke-width:1.0;stroke-dasharray:2.0,2.0;" x1="3093.5" x2="3093.5" y1="1582.3047" y2="1595.3047"/><line style="stroke:#181818;stroke-width:1.0;stroke-dasharray:2.0,2.0;" x1="3052.5" x2="3093.5" y1="1595.3047" y2="1595.3047"/><polygon fill="#181818" points="3062.5,1591.3047,3052.5,1595.3047,3062.5,1599.3047,3058.5,1595.3047" style="stroke:#181818;stroke-width:1.0;"/><text fill="#000000" font-family="sans-serif" font-size="13" lengthAdjust="spacing" textLength="352" x="3058.5" y="1577.2388">Stores pending_updates hashes in a key-value storage</text><line style="stroke:#181818;stroke-width:1.0;stroke-dasharray:2.0,2.0;" x1="3051.5" x2="3093.5" y1="1624.4375" y2="1624.4375"/><line style="stroke:#181818;stroke-width:1.0;stroke-dasharray:2.0,2.0;" x1="3093.5" x2="3093.5" y1="1624.4375" y2="1637.4375"/><line style="stroke:#181818;stroke-width:1.0;stroke-dasharray:2.0,2.0;" x1="3052.5" x2="3093.5" y1="1637.4375" y2="1637.4375"/><polygon fill="#181818" points="3062.5,1633.4375,3052.5,1637.4375,3062.5,1641.4375,3058.5,1637.4375" style="stroke:#181818;stroke-width:1.0;"/><text fill="#000000" font-family="sans-serif" font-size="13" lengthAdjust="spacing" textLength="154" x="3058.5" y="1619.3716">Removes old block data</text><polygon fill="#181818" points="3039.5,1662.5703,3049.5,1666.5703,3039.5,1670.5703,3043.5,1666.5703" style="stroke:#181818;stroke-width:1.0;"/><line style="stroke:#181818;stroke-width:1.0;stroke-dasharray:2.0,2.0;" x1="2403.5" x2="3045.5" y1="1666.5703" y2="1666.5703"/><text fill="#000000" font-family="sans-serif" font-size="13" lengthAdjust="spacing" textLength="202" x="2410.5" y="1661.5044">Subscribed for block finalisation</text><polygon fill="#181818" points="1697.5,1691.7031,1687.5,1695.7031,1697.5,1699.7031,1693.5,1695.7031" style="stroke:#181818;stroke-width:1.0;"/><line style="stroke:#181818;stroke-width:1.0;stroke-dasharray:2.0,2.0;" x1="1691.5" x2="2402.5" y1="1695.7031" y2="1695.7031"/><text fill="#000000" font-family="sans-serif" font-size="13" lengthAdjust="spacing" textLength="491" x="1703.5" y="1690.6372">Read pending_updates storage with hashes and latest_eigen_finalized_block</text><polygon fill="#181818" points="326.5,1720.8359,316.5,1724.8359,326.5,1728.8359,322.5,1724.8359" style="stroke:#181818;stroke-width:1.0;"/><line style="stroke:#181818;stroke-width:1.0;stroke-dasharray:2.0,2.0;" x1="320.5" x2="2402.5" y1="1724.8359" y2="1724.8359"/><text fill="#000000" font-family="sans-serif" font-size="13" lengthAdjust="spacing" textLength="373" x="332.5" y="1719.77">Executes TX on ETH with all pending_updates with hashes</text><polygon fill="#181818" points="1697.5,1749.9688,1687.5,1753.9688,1697.5,1757.9688,1693.5,1753.9688" style="stroke:#181818;stroke-width:1.0;"/><line style="stroke:#181818;stroke-width:1.0;stroke-dasharray:2.0,2.0;" x1="1691.5" x2="2402.5" y1="1753.9688" y2="1753.9688"/><text fill="#000000" font-family="sans-serif" font-size="13" lengthAdjust="spacing" textLength="693" x="1703.5" y="1748.9028">Execute submited_pending_updates extrinsic with submited hashes and latest finalized block by Eigen layer</text><line style="stroke:#181818;stroke-width:1.0;stroke-dasharray:2.0,2.0;" x1="1686.5" x2="1728.5" y1="1783.1016" y2="1783.1016"/><line style="stroke:#181818;stroke-width:1.0;stroke-dasharray:2.0,2.0;" x1="1728.5" x2="1728.5" y1="1783.1016" y2="1796.1016"/><line style="stroke:#181818;stroke-width:1.0;stroke-dasharray:2.0,2.0;" x1="1687.5" x2="1728.5" y1="1796.1016" y2="1796.1016"/><polygon fill="#181818" points="1697.5,1792.1016,1687.5,1796.1016,1697.5,1800.1016,1693.5,1796.1016" style="stroke:#181818;stroke-width:1.0;"/><text fill="#000000" font-family="sans-serif" font-size="13" lengthAdjust="spacing" textLength="236" x="1693.5" y="1778.0356">Updated latest_eigen_finalized_block</text><line style="stroke:#181818;stroke-width:1.0;stroke-dasharray:2.0,2.0;" x1="1686.5" x2="1728.5" y1="1825.2344" y2="1825.2344"/><line style="stroke:#181818;stroke-width:1.0;stroke-dasharray:2.0,2.0;" x1="1728.5" x2="1728.5" y1="1825.2344" y2="1838.2344"/><line style="stroke:#181818;stroke-width:1.0;stroke-dasharray:2.0,2.0;" x1="1687.5" x2="1728.5" y1="1838.2344" y2="1838.2344"/><polygon fill="#181818" points="1697.5,1834.2344,1687.5,1838.2344,1697.5,1842.2344,1693.5,1838.2344" style="stroke:#181818;stroke-width:1.0;"/><text fill="#000000" font-family="sans-serif" font-size="13" lengthAdjust="spacing" textLength="355" x="1693.5" y="1820.1685">Removes all submited pending_updates based on hash</text><polygon fill="#181818" points="3039.5,1863.3672,3049.5,1867.3672,3039.5,1871.3672,3043.5,1867.3672" style="stroke:#181818;stroke-width:1.0;"/><line style="stroke:#181818;stroke-width:1.0;stroke-dasharray:2.0,2.0;" x1="315.5" x2="3045.5" y1="1867.3672" y2="1867.3672"/><text fill="#000000" font-family="sans-serif" font-size="13" lengthAdjust="spacing" textLength="223" x="322.5" y="1862.3013">Compare pending_updates hashes</text><path d="M10,1882.3672 L76,1882.3672 L76,1889.5 L66,1899.5 L10,1899.5 L10,1882.3672 " fill="#EEEEEE" style="stroke:#000000;stroke-width:1.5;"/><rect fill="none" height="90.2031" style="stroke:#000000;stroke-width:1.5;" width="403" x="10" y="1882.3672"/><text fill="#000000" font-family="sans-serif" font-size="13" font-weight="bold" lengthAdjust="spacing" textLength="21" x="25" y="1895.4341">alt</text><text fill="#000000" font-family="sans-serif" font-size="11" font-weight="bold" lengthAdjust="spacing" textLength="190" x="91" y="1894.5776">[pending_update is DEPOSIT]</text><polygon fill="#181818" points="104.5,1916.6328,94.5,1920.6328,104.5,1924.6328,100.5,1920.6328" style="stroke:#181818;stroke-width:1.0;"/><line style="stroke:#181818;stroke-width:1.0;stroke-dasharray:2.0,2.0;" x1="98.5" x2="314.5" y1="1920.6328" y2="1920.6328"/><text fill="#000000" font-family="sans-serif" font-size="13" lengthAdjust="spacing" textLength="189" x="110.5" y="1915.5669">Locks amount to the contract</text><line style="stroke:#000000;stroke-width:1.0;stroke-dasharray:2.0,2.0;" x1="10" x2="413" y1="1929.6328" y2="1929.6328"/><text fill="#000000" font-family="sans-serif" font-size="11" font-weight="bold" lengthAdjust="spacing" textLength="165" x="15" y="1939.8433">[l1_read is WITHDRAWAL]</text><polygon fill="#181818" points="104.5,1960.5703,94.5,1964.5703,104.5,1968.5703,100.5,1964.5703" style="stroke:#181818;stroke-width:1.0;"/><line style="stroke:#181818;stroke-width:1.0;stroke-dasharray:2.0,2.0;" x1="98.5" x2="314.5" y1="1964.5703" y2="1964.5703"/><text fill="#000000" font-family="sans-serif" font-size="13" lengthAdjust="spacing" textLength="183" x="110.5" y="1959.5044">Sends funds to user address</text><!--SRC=[lLTDR-Cs4BthLmnIeB1HfEtkSGy575lT3Uh4WUraUnDeYPROIA9BKicwlxup9FLfAqxtq0G9R77uPkPnPlZ4OYCLk9-hSFi5xhXX1TFFyAYvkl8hJ4E5NuC3KqR4ui1A0rTth4oPOK2xvh8qYiNcoXaNRYdsJuDW9x_1rOtSmJKaLSBXDPEWgb933JANUSueb9zWm_-kU1bpHKYov82UNqJCh-27fKWpSvDNl1z9ksE2FgO-25q_xHitdhmjMiR-KS3B133Ku7oYZuU46IA5w72V1vQXI7a9irJnrBhu4RPtrfpLZuA0dF7O28dP-msh0rUqg64oUzgucAH_Tix16SOvBJHyz_QiPOo_iEOvEtfhHP-3WCuKhgz_6vxN9zWgaQQucF23rCA0tCC7kFky1YEVCG2NXKsHjjTVFi6j0T7ogHt785M2M4R2GScaYZamsEKoVWQ6V6SS_ggqgTSI45WlpTaDy2URQgTZ9Gx4tnJc6O-VDRnoPZAqBOwDgSFSLI8tpjSefCT0WBPY8bpZsaGOKyorvadKnlk64P9NQcRFDXB9mEC9nslE4c1vReyJYVxbLPWCTWoHiEml1_EzWRIf8vc5iCo_Y8H7-OT8KKpycr4_Wus6mjjp4sSOKpVCqG9uOhcWpj0WzfrEpjWB1rxAAirWOzWpfshGrlqOqfeNyeMxWrc7imKeQdxOArcqgSEab3XEDEvWAVTTEHs393CE9N-55uP314H9DObDBygqpbwxn1EX3vNXkAg4J63YA2-hOiVLT3naKobiwnr3ss7SQ7qfx21LiZeWRTY_-03S2L8nj4EhOCSTpa-11qFyM1vh-yUx9O80v58Uh4FEugnkDOFy9v7FAt9veMr0yxs_mJDXLm9_0M0RqVcp955OOh1OXHki4w6DzXO08wJyJkNJpFaNhhJDQU_n2Cv3y5ppdfT4uldVhxRlz3J7gAdow8099fR5WHcnotdZtYFN3il4V-gckPv__DNFkKwQM2mmm-OoUCefFb37zoNkzYY_fvk_TT5BlUDvaFf_z-x8m4bhsUWWZo6T9QCU2JZK5-73QdExlUJt3flAUwA2ihAXasC7yEljzijYFViwMrx2lC6kUX_c8bo6sp1w2EyNj_UVfuyFYzast5p2N_2SK-7Gj6k6Q3qOV7Vg4O_psVqyN4RhSBDQFcvlL_Tz4XsD9qQTdRE7X_NgALmq6yOBIk3rK-20ZOMiT1j42PcWKN9qewkZdthL_bQnKEOwPpgBcXarmK-HHvWs43RzjzB1clt-b6A6ddFi5em1h-__DxEc_fl3gny59rz6l6ti1QEh64jeNw7djiPH1DKj19rRfoskmBcWlw2HYoSN35rG9iDXJcrzxsRxH4_X5LLTew1sHz2ouAskxUFLqh8M08Y8WjyU1fx4FzoXwg2sEnl4806yuNN61tkipFGA2_OMNRFwIhDw5EACYRA_gmrlylHnYWEGntGJuwIwnbS68meV85tYf3KGRmnW8zBINiHur0SKtDpLKMFzy4T_PyDJUvTZs4AJ_26E1aJsH7VBvlPFogyhqfrR2iJIH3sBWwnmiVTGpk9ILIK-QGAWnc3mp8_NJiTu7V5EfB6p-sxKMgd9l0uIOHc-NhXtf16gICRlC2sQw6vNjq9wc_krTn9-BQCioJuNKkfU5blNqTuNjrVFFVmJQHwwckiUPIE7XzwxNaUYzd1Uy688GmnItABK8dPejTrfCj2auJd3LdVlXDXCN8tASlVgUe6I2qBSJj8wic46pMkBhSyW651whWRc9CyK7via0LsS_RM-33ddWgJ19rZI-09MoCfg4TjuZLdmfWuP1zrWA3WEAlgFcFRTkRw6SEbV]--></g></svg>