<?xml version="1.0" encoding="us-ascii" standalone="no"?><svg xmlns="http://www.w3.org/2000/svg" xmlns:xlink="http://www.w3.org/1999/xlink" contentStyleType="text/css" height="2216px" preserveAspectRatio="none" style="width:3604px;height:2216px;background:#FFFFFF;" version="1.1" viewBox="0 0 3604 2216" width="3604px" zoomAndPan="magnify"><defs/><g><rect fill="#ADD8E6" height="2204.0703" style="stroke:#181818;stroke-width:0.5;" width="765.5" x="1065" y="6"/><text fill="#000000" font-family="sans-serif" font-size="13" font-weight="bold" lengthAdjust="spacing" textLength="504" x="1195.75" y="18.0669">Bob - dude who runs Mangata Collator + Sequencer as one service</text><rect fill="none" height="897.4219" style="stroke:#000000;stroke-width:1.5;" width="575" x="1662.5" y="496.7578"/><rect fill="none" height="866.2891" style="stroke:#000000;stroke-width:1.5;" width="555" x="1672.5" y="520.8906"/><rect fill="none" height="793.0234" style="stroke:#000000;stroke-width:1.5;" width="535" x="1682.5" y="545.0234"/><rect fill="none" height="761.8906" style="stroke:#000000;stroke-width:1.5;" width="515" x="1692.5" y="569.1563"/><rect fill="none" height="116.2031" style="stroke:#000000;stroke-width:1.5;" width="385" x="1702.5" y="635.4219"/><rect fill="none" height="116.2031" style="stroke:#000000;stroke-width:1.5;" width="334" x="1702.5" y="765.625"/><rect fill="none" height="215.2734" style="stroke:#000000;stroke-width:1.5;" width="495" x="1702.5" y="1108.7734"/><rect fill="none" height="90.2031" style="stroke:#000000;stroke-width:1.5;" width="486" x="10" y="2023.5703"/><line style="stroke:#181818;stroke-width:0.5;stroke-dasharray:5.0,5.0;" x1="93" x2="93" y1="81.2969" y2="2130.7734"/><line style="stroke:#181818;stroke-width:0.5;stroke-dasharray:5.0,5.0;" x1="239" x2="239" y1="81.2969" y2="2130.7734"/><line style="stroke:#181818;stroke-width:0.5;stroke-dasharray:5.0,5.0;" x1="398" x2="398" y1="81.2969" y2="2130.7734"/><line style="stroke:#181818;stroke-width:0.5;stroke-dasharray:5.0,5.0;" x1="1135" x2="1135" y1="81.2969" y2="2130.7734"/><line style="stroke:#181818;stroke-width:0.5;stroke-dasharray:5.0,5.0;" x1="1769.5" x2="1769.5" y1="81.2969" y2="2130.7734"/><line style="stroke:#181818;stroke-width:0.5;stroke-dasharray:5.0,5.0;" x1="2486" x2="2486" y1="81.2969" y2="2130.7734"/><line style="stroke:#181818;stroke-width:0.5;stroke-dasharray:5.0,5.0;" x1="2650" x2="2650" y1="81.2969" y2="2130.7734"/><line style="stroke:#181818;stroke-width:0.5;stroke-dasharray:5.0,5.0;" x1="2857.5" x2="2857.5" y1="81.2969" y2="2130.7734"/><line style="stroke:#181818;stroke-width:0.5;stroke-dasharray:5.0,5.0;" x1="3134" x2="3134" y1="81.2969" y2="2130.7734"/><line style="stroke:#181818;stroke-width:0.5;stroke-dasharray:5.0,5.0;" x1="3543.5" x2="3543.5" y1="81.2969" y2="2130.7734"/><text fill="#000000" font-family="sans-serif" font-size="14" lengthAdjust="spacing" textLength="141" x="20" y="77.9951">ETH Metamask User</text><ellipse cx="93.5" cy="13.5" fill="#E2E2F0" rx="8" ry="8" style="stroke:#181818;stroke-width:0.5;"/><path d="M93.5,21.5 L93.5,48.5 M80.5,29.5 L106.5,29.5 M93.5,48.5 L80.5,63.5 M93.5,48.5 L106.5,63.5 " fill="none" style="stroke:#181818;stroke-width:0.5;"/><text fill="#000000" font-family="sans-serif" font-size="14" lengthAdjust="spacing" textLength="141" x="20" y="2142.7686">ETH Metamask User</text><ellipse cx="93.5" cy="2154.5703" fill="#E2E2F0" rx="8" ry="8" style="stroke:#181818;stroke-width:0.5;"/><path d="M93.5,2162.5703 L93.5,2189.5703 M80.5,2170.5703 L106.5,2170.5703 M93.5,2189.5703 L80.5,2204.5703 M93.5,2189.5703 L106.5,2204.5703 " fill="none" style="stroke:#181818;stroke-width:0.5;"/><rect fill="#E2E2F0" height="30.2969" rx="2.5" ry="2.5" style="stroke:#181818;stroke-width:0.5;" width="124" x="177" y="50"/><text fill="#000000" font-family="sans-serif" font-size="14" lengthAdjust="spacing" textLength="110" x="184" y="69.9951">WETH Contract</text><rect fill="#E2E2F0" height="30.2969" rx="2.5" ry="2.5" style="stroke:#181818;stroke-width:0.5;" width="124" x="177" y="2129.7734"/><text fill="#000000" font-family="sans-serif" font-size="14" lengthAdjust="spacing" textLength="110" x="184" y="2149.7686">WETH Contract</text><rect fill="#E2E2F0" height="30.2969" rx="2.5" ry="2.5" style="stroke:#181818;stroke-width:0.5;" width="175" x="311" y="50"/><text fill="#000000" font-family="sans-serif" font-size="14" lengthAdjust="spacing" textLength="161" x="318" y="69.9951">Mangata ETH Contract</text><rect fill="#E2E2F0" height="30.2969" rx="2.5" ry="2.5" style="stroke:#181818;stroke-width:0.5;" width="175" x="311" y="2129.7734"/><text fill="#000000" font-family="sans-serif" font-size="14" lengthAdjust="spacing" textLength="161" x="318" y="2149.7686">Mangata ETH Contract</text><rect fill="#E2E2F0" height="30.2969" rx="2.5" ry="2.5" style="stroke:#181818;stroke-width:0.5;" width="133" x="1069" y="50"/><text fill="#000000" font-family="sans-serif" font-size="14" lengthAdjust="spacing" textLength="119" x="1076" y="69.9951">Sequencer (Bob)</text><rect fill="#E2E2F0" height="30.2969" rx="2.5" ry="2.5" style="stroke:#181818;stroke-width:0.5;" width="133" x="1069" y="2129.7734"/><text fill="#000000" font-family="sans-serif" font-size="14" lengthAdjust="spacing" textLength="119" x="1076" y="2149.7686">Sequencer (Bob)</text><rect fill="#E2E2F0" height="30.2969" rx="2.5" ry="2.5" style="stroke:#181818;stroke-width:0.5;" width="114" x="1712.5" y="50"/><text fill="#000000" font-family="sans-serif" font-size="14" lengthAdjust="spacing" textLength="100" x="1719.5" y="69.9951">Collator (Bob)</text><rect fill="#E2E2F0" height="30.2969" rx="2.5" ry="2.5" style="stroke:#181818;stroke-width:0.5;" width="114" x="1712.5" y="2129.7734"/><text fill="#000000" font-family="sans-serif" font-size="14" lengthAdjust="spacing" textLength="100" x="1719.5" y="2149.7686">Collator (Bob)</text><rect fill="#E2E2F0" height="30.2969" rx="2.5" ry="2.5" style="stroke:#181818;stroke-width:0.5;" width="137" x="2418" y="50"/><text fill="#000000" font-family="sans-serif" font-size="14" lengthAdjust="spacing" textLength="123" x="2425" y="69.9951">Mangata Updater</text><rect fill="#E2E2F0" height="30.2969" rx="2.5" ry="2.5" style="stroke:#181818;stroke-width:0.5;" width="137" x="2418" y="2129.7734"/><text fill="#000000" font-family="sans-serif" font-size="14" lengthAdjust="spacing" textLength="123" x="2425" y="2149.7686">Mangata Updater</text><rect fill="#E2E2F0" height="30.2969" rx="2.5" ry="2.5" style="stroke:#181818;stroke-width:0.5;" width="171" x="2565" y="50"/><text fill="#000000" font-family="sans-serif" font-size="14" lengthAdjust="spacing" textLength="157" x="2572" y="69.9951">Eigen Agregator &amp; TM</text><rect fill="#E2E2F0" height="30.2969" rx="2.5" ry="2.5" style="stroke:#181818;stroke-width:0.5;" width="171" x="2565" y="2129.7734"/><text fill="#000000" font-family="sans-serif" font-size="14" lengthAdjust="spacing" textLength="157" x="2572" y="2149.7686">Eigen Agregator &amp; TM</text><rect fill="#E2E2F0" height="30.2969" style="stroke:#181818;stroke-width:0.5;" width="174" x="2772.5" y="46"/><rect fill="#E2E2F0" height="30.2969" style="stroke:#181818;stroke-width:0.5;" width="174" x="2768.5" y="50"/><text fill="#000000" font-family="sans-serif" font-size="14" lengthAdjust="spacing" textLength="160" x="2775.5" y="69.9951">Eigen Operators (AVS)</text><rect fill="#E2E2F0" height="30.2969" style="stroke:#181818;stroke-width:0.5;" width="174" x="2772.5" y="2129.7734"/><rect fill="#E2E2F0" height="30.2969" style="stroke:#181818;stroke-width:0.5;" width="174" x="2768.5" y="2133.7734"/><text fill="#000000" font-family="sans-serif" font-size="14" lengthAdjust="spacing" textLength="160" x="2775.5" y="2153.7686">Eigen Operators (AVS)</text><rect fill="#E2E2F0" height="30.2969" style="stroke:#181818;stroke-width:0.5;" width="161" x="3056" y="46"/><rect fill="#E2E2F0" height="30.2969" style="stroke:#181818;stroke-width:0.5;" width="161" x="3052" y="50"/><text fill="#000000" font-family="sans-serif" font-size="14" lengthAdjust="spacing" textLength="147" x="3059" y="69.9951">Eigen ETH Contracts</text><rect fill="#E2E2F0" height="30.2969" style="stroke:#181818;stroke-width:0.5;" width="161" x="3056" y="2129.7734"/><rect fill="#E2E2F0" height="30.2969" style="stroke:#181818;stroke-width:0.5;" width="161" x="3052" y="2133.7734"/><text fill="#000000" font-family="sans-serif" font-size="14" lengthAdjust="spacing" textLength="147" x="3059" y="2153.7686">Eigen ETH Contracts</text><rect fill="#E2E2F0" height="30.2969" rx="2.5" ry="2.5" style="stroke:#181818;stroke-width:0.5;" width="110" x="3488.5" y="50"/><text fill="#000000" font-family="sans-serif" font-size="14" lengthAdjust="spacing" textLength="96" x="3495.5" y="69.9951">Rococo Relay</text><rect fill="#E2E2F0" height="30.2969" rx="2.5" ry="2.5" style="stroke:#181818;stroke-width:0.5;" width="110" x="3488.5" y="2129.7734"/><text fill="#000000" font-family="sans-serif" font-size="14" lengthAdjust="spacing" textLength="96" x="3495.5" y="2149.7686">Rococo Relay</text><polygon fill="#181818" points="386.5,108.4297,396.5,112.4297,386.5,116.4297,390.5,112.4297" style="stroke:#181818;stroke-width:1.0;"/><line style="stroke:#181818;stroke-width:1.0;stroke-dasharray:2.0,2.0;" x1="93.5" x2="392.5" y1="112.4297" y2="112.4297"/><text fill="#000000" font-family="sans-serif" font-size="13" lengthAdjust="spacing" textLength="207" x="100.5" y="107.3638">Trigger deposit of 1 WETH token</text><line style="stroke:#181818;stroke-width:1.0;stroke-dasharray:2.0,2.0;" x1="398.5" x2="440.5" y1="141.5625" y2="141.5625"/><line style="stroke:#181818;stroke-width:1.0;stroke-dasharray:2.0,2.0;" x1="440.5" x2="440.5" y1="141.5625" y2="154.5625"/><line style="stroke:#181818;stroke-width:1.0;stroke-dasharray:2.0,2.0;" x1="399.5" x2="440.5" y1="154.5625" y2="154.5625"/><polygon fill="#181818" points="409.5,150.5625,399.5,154.5625,409.5,158.5625,405.5,154.5625" style="stroke:#181818;stroke-width:1.0;"/><text fill="#000000" font-family="sans-serif" font-size="13" lengthAdjust="spacing" textLength="287" x="405.5" y="136.4966">Checks if ERC20 token exists on the network</text><line style="stroke:#181818;stroke-width:1.0;stroke-dasharray:2.0,2.0;" x1="1769.5" x2="1811.5" y1="183.6953" y2="183.6953"/><line style="stroke:#181818;stroke-width:1.0;stroke-dasharray:2.0,2.0;" x1="1811.5" x2="1811.5" y1="183.6953" y2="196.6953"/><line style="stroke:#181818;stroke-width:1.0;stroke-dasharray:2.0,2.0;" x1="1770.5" x2="1811.5" y1="196.6953" y2="196.6953"/><polygon fill="#181818" points="1780.5,192.6953,1770.5,196.6953,1780.5,200.6953,1776.5,196.6953" style="stroke:#181818;stroke-width:1.0;"/><text fill="#000000" font-family="sans-serif" font-size="13" lengthAdjust="spacing" textLength="429" x="1776.5" y="178.6294">It is collators (Bob) order to produce a block and he just produced it</text><polygon fill="#181818" points="1757.5,221.8281,1767.5,225.8281,1757.5,229.8281,1761.5,225.8281" style="stroke:#181818;stroke-width:1.0;"/><line style="stroke:#181818;stroke-width:1.0;stroke-dasharray:2.0,2.0;" x1="1135.5" x2="1763.5" y1="225.8281" y2="225.8281"/><text fill="#000000" font-family="sans-serif" font-size="13" lengthAdjust="spacing" textLength="366" x="1142.5" y="220.7622">(Subscription) Checks weather my collator just built block</text><polygon fill="#181818" points="1757.5,250.9609,1767.5,254.9609,1757.5,258.9609,1761.5,254.9609" style="stroke:#181818;stroke-width:1.0;"/><line style="stroke:#181818;stroke-width:1.0;stroke-dasharray:2.0,2.0;" x1="1135.5" x2="1763.5" y1="254.9609" y2="254.9609"/><text fill="#000000" font-family="sans-serif" font-size="13" lengthAdjust="spacing" textLength="610" x="1142.5" y="249.895">Checks the sequencer_latest_processed_block and sequencer_latest_processed_transaction_id</text><polygon fill="#181818" points="409.5,280.0938,399.5,284.0938,409.5,288.0938,405.5,284.0938" style="stroke:#181818;stroke-width:1.0;"/><line style="stroke:#181818;stroke-width:1.0;stroke-dasharray:2.0,2.0;" x1="403.5" x2="1134.5" y1="284.0938" y2="284.0938"/><text fill="#000000" font-family="sans-serif" font-size="13" lengthAdjust="spacing" textLength="713" x="415.5" y="279.0278">Read all ETH dep/with based on sequencer_latest_processed_block sequencer_latest_processed_transaction_id</text><polygon fill="#181818" points="1757.5,309.2266,1767.5,313.2266,1757.5,317.2266,1761.5,313.2266" style="stroke:#181818;stroke-width:1.0;"/><line style="stroke:#181818;stroke-width:1.0;stroke-dasharray:2.0,2.0;" x1="1135.5" x2="1763.5" y1="313.2266" y2="313.2266"/><text fill="#000000" font-family="sans-serif" font-size="13" lengthAdjust="spacing" textLength="375" x="1142.5" y="308.1606">Submit provide_l1_read extr. with all fetched ETH dep/with</text><line style="stroke:#181818;stroke-width:1.0;stroke-dasharray:2.0,2.0;" x1="1769.5" x2="1811.5" y1="342.3594" y2="342.3594"/><line style="stroke:#181818;stroke-width:1.0;stroke-dasharray:2.0,2.0;" x1="1811.5" x2="1811.5" y1="342.3594" y2="355.3594"/><line style="stroke:#181818;stroke-width:1.0;stroke-dasharray:2.0,2.0;" x1="1770.5" x2="1811.5" y1="355.3594" y2="355.3594"/><polygon fill="#181818" points="1780.5,351.3594,1770.5,355.3594,1780.5,359.3594,1776.5,355.3594" style="stroke:#181818;stroke-width:1.0;"/><text fill="#000000" font-family="sans-serif" font-size="13" lengthAdjust="spacing" textLength="336" x="1776.5" y="337.2935">Validates if Sequencer have enough Stake to submit</text><line style="stroke:#181818;stroke-width:1.0;stroke-dasharray:2.0,2.0;" x1="1769.5" x2="1811.5" y1="384.4922" y2="384.4922"/><line style="stroke:#181818;stroke-width:1.0;stroke-dasharray:2.0,2.0;" x1="1811.5" x2="1811.5" y1="384.4922" y2="397.4922"/><line style="stroke:#181818;stroke-width:1.0;stroke-dasharray:2.0,2.0;" x1="1770.5" x2="1811.5" y1="397.4922" y2="397.4922"/><polygon fill="#181818" points="1780.5,393.4922,1770.5,397.4922,1780.5,401.4922,1776.5,397.4922" style="stroke:#181818;stroke-width:1.0;"/><text fill="#000000" font-family="sans-serif" font-size="13" lengthAdjust="spacing" textLength="413" x="1776.5" y="379.4263">Removes the READ right from sequencer (node storage update)</text><line style="stroke:#181818;stroke-width:1.0;stroke-dasharray:2.0,2.0;" x1="1769.5" x2="1811.5" y1="426.625" y2="426.625"/><line style="stroke:#181818;stroke-width:1.0;stroke-dasharray:2.0,2.0;" x1="1811.5" x2="1811.5" y1="426.625" y2="439.625"/><line style="stroke:#181818;stroke-width:1.0;stroke-dasharray:2.0,2.0;" x1="1770.5" x2="1811.5" y1="439.625" y2="439.625"/><polygon fill="#181818" points="1780.5,435.625,1770.5,439.625,1780.5,443.625,1776.5,439.625" style="stroke:#181818;stroke-width:1.0;"/><text fill="#000000" font-family="sans-serif" font-size="13" lengthAdjust="spacing" textLength="474" x="1776.5" y="421.5591">store new value into pending_l1_reads with dispute period (block number)</text><line style="stroke:#181818;stroke-width:1.0;stroke-dasharray:2.0,2.0;" x1="1769.5" x2="1811.5" y1="468.7578" y2="468.7578"/><line style="stroke:#181818;stroke-width:1.0;stroke-dasharray:2.0,2.0;" x1="1811.5" x2="1811.5" y1="468.7578" y2="481.7578"/><line style="stroke:#181818;stroke-width:1.0;stroke-dasharray:2.0,2.0;" x1="1770.5" x2="1811.5" y1="481.7578" y2="481.7578"/><polygon fill="#181818" points="1780.5,477.7578,1770.5,481.7578,1780.5,485.7578,1776.5,481.7578" style="stroke:#181818;stroke-width:1.0;"/><text fill="#000000" font-family="sans-serif" font-size="13" lengthAdjust="spacing" textLength="423" x="1776.5" y="463.6919">Returns back the READ right for sequencer (node storage update)</text><path d="M1662.5,496.7578 L2193.5,496.7578 L2193.5,503.8906 L2183.5,513.8906 L1662.5,513.8906 L1662.5,496.7578 " fill="#EEEEEE" style="stroke:#000000;stroke-width:1.5;"/><rect fill="none" height="897.4219" style="stroke:#000000;stroke-width:1.5;" width="575" x="1662.5" y="496.7578"/><text fill="#000000" font-family="sans-serif" font-size="13" font-weight="bold" lengthAdjust="spacing" textLength="486" x="1677.5" y="509.8247">Separate action on Collator (maybe will move to separate UML)</text><path d="M1672.5,520.8906 L1750.5,520.8906 L1750.5,528.0234 L1740.5,538.0234 L1672.5,538.0234 L1672.5,520.8906 " fill="#EEEEEE" style="stroke:#000000;stroke-width:1.5;"/><rect fill="none" height="866.2891" style="stroke:#000000;stroke-width:1.5;" width="555" x="1672.5" y="520.8906"/><text fill="#000000" font-family="sans-serif" font-size="13" font-weight="bold" lengthAdjust="spacing" textLength="33" x="1687.5" y="533.9575">loop</text><text fill="#000000" font-family="sans-serif" font-size="11" font-weight="bold" lengthAdjust="spacing" textLength="258" x="1765.5" y="533.1011">[for each block at end_dispute_period]</text><path d="M1682.5,545.0234 L1760.5,545.0234 L1760.5,552.1563 L1750.5,562.1563 L1682.5,562.1563 L1682.5,545.0234 " fill="#EEEEEE" style="stroke:#000000;stroke-width:1.5;"/><rect fill="none" height="793.0234" style="stroke:#000000;stroke-width:1.5;" width="535" x="1682.5" y="545.0234"/><text fill="#000000" font-family="sans-serif" font-size="13" font-weight="bold" lengthAdjust="spacing" textLength="33" x="1697.5" y="558.0903">loop</text><text fill="#000000" font-family="sans-serif" font-size="11" font-weight="bold" lengthAdjust="spacing" textLength="119" x="1775.5" y="557.2339">[for each l1_read]</text><path d="M1692.5,569.1563 L1758.5,569.1563 L1758.5,576.2891 L1748.5,586.2891 L1692.5,586.2891 L1692.5,569.1563 " fill="#EEEEEE" style="stroke:#000000;stroke-width:1.5;"/><rect fill="none" height="761.8906" style="stroke:#000000;stroke-width:1.5;" width="515" x="1692.5" y="569.1563"/><text fill="#000000" font-family="sans-serif" font-size="13" font-weight="bold" lengthAdjust="spacing" textLength="21" x="1707.5" y="582.2231">alt</text><text fill="#000000" font-family="sans-serif" font-size="11" font-weight="bold" lengthAdjust="spacing" textLength="133" x="1773.5" y="581.3667">[l1_read is DEPOSIT]</text><line style="stroke:#181818;stroke-width:1.0;stroke-dasharray:2.0,2.0;" x1="1769.5" x2="1811.5" y1="607.4219" y2="607.4219"/><line style="stroke:#181818;stroke-width:1.0;stroke-dasharray:2.0,2.0;" x1="1811.5" x2="1811.5" y1="607.4219" y2="620.4219"/><line style="stroke:#181818;stroke-width:1.0;stroke-dasharray:2.0,2.0;" x1="1770.5" x2="1811.5" y1="620.4219" y2="620.4219"/><polygon fill="#181818" points="1780.5,616.4219,1770.5,620.4219,1780.5,624.4219,1776.5,620.4219" style="stroke:#181818;stroke-width:1.0;"/><text fill="#000000" font-family="sans-serif" font-size="13" lengthAdjust="spacing" textLength="209" x="1776.5" y="602.356">Deposits validations (balance,...)</text><path d="M1702.5,635.4219 L1768.5,635.4219 L1768.5,642.5547 L1758.5,652.5547 L1702.5,652.5547 L1702.5,635.4219 " fill="#EEEEEE" style="stroke:#000000;stroke-width:1.5;"/><rect fill="none" height="116.2031" style="stroke:#000000;stroke-width:1.5;" width="385" x="1702.5" y="635.4219"/><text fill="#000000" font-family="sans-serif" font-size="13" font-weight="bold" lengthAdjust="spacing" textLength="21" x="1717.5" y="648.4888">alt</text><text fill="#000000" font-family="sans-serif" font-size="11" font-weight="bold" lengthAdjust="spacing" textLength="173" x="1783.5" y="647.6323">[ETH address DOES exists]</text><line style="stroke:#181818;stroke-width:1.0;stroke-dasharray:2.0,2.0;" x1="1769.5" x2="1811.5" y1="673.6875" y2="673.6875"/><line style="stroke:#181818;stroke-width:1.0;stroke-dasharray:2.0,2.0;" x1="1811.5" x2="1811.5" y1="673.6875" y2="686.6875"/><line style="stroke:#181818;stroke-width:1.0;stroke-dasharray:2.0,2.0;" x1="1770.5" x2="1811.5" y1="686.6875" y2="686.6875"/><polygon fill="#181818" points="1780.5,682.6875,1770.5,686.6875,1780.5,690.6875,1776.5,686.6875" style="stroke:#181818;stroke-width:1.0;"/><text fill="#000000" font-family="sans-serif" font-size="13" lengthAdjust="spacing" textLength="238" x="1776.5" y="668.6216">Fetch Mangata version of ETH adress</text><line style="stroke:#000000;stroke-width:1.0;stroke-dasharray:2.0,2.0;" x1="1702.5" x2="2087.5" y1="695.6875" y2="695.6875"/><text fill="#000000" font-family="sans-serif" font-size="11" font-weight="bold" lengthAdjust="spacing" textLength="203" x="1707.5" y="705.8979">[ETH address does NOT exists]</text><line style="stroke:#181818;stroke-width:1.0;stroke-dasharray:2.0,2.0;" x1="1769.5" x2="1811.5" y1="730.625" y2="730.625"/><line style="stroke:#181818;stroke-width:1.0;stroke-dasharray:2.0,2.0;" x1="1811.5" x2="1811.5" y1="730.625" y2="743.625"/><line style="stroke:#181818;stroke-width:1.0;stroke-dasharray:2.0,2.0;" x1="1770.5" x2="1811.5" y1="743.625" y2="743.625"/><polygon fill="#181818" points="1780.5,739.625,1770.5,743.625,1780.5,747.625,1776.5,743.625" style="stroke:#181818;stroke-width:1.0;"/><text fill="#000000" font-family="sans-serif" font-size="13" lengthAdjust="spacing" textLength="299" x="1776.5" y="725.5591">Creates new ETH compatible Mangata address</text><path d="M1702.5,765.625 L1768.5,765.625 L1768.5,772.7578 L1758.5,782.7578 L1702.5,782.7578 L1702.5,765.625 " fill="#EEEEEE" style="stroke:#000000;stroke-width:1.5;"/><rect fill="none" height="116.2031" style="stroke:#000000;stroke-width:1.5;" width="334" x="1702.5" y="765.625"/><text fill="#000000" font-family="sans-serif" font-size="13" font-weight="bold" lengthAdjust="spacing" textLength="21" x="1717.5" y="778.6919">alt</text><text fill="#000000" font-family="sans-serif" font-size="11" font-weight="bold" lengthAdjust="spacing" textLength="216" x="1783.5" y="777.8354">[ETH Asset registry DOES exists]</text><line style="stroke:#181818;stroke-width:1.0;stroke-dasharray:2.0,2.0;" x1="1769.5" x2="1811.5" y1="803.8906" y2="803.8906"/><line style="stroke:#181818;stroke-width:1.0;stroke-dasharray:2.0,2.0;" x1="1811.5" x2="1811.5" y1="803.8906" y2="816.8906"/><line style="stroke:#181818;stroke-width:1.0;stroke-dasharray:2.0,2.0;" x1="1770.5" x2="1811.5" y1="816.8906" y2="816.8906"/><polygon fill="#181818" points="1780.5,812.8906,1770.5,816.8906,1780.5,820.8906,1776.5,816.8906" style="stroke:#181818;stroke-width:1.0;"/><text fill="#000000" font-family="sans-serif" font-size="13" lengthAdjust="spacing" textLength="248" x="1776.5" y="798.8247">Fetch Mangata version of ERC20 token</text><line style="stroke:#000000;stroke-width:1.0;stroke-dasharray:2.0,2.0;" x1="1702.5" x2="2036.5" y1="825.8906" y2="825.8906"/><text fill="#000000" font-family="sans-serif" font-size="11" font-weight="bold" lengthAdjust="spacing" textLength="203" x="1707.5" y="836.1011">[ETH address does NOT exists]</text><line style="stroke:#181818;stroke-width:1.0;stroke-dasharray:2.0,2.0;" x1="1769.5" x2="1811.5" y1="860.8281" y2="860.8281"/><line style="stroke:#181818;stroke-width:1.0;stroke-dasharray:2.0,2.0;" x1="1811.5" x2="1811.5" y1="860.8281" y2="873.8281"/><line style="stroke:#181818;stroke-width:1.0;stroke-dasharray:2.0,2.0;" x1="1770.5" x2="1811.5" y1="873.8281" y2="873.8281"/><polygon fill="#181818" points="1780.5,869.8281,1770.5,873.8281,1780.5,877.8281,1776.5,873.8281" style="stroke:#181818;stroke-width:1.0;"/><text fill="#000000" font-family="sans-serif" font-size="13" lengthAdjust="spacing" textLength="243" x="1776.5" y="855.7622">Register new asset registry and use it</text><line style="stroke:#181818;stroke-width:1.0;stroke-dasharray:2.0,2.0;" x1="1769.5" x2="1811.5" y1="909.9609" y2="909.9609"/><line style="stroke:#181818;stroke-width:1.0;stroke-dasharray:2.0,2.0;" x1="1811.5" x2="1811.5" y1="909.9609" y2="922.9609"/><line style="stroke:#181818;stroke-width:1.0;stroke-dasharray:2.0,2.0;" x1="1770.5" x2="1811.5" y1="922.9609" y2="922.9609"/><polygon fill="#181818" points="1780.5,918.9609,1770.5,922.9609,1780.5,926.9609,1776.5,922.9609" style="stroke:#181818;stroke-width:1.0;"/><text fill="#000000" font-family="sans-serif" font-size="13" lengthAdjust="spacing" textLength="120" x="1776.5" y="904.895">Mint token for user</text><line style="stroke:#000000;stroke-width:1.0;stroke-dasharray:2.0,2.0;" x1="1692.5" x2="2207.5" y1="931.9609" y2="931.9609"/><text fill="#000000" font-family="sans-serif" font-size="11" font-weight="bold" lengthAdjust="spacing" textLength="165" x="1697.5" y="942.1714">[l1_read is WITHDRAWAL]</text><line style="stroke:#181818;stroke-width:1.0;stroke-dasharray:2.0,2.0;" x1="1769.5" x2="1811.5" y1="966.8984" y2="966.8984"/><line style="stroke:#181818;stroke-width:1.0;stroke-dasharray:2.0,2.0;" x1="1811.5" x2="1811.5" y1="966.8984" y2="979.8984"/><line style="stroke:#181818;stroke-width:1.0;stroke-dasharray:2.0,2.0;" x1="1770.5" x2="1811.5" y1="979.8984" y2="979.8984"/><polygon fill="#181818" points="1780.5,975.8984,1770.5,979.8984,1780.5,983.8984,1776.5,979.8984" style="stroke:#181818;stroke-width:1.0;"/><text fill="#000000" font-family="sans-serif" font-size="13" lengthAdjust="spacing" textLength="331" x="1776.5" y="961.8325">Withdrawal validations (balance,token existence,...)</text><line style="stroke:#181818;stroke-width:1.0;stroke-dasharray:2.0,2.0;" x1="1769.5" x2="1811.5" y1="1009.0313" y2="1009.0313"/><line style="stroke:#181818;stroke-width:1.0;stroke-dasharray:2.0,2.0;" x1="1811.5" x2="1811.5" y1="1009.0313" y2="1022.0313"/><line style="stroke:#181818;stroke-width:1.0;stroke-dasharray:2.0,2.0;" x1="1770.5" x2="1811.5" y1="1022.0313" y2="1022.0313"/><polygon fill="#181818" points="1780.5,1018.0313,1770.5,1022.0313,1780.5,1026.0313,1776.5,1022.0313" style="stroke:#181818;stroke-width:1.0;"/><text fill="#000000" font-family="sans-serif" font-size="13" lengthAdjust="spacing" textLength="123" x="1776.5" y="1003.9653">Burn token for user</text><line style="stroke:#000000;stroke-width:1.0;stroke-dasharray:2.0,2.0;" x1="1692.5" x2="2207.5" y1="1031.0313" y2="1031.0313"/><text fill="#000000" font-family="sans-serif" font-size="11" font-weight="bold" lengthAdjust="spacing" textLength="251" x="1697.5" y="1041.2417">[l1_read is DELETE_PENDING)UPDATES]</text><line style="stroke:#181818;stroke-width:1.0;stroke-dasharray:2.0,2.0;" x1="1769.5" x2="1811.5" y1="1065.9688" y2="1065.9688"/><line style="stroke:#181818;stroke-width:1.0;stroke-dasharray:2.0,2.0;" x1="1811.5" x2="1811.5" y1="1065.9688" y2="1078.9688"/><line style="stroke:#181818;stroke-width:1.0;stroke-dasharray:2.0,2.0;" x1="1770.5" x2="1811.5" y1="1078.9688" y2="1078.9688"/><polygon fill="#181818" points="1780.5,1074.9688,1770.5,1078.9688,1780.5,1082.9688,1776.5,1078.9688" style="stroke:#181818;stroke-width:1.0;"/><text fill="#000000" font-family="sans-serif" font-size="13" lengthAdjust="spacing" textLength="248" x="1776.5" y="1060.9028">Deletes all processed pending updates</text><line style="stroke:#000000;stroke-width:1.0;stroke-dasharray:2.0,2.0;" x1="1692.5" x2="2207.5" y1="1087.9688" y2="1087.9688"/><text fill="#000000" font-family="sans-serif" font-size="11" font-weight="bold" lengthAdjust="spacing" textLength="214" x="1697.5" y="1098.1792">[l1_read is CANCEL_RESOLUTION]</text><path d="M1702.5,1108.7734 L1768.5,1108.7734 L1768.5,1115.9063 L1758.5,1125.9063 L1702.5,1125.9063 L1702.5,1108.7734 " fill="#EEEEEE" style="stroke:#000000;stroke-width:1.5;"/><rect fill="none" height="215.2734" style="stroke:#000000;stroke-width:1.5;" width="495" x="1702.5" y="1108.7734"/><text fill="#000000" font-family="sans-serif" font-size="13" font-weight="bold" lengthAdjust="spacing" textLength="21" x="1717.5" y="1121.8403">alt</text><text fill="#000000" font-family="sans-serif" font-size="11" font-weight="bold" lengthAdjust="spacing" textLength="292" x="1783.5" y="1120.9839">[CANCEL_RESOLUTION is CANCEL_APPROVED]</text><line style="stroke:#181818;stroke-width:1.0;stroke-dasharray:2.0,2.0;" x1="1769.5" x2="1811.5" y1="1147.0391" y2="1147.0391"/><line style="stroke:#181818;stroke-width:1.0;stroke-dasharray:2.0,2.0;" x1="1811.5" x2="1811.5" y1="1147.0391" y2="1160.0391"/><line style="stroke:#181818;stroke-width:1.0;stroke-dasharray:2.0,2.0;" x1="1770.5" x2="1811.5" y1="1160.0391" y2="1160.0391"/><polygon fill="#181818" points="1780.5,1156.0391,1770.5,1160.0391,1780.5,1164.0391,1776.5,1160.0391" style="stroke:#181818;stroke-width:1.0;"/><text fill="#000000" font-family="sans-serif" font-size="13" lengthAdjust="spacing" textLength="362" x="1776.5" y="1141.9731">Find malicious l1_read in history with Sequencer address</text><line style="stroke:#181818;stroke-width:1.0;stroke-dasharray:2.0,2.0;" x1="1769.5" x2="1811.5" y1="1189.1719" y2="1189.1719"/><line style="stroke:#181818;stroke-width:1.0;stroke-dasharray:2.0,2.0;" x1="1811.5" x2="1811.5" y1="1189.1719" y2="1202.1719"/><line style="stroke:#181818;stroke-width:1.0;stroke-dasharray:2.0,2.0;" x1="1770.5" x2="1811.5" y1="1202.1719" y2="1202.1719"/><polygon fill="#181818" points="1780.5,1198.1719,1770.5,1202.1719,1780.5,1206.1719,1776.5,1202.1719" style="stroke:#181818;stroke-width:1.0;"/><text fill="#000000" font-family="sans-serif" font-size="13" lengthAdjust="spacing" textLength="225" x="1776.5" y="1184.106">Call slash_sequencer(seq_address)</text><line style="stroke:#000000;stroke-width:1.0;stroke-dasharray:2.0,2.0;" x1="1702.5" x2="2197.5" y1="1211.1719" y2="1211.1719"/><text fill="#000000" font-family="sans-serif" font-size="11" font-weight="bold" lengthAdjust="spacing" textLength="326" x="1707.5" y="1221.3823">[CANCEL_RESOLUTION is CANCEL_NOT_APPROVED]</text><line style="stroke:#181818;stroke-width:1.0;stroke-dasharray:2.0,2.0;" x1="1769.5" x2="1811.5" y1="1246.1094" y2="1246.1094"/><line style="stroke:#181818;stroke-width:1.0;stroke-dasharray:2.0,2.0;" x1="1811.5" x2="1811.5" y1="1246.1094" y2="1259.1094"/><line style="stroke:#181818;stroke-width:1.0;stroke-dasharray:2.0,2.0;" x1="1770.5" x2="1811.5" y1="1259.1094" y2="1259.1094"/><polygon fill="#181818" points="1780.5,1255.1094,1770.5,1259.1094,1780.5,1263.1094,1776.5,1259.1094" style="stroke:#181818;stroke-width:1.0;"/><text fill="#000000" font-family="sans-serif" font-size="13" lengthAdjust="spacing" textLength="409" x="1776.5" y="1241.0435">Find malicious cancel request in history with Sequencer address</text><line style="stroke:#181818;stroke-width:1.0;stroke-dasharray:2.0,2.0;" x1="1769.5" x2="1811.5" y1="1288.2422" y2="1288.2422"/><line style="stroke:#181818;stroke-width:1.0;stroke-dasharray:2.0,2.0;" x1="1811.5" x2="1811.5" y1="1288.2422" y2="1301.2422"/><line style="stroke:#181818;stroke-width:1.0;stroke-dasharray:2.0,2.0;" x1="1770.5" x2="1811.5" y1="1301.2422" y2="1301.2422"/><polygon fill="#181818" points="1780.5,1297.2422,1770.5,1301.2422,1780.5,1305.2422,1776.5,1301.2422" style="stroke:#181818;stroke-width:1.0;"/><text fill="#000000" font-family="sans-serif" font-size="13" lengthAdjust="spacing" textLength="225" x="1776.5" y="1283.1763">Call slash_sequencer(seq_address)</text><line style="stroke:#000000;stroke-width:1.0;stroke-dasharray:2.0,2.0;" x1="1702.5" x2="2197.5" y1="1310.2422" y2="1310.2422"/><text fill="#000000" font-family="sans-serif" font-size="11" font-weight="bold" lengthAdjust="spacing" textLength="205" x="1707.5" y="1320.4526">[l1_read is ONLY_INFO_UPDATE]</text><line style="stroke:#181818;stroke-width:1.0;stroke-dasharray:2.0,2.0;" x1="1769.5" x2="1811.5" y1="1366.1797" y2="1366.1797"/><line style="stroke:#181818;stroke-width:1.0;stroke-dasharray:2.0,2.0;" x1="1811.5" x2="1811.5" y1="1366.1797" y2="1379.1797"/><line style="stroke:#181818;stroke-width:1.0;stroke-dasharray:2.0,2.0;" x1="1770.5" x2="1811.5" y1="1379.1797" y2="1379.1797"/><polygon fill="#181818" points="1780.5,1375.1797,1770.5,1379.1797,1780.5,1383.1797,1776.5,1379.1797" style="stroke:#181818;stroke-width:1.0;"/><text fill="#000000" font-family="sans-serif" font-size="13" lengthAdjust="spacing" textLength="402" x="1776.5" y="1361.1138">Store succesfull WITHDRAWAL or DEPOSIT to pending_updates</text><polygon fill="#181818" points="1780.5,1418.3125,1770.5,1422.3125,1780.5,1426.3125,1776.5,1422.3125" style="stroke:#181818;stroke-width:1.0;"/><line style="stroke:#181818;stroke-width:1.0;stroke-dasharray:2.0,2.0;" x1="1774.5" x2="2649.5" y1="1422.3125" y2="1422.3125"/><text fill="#000000" font-family="sans-serif" font-size="13" lengthAdjust="spacing" textLength="373" x="1786.5" y="1417.2466">Reads that new N block(s) was produced by some collator</text><polygon fill="#181818" points="2845.5,1447.4453,2855.5,1451.4453,2845.5,1455.4453,2849.5,1451.4453" style="stroke:#181818;stroke-width:1.0;"/><line style="stroke:#181818;stroke-width:1.0;stroke-dasharray:2.0,2.0;" x1="2650.5" x2="2851.5" y1="1451.4453" y2="1451.4453"/><text fill="#000000" font-family="sans-serif" font-size="13" lengthAdjust="spacing" textLength="183" x="2657.5" y="1446.3794">Submits task: Finalize blocks</text><polygon fill="#181818" points="1780.5,1476.5781,1770.5,1480.5781,1780.5,1484.5781,1776.5,1480.5781" style="stroke:#181818;stroke-width:1.0;"/><line style="stroke:#181818;stroke-width:1.0;stroke-dasharray:2.0,2.0;" x1="1774.5" x2="2856.5" y1="1480.5781" y2="1480.5781"/><text fill="#000000" font-family="sans-serif" font-size="13" lengthAdjust="spacing" textLength="204" x="1786.5" y="1475.5122">Reads pending_updates hashes</text><polygon fill="#181818" points="3531.5,1505.7109,3541.5,1509.7109,3531.5,1513.7109,3535.5,1509.7109" style="stroke:#181818;stroke-width:1.0;"/><line style="stroke:#181818;stroke-width:1.0;stroke-dasharray:2.0,2.0;" x1="2857.5" x2="3537.5" y1="1509.7109" y2="1509.7109"/><text fill="#000000" font-family="sans-serif" font-size="13" lengthAdjust="spacing" textLength="210" x="2864.5" y="1504.645">Check finalisation on Relay chain</text><line style="stroke:#181818;stroke-width:1.0;stroke-dasharray:2.0,2.0;" x1="2857.5" x2="2899.5" y1="1538.8438" y2="1538.8438"/><line style="stroke:#181818;stroke-width:1.0;stroke-dasharray:2.0,2.0;" x1="2899.5" x2="2899.5" y1="1538.8438" y2="1551.8438"/><line style="stroke:#181818;stroke-width:1.0;stroke-dasharray:2.0,2.0;" x1="2858.5" x2="2899.5" y1="1551.8438" y2="1551.8438"/><polygon fill="#181818" points="2868.5,1547.8438,2858.5,1551.8438,2868.5,1555.8438,2864.5,1551.8438" style="stroke:#181818;stroke-width:1.0;"/><text fill="#000000" font-family="sans-serif" font-size="13" lengthAdjust="spacing" textLength="263" x="2864.5" y="1533.7778">(V2) execute try-runtime block validation</text><line style="stroke:#181818;stroke-width:1.0;stroke-dasharray:2.0,2.0;" x1="2857.5" x2="2899.5" y1="1580.9766" y2="1580.9766"/><line style="stroke:#181818;stroke-width:1.0;stroke-dasharray:2.0,2.0;" x1="2899.5" x2="2899.5" y1="1580.9766" y2="1593.9766"/><line style="stroke:#181818;stroke-width:1.0;stroke-dasharray:2.0,2.0;" x1="2858.5" x2="2899.5" y1="1593.9766" y2="1593.9766"/><polygon fill="#181818" points="2868.5,1589.9766,2858.5,1593.9766,2868.5,1597.9766,2864.5,1593.9766" style="stroke:#181818;stroke-width:1.0;"/><text fill="#000000" font-family="sans-serif" font-size="13" lengthAdjust="spacing" textLength="225" x="2864.5" y="1575.9106">Sign the response with operator PK</text><polygon fill="#181818" points="2661.5,1619.1094,2651.5,1623.1094,2661.5,1627.1094,2657.5,1623.1094" style="stroke:#181818;stroke-width:1.0;"/><line style="stroke:#181818;stroke-width:1.0;stroke-dasharray:2.0,2.0;" x1="2655.5" x2="2856.5" y1="1623.1094" y2="1623.1094"/><text fill="#000000" font-family="sans-serif" font-size="13" lengthAdjust="spacing" textLength="135" x="2667.5" y="1618.0435">Returns finished task</text><polygon fill="#181818" points="3122.5,1648.2422,3132.5,1652.2422,3122.5,1656.2422,3126.5,1652.2422" style="stroke:#181818;stroke-width:1.0;"/><line style="stroke:#181818;stroke-width:1.0;stroke-dasharray:2.0,2.0;" x1="2650.5" x2="3128.5" y1="1652.2422" y2="1652.2422"/><text fill="#000000" font-family="sans-serif" font-size="13" lengthAdjust="spacing" textLength="366" x="2657.5" y="1647.1763">Submits TX on ETH Contract with the hashed information</text><line style="stroke:#181818;stroke-width:1.0;stroke-dasharray:2.0,2.0;" x1="3134.5" x2="3176.5" y1="1681.375" y2="1681.375"/><line style="stroke:#181818;stroke-width:1.0;stroke-dasharray:2.0,2.0;" x1="3176.5" x2="3176.5" y1="1681.375" y2="1694.375"/><line style="stroke:#181818;stroke-width:1.0;stroke-dasharray:2.0,2.0;" x1="3135.5" x2="3176.5" y1="1694.375" y2="1694.375"/><polygon fill="#181818" points="3145.5,1690.375,3135.5,1694.375,3145.5,1698.375,3141.5,1694.375" style="stroke:#181818;stroke-width:1.0;"/><text fill="#000000" font-family="sans-serif" font-size="13" lengthAdjust="spacing" textLength="304" x="3141.5" y="1676.3091">(V1.1) Stored block hash in a key-value storage</text><line style="stroke:#181818;stroke-width:1.0;stroke-dasharray:2.0,2.0;" x1="3134.5" x2="3176.5" y1="1723.5078" y2="1723.5078"/><line style="stroke:#181818;stroke-width:1.0;stroke-dasharray:2.0,2.0;" x1="3176.5" x2="3176.5" y1="1723.5078" y2="1736.5078"/><line style="stroke:#181818;stroke-width:1.0;stroke-dasharray:2.0,2.0;" x1="3135.5" x2="3176.5" y1="1736.5078" y2="1736.5078"/><polygon fill="#181818" points="3145.5,1732.5078,3135.5,1736.5078,3145.5,1740.5078,3141.5,1736.5078" style="stroke:#181818;stroke-width:1.0;"/><text fill="#000000" font-family="sans-serif" font-size="13" lengthAdjust="spacing" textLength="395" x="3141.5" y="1718.4419">(V1.1) Stores pending_updates hashes in a key-value storage</text><line style="stroke:#181818;stroke-width:1.0;stroke-dasharray:2.0,2.0;" x1="3134.5" x2="3176.5" y1="1765.6406" y2="1765.6406"/><line style="stroke:#181818;stroke-width:1.0;stroke-dasharray:2.0,2.0;" x1="3176.5" x2="3176.5" y1="1765.6406" y2="1778.6406"/><line style="stroke:#181818;stroke-width:1.0;stroke-dasharray:2.0,2.0;" x1="3135.5" x2="3176.5" y1="1778.6406" y2="1778.6406"/><polygon fill="#181818" points="3145.5,1774.6406,3135.5,1778.6406,3145.5,1782.6406,3141.5,1778.6406" style="stroke:#181818;stroke-width:1.0;"/><text fill="#000000" font-family="sans-serif" font-size="13" lengthAdjust="spacing" textLength="197" x="3141.5" y="1760.5747">(V1.1) Removes old block data</text><polygon fill="#181818" points="3122.5,1803.7734,3132.5,1807.7734,3122.5,1811.7734,3126.5,1807.7734" style="stroke:#181818;stroke-width:1.0;"/><line style="stroke:#181818;stroke-width:1.0;stroke-dasharray:2.0,2.0;" x1="2486.5" x2="3128.5" y1="1807.7734" y2="1807.7734"/><text fill="#000000" font-family="sans-serif" font-size="13" lengthAdjust="spacing" textLength="202" x="2493.5" y="1802.7075">Subscribed for block finalisation</text><polygon fill="#181818" points="1780.5,1832.9063,1770.5,1836.9063,1780.5,1840.9063,1776.5,1836.9063" style="stroke:#181818;stroke-width:1.0;"/><line style="stroke:#181818;stroke-width:1.0;stroke-dasharray:2.0,2.0;" x1="1774.5" x2="2485.5" y1="1836.9063" y2="1836.9063"/><text fill="#000000" font-family="sans-serif" font-size="13" lengthAdjust="spacing" textLength="491" x="1786.5" y="1831.8403">Read pending_updates storage with hashes and latest_eigen_finalized_block</text><polygon fill="#181818" points="409.5,1862.0391,399.5,1866.0391,409.5,1870.0391,405.5,1866.0391" style="stroke:#181818;stroke-width:1.0;"/><line style="stroke:#181818;stroke-width:1.0;stroke-dasharray:2.0,2.0;" x1="403.5" x2="2485.5" y1="1866.0391" y2="1866.0391"/><text fill="#000000" font-family="sans-serif" font-size="13" lengthAdjust="spacing" textLength="373" x="415.5" y="1860.9731">Executes TX on ETH with all pending_updates with hashes</text><polygon fill="#181818" points="1780.5,1891.1719,1770.5,1895.1719,1780.5,1899.1719,1776.5,1895.1719" style="stroke:#181818;stroke-width:1.0;"/><line style="stroke:#181818;stroke-width:1.0;stroke-dasharray:2.0,2.0;" x1="1774.5" x2="2485.5" y1="1895.1719" y2="1895.1719"/><text fill="#000000" font-family="sans-serif" font-size="13" lengthAdjust="spacing" textLength="693" x="1786.5" y="1890.106">Execute submited_pending_updates extrinsic with submited hashes and latest finalized block by Eigen layer</text><line style="stroke:#181818;stroke-width:1.0;stroke-dasharray:2.0,2.0;" x1="1769.5" x2="1811.5" y1="1924.3047" y2="1924.3047"/><line style="stroke:#181818;stroke-width:1.0;stroke-dasharray:2.0,2.0;" x1="1811.5" x2="1811.5" y1="1924.3047" y2="1937.3047"/><line style="stroke:#181818;stroke-width:1.0;stroke-dasharray:2.0,2.0;" x1="1770.5" x2="1811.5" y1="1937.3047" y2="1937.3047"/><polygon fill="#181818" points="1780.5,1933.3047,1770.5,1937.3047,1780.5,1941.3047,1776.5,1937.3047" style="stroke:#181818;stroke-width:1.0;"/><text fill="#000000" font-family="sans-serif" font-size="13" lengthAdjust="spacing" textLength="236" x="1776.5" y="1919.2388">Updated latest_eigen_finalized_block</text><line style="stroke:#181818;stroke-width:1.0;stroke-dasharray:2.0,2.0;" x1="1769.5" x2="1811.5" y1="1966.4375" y2="1966.4375"/><line style="stroke:#181818;stroke-width:1.0;stroke-dasharray:2.0,2.0;" x1="1811.5" x2="1811.5" y1="1966.4375" y2="1979.4375"/><line style="stroke:#181818;stroke-width:1.0;stroke-dasharray:2.0,2.0;" x1="1770.5" x2="1811.5" y1="1979.4375" y2="1979.4375"/><polygon fill="#181818" points="1780.5,1975.4375,1770.5,1979.4375,1780.5,1983.4375,1776.5,1979.4375" style="stroke:#181818;stroke-width:1.0;"/><text fill="#000000" font-family="sans-serif" font-size="13" lengthAdjust="spacing" textLength="355" x="1776.5" y="1961.3716">Removes all submited pending_updates based on hash</text><polygon fill="#181818" points="3122.5,2004.5703,3132.5,2008.5703,3122.5,2012.5703,3126.5,2008.5703" style="stroke:#181818;stroke-width:1.0;"/><line style="stroke:#181818;stroke-width:1.0;stroke-dasharray:2.0,2.0;" x1="398.5" x2="3128.5" y1="2008.5703" y2="2008.5703"/><text fill="#000000" font-family="sans-serif" font-size="13" lengthAdjust="spacing" textLength="266" x="405.5" y="2003.5044">(V1.1) Compare pending_updates hashes</text><path d="M10,2023.5703 L76,2023.5703 L76,2030.7031 L66,2040.7031 L10,2040.7031 L10,2023.5703 " fill="#EEEEEE" style="stroke:#000000;stroke-width:1.5;"/><rect fill="none" height="90.2031" style="stroke:#000000;stroke-width:1.5;" width="486" x="10" y="2023.5703"/><text fill="#000000" font-family="sans-serif" font-size="13" font-weight="bold" lengthAdjust="spacing" textLength="21" x="25" y="2036.6372">alt</text><text fill="#000000" font-family="sans-serif" font-size="11" font-weight="bold" lengthAdjust="spacing" textLength="190" x="91" y="2035.7808">[pending_update is DEPOSIT]</text><polygon fill="#181818" points="104.5,2057.8359,94.5,2061.8359,104.5,2065.8359,100.5,2061.8359" style="stroke:#181818;stroke-width:1.0;"/><line style="stroke:#181818;stroke-width:1.0;stroke-dasharray:2.0,2.0;" x1="98.5" x2="397.5" y1="2061.8359" y2="2061.8359"/><text fill="#000000" font-family="sans-serif" font-size="13" lengthAdjust="spacing" textLength="189" x="110.5" y="2056.77">Locks amount to the contract</text><line style="stroke:#000000;stroke-width:1.0;stroke-dasharray:2.0,2.0;" x1="10" x2="496" y1="2070.8359" y2="2070.8359"/><text fill="#000000" font-family="sans-serif" font-size="11" font-weight="bold" lengthAdjust="spacing" textLength="165" x="15" y="2081.0464">[l1_read is WITHDRAWAL]</text><polygon fill="#181818" points="104.5,2101.7734,94.5,2105.7734,104.5,2109.7734,100.5,2105.7734" style="stroke:#181818;stroke-width:1.0;"/><line style="stroke:#181818;stroke-width:1.0;stroke-dasharray:2.0,2.0;" x1="98.5" x2="397.5" y1="2105.7734" y2="2105.7734"/><text fill="#000000" font-family="sans-serif" font-size="13" lengthAdjust="spacing" textLength="183" x="110.5" y="2100.7075">Sends funds to user address</text><!--SRC=[lLXjS-8s4FxkNx6JphGmRMXp7-z3PpZmjPaIo019sayUOGkinhQe9CEblxwxalm6EBbhRyhDPS1QFTfTFVjc5Xkfm7skmlMlSCSDovb-XWVDrPLVOHfA_1a4UwQCYCMU5GQkdaX-8WkZM6okdDYHcpJsZxhITwpOCSFWmgRSBTNxWety15SVv0Qk8IaJ3iTKWYeB3HN8H6OP8ys_XnN_g-H5p1KXoO83AdeGCR-2RsPYbveFMScxcZGx1dZ6q2kXgwTTuVeaBukIiNyKy281L3MuREZ3Fc66V4ZUSzzF94EnumMCTuhlx17VmlhEYhFgKH3GOJmsGgBrViDYpnKjQXYC7rTE9-cVNP9lUrnxQpcjNBwefOpn7onvnbwyjABlGK0SWElhdqylx3sibTZjS37XUwc50Rc56x3yCF8PLGY2aosNOIOfZvyrY2s4oycxd_nc_abeGtSB9kLGS7EKwjbvnhgDeAeVx-7MW6ZkIBjx0waILCz8s2kPb3471fjCni_0y0uHzSzIcsej0O4ShFbmWZzObHiTAx4d7myhbO-SeN8AyfTQr65kIf4PTrOlfCSWwsgH2DUuDX7g57EjUH8r-huYX8uiDBFt7udar8epXoyvIu1bcUK8NjwFHs5Is3248d-_gStdQz9dEtep5zRr1v7mABk95Ed4Fnar0giDgRVb9avHfxQQlGnuP9cWSBD4Qe8zPGSEl93bBeMLOS-SwA3jyNr8IvxB0tStimp7Kr2KKM2hPDwO3eD2OexIk8Fjk0_rOHyaYH69Zt1Wc9b054HAp2IYs5NMQsTu8lI-D1nNbP0939pBYpBVS3NiLzcK2cD_mr3sL6-KValjOATakKUtOKx01-1kaCZGPCASlMmmAGky6FAFzMCb_t0tGn20JCgzFP2pEArYpQ3_ayZR5JcxK3QW6jFTu3rXLm9VX32EAdfWX4_3-yNgTkqNwTFZaQdBIPeSJhomgN6mOHb3D_mm6es6BGmwX4Z6aaGXZs6w25S-0RMaUi_wI3ojgzI1AssTj_MO1Dc2uPdcdTCIYMIRBzPVSE84_K5K9qOHL2ppFTguoNYjXaTl7rma5smUOzmQpFKxF5kzV3tJcrJ-bMrVMbMHocGywsfFUHBh5QNootRtODvXGFgwGsIqRKzBunO1dsxNlqwNuwVnx2tC9upcHB4Zoovpi5Nc-1adUp0_O9H_dfxJS1Qkm-W-d4zlvxyC7-wdutMuQhnII0nRco1QdbgdkDF7FduphhvZ1hQvhxhbkfeVKzIZhX-s_XPReNBSi7cnQSXtGAEWTHVswE3DyCqu4PpAG5rTgepfONMFwPFnV1BEecMuMimUrhUBUV3LZOxf1ZDMxK4go-p0an7r8JP3OgQi7f8lR7mgKfsyOhFzApwXq3mpecNP-Fv-kNWCfszdmOy2iNDaNonagHid5O16eyIBgpcjRleiQ_Hb8BePdJ6THdLn6U2to2CqLBRNyvev6Fx_tYHt4-XIr04Rh__ViXRn5lFP7z7j_ECYSk7MoMONkKUVgIo-enIMSohn8rYbiioGDTosBfhbd9fntsEFEflFcDDETK7tKN3seyV-bUrLT1bZq6rBz4MJyh2XhYemj1gO9Xm3TmJz3-fnvYn_KwzZKkmBA8FFNPimq4CuefrrDuvHeoNQNizTNRngzAbwIKJ4-TNI0xdnDtUeEgZaBYfnOW0sYphb9tli5EIxTTXQTCsgxiYEIn2dJ1JTNOrwWyTtGypoFAQc3clKDOwqHkHUmLPfw0DOYLtXquRUOmNXZjcrzFrltPsrdvgs4DKMcZffyj698pipOUFDzUzaNtk8TCUI8jPDb4Mm1kLEzmxA9Tp1uytePkZ8bNZR2OSYbi4pVxbsdR7lJByCiEyc_ojuDGd8h58PqHcEnAwizVYFviGDrG_qiDlLfardSvUGPrPKRRhrl3U9MXm_TjcZewrdl9_EElXder_eYDY-tthSEZszVMgFrXxE3rIemYa6JNIYq29sQ9NSkJ5Gc-5zXl7lNcHWX77LE_QvzorlkEIDGSyc_4gpKmlgiTYozV8hZSlicTYYp_koJ41blhlMdN0kdKGTttkOKMe3bilIjgqsA6knuDMMjHzqXQfWgYZfBsBQrpvLqSIbVm00]--></g></svg>