<?xml version="1.0" encoding="us-ascii" standalone="no"?><svg xmlns="http://www.w3.org/2000/svg" xmlns:xlink="http://www.w3.org/1999/xlink" contentStyleType="text/css" height="2491px" preserveAspectRatio="none" style="width:3714px;height:2491px;background:#FFFFFF;" version="1.1" viewBox="0 0 3714 2491" width="3714px" zoomAndPan="magnify"><defs/><g><rect fill="#ADD8E6" height="2479.9375" style="stroke:#181818;stroke-width:0.5;" width="840.5" x="991" y="6"/><text fill="#000000" font-family="sans-serif" font-size="13" font-weight="bold" lengthAdjust="spacing" textLength="504" x="1159.25" y="18.0669">Bob - dude who runs Mangata Collator + Sequencer as one service</text><rect fill="none" height="198.6016" style="stroke:#000000;stroke-width:1.5;" width="1620.5" x="227" y="299.0938"/><rect fill="none" height="96.2031" style="stroke:#000000;stroke-width:1.5;" width="897.5" x="940" y="394.4922"/><rect fill="none" height="1129.2188" style="stroke:#000000;stroke-width:1.5;" width="901.5" x="1337" y="612.0938"/><rect fill="none" height="1098.0859" style="stroke:#000000;stroke-width:1.5;" width="881.5" x="1347" y="636.2266"/><rect fill="none" height="1066.9531" style="stroke:#000000;stroke-width:1.5;" width="861.5" x="1357" y="660.3594"/><rect fill="none" height="867.2891" style="stroke:#000000;stroke-width:1.5;" width="841.5" x="1367" y="768.7578"/><rect fill="none" height="116.2031" style="stroke:#000000;stroke-width:1.5;" width="385" x="1703.5" y="835.0234"/><rect fill="none" height="116.2031" style="stroke:#000000;stroke-width:1.5;" width="334" x="1703.5" y="965.2266"/><rect fill="none" height="200.4688" style="stroke:#000000;stroke-width:1.5;" width="495" x="1703.5" y="1378.6406"/><rect fill="none" height="90.2031" style="stroke:#000000;stroke-width:1.5;" width="412" x="10" y="2299.4375"/><line style="stroke:#181818;stroke-width:0.5;stroke-dasharray:5.0,5.0;" x1="93" x2="93" y1="81.2969" y2="2406.6406"/><line style="stroke:#181818;stroke-width:0.5;stroke-dasharray:5.0,5.0;" x1="324" x2="324" y1="81.2969" y2="2406.6406"/><line style="stroke:#181818;stroke-width:0.5;stroke-dasharray:5.0,5.0;" x1="1061" x2="1061" y1="81.2969" y2="2406.6406"/><line style="stroke:#181818;stroke-width:0.5;stroke-dasharray:5.0,5.0;" x1="1770.5" x2="1770.5" y1="81.2969" y2="2406.6406"/><line style="stroke:#181818;stroke-width:0.5;stroke-dasharray:5.0,5.0;" x1="2285" x2="2285" y1="81.2969" y2="2406.6406"/><line style="stroke:#181818;stroke-width:0.5;stroke-dasharray:5.0,5.0;" x1="2760" x2="2760" y1="81.2969" y2="2406.6406"/><line style="stroke:#181818;stroke-width:0.5;stroke-dasharray:5.0,5.0;" x1="2967.5" x2="2967.5" y1="81.2969" y2="2406.6406"/><line style="stroke:#181818;stroke-width:0.5;stroke-dasharray:5.0,5.0;" x1="3244" x2="3244" y1="81.2969" y2="2406.6406"/><line style="stroke:#181818;stroke-width:0.5;stroke-dasharray:5.0,5.0;" x1="3653.5" x2="3653.5" y1="81.2969" y2="2406.6406"/><text fill="#000000" font-family="sans-serif" font-size="14" lengthAdjust="spacing" textLength="141" x="20" y="77.9951">ETH Metamask User</text><ellipse cx="93.5" cy="13.5" fill="#E2E2F0" rx="8" ry="8" style="stroke:#181818;stroke-width:0.5;"/><path d="M93.5,21.5 L93.5,48.5 M80.5,29.5 L106.5,29.5 M93.5,48.5 L80.5,63.5 M93.5,48.5 L106.5,63.5 " fill="none" style="stroke:#181818;stroke-width:0.5;"/><text fill="#000000" font-family="sans-serif" font-size="14" lengthAdjust="spacing" textLength="141" x="20" y="2418.6357">ETH Metamask User</text><ellipse cx="93.5" cy="2430.4375" fill="#E2E2F0" rx="8" ry="8" style="stroke:#181818;stroke-width:0.5;"/><path d="M93.5,2438.4375 L93.5,2465.4375 M80.5,2446.4375 L106.5,2446.4375 M93.5,2465.4375 L80.5,2480.4375 M93.5,2465.4375 L106.5,2480.4375 " fill="none" style="stroke:#181818;stroke-width:0.5;"/><rect fill="#E2E2F0" height="30.2969" rx="2.5" ry="2.5" style="stroke:#181818;stroke-width:0.5;" width="175" x="237" y="50"/><text fill="#000000" font-family="sans-serif" font-size="14" lengthAdjust="spacing" textLength="161" x="244" y="69.9951">Mangata ETH Contract</text><rect fill="#E2E2F0" height="30.2969" rx="2.5" ry="2.5" style="stroke:#181818;stroke-width:0.5;" width="175" x="237" y="2405.6406"/><text fill="#000000" font-family="sans-serif" font-size="14" lengthAdjust="spacing" textLength="161" x="244" y="2425.6357">Mangata ETH Contract</text><rect fill="#E2E2F0" height="30.2969" rx="2.5" ry="2.5" style="stroke:#181818;stroke-width:0.5;" width="133" x="995" y="50"/><text fill="#000000" font-family="sans-serif" font-size="14" lengthAdjust="spacing" textLength="119" x="1002" y="69.9951">Sequencer (Bob)</text><rect fill="#E2E2F0" height="30.2969" rx="2.5" ry="2.5" style="stroke:#181818;stroke-width:0.5;" width="133" x="995" y="2405.6406"/><text fill="#000000" font-family="sans-serif" font-size="14" lengthAdjust="spacing" textLength="119" x="1002" y="2425.6357">Sequencer (Bob)</text><rect fill="#E2E2F0" height="30.2969" rx="2.5" ry="2.5" style="stroke:#181818;stroke-width:0.5;" width="114" x="1713.5" y="50"/><text fill="#000000" font-family="sans-serif" font-size="14" lengthAdjust="spacing" textLength="100" x="1720.5" y="69.9951">Collator (Bob)</text><rect fill="#E2E2F0" height="30.2969" rx="2.5" ry="2.5" style="stroke:#181818;stroke-width:0.5;" width="114" x="1713.5" y="2405.6406"/><text fill="#000000" font-family="sans-serif" font-size="14" lengthAdjust="spacing" textLength="100" x="1720.5" y="2425.6357">Collator (Bob)</text><rect fill="#E2E2F0" height="30.2969" rx="2.5" ry="2.5" style="stroke:#181818;stroke-width:0.5;" width="137" x="2217" y="50"/><text fill="#000000" font-family="sans-serif" font-size="14" lengthAdjust="spacing" textLength="123" x="2224" y="69.9951">Mangata Updater</text><rect fill="#E2E2F0" height="30.2969" rx="2.5" ry="2.5" style="stroke:#181818;stroke-width:0.5;" width="137" x="2217" y="2405.6406"/><text fill="#000000" font-family="sans-serif" font-size="14" lengthAdjust="spacing" textLength="123" x="2224" y="2425.6357">Mangata Updater</text><rect fill="#E2E2F0" height="30.2969" rx="2.5" ry="2.5" style="stroke:#181818;stroke-width:0.5;" width="171" x="2675" y="50"/><text fill="#000000" font-family="sans-serif" font-size="14" lengthAdjust="spacing" textLength="157" x="2682" y="69.9951">Eigen Agregator &amp; TM</text><rect fill="#E2E2F0" height="30.2969" rx="2.5" ry="2.5" style="stroke:#181818;stroke-width:0.5;" width="171" x="2675" y="2405.6406"/><text fill="#000000" font-family="sans-serif" font-size="14" lengthAdjust="spacing" textLength="157" x="2682" y="2425.6357">Eigen Agregator &amp; TM</text><rect fill="#E2E2F0" height="30.2969" style="stroke:#181818;stroke-width:0.5;" width="174" x="2882.5" y="46"/><rect fill="#E2E2F0" height="30.2969" style="stroke:#181818;stroke-width:0.5;" width="174" x="2878.5" y="50"/><text fill="#000000" font-family="sans-serif" font-size="14" lengthAdjust="spacing" textLength="160" x="2885.5" y="69.9951">Eigen Operators (AVS)</text><rect fill="#E2E2F0" height="30.2969" style="stroke:#181818;stroke-width:0.5;" width="174" x="2882.5" y="2405.6406"/><rect fill="#E2E2F0" height="30.2969" style="stroke:#181818;stroke-width:0.5;" width="174" x="2878.5" y="2409.6406"/><text fill="#000000" font-family="sans-serif" font-size="14" lengthAdjust="spacing" textLength="160" x="2885.5" y="2429.6357">Eigen Operators (AVS)</text><rect fill="#E2E2F0" height="30.2969" style="stroke:#181818;stroke-width:0.5;" width="161" x="3166" y="46"/><rect fill="#E2E2F0" height="30.2969" style="stroke:#181818;stroke-width:0.5;" width="161" x="3162" y="50"/><text fill="#000000" font-family="sans-serif" font-size="14" lengthAdjust="spacing" textLength="147" x="3169" y="69.9951">Eigen ETH Contracts</text><rect fill="#E2E2F0" height="30.2969" style="stroke:#181818;stroke-width:0.5;" width="161" x="3166" y="2405.6406"/><rect fill="#E2E2F0" height="30.2969" style="stroke:#181818;stroke-width:0.5;" width="161" x="3162" y="2409.6406"/><text fill="#000000" font-family="sans-serif" font-size="14" lengthAdjust="spacing" textLength="147" x="3169" y="2429.6357">Eigen ETH Contracts</text><rect fill="#E2E2F0" height="30.2969" rx="2.5" ry="2.5" style="stroke:#181818;stroke-width:0.5;" width="110" x="3598.5" y="50"/><text fill="#000000" font-family="sans-serif" font-size="14" lengthAdjust="spacing" textLength="96" x="3605.5" y="69.9951">Rococo Relay</text><rect fill="#E2E2F0" height="30.2969" rx="2.5" ry="2.5" style="stroke:#181818;stroke-width:0.5;" width="110" x="3598.5" y="2405.6406"/><text fill="#000000" font-family="sans-serif" font-size="14" lengthAdjust="spacing" textLength="96" x="3605.5" y="2425.6357">Rococo Relay</text><polygon fill="#181818" points="312.5,108.4297,322.5,112.4297,312.5,116.4297,316.5,112.4297" style="stroke:#181818;stroke-width:1.0;"/><line style="stroke:#181818;stroke-width:1.0;stroke-dasharray:2.0,2.0;" x1="93.5" x2="318.5" y1="112.4297" y2="112.4297"/><text fill="#000000" font-family="sans-serif" font-size="13" lengthAdjust="spacing" textLength="207" x="100.5" y="107.3638">Trigger deposit of 1 WETH token</text><line style="stroke:#181818;stroke-width:1.0;stroke-dasharray:2.0,2.0;" x1="324.5" x2="366.5" y1="141.5625" y2="141.5625"/><line style="stroke:#181818;stroke-width:1.0;stroke-dasharray:2.0,2.0;" x1="366.5" x2="366.5" y1="141.5625" y2="154.5625"/><line style="stroke:#181818;stroke-width:1.0;stroke-dasharray:2.0,2.0;" x1="325.5" x2="366.5" y1="154.5625" y2="154.5625"/><polygon fill="#181818" points="335.5,150.5625,325.5,154.5625,335.5,158.5625,331.5,154.5625" style="stroke:#181818;stroke-width:1.0;"/><text fill="#000000" font-family="sans-serif" font-size="13" lengthAdjust="spacing" textLength="287" x="331.5" y="136.4966">Checks if ERC20 token exists on the network</text><line style="stroke:#181818;stroke-width:1.0;stroke-dasharray:2.0,2.0;" x1="1770.5" x2="1812.5" y1="183.6953" y2="183.6953"/><line style="stroke:#181818;stroke-width:1.0;stroke-dasharray:2.0,2.0;" x1="1812.5" x2="1812.5" y1="183.6953" y2="196.6953"/><line style="stroke:#181818;stroke-width:1.0;stroke-dasharray:2.0,2.0;" x1="1771.5" x2="1812.5" y1="196.6953" y2="196.6953"/><polygon fill="#181818" points="1781.5,192.6953,1771.5,196.6953,1781.5,200.6953,1777.5,196.6953" style="stroke:#181818;stroke-width:1.0;"/><text fill="#000000" font-family="sans-serif" font-size="13" lengthAdjust="spacing" textLength="429" x="1777.5" y="178.6294">It is collators (Bob) order to produce a block and he just produced it</text><polygon fill="#181818" points="1758.5,221.8281,1768.5,225.8281,1758.5,229.8281,1762.5,225.8281" style="stroke:#181818;stroke-width:1.0;"/><line style="stroke:#181818;stroke-width:1.0;stroke-dasharray:2.0,2.0;" x1="1061.5" x2="1764.5" y1="225.8281" y2="225.8281"/><text fill="#000000" font-family="sans-serif" font-size="13" lengthAdjust="spacing" textLength="366" x="1068.5" y="220.7622">(Subscription) Checks weather my collator just built block</text><polygon fill="#181818" points="1758.5,250.9609,1768.5,254.9609,1758.5,258.9609,1762.5,254.9609" style="stroke:#181818;stroke-width:1.0;"/><line style="stroke:#181818;stroke-width:1.0;stroke-dasharray:2.0,2.0;" x1="1061.5" x2="1764.5" y1="254.9609" y2="254.9609"/><text fill="#000000" font-family="sans-serif" font-size="13" lengthAdjust="spacing" textLength="610" x="1068.5" y="249.895">Checks the sequencer_latest_processed_block and sequencer_latest_processed_transaction_id</text><polygon fill="#181818" points="1758.5,280.0938,1768.5,284.0938,1758.5,288.0938,1762.5,284.0938" style="stroke:#181818;stroke-width:1.0;"/><line style="stroke:#181818;stroke-width:1.0;stroke-dasharray:2.0,2.0;" x1="1061.5" x2="1764.5" y1="284.0938" y2="284.0938"/><text fill="#000000" font-family="sans-serif" font-size="13" lengthAdjust="spacing" textLength="221" x="1068.5" y="279.0278">Fetch PENDING_REQUESTS (reads)</text><path d="M227,299.0938 L305,299.0938 L305,306.2266 L295,316.2266 L227,316.2266 L227,299.0938 " fill="#EEEEEE" style="stroke:#000000;stroke-width:1.5;"/><rect fill="none" height="198.6016" style="stroke:#000000;stroke-width:1.5;" width="1620.5" x="227" y="299.0938"/><text fill="#000000" font-family="sans-serif" font-size="13" font-weight="bold" lengthAdjust="spacing" textLength="33" x="242" y="312.1606">loop</text><text fill="#000000" font-family="sans-serif" font-size="11" font-weight="bold" lengthAdjust="spacing" textLength="234" x="320" y="311.3042">[for each PENDING_REQUESTS read]</text><polygon fill="#181818" points="335.5,333.3594,325.5,337.3594,335.5,341.3594,331.5,337.3594" style="stroke:#181818;stroke-width:1.0;"/><line style="stroke:#181818;stroke-width:1.0;stroke-dasharray:2.0,2.0;" x1="329.5" x2="1060.5" y1="337.3594" y2="337.3594"/><text fill="#000000" font-family="sans-serif" font-size="13" lengthAdjust="spacing" textLength="566" x="341.5" y="332.2935">get pending reads based on lastProccessedRequestOnL1 and lastAcceptedRequestOnL1</text><line style="stroke:#181818;stroke-width:1.0;stroke-dasharray:2.0,2.0;" x1="1061.5" x2="1103.5" y1="366.4922" y2="366.4922"/><line style="stroke:#181818;stroke-width:1.0;stroke-dasharray:2.0,2.0;" x1="1103.5" x2="1103.5" y1="366.4922" y2="379.4922"/><line style="stroke:#181818;stroke-width:1.0;stroke-dasharray:2.0,2.0;" x1="1062.5" x2="1103.5" y1="379.4922" y2="379.4922"/><polygon fill="#181818" points="1072.5,375.4922,1062.5,379.4922,1072.5,383.4922,1068.5,379.4922" style="stroke:#181818;stroke-width:1.0;"/><text fill="#000000" font-family="sans-serif" font-size="13" lengthAdjust="spacing" textLength="695" x="1068.5" y="361.4263">compare PENDING_REQUESTS read and pending read from ETH contract. Using hashing, or byte array value.</text><path d="M940,394.4922 L1006,394.4922 L1006,401.625 L996,411.625 L940,411.625 L940,394.4922 " fill="#EEEEEE" style="stroke:#000000;stroke-width:1.5;"/><rect fill="none" height="96.2031" style="stroke:#000000;stroke-width:1.5;" width="897.5" x="940" y="394.4922"/><text fill="#000000" font-family="sans-serif" font-size="13" font-weight="bold" lengthAdjust="spacing" textLength="21" x="955" y="407.5591">alt</text><text fill="#000000" font-family="sans-serif" font-size="11" font-weight="bold" lengthAdjust="spacing" textLength="391" x="1021" y="406.7026">[PENDING_REQUESTS read is NOT same as on ETH contract]</text><polygon fill="#181818" points="1758.5,428.7578,1768.5,432.7578,1758.5,436.7578,1762.5,432.7578" style="stroke:#181818;stroke-width:1.0;"/><line style="stroke:#181818;stroke-width:1.0;stroke-dasharray:2.0,2.0;" x1="1061.5" x2="1764.5" y1="432.7578" y2="432.7578"/><text fill="#000000" font-family="sans-serif" font-size="13" lengthAdjust="spacing" textLength="203" x="1068.5" y="427.6919">Submit Cancel request extrinsic</text><line style="stroke:#000000;stroke-width:1.0;stroke-dasharray:2.0,2.0;" x1="940" x2="1837.5" y1="441.7578" y2="441.7578"/><text fill="#000000" font-family="sans-serif" font-size="11" font-weight="bold" lengthAdjust="spacing" textLength="140" x="945" y="451.9683">[if the values match]</text><path d="M950,460.5625 L950,485.5625 L1173,485.5625 L1173,470.5625 L1163,460.5625 L950,460.5625 " fill="#FEFFDD" style="stroke:#181818;stroke-width:0.5;"/><path d="M1163,460.5625 L1163,470.5625 L1173,470.5625 L1163,460.5625 " fill="#FEFFDD" style="stroke:#181818;stroke-width:0.5;"/><text fill="#000000" font-family="sans-serif" font-size="13" lengthAdjust="spacing" textLength="202" x="956" y="477.6294">We dont need to do any action.</text><polygon fill="#181818" points="335.5,521.8281,325.5,525.8281,335.5,529.8281,331.5,525.8281" style="stroke:#181818;stroke-width:1.0;"/><line style="stroke:#181818;stroke-width:1.0;stroke-dasharray:2.0,2.0;" x1="329.5" x2="1060.5" y1="525.8281" y2="525.8281"/><text fill="#000000" font-family="sans-serif" font-size="13" lengthAdjust="spacing" textLength="713" x="341.5" y="520.7622">Read all ETH dep/with based on sequencer_latest_processed_block sequencer_latest_processed_transaction_id</text><polygon fill="#181818" points="1758.5,550.9609,1768.5,554.9609,1758.5,558.9609,1762.5,554.9609" style="stroke:#181818;stroke-width:1.0;"/><line style="stroke:#181818;stroke-width:1.0;stroke-dasharray:2.0,2.0;" x1="1061.5" x2="1764.5" y1="554.9609" y2="554.9609"/><text fill="#000000" font-family="sans-serif" font-size="13" lengthAdjust="spacing" textLength="375" x="1068.5" y="549.895">Submit provide_l1_read extr. with all fetched ETH dep/with</text><line style="stroke:#181818;stroke-width:1.0;stroke-dasharray:2.0,2.0;" x1="1770.5" x2="1812.5" y1="584.0938" y2="584.0938"/><line style="stroke:#181818;stroke-width:1.0;stroke-dasharray:2.0,2.0;" x1="1812.5" x2="1812.5" y1="584.0938" y2="597.0938"/><line style="stroke:#181818;stroke-width:1.0;stroke-dasharray:2.0,2.0;" x1="1771.5" x2="1812.5" y1="597.0938" y2="597.0938"/><polygon fill="#181818" points="1781.5,593.0938,1771.5,597.0938,1781.5,601.0938,1777.5,597.0938" style="stroke:#181818;stroke-width:1.0;"/><text fill="#000000" font-family="sans-serif" font-size="13" lengthAdjust="spacing" textLength="474" x="1777.5" y="579.0278">store new value into pending_l1_reads with dispute period (block number)</text><path d="M1337,612.0938 L1868,612.0938 L1868,619.2266 L1858,629.2266 L1337,629.2266 L1337,612.0938 " fill="#EEEEEE" style="stroke:#000000;stroke-width:1.5;"/><rect fill="none" height="1129.2188" style="stroke:#000000;stroke-width:1.5;" width="901.5" x="1337" y="612.0938"/><text fill="#000000" font-family="sans-serif" font-size="13" font-weight="bold" lengthAdjust="spacing" textLength="486" x="1352" y="625.1606">Separate action on Collator (maybe will move to separate UML)</text><path d="M1347,636.2266 L1425,636.2266 L1425,643.3594 L1415,653.3594 L1347,653.3594 L1347,636.2266 " fill="#EEEEEE" style="stroke:#000000;stroke-width:1.5;"/><rect fill="none" height="1098.0859" style="stroke:#000000;stroke-width:1.5;" width="881.5" x="1347" y="636.2266"/><text fill="#000000" font-family="sans-serif" font-size="13" font-weight="bold" lengthAdjust="spacing" textLength="33" x="1362" y="649.2935">loop</text><text fill="#000000" font-family="sans-serif" font-size="11" font-weight="bold" lengthAdjust="spacing" textLength="258" x="1440" y="648.437">[for each block at end_dispute_period]</text><path d="M1357,660.3594 L1435,660.3594 L1435,667.4922 L1425,677.4922 L1357,677.4922 L1357,660.3594 " fill="#EEEEEE" style="stroke:#000000;stroke-width:1.5;"/><rect fill="none" height="1066.9531" style="stroke:#000000;stroke-width:1.5;" width="861.5" x="1357" y="660.3594"/><text fill="#000000" font-family="sans-serif" font-size="13" font-weight="bold" lengthAdjust="spacing" textLength="33" x="1372" y="673.4263">loop</text><text fill="#000000" font-family="sans-serif" font-size="11" font-weight="bold" lengthAdjust="spacing" textLength="119" x="1450" y="672.5698">[for each l1_read]</text><line style="stroke:#181818;stroke-width:1.0;stroke-dasharray:2.0,2.0;" x1="1770.5" x2="1812.5" y1="698.625" y2="698.625"/><line style="stroke:#181818;stroke-width:1.0;stroke-dasharray:2.0,2.0;" x1="1812.5" x2="1812.5" y1="698.625" y2="711.625"/><line style="stroke:#181818;stroke-width:1.0;stroke-dasharray:2.0,2.0;" x1="1771.5" x2="1812.5" y1="711.625" y2="711.625"/><polygon fill="#181818" points="1781.5,707.625,1771.5,711.625,1781.5,715.625,1777.5,711.625" style="stroke:#181818;stroke-width:1.0;"/><text fill="#000000" font-family="sans-serif" font-size="13" lengthAdjust="spacing" textLength="336" x="1777.5" y="693.5591">Validates if Sequencer have enough Stake to submit</text><line style="stroke:#181818;stroke-width:1.0;stroke-dasharray:2.0,2.0;" x1="1770.5" x2="1812.5" y1="740.7578" y2="740.7578"/><line style="stroke:#181818;stroke-width:1.0;stroke-dasharray:2.0,2.0;" x1="1812.5" x2="1812.5" y1="740.7578" y2="753.7578"/><line style="stroke:#181818;stroke-width:1.0;stroke-dasharray:2.0,2.0;" x1="1771.5" x2="1812.5" y1="753.7578" y2="753.7578"/><polygon fill="#181818" points="1781.5,749.7578,1771.5,753.7578,1781.5,757.7578,1777.5,753.7578" style="stroke:#181818;stroke-width:1.0;"/><text fill="#000000" font-family="sans-serif" font-size="13" lengthAdjust="spacing" textLength="413" x="1777.5" y="735.6919">Removes the READ right from sequencer (node storage update)</text><path d="M1367,768.7578 L1433,768.7578 L1433,775.8906 L1423,785.8906 L1367,785.8906 L1367,768.7578 " fill="#EEEEEE" style="stroke:#000000;stroke-width:1.5;"/><rect fill="none" height="867.2891" style="stroke:#000000;stroke-width:1.5;" width="841.5" x="1367" y="768.7578"/><text fill="#000000" font-family="sans-serif" font-size="13" font-weight="bold" lengthAdjust="spacing" textLength="21" x="1382" y="781.8247">alt</text><text fill="#000000" font-family="sans-serif" font-size="11" font-weight="bold" lengthAdjust="spacing" textLength="133" x="1448" y="780.9683">[l1_read is DEPOSIT]</text><line style="stroke:#181818;stroke-width:1.0;stroke-dasharray:2.0,2.0;" x1="1770.5" x2="1812.5" y1="807.0234" y2="807.0234"/><line style="stroke:#181818;stroke-width:1.0;stroke-dasharray:2.0,2.0;" x1="1812.5" x2="1812.5" y1="807.0234" y2="820.0234"/><line style="stroke:#181818;stroke-width:1.0;stroke-dasharray:2.0,2.0;" x1="1771.5" x2="1812.5" y1="820.0234" y2="820.0234"/><polygon fill="#181818" points="1781.5,816.0234,1771.5,820.0234,1781.5,824.0234,1777.5,820.0234" style="stroke:#181818;stroke-width:1.0;"/><text fill="#000000" font-family="sans-serif" font-size="13" lengthAdjust="spacing" textLength="209" x="1777.5" y="801.9575">Deposits validations (balance,...)</text><path d="M1703.5,835.0234 L1769.5,835.0234 L1769.5,842.1563 L1759.5,852.1563 L1703.5,852.1563 L1703.5,835.0234 " fill="#EEEEEE" style="stroke:#000000;stroke-width:1.5;"/><rect fill="none" height="116.2031" style="stroke:#000000;stroke-width:1.5;" width="385" x="1703.5" y="835.0234"/><text fill="#000000" font-family="sans-serif" font-size="13" font-weight="bold" lengthAdjust="spacing" textLength="21" x="1718.5" y="848.0903">alt</text><text fill="#000000" font-family="sans-serif" font-size="11" font-weight="bold" lengthAdjust="spacing" textLength="173" x="1784.5" y="847.2339">[ETH address DOES exists]</text><line style="stroke:#181818;stroke-width:1.0;stroke-dasharray:2.0,2.0;" x1="1770.5" x2="1812.5" y1="873.2891" y2="873.2891"/><line style="stroke:#181818;stroke-width:1.0;stroke-dasharray:2.0,2.0;" x1="1812.5" x2="1812.5" y1="873.2891" y2="886.2891"/><line style="stroke:#181818;stroke-width:1.0;stroke-dasharray:2.0,2.0;" x1="1771.5" x2="1812.5" y1="886.2891" y2="886.2891"/><polygon fill="#181818" points="1781.5,882.2891,1771.5,886.2891,1781.5,890.2891,1777.5,886.2891" style="stroke:#181818;stroke-width:1.0;"/><text fill="#000000" font-family="sans-serif" font-size="13" lengthAdjust="spacing" textLength="238" x="1777.5" y="868.2231">Fetch Mangata version of ETH adress</text><line style="stroke:#000000;stroke-width:1.0;stroke-dasharray:2.0,2.0;" x1="1703.5" x2="2088.5" y1="895.2891" y2="895.2891"/><text fill="#000000" font-family="sans-serif" font-size="11" font-weight="bold" lengthAdjust="spacing" textLength="203" x="1708.5" y="905.4995">[ETH address does NOT exists]</text><line style="stroke:#181818;stroke-width:1.0;stroke-dasharray:2.0,2.0;" x1="1770.5" x2="1812.5" y1="930.2266" y2="930.2266"/><line style="stroke:#181818;stroke-width:1.0;stroke-dasharray:2.0,2.0;" x1="1812.5" x2="1812.5" y1="930.2266" y2="943.2266"/><line style="stroke:#181818;stroke-width:1.0;stroke-dasharray:2.0,2.0;" x1="1771.5" x2="1812.5" y1="943.2266" y2="943.2266"/><polygon fill="#181818" points="1781.5,939.2266,1771.5,943.2266,1781.5,947.2266,1777.5,943.2266" style="stroke:#181818;stroke-width:1.0;"/><text fill="#000000" font-family="sans-serif" font-size="13" lengthAdjust="spacing" textLength="299" x="1777.5" y="925.1606">Creates new ETH compatible Mangata address</text><path d="M1703.5,965.2266 L1769.5,965.2266 L1769.5,972.3594 L1759.5,982.3594 L1703.5,982.3594 L1703.5,965.2266 " fill="#EEEEEE" style="stroke:#000000;stroke-width:1.5;"/><rect fill="none" height="116.2031" style="stroke:#000000;stroke-width:1.5;" width="334" x="1703.5" y="965.2266"/><text fill="#000000" font-family="sans-serif" font-size="13" font-weight="bold" lengthAdjust="spacing" textLength="21" x="1718.5" y="978.2935">alt</text><text fill="#000000" font-family="sans-serif" font-size="11" font-weight="bold" lengthAdjust="spacing" textLength="216" x="1784.5" y="977.437">[ETH Asset registry DOES exists]</text><line style="stroke:#181818;stroke-width:1.0;stroke-dasharray:2.0,2.0;" x1="1770.5" x2="1812.5" y1="1003.4922" y2="1003.4922"/><line style="stroke:#181818;stroke-width:1.0;stroke-dasharray:2.0,2.0;" x1="1812.5" x2="1812.5" y1="1003.4922" y2="1016.4922"/><line style="stroke:#181818;stroke-width:1.0;stroke-dasharray:2.0,2.0;" x1="1771.5" x2="1812.5" y1="1016.4922" y2="1016.4922"/><polygon fill="#181818" points="1781.5,1012.4922,1771.5,1016.4922,1781.5,1020.4922,1777.5,1016.4922" style="stroke:#181818;stroke-width:1.0;"/><text fill="#000000" font-family="sans-serif" font-size="13" lengthAdjust="spacing" textLength="248" x="1777.5" y="998.4263">Fetch Mangata version of ERC20 token</text><line style="stroke:#000000;stroke-width:1.0;stroke-dasharray:2.0,2.0;" x1="1703.5" x2="2037.5" y1="1025.4922" y2="1025.4922"/><text fill="#000000" font-family="sans-serif" font-size="11" font-weight="bold" lengthAdjust="spacing" textLength="203" x="1708.5" y="1035.7026">[ETH address does NOT exists]</text><line style="stroke:#181818;stroke-width:1.0;stroke-dasharray:2.0,2.0;" x1="1770.5" x2="1812.5" y1="1060.4297" y2="1060.4297"/><line style="stroke:#181818;stroke-width:1.0;stroke-dasharray:2.0,2.0;" x1="1812.5" x2="1812.5" y1="1060.4297" y2="1073.4297"/><line style="stroke:#181818;stroke-width:1.0;stroke-dasharray:2.0,2.0;" x1="1771.5" x2="1812.5" y1="1073.4297" y2="1073.4297"/><polygon fill="#181818" points="1781.5,1069.4297,1771.5,1073.4297,1781.5,1077.4297,1777.5,1073.4297" style="stroke:#181818;stroke-width:1.0;"/><text fill="#000000" font-family="sans-serif" font-size="13" lengthAdjust="spacing" textLength="243" x="1777.5" y="1055.3638">Register new asset registry and use it</text><line style="stroke:#181818;stroke-width:1.0;stroke-dasharray:2.0,2.0;" x1="1770.5" x2="1812.5" y1="1109.5625" y2="1109.5625"/><line style="stroke:#181818;stroke-width:1.0;stroke-dasharray:2.0,2.0;" x1="1812.5" x2="1812.5" y1="1109.5625" y2="1122.5625"/><line style="stroke:#181818;stroke-width:1.0;stroke-dasharray:2.0,2.0;" x1="1771.5" x2="1812.5" y1="1122.5625" y2="1122.5625"/><polygon fill="#181818" points="1781.5,1118.5625,1771.5,1122.5625,1781.5,1126.5625,1777.5,1122.5625" style="stroke:#181818;stroke-width:1.0;"/><text fill="#000000" font-family="sans-serif" font-size="13" lengthAdjust="spacing" textLength="120" x="1777.5" y="1104.4966">Mint token for user</text><line style="stroke:#000000;stroke-width:1.0;stroke-dasharray:2.0,2.0;" x1="1367" x2="2208.5" y1="1131.5625" y2="1131.5625"/><text fill="#000000" font-family="sans-serif" font-size="11" font-weight="bold" lengthAdjust="spacing" textLength="165" x="1372" y="1141.7729">[l1_read is WITHDRAWAL]</text><line style="stroke:#181818;stroke-width:1.0;stroke-dasharray:2.0,2.0;" x1="1770.5" x2="1812.5" y1="1166.5" y2="1166.5"/><line style="stroke:#181818;stroke-width:1.0;stroke-dasharray:2.0,2.0;" x1="1812.5" x2="1812.5" y1="1166.5" y2="1179.5"/><line style="stroke:#181818;stroke-width:1.0;stroke-dasharray:2.0,2.0;" x1="1771.5" x2="1812.5" y1="1179.5" y2="1179.5"/><polygon fill="#181818" points="1781.5,1175.5,1771.5,1179.5,1781.5,1183.5,1777.5,1179.5" style="stroke:#181818;stroke-width:1.0;"/><text fill="#000000" font-family="sans-serif" font-size="13" lengthAdjust="spacing" textLength="331" x="1777.5" y="1161.4341">Withdrawal validations (balance,token existence,...)</text><line style="stroke:#181818;stroke-width:1.0;stroke-dasharray:2.0,2.0;" x1="1770.5" x2="1812.5" y1="1208.6328" y2="1208.6328"/><line style="stroke:#181818;stroke-width:1.0;stroke-dasharray:2.0,2.0;" x1="1812.5" x2="1812.5" y1="1208.6328" y2="1221.6328"/><line style="stroke:#181818;stroke-width:1.0;stroke-dasharray:2.0,2.0;" x1="1771.5" x2="1812.5" y1="1221.6328" y2="1221.6328"/><polygon fill="#181818" points="1781.5,1217.6328,1771.5,1221.6328,1781.5,1225.6328,1777.5,1221.6328" style="stroke:#181818;stroke-width:1.0;"/><text fill="#000000" font-family="sans-serif" font-size="13" lengthAdjust="spacing" textLength="123" x="1777.5" y="1203.5669">Burn token for user</text><line style="stroke:#000000;stroke-width:1.0;stroke-dasharray:2.0,2.0;" x1="1367" x2="2208.5" y1="1230.6328" y2="1230.6328"/><text fill="#000000" font-family="sans-serif" font-size="11" font-weight="bold" lengthAdjust="spacing" textLength="252" x="1372" y="1240.8433">[l1_read is DELETE_PENDING_UPDATES]</text><path d="M1470,1249.4375 L1470,1274.4375 L2071,1274.4375 L2071,1259.4375 L2061,1249.4375 L1470,1249.4375 " fill="#FEFFDD" style="stroke:#181818;stroke-width:0.5;"/><path d="M2061,1249.4375 L2061,1259.4375 L2071,1259.4375 L2061,1249.4375 " fill="#FEFFDD" style="stroke:#181818;stroke-width:0.5;"/><text fill="#000000" font-family="sans-serif" font-size="13" lengthAdjust="spacing" textLength="580" x="1476" y="1266.5044">This action is triggered from Mangata contract when dep/with is confirmed by the updater.</text><line style="stroke:#181818;stroke-width:1.0;stroke-dasharray:2.0,2.0;" x1="1770.5" x2="1812.5" y1="1300.7031" y2="1300.7031"/><line style="stroke:#181818;stroke-width:1.0;stroke-dasharray:2.0,2.0;" x1="1812.5" x2="1812.5" y1="1300.7031" y2="1313.7031"/><line style="stroke:#181818;stroke-width:1.0;stroke-dasharray:2.0,2.0;" x1="1771.5" x2="1812.5" y1="1313.7031" y2="1313.7031"/><polygon fill="#181818" points="1781.5,1309.7031,1771.5,1313.7031,1781.5,1317.7031,1777.5,1313.7031" style="stroke:#181818;stroke-width:1.0;"/><text fill="#000000" font-family="sans-serif" font-size="13" lengthAdjust="spacing" textLength="248" x="1777.5" y="1295.6372">Deletes all processed pending updates</text><line style="stroke:#000000;stroke-width:1.0;stroke-dasharray:2.0,2.0;" x1="1367" x2="2208.5" y1="1322.7031" y2="1322.7031"/><text fill="#000000" font-family="sans-serif" font-size="11" font-weight="bold" lengthAdjust="spacing" textLength="214" x="1372" y="1332.9136">[l1_read is CANCEL_RESOLUTION]</text><path d="M1377,1341.5078 L1377,1366.5078 L2163,1366.5078 L2163,1351.5078 L2153,1341.5078 L1377,1341.5078 " fill="#FEFFDD" style="stroke:#181818;stroke-width:0.5;"/><path d="M2153,1341.5078 L2153,1351.5078 L2163,1351.5078 L2153,1341.5078 " fill="#FEFFDD" style="stroke:#181818;stroke-width:0.5;"/><text fill="#000000" font-family="sans-serif" font-size="13" lengthAdjust="spacing" textLength="765" x="1383" y="1358.5747">This action is triggered from Mangata contract when cancelation is resolved. It will be resolved by comparing the reads.</text><path d="M1703.5,1378.6406 L1769.5,1378.6406 L1769.5,1385.7734 L1759.5,1395.7734 L1703.5,1395.7734 L1703.5,1378.6406 " fill="#EEEEEE" style="stroke:#000000;stroke-width:1.5;"/><rect fill="none" height="200.4688" style="stroke:#000000;stroke-width:1.5;" width="495" x="1703.5" y="1378.6406"/><text fill="#000000" font-family="sans-serif" font-size="13" font-weight="bold" lengthAdjust="spacing" textLength="21" x="1718.5" y="1391.7075">alt</text><text fill="#000000" font-family="sans-serif" font-size="11" font-weight="bold" lengthAdjust="spacing" textLength="292" x="1784.5" y="1390.8511">[CANCEL_RESOLUTION is CANCEL_APPROVED]</text><line style="stroke:#181818;stroke-width:1.0;stroke-dasharray:2.0,2.0;" x1="1770.5" x2="1812.5" y1="1416.9063" y2="1416.9063"/><line style="stroke:#181818;stroke-width:1.0;stroke-dasharray:2.0,2.0;" x1="1812.5" x2="1812.5" y1="1416.9063" y2="1429.9063"/><line style="stroke:#181818;stroke-width:1.0;stroke-dasharray:2.0,2.0;" x1="1771.5" x2="1812.5" y1="1429.9063" y2="1429.9063"/><polygon fill="#181818" points="1781.5,1425.9063,1771.5,1429.9063,1781.5,1433.9063,1777.5,1429.9063" style="stroke:#181818;stroke-width:1.0;"/><text fill="#000000" font-family="sans-serif" font-size="13" lengthAdjust="spacing" textLength="362" x="1777.5" y="1411.8403">Find malicious l1_read in history with Sequencer address</text><line style="stroke:#181818;stroke-width:1.0;stroke-dasharray:2.0,2.0;" x1="1770.5" x2="1812.5" y1="1459.0391" y2="1459.0391"/><line style="stroke:#181818;stroke-width:1.0;stroke-dasharray:2.0,2.0;" x1="1812.5" x2="1812.5" y1="1459.0391" y2="1472.0391"/><line style="stroke:#181818;stroke-width:1.0;stroke-dasharray:2.0,2.0;" x1="1771.5" x2="1812.5" y1="1472.0391" y2="1472.0391"/><polygon fill="#181818" points="1781.5,1468.0391,1771.5,1472.0391,1781.5,1476.0391,1777.5,1472.0391" style="stroke:#181818;stroke-width:1.0;"/><text fill="#000000" font-family="sans-serif" font-size="13" lengthAdjust="spacing" textLength="225" x="1777.5" y="1453.9731">Call slash_sequencer(seq_address)</text><line style="stroke:#000000;stroke-width:1.0;stroke-dasharray:2.0,2.0;" x1="1703.5" x2="2198.5" y1="1481.0391" y2="1481.0391"/><text fill="#000000" font-family="sans-serif" font-size="11" font-weight="bold" lengthAdjust="spacing" textLength="326" x="1708.5" y="1491.2495">[CANCEL_RESOLUTION is CANCEL_NOT_APPROVED]</text><line style="stroke:#181818;stroke-width:1.0;stroke-dasharray:2.0,2.0;" x1="1770.5" x2="1812.5" y1="1515.9766" y2="1515.9766"/><line style="stroke:#181818;stroke-width:1.0;stroke-dasharray:2.0,2.0;" x1="1812.5" x2="1812.5" y1="1515.9766" y2="1528.9766"/><line style="stroke:#181818;stroke-width:1.0;stroke-dasharray:2.0,2.0;" x1="1771.5" x2="1812.5" y1="1528.9766" y2="1528.9766"/><polygon fill="#181818" points="1781.5,1524.9766,1771.5,1528.9766,1781.5,1532.9766,1777.5,1528.9766" style="stroke:#181818;stroke-width:1.0;"/><text fill="#000000" font-family="sans-serif" font-size="13" lengthAdjust="spacing" textLength="409" x="1777.5" y="1510.9106">Find malicious cancel request in history with Sequencer address</text><line style="stroke:#181818;stroke-width:1.0;stroke-dasharray:2.0,2.0;" x1="1770.5" x2="1812.5" y1="1558.1094" y2="1558.1094"/><line style="stroke:#181818;stroke-width:1.0;stroke-dasharray:2.0,2.0;" x1="1812.5" x2="1812.5" y1="1558.1094" y2="1571.1094"/><line style="stroke:#181818;stroke-width:1.0;stroke-dasharray:2.0,2.0;" x1="1771.5" x2="1812.5" y1="1571.1094" y2="1571.1094"/><polygon fill="#181818" points="1781.5,1567.1094,1771.5,1571.1094,1781.5,1575.1094,1777.5,1571.1094" style="stroke:#181818;stroke-width:1.0;"/><text fill="#000000" font-family="sans-serif" font-size="13" lengthAdjust="spacing" textLength="225" x="1777.5" y="1553.0435">Call slash_sequencer(seq_address)</text><line style="stroke:#000000;stroke-width:1.0;stroke-dasharray:2.0,2.0;" x1="1367" x2="2208.5" y1="1587.1094" y2="1587.1094"/><text fill="#000000" font-family="sans-serif" font-size="11" font-weight="bold" lengthAdjust="spacing" textLength="205" x="1372" y="1597.3198">[l1_read is ONLY_INFO_UPDATE]</text><path d="M1503,1605.9141 L1503,1630.9141 L2038,1630.9141 L2038,1615.9141 L2028,1605.9141 L1503,1605.9141 " fill="#FEFFDD" style="stroke:#181818;stroke-width:0.5;"/><path d="M2028,1605.9141 L2028,1615.9141 L2038,1615.9141 L2028,1605.9141 " fill="#FEFFDD" style="stroke:#181818;stroke-width:0.5;"/><text fill="#000000" font-family="sans-serif" font-size="13" lengthAdjust="spacing" textLength="514" x="1509" y="1622.981">We dont need to do any action, it serves as information event for our contracts.</text><line style="stroke:#181818;stroke-width:1.0;stroke-dasharray:2.0,2.0;" x1="1770.5" x2="1812.5" y1="1664.1797" y2="1664.1797"/><line style="stroke:#181818;stroke-width:1.0;stroke-dasharray:2.0,2.0;" x1="1812.5" x2="1812.5" y1="1664.1797" y2="1677.1797"/><line style="stroke:#181818;stroke-width:1.0;stroke-dasharray:2.0,2.0;" x1="1771.5" x2="1812.5" y1="1677.1797" y2="1677.1797"/><polygon fill="#181818" points="1781.5,1673.1797,1771.5,1677.1797,1781.5,1681.1797,1777.5,1677.1797" style="stroke:#181818;stroke-width:1.0;"/><text fill="#000000" font-family="sans-serif" font-size="13" lengthAdjust="spacing" textLength="402" x="1777.5" y="1659.1138">Store succesfull WITHDRAWAL or DEPOSIT to pending_updates</text><line style="stroke:#181818;stroke-width:1.0;stroke-dasharray:2.0,2.0;" x1="1770.5" x2="1812.5" y1="1706.3125" y2="1706.3125"/><line style="stroke:#181818;stroke-width:1.0;stroke-dasharray:2.0,2.0;" x1="1812.5" x2="1812.5" y1="1706.3125" y2="1719.3125"/><line style="stroke:#181818;stroke-width:1.0;stroke-dasharray:2.0,2.0;" x1="1771.5" x2="1812.5" y1="1719.3125" y2="1719.3125"/><polygon fill="#181818" points="1781.5,1715.3125,1771.5,1719.3125,1781.5,1723.3125,1777.5,1719.3125" style="stroke:#181818;stroke-width:1.0;"/><text fill="#000000" font-family="sans-serif" font-size="13" lengthAdjust="spacing" textLength="423" x="1777.5" y="1701.2466">Returns back the READ right for sequencer (node storage update)</text><polygon fill="#181818" points="1781.5,1765.4453,1771.5,1769.4453,1781.5,1773.4453,1777.5,1769.4453" style="stroke:#181818;stroke-width:1.0;"/><line style="stroke:#181818;stroke-width:1.0;stroke-dasharray:2.0,2.0;" x1="1775.5" x2="2759.5" y1="1769.4453" y2="1769.4453"/><text fill="#000000" font-family="sans-serif" font-size="13" lengthAdjust="spacing" textLength="373" x="1787.5" y="1764.3794">Reads that new N block(s) was produced by some collator</text><polygon fill="#181818" points="2955.5,1794.5781,2965.5,1798.5781,2955.5,1802.5781,2959.5,1798.5781" style="stroke:#181818;stroke-width:1.0;"/><line style="stroke:#181818;stroke-width:1.0;stroke-dasharray:2.0,2.0;" x1="2760.5" x2="2961.5" y1="1798.5781" y2="1798.5781"/><text fill="#000000" font-family="sans-serif" font-size="13" lengthAdjust="spacing" textLength="183" x="2767.5" y="1793.5122">Submits task: Finalize blocks</text><polygon fill="#181818" points="1781.5,1823.7109,1771.5,1827.7109,1781.5,1831.7109,1777.5,1827.7109" style="stroke:#181818;stroke-width:1.0;"/><line style="stroke:#181818;stroke-width:1.0;stroke-dasharray:2.0,2.0;" x1="1775.5" x2="2966.5" y1="1827.7109" y2="1827.7109"/><text fill="#000000" font-family="sans-serif" font-size="13" lengthAdjust="spacing" textLength="204" x="1787.5" y="1822.645">Reads pending_updates hashes</text><polygon fill="#181818" points="3641.5,1852.8438,3651.5,1856.8438,3641.5,1860.8438,3645.5,1856.8438" style="stroke:#181818;stroke-width:1.0;"/><line style="stroke:#181818;stroke-width:1.0;stroke-dasharray:2.0,2.0;" x1="2967.5" x2="3647.5" y1="1856.8438" y2="1856.8438"/><text fill="#000000" font-family="sans-serif" font-size="13" lengthAdjust="spacing" textLength="210" x="2974.5" y="1851.7778">Check finalisation on Relay chain</text><line style="stroke:#181818;stroke-width:1.0;stroke-dasharray:2.0,2.0;" x1="2967.5" x2="3009.5" y1="1885.9766" y2="1885.9766"/><line style="stroke:#181818;stroke-width:1.0;stroke-dasharray:2.0,2.0;" x1="3009.5" x2="3009.5" y1="1885.9766" y2="1898.9766"/><line style="stroke:#181818;stroke-width:1.0;stroke-dasharray:2.0,2.0;" x1="2968.5" x2="3009.5" y1="1898.9766" y2="1898.9766"/><polygon fill="#181818" points="2978.5,1894.9766,2968.5,1898.9766,2978.5,1902.9766,2974.5,1898.9766" style="stroke:#181818;stroke-width:1.0;"/><text fill="#000000" font-family="sans-serif" font-size="13" lengthAdjust="spacing" textLength="263" x="2974.5" y="1880.9106">(V2) execute try-runtime block validation</text><line style="stroke:#181818;stroke-width:1.0;stroke-dasharray:2.0,2.0;" x1="2967.5" x2="3009.5" y1="1928.1094" y2="1928.1094"/><line style="stroke:#181818;stroke-width:1.0;stroke-dasharray:2.0,2.0;" x1="3009.5" x2="3009.5" y1="1928.1094" y2="1941.1094"/><line style="stroke:#181818;stroke-width:1.0;stroke-dasharray:2.0,2.0;" x1="2968.5" x2="3009.5" y1="1941.1094" y2="1941.1094"/><polygon fill="#181818" points="2978.5,1937.1094,2968.5,1941.1094,2978.5,1945.1094,2974.5,1941.1094" style="stroke:#181818;stroke-width:1.0;"/><text fill="#000000" font-family="sans-serif" font-size="13" lengthAdjust="spacing" textLength="225" x="2974.5" y="1923.0435">Sign the response with operator PK</text><polygon fill="#181818" points="2771.5,1966.2422,2761.5,1970.2422,2771.5,1974.2422,2767.5,1970.2422" style="stroke:#181818;stroke-width:1.0;"/><line style="stroke:#181818;stroke-width:1.0;stroke-dasharray:2.0,2.0;" x1="2765.5" x2="2966.5" y1="1970.2422" y2="1970.2422"/><text fill="#000000" font-family="sans-serif" font-size="13" lengthAdjust="spacing" textLength="135" x="2777.5" y="1965.1763">Returns finished task</text><polygon fill="#181818" points="3232.5,1995.375,3242.5,1999.375,3232.5,2003.375,3236.5,1999.375" style="stroke:#181818;stroke-width:1.0;"/><line style="stroke:#181818;stroke-width:1.0;stroke-dasharray:2.0,2.0;" x1="2760.5" x2="3238.5" y1="1999.375" y2="1999.375"/><text fill="#000000" font-family="sans-serif" font-size="13" lengthAdjust="spacing" textLength="366" x="2767.5" y="1994.3091">Submits TX on ETH Contract with the hashed information</text><line style="stroke:#181818;stroke-width:1.0;stroke-dasharray:2.0,2.0;" x1="3244.5" x2="3286.5" y1="2028.5078" y2="2028.5078"/><line style="stroke:#181818;stroke-width:1.0;stroke-dasharray:2.0,2.0;" x1="3286.5" x2="3286.5" y1="2028.5078" y2="2041.5078"/><line style="stroke:#181818;stroke-width:1.0;stroke-dasharray:2.0,2.0;" x1="3245.5" x2="3286.5" y1="2041.5078" y2="2041.5078"/><polygon fill="#181818" points="3255.5,2037.5078,3245.5,2041.5078,3255.5,2045.5078,3251.5,2041.5078" style="stroke:#181818;stroke-width:1.0;"/><text fill="#000000" font-family="sans-serif" font-size="13" lengthAdjust="spacing" textLength="304" x="3251.5" y="2023.4419">(V1.1) Stored block hash in a key-value storage</text><line style="stroke:#181818;stroke-width:1.0;stroke-dasharray:2.0,2.0;" x1="3244.5" x2="3286.5" y1="2070.6406" y2="2070.6406"/><line style="stroke:#181818;stroke-width:1.0;stroke-dasharray:2.0,2.0;" x1="3286.5" x2="3286.5" y1="2070.6406" y2="2083.6406"/><line style="stroke:#181818;stroke-width:1.0;stroke-dasharray:2.0,2.0;" x1="3245.5" x2="3286.5" y1="2083.6406" y2="2083.6406"/><polygon fill="#181818" points="3255.5,2079.6406,3245.5,2083.6406,3255.5,2087.6406,3251.5,2083.6406" style="stroke:#181818;stroke-width:1.0;"/><text fill="#000000" font-family="sans-serif" font-size="13" lengthAdjust="spacing" textLength="395" x="3251.5" y="2065.5747">(V1.1) Stores pending_updates hashes in a key-value storage</text><line style="stroke:#181818;stroke-width:1.0;stroke-dasharray:2.0,2.0;" x1="3244.5" x2="3286.5" y1="2112.7734" y2="2112.7734"/><line style="stroke:#181818;stroke-width:1.0;stroke-dasharray:2.0,2.0;" x1="3286.5" x2="3286.5" y1="2112.7734" y2="2125.7734"/><line style="stroke:#181818;stroke-width:1.0;stroke-dasharray:2.0,2.0;" x1="3245.5" x2="3286.5" y1="2125.7734" y2="2125.7734"/><polygon fill="#181818" points="3255.5,2121.7734,3245.5,2125.7734,3255.5,2129.7734,3251.5,2125.7734" style="stroke:#181818;stroke-width:1.0;"/><text fill="#000000" font-family="sans-serif" font-size="13" lengthAdjust="spacing" textLength="197" x="3251.5" y="2107.7075">(V1.1) Removes old block data</text><polygon fill="#181818" points="3232.5,2150.9063,3242.5,2154.9063,3232.5,2158.9063,3236.5,2154.9063" style="stroke:#181818;stroke-width:1.0;"/><line style="stroke:#181818;stroke-width:1.0;stroke-dasharray:2.0,2.0;" x1="2285.5" x2="3238.5" y1="2154.9063" y2="2154.9063"/><text fill="#000000" font-family="sans-serif" font-size="13" lengthAdjust="spacing" textLength="202" x="2292.5" y="2149.8403">Subscribed for block finalisation</text><polygon fill="#181818" points="1781.5,2180.0391,1771.5,2184.0391,1781.5,2188.0391,1777.5,2184.0391" style="stroke:#181818;stroke-width:1.0;"/><line style="stroke:#181818;stroke-width:1.0;stroke-dasharray:2.0,2.0;" x1="1775.5" x2="2284.5" y1="2184.0391" y2="2184.0391"/><text fill="#000000" font-family="sans-serif" font-size="13" lengthAdjust="spacing" textLength="491" x="1787.5" y="2178.9731">Read pending_updates storage with hashes and latest_eigen_finalized_block</text><polygon fill="#181818" points="335.5,2209.1719,325.5,2213.1719,335.5,2217.1719,331.5,2213.1719" style="stroke:#181818;stroke-width:1.0;"/><line style="stroke:#181818;stroke-width:1.0;stroke-dasharray:2.0,2.0;" x1="329.5" x2="2284.5" y1="2213.1719" y2="2213.1719"/><text fill="#000000" font-family="sans-serif" font-size="13" lengthAdjust="spacing" textLength="373" x="341.5" y="2208.106">Executes TX on ETH with all pending_updates with hashes</text><line style="stroke:#181818;stroke-width:1.0;stroke-dasharray:2.0,2.0;" x1="2285.5" x2="2327.5" y1="2242.3047" y2="2242.3047"/><line style="stroke:#181818;stroke-width:1.0;stroke-dasharray:2.0,2.0;" x1="2327.5" x2="2327.5" y1="2242.3047" y2="2255.3047"/><line style="stroke:#181818;stroke-width:1.0;stroke-dasharray:2.0,2.0;" x1="2286.5" x2="2327.5" y1="2255.3047" y2="2255.3047"/><polygon fill="#181818" points="2296.5,2251.3047,2286.5,2255.3047,2296.5,2259.3047,2292.5,2255.3047" style="stroke:#181818;stroke-width:1.0;"/><text fill="#000000" font-family="sans-serif" font-size="13" lengthAdjust="spacing" textLength="461" x="2292.5" y="2237.2388">V1 resilience handling: store processed blocks and tx Indexes into Redis</text><polygon fill="#181818" points="3232.5,2280.4375,3242.5,2284.4375,3232.5,2288.4375,3236.5,2284.4375" style="stroke:#181818;stroke-width:1.0;"/><line style="stroke:#181818;stroke-width:1.0;stroke-dasharray:2.0,2.0;" x1="324.5" x2="3238.5" y1="2284.4375" y2="2284.4375"/><text fill="#000000" font-family="sans-serif" font-size="13" lengthAdjust="spacing" textLength="266" x="331.5" y="2279.3716">(V1.1) Compare pending_updates hashes</text><path d="M10,2299.4375 L76,2299.4375 L76,2306.5703 L66,2316.5703 L10,2316.5703 L10,2299.4375 " fill="#EEEEEE" style="stroke:#000000;stroke-width:1.5;"/><rect fill="none" height="90.2031" style="stroke:#000000;stroke-width:1.5;" width="412" x="10" y="2299.4375"/><text fill="#000000" font-family="sans-serif" font-size="13" font-weight="bold" lengthAdjust="spacing" textLength="21" x="25" y="2312.5044">alt</text><text fill="#000000" font-family="sans-serif" font-size="11" font-weight="bold" lengthAdjust="spacing" textLength="190" x="91" y="2311.6479">[pending_update is DEPOSIT]</text><polygon fill="#181818" points="104.5,2333.7031,94.5,2337.7031,104.5,2341.7031,100.5,2337.7031" style="stroke:#181818;stroke-width:1.0;"/><line style="stroke:#181818;stroke-width:1.0;stroke-dasharray:2.0,2.0;" x1="98.5" x2="323.5" y1="2337.7031" y2="2337.7031"/><text fill="#000000" font-family="sans-serif" font-size="13" lengthAdjust="spacing" textLength="189" x="110.5" y="2332.6372">Locks amount to the contract</text><line style="stroke:#000000;stroke-width:1.0;stroke-dasharray:2.0,2.0;" x1="10" x2="422" y1="2346.7031" y2="2346.7031"/><text fill="#000000" font-family="sans-serif" font-size="11" font-weight="bold" lengthAdjust="spacing" textLength="165" x="15" y="2356.9136">[l1_read is WITHDRAWAL]</text><polygon fill="#181818" points="104.5,2377.6406,94.5,2381.6406,104.5,2385.6406,100.5,2381.6406" style="stroke:#181818;stroke-width:1.0;"/><line style="stroke:#181818;stroke-width:1.0;stroke-dasharray:2.0,2.0;" x1="98.5" x2="323.5" y1="2381.6406" y2="2381.6406"/><text fill="#000000" font-family="sans-serif" font-size="13" lengthAdjust="spacing" textLength="183" x="110.5" y="2376.5747">Sends funds to user address</text><!--SRC=[lLXRS-8s57xthpYJpdHWkg7DFkQXConukvaII84axHCZR85LZ4KbEOJ- -fuZoJV096st9JC4BEaxtxaVmI8Z5RZNLJZ_0lVSi2tJ6tZKN5tv5QOXnwz1i6FAY4ZiM6RWwfvbQsOOqB61p8nYaRbokxTkAV9FWs0fN-7garp2DSHvp66VI51vfg406SWqPSJbEvZnFtAUHLmHaimueEWN4V4h-6OaredvbEQyoQGwqK4PNKz25q-Rcqj9VY_kZFoZW6Sn8DKMHHztCJDa5RA7-toqCnHhda5_hVZQYlWMvlTsEoiU1G49uv4H4hNt1oOxhcXHGwV_D7ESf7zsRd_TujfhoscbD7Y3rLH6-0TJdhA3twteSn2GL-7w-iTZXzt2N8dr6XTZlfDQ690hk85d4cpa1Ya4mT6Hyp23X4SR3M85uNJmyGT_cByARSYtO18E6JTxgJRECjPi15LykOKx0wBoaNP-0wbYf6Sax9ICyuW3WsKgemqmz26Y_fvhKwp58306otWumk_CygMEbDYHZRi5vJrdI4x1zb1kTPZBNAJ6oMg5z1YaNRbbWMjScmLoYhZMF5vKV2ziGaDccbd_BqJShiLdRg847iBny6xyqs8Q_l8OpkOpw2ZEOjqD0aYbtC4AjU3it4RQ5q00JVmJXwuvMXNJH6HhUqJ3aY5DycNAj7b0texub72qcMIZ6wiYhVPnRMSQQwSYos-tgDqM0vcV9sjHwrHWfUJMvaP1juTLZ5OJfXFy_m631fO7Wx6Y53l02yDAqaFJK4wWJy-BmTWRJ-QWsPQxWjGG4RWAsUOL3AqjPi-0uLgAU5PlZ7-ZHAP5P4_pL7FA48eMIudg9phJGmDa4YdB5mIlIXgKhsSECPB1D48tO3x44Yrp01SolN8ZbJO22lmNCZpz2zvm-DIQEasjrbWDljyBarHEVpEytn_QRzWGpxs8c2_IcuNr2ncn1vODqLjH_2EdEitMagBndGhFtXaSH4Q5nCLI8K0xx5ZeNOxsnt8iP0mTfrMMRvTSOLgjbSntsB8mJXa5bjM635ErcIqxBB7Z2IIvHI-IZtIn__5-HBbvb9o-C1XoqC8JM3W2kDTwi7d0KxOhrHkzMWpmn5913SoMvgfz9WpvyKpcwmHcXcqSMMl_jn2dd9HpDMyQzeUWg5UxdAmysyaaTdyoFrjptqIxTSQKXuM7CVE6uSDaTZUlXNkB-A7hKveSIfhPTjbPifGoxqElr-lMC4W8nGcBOuMX2CD9EFDDgRQhLPOhjSLKW7cfhSzN7fCWQp0slUlIOibTINc_n07QWvn54Ukg3nP68vOfBsbuzBhWB3wZSnzJps0bMgDiTVXwgbVj_IlhFhLKCNP8UTPaJoqWf-ffMlHkmRp7XFUp2EMG7MvhZ6i1-7mt_pASzf_xexSmdx5Qn8hjMNe-1ckZ3p-9oHRCJxdAtiTp68x2URWeMjZZmx0_3sULLQeUKWwxbSNc2IBuqeMVZ9lzkE-eXRVBIM-V89-o5TZPB5i9jSK3ouCj07uwRka-5zCuvHJeLD7BHb5sUGUhMqmmw8y7uGYxzsmoUfpVJSR1VwPyPFivAyvWQClqXSSzcbLjeSU2NpmacxX1XbGWwzZkSi4sbAedojGqx3yyJ2TFuV3jglXP8FOMep4ICjULiJ90fN77mVMusethf8gqLIJoaCQXBbcKrRs3dnOUeGfjwwPBwc0v-ESgHSt9wl_Lh2mqBH4v6Oz-MzoDFqzyFhul82yET1-mrjaBCIK9TkyCwyBM1I9_uNYAweJCLHcmbm8jQEhnLdBExDIaSvhmLpbQgIgED5dxNWsrKQgPi1TAlC52HrS977kE1mYftZy_r3G9t3SxufQtxnEvDEQPX1dRNCPkyEheBkpHjkNb4HDOIvp-IryryOgRUZ6f8YBJ6nkf6AP_SeUgWsBVMH975hDN5dvqnbxQ_UKILXPTisBUjBTxY18cikQfYbxdwMCN6n2FQ9x5zdcjyio8hITOwrfj03Enpdm5qpjiRjmbMRdxuUVcoT9EbOkHjj0qfvEDZWpP-0cZikRyr-BIDIYBC8ab8jPCSJqDWWRAETpEqqtlfkkYEVQw4muL3mORVhXsbm8VPNyFiCsJ_nQy6AzbMb16T1O4ljEss8z-rbXIAwEBhprL3vl6uMP0dcXHf9orl5V9NUljfSwANgnynFkxNmF_v68Pka2i-xUyp1rBhqjjeFhFUA6veQ0KgQ0wWLkpE4M0ugPNZH8k5orrymftMOpveDtzRyhngdN-TwtpFXdudoTQSZUWFjvSQrvfpacY4UyMHexaLkPsJhMXNcuBBiwexQ0pf889cDCxOjhV_egkY4j_0G00]--></g></svg>