<?xml version="1.0" encoding="us-ascii" standalone="no"?><svg xmlns="http://www.w3.org/2000/svg" xmlns:xlink="http://www.w3.org/1999/xlink" contentStyleType="text/css" height="2250px" preserveAspectRatio="none" style="width:3639px;height:2250px;background:#FFFFFF;" version="1.1" viewBox="0 0 3639 2250" width="3639px" zoomAndPan="magnify"><defs/><g><rect fill="#ADD8E6" height="2238.2031" style="stroke:#181818;stroke-width:0.5;" width="765.5" x="991" y="6"/><text fill="#000000" font-family="sans-serif" font-size="13" font-weight="bold" lengthAdjust="spacing" textLength="504" x="1121.75" y="18.0669">Bob - dude who runs Mangata Collator + Sequencer as one service</text><rect fill="none" height="1129.2188" style="stroke:#000000;stroke-width:1.5;" width="901.5" x="1262" y="370.3594"/><rect fill="none" height="1098.0859" style="stroke:#000000;stroke-width:1.5;" width="881.5" x="1272" y="394.4922"/><rect fill="none" height="1066.9531" style="stroke:#000000;stroke-width:1.5;" width="861.5" x="1282" y="418.625"/><rect fill="none" height="867.2891" style="stroke:#000000;stroke-width:1.5;" width="841.5" x="1292" y="527.0234"/><rect fill="none" height="116.2031" style="stroke:#000000;stroke-width:1.5;" width="385" x="1628.5" y="593.2891"/><rect fill="none" height="116.2031" style="stroke:#000000;stroke-width:1.5;" width="334" x="1628.5" y="723.4922"/><rect fill="none" height="200.4688" style="stroke:#000000;stroke-width:1.5;" width="495" x="1628.5" y="1136.9063"/><rect fill="none" height="90.2031" style="stroke:#000000;stroke-width:1.5;" width="412" x="10" y="2057.7031"/><line style="stroke:#181818;stroke-width:0.5;stroke-dasharray:5.0,5.0;" x1="93" x2="93" y1="81.2969" y2="2164.9063"/><line style="stroke:#181818;stroke-width:0.5;stroke-dasharray:5.0,5.0;" x1="324" x2="324" y1="81.2969" y2="2164.9063"/><line style="stroke:#181818;stroke-width:0.5;stroke-dasharray:5.0,5.0;" x1="1061" x2="1061" y1="81.2969" y2="2164.9063"/><line style="stroke:#181818;stroke-width:0.5;stroke-dasharray:5.0,5.0;" x1="1695.5" x2="1695.5" y1="81.2969" y2="2164.9063"/><line style="stroke:#181818;stroke-width:0.5;stroke-dasharray:5.0,5.0;" x1="2210" x2="2210" y1="81.2969" y2="2164.9063"/><line style="stroke:#181818;stroke-width:0.5;stroke-dasharray:5.0,5.0;" x1="2685" x2="2685" y1="81.2969" y2="2164.9063"/><line style="stroke:#181818;stroke-width:0.5;stroke-dasharray:5.0,5.0;" x1="2892.5" x2="2892.5" y1="81.2969" y2="2164.9063"/><line style="stroke:#181818;stroke-width:0.5;stroke-dasharray:5.0,5.0;" x1="3169" x2="3169" y1="81.2969" y2="2164.9063"/><line style="stroke:#181818;stroke-width:0.5;stroke-dasharray:5.0,5.0;" x1="3578.5" x2="3578.5" y1="81.2969" y2="2164.9063"/><text fill="#000000" font-family="sans-serif" font-size="14" lengthAdjust="spacing" textLength="141" x="20" y="77.9951">ETH Metamask User</text><ellipse cx="93.5" cy="13.5" fill="#E2E2F0" rx="8" ry="8" style="stroke:#181818;stroke-width:0.5;"/><path d="M93.5,21.5 L93.5,48.5 M80.5,29.5 L106.5,29.5 M93.5,48.5 L80.5,63.5 M93.5,48.5 L106.5,63.5 " fill="none" style="stroke:#181818;stroke-width:0.5;"/><text fill="#000000" font-family="sans-serif" font-size="14" lengthAdjust="spacing" textLength="141" x="20" y="2176.9014">ETH Metamask User</text><ellipse cx="93.5" cy="2188.7031" fill="#E2E2F0" rx="8" ry="8" style="stroke:#181818;stroke-width:0.5;"/><path d="M93.5,2196.7031 L93.5,2223.7031 M80.5,2204.7031 L106.5,2204.7031 M93.5,2223.7031 L80.5,2238.7031 M93.5,2223.7031 L106.5,2238.7031 " fill="none" style="stroke:#181818;stroke-width:0.5;"/><rect fill="#E2E2F0" height="30.2969" rx="2.5" ry="2.5" style="stroke:#181818;stroke-width:0.5;" width="175" x="237" y="50"/><text fill="#000000" font-family="sans-serif" font-size="14" lengthAdjust="spacing" textLength="161" x="244" y="69.9951">Mangata ETH Contract</text><rect fill="#E2E2F0" height="30.2969" rx="2.5" ry="2.5" style="stroke:#181818;stroke-width:0.5;" width="175" x="237" y="2163.9063"/><text fill="#000000" font-family="sans-serif" font-size="14" lengthAdjust="spacing" textLength="161" x="244" y="2183.9014">Mangata ETH Contract</text><rect fill="#E2E2F0" height="30.2969" rx="2.5" ry="2.5" style="stroke:#181818;stroke-width:0.5;" width="133" x="995" y="50"/><text fill="#000000" font-family="sans-serif" font-size="14" lengthAdjust="spacing" textLength="119" x="1002" y="69.9951">Sequencer (Bob)</text><rect fill="#E2E2F0" height="30.2969" rx="2.5" ry="2.5" style="stroke:#181818;stroke-width:0.5;" width="133" x="995" y="2163.9063"/><text fill="#000000" font-family="sans-serif" font-size="14" lengthAdjust="spacing" textLength="119" x="1002" y="2183.9014">Sequencer (Bob)</text><rect fill="#E2E2F0" height="30.2969" rx="2.5" ry="2.5" style="stroke:#181818;stroke-width:0.5;" width="114" x="1638.5" y="50"/><text fill="#000000" font-family="sans-serif" font-size="14" lengthAdjust="spacing" textLength="100" x="1645.5" y="69.9951">Collator (Bob)</text><rect fill="#E2E2F0" height="30.2969" rx="2.5" ry="2.5" style="stroke:#181818;stroke-width:0.5;" width="114" x="1638.5" y="2163.9063"/><text fill="#000000" font-family="sans-serif" font-size="14" lengthAdjust="spacing" textLength="100" x="1645.5" y="2183.9014">Collator (Bob)</text><rect fill="#E2E2F0" height="30.2969" rx="2.5" ry="2.5" style="stroke:#181818;stroke-width:0.5;" width="137" x="2142" y="50"/><text fill="#000000" font-family="sans-serif" font-size="14" lengthAdjust="spacing" textLength="123" x="2149" y="69.9951">Mangata Updater</text><rect fill="#E2E2F0" height="30.2969" rx="2.5" ry="2.5" style="stroke:#181818;stroke-width:0.5;" width="137" x="2142" y="2163.9063"/><text fill="#000000" font-family="sans-serif" font-size="14" lengthAdjust="spacing" textLength="123" x="2149" y="2183.9014">Mangata Updater</text><rect fill="#E2E2F0" height="30.2969" rx="2.5" ry="2.5" style="stroke:#181818;stroke-width:0.5;" width="171" x="2600" y="50"/><text fill="#000000" font-family="sans-serif" font-size="14" lengthAdjust="spacing" textLength="157" x="2607" y="69.9951">Eigen Agregator &amp; TM</text><rect fill="#E2E2F0" height="30.2969" rx="2.5" ry="2.5" style="stroke:#181818;stroke-width:0.5;" width="171" x="2600" y="2163.9063"/><text fill="#000000" font-family="sans-serif" font-size="14" lengthAdjust="spacing" textLength="157" x="2607" y="2183.9014">Eigen Agregator &amp; TM</text><rect fill="#E2E2F0" height="30.2969" style="stroke:#181818;stroke-width:0.5;" width="174" x="2807.5" y="46"/><rect fill="#E2E2F0" height="30.2969" style="stroke:#181818;stroke-width:0.5;" width="174" x="2803.5" y="50"/><text fill="#000000" font-family="sans-serif" font-size="14" lengthAdjust="spacing" textLength="160" x="2810.5" y="69.9951">Eigen Operators (AVS)</text><rect fill="#E2E2F0" height="30.2969" style="stroke:#181818;stroke-width:0.5;" width="174" x="2807.5" y="2163.9063"/><rect fill="#E2E2F0" height="30.2969" style="stroke:#181818;stroke-width:0.5;" width="174" x="2803.5" y="2167.9063"/><text fill="#000000" font-family="sans-serif" font-size="14" lengthAdjust="spacing" textLength="160" x="2810.5" y="2187.9014">Eigen Operators (AVS)</text><rect fill="#E2E2F0" height="30.2969" style="stroke:#181818;stroke-width:0.5;" width="161" x="3091" y="46"/><rect fill="#E2E2F0" height="30.2969" style="stroke:#181818;stroke-width:0.5;" width="161" x="3087" y="50"/><text fill="#000000" font-family="sans-serif" font-size="14" lengthAdjust="spacing" textLength="147" x="3094" y="69.9951">Eigen ETH Contracts</text><rect fill="#E2E2F0" height="30.2969" style="stroke:#181818;stroke-width:0.5;" width="161" x="3091" y="2163.9063"/><rect fill="#E2E2F0" height="30.2969" style="stroke:#181818;stroke-width:0.5;" width="161" x="3087" y="2167.9063"/><text fill="#000000" font-family="sans-serif" font-size="14" lengthAdjust="spacing" textLength="147" x="3094" y="2187.9014">Eigen ETH Contracts</text><rect fill="#E2E2F0" height="30.2969" rx="2.5" ry="2.5" style="stroke:#181818;stroke-width:0.5;" width="110" x="3523.5" y="50"/><text fill="#000000" font-family="sans-serif" font-size="14" lengthAdjust="spacing" textLength="96" x="3530.5" y="69.9951">Rococo Relay</text><rect fill="#E2E2F0" height="30.2969" rx="2.5" ry="2.5" style="stroke:#181818;stroke-width:0.5;" width="110" x="3523.5" y="2163.9063"/><text fill="#000000" font-family="sans-serif" font-size="14" lengthAdjust="spacing" textLength="96" x="3530.5" y="2183.9014">Rococo Relay</text><polygon fill="#181818" points="312.5,108.4297,322.5,112.4297,312.5,116.4297,316.5,112.4297" style="stroke:#181818;stroke-width:1.0;"/><line style="stroke:#181818;stroke-width:1.0;stroke-dasharray:2.0,2.0;" x1="93.5" x2="318.5" y1="112.4297" y2="112.4297"/><text fill="#000000" font-family="sans-serif" font-size="13" lengthAdjust="spacing" textLength="207" x="100.5" y="107.3638">Trigger deposit of 1 WETH token</text><line style="stroke:#181818;stroke-width:1.0;stroke-dasharray:2.0,2.0;" x1="324.5" x2="366.5" y1="141.5625" y2="141.5625"/><line style="stroke:#181818;stroke-width:1.0;stroke-dasharray:2.0,2.0;" x1="366.5" x2="366.5" y1="141.5625" y2="154.5625"/><line style="stroke:#181818;stroke-width:1.0;stroke-dasharray:2.0,2.0;" x1="325.5" x2="366.5" y1="154.5625" y2="154.5625"/><polygon fill="#181818" points="335.5,150.5625,325.5,154.5625,335.5,158.5625,331.5,154.5625" style="stroke:#181818;stroke-width:1.0;"/><text fill="#000000" font-family="sans-serif" font-size="13" lengthAdjust="spacing" textLength="287" x="331.5" y="136.4966">Checks if ERC20 token exists on the network</text><line style="stroke:#181818;stroke-width:1.0;stroke-dasharray:2.0,2.0;" x1="1695.5" x2="1737.5" y1="183.6953" y2="183.6953"/><line style="stroke:#181818;stroke-width:1.0;stroke-dasharray:2.0,2.0;" x1="1737.5" x2="1737.5" y1="183.6953" y2="196.6953"/><line style="stroke:#181818;stroke-width:1.0;stroke-dasharray:2.0,2.0;" x1="1696.5" x2="1737.5" y1="196.6953" y2="196.6953"/><polygon fill="#181818" points="1706.5,192.6953,1696.5,196.6953,1706.5,200.6953,1702.5,196.6953" style="stroke:#181818;stroke-width:1.0;"/><text fill="#000000" font-family="sans-serif" font-size="13" lengthAdjust="spacing" textLength="429" x="1702.5" y="178.6294">It is collators (Bob) order to produce a block and he just produced it</text><polygon fill="#181818" points="1683.5,221.8281,1693.5,225.8281,1683.5,229.8281,1687.5,225.8281" style="stroke:#181818;stroke-width:1.0;"/><line style="stroke:#181818;stroke-width:1.0;stroke-dasharray:2.0,2.0;" x1="1061.5" x2="1689.5" y1="225.8281" y2="225.8281"/><text fill="#000000" font-family="sans-serif" font-size="13" lengthAdjust="spacing" textLength="366" x="1068.5" y="220.7622">(Subscription) Checks weather my collator just built block</text><polygon fill="#181818" points="1683.5,250.9609,1693.5,254.9609,1683.5,258.9609,1687.5,254.9609" style="stroke:#181818;stroke-width:1.0;"/><line style="stroke:#181818;stroke-width:1.0;stroke-dasharray:2.0,2.0;" x1="1061.5" x2="1689.5" y1="254.9609" y2="254.9609"/><text fill="#000000" font-family="sans-serif" font-size="13" lengthAdjust="spacing" textLength="610" x="1068.5" y="249.895">Checks the sequencer_latest_processed_block and sequencer_latest_processed_transaction_id</text><polygon fill="#181818" points="335.5,280.0938,325.5,284.0938,335.5,288.0938,331.5,284.0938" style="stroke:#181818;stroke-width:1.0;"/><line style="stroke:#181818;stroke-width:1.0;stroke-dasharray:2.0,2.0;" x1="329.5" x2="1060.5" y1="284.0938" y2="284.0938"/><text fill="#000000" font-family="sans-serif" font-size="13" lengthAdjust="spacing" textLength="713" x="341.5" y="279.0278">Read all ETH dep/with based on sequencer_latest_processed_block sequencer_latest_processed_transaction_id</text><polygon fill="#181818" points="1683.5,309.2266,1693.5,313.2266,1683.5,317.2266,1687.5,313.2266" style="stroke:#181818;stroke-width:1.0;"/><line style="stroke:#181818;stroke-width:1.0;stroke-dasharray:2.0,2.0;" x1="1061.5" x2="1689.5" y1="313.2266" y2="313.2266"/><text fill="#000000" font-family="sans-serif" font-size="13" lengthAdjust="spacing" textLength="375" x="1068.5" y="308.1606">Submit provide_l1_read extr. with all fetched ETH dep/with</text><line style="stroke:#181818;stroke-width:1.0;stroke-dasharray:2.0,2.0;" x1="1695.5" x2="1737.5" y1="342.3594" y2="342.3594"/><line style="stroke:#181818;stroke-width:1.0;stroke-dasharray:2.0,2.0;" x1="1737.5" x2="1737.5" y1="342.3594" y2="355.3594"/><line style="stroke:#181818;stroke-width:1.0;stroke-dasharray:2.0,2.0;" x1="1696.5" x2="1737.5" y1="355.3594" y2="355.3594"/><polygon fill="#181818" points="1706.5,351.3594,1696.5,355.3594,1706.5,359.3594,1702.5,355.3594" style="stroke:#181818;stroke-width:1.0;"/><text fill="#000000" font-family="sans-serif" font-size="13" lengthAdjust="spacing" textLength="474" x="1702.5" y="337.2935">store new value into pending_l1_reads with dispute period (block number)</text><path d="M1262,370.3594 L1793,370.3594 L1793,377.4922 L1783,387.4922 L1262,387.4922 L1262,370.3594 " fill="#EEEEEE" style="stroke:#000000;stroke-width:1.5;"/><rect fill="none" height="1129.2188" style="stroke:#000000;stroke-width:1.5;" width="901.5" x="1262" y="370.3594"/><text fill="#000000" font-family="sans-serif" font-size="13" font-weight="bold" lengthAdjust="spacing" textLength="486" x="1277" y="383.4263">Separate action on Collator (maybe will move to separate UML)</text><path d="M1272,394.4922 L1350,394.4922 L1350,401.625 L1340,411.625 L1272,411.625 L1272,394.4922 " fill="#EEEEEE" style="stroke:#000000;stroke-width:1.5;"/><rect fill="none" height="1098.0859" style="stroke:#000000;stroke-width:1.5;" width="881.5" x="1272" y="394.4922"/><text fill="#000000" font-family="sans-serif" font-size="13" font-weight="bold" lengthAdjust="spacing" textLength="33" x="1287" y="407.5591">loop</text><text fill="#000000" font-family="sans-serif" font-size="11" font-weight="bold" lengthAdjust="spacing" textLength="258" x="1365" y="406.7026">[for each block at end_dispute_period]</text><path d="M1282,418.625 L1360,418.625 L1360,425.7578 L1350,435.7578 L1282,435.7578 L1282,418.625 " fill="#EEEEEE" style="stroke:#000000;stroke-width:1.5;"/><rect fill="none" height="1066.9531" style="stroke:#000000;stroke-width:1.5;" width="861.5" x="1282" y="418.625"/><text fill="#000000" font-family="sans-serif" font-size="13" font-weight="bold" lengthAdjust="spacing" textLength="33" x="1297" y="431.6919">loop</text><text fill="#000000" font-family="sans-serif" font-size="11" font-weight="bold" lengthAdjust="spacing" textLength="119" x="1375" y="430.8354">[for each l1_read]</text><line style="stroke:#181818;stroke-width:1.0;stroke-dasharray:2.0,2.0;" x1="1695.5" x2="1737.5" y1="456.8906" y2="456.8906"/><line style="stroke:#181818;stroke-width:1.0;stroke-dasharray:2.0,2.0;" x1="1737.5" x2="1737.5" y1="456.8906" y2="469.8906"/><line style="stroke:#181818;stroke-width:1.0;stroke-dasharray:2.0,2.0;" x1="1696.5" x2="1737.5" y1="469.8906" y2="469.8906"/><polygon fill="#181818" points="1706.5,465.8906,1696.5,469.8906,1706.5,473.8906,1702.5,469.8906" style="stroke:#181818;stroke-width:1.0;"/><text fill="#000000" font-family="sans-serif" font-size="13" lengthAdjust="spacing" textLength="336" x="1702.5" y="451.8247">Validates if Sequencer have enough Stake to submit</text><line style="stroke:#181818;stroke-width:1.0;stroke-dasharray:2.0,2.0;" x1="1695.5" x2="1737.5" y1="499.0234" y2="499.0234"/><line style="stroke:#181818;stroke-width:1.0;stroke-dasharray:2.0,2.0;" x1="1737.5" x2="1737.5" y1="499.0234" y2="512.0234"/><line style="stroke:#181818;stroke-width:1.0;stroke-dasharray:2.0,2.0;" x1="1696.5" x2="1737.5" y1="512.0234" y2="512.0234"/><polygon fill="#181818" points="1706.5,508.0234,1696.5,512.0234,1706.5,516.0234,1702.5,512.0234" style="stroke:#181818;stroke-width:1.0;"/><text fill="#000000" font-family="sans-serif" font-size="13" lengthAdjust="spacing" textLength="413" x="1702.5" y="493.9575">Removes the READ right from sequencer (node storage update)</text><path d="M1292,527.0234 L1358,527.0234 L1358,534.1563 L1348,544.1563 L1292,544.1563 L1292,527.0234 " fill="#EEEEEE" style="stroke:#000000;stroke-width:1.5;"/><rect fill="none" height="867.2891" style="stroke:#000000;stroke-width:1.5;" width="841.5" x="1292" y="527.0234"/><text fill="#000000" font-family="sans-serif" font-size="13" font-weight="bold" lengthAdjust="spacing" textLength="21" x="1307" y="540.0903">alt</text><text fill="#000000" font-family="sans-serif" font-size="11" font-weight="bold" lengthAdjust="spacing" textLength="133" x="1373" y="539.2339">[l1_read is DEPOSIT]</text><line style="stroke:#181818;stroke-width:1.0;stroke-dasharray:2.0,2.0;" x1="1695.5" x2="1737.5" y1="565.2891" y2="565.2891"/><line style="stroke:#181818;stroke-width:1.0;stroke-dasharray:2.0,2.0;" x1="1737.5" x2="1737.5" y1="565.2891" y2="578.2891"/><line style="stroke:#181818;stroke-width:1.0;stroke-dasharray:2.0,2.0;" x1="1696.5" x2="1737.5" y1="578.2891" y2="578.2891"/><polygon fill="#181818" points="1706.5,574.2891,1696.5,578.2891,1706.5,582.2891,1702.5,578.2891" style="stroke:#181818;stroke-width:1.0;"/><text fill="#000000" font-family="sans-serif" font-size="13" lengthAdjust="spacing" textLength="209" x="1702.5" y="560.2231">Deposits validations (balance,...)</text><path d="M1628.5,593.2891 L1694.5,593.2891 L1694.5,600.4219 L1684.5,610.4219 L1628.5,610.4219 L1628.5,593.2891 " fill="#EEEEEE" style="stroke:#000000;stroke-width:1.5;"/><rect fill="none" height="116.2031" style="stroke:#000000;stroke-width:1.5;" width="385" x="1628.5" y="593.2891"/><text fill="#000000" font-family="sans-serif" font-size="13" font-weight="bold" lengthAdjust="spacing" textLength="21" x="1643.5" y="606.356">alt</text><text fill="#000000" font-family="sans-serif" font-size="11" font-weight="bold" lengthAdjust="spacing" textLength="173" x="1709.5" y="605.4995">[ETH address DOES exists]</text><line style="stroke:#181818;stroke-width:1.0;stroke-dasharray:2.0,2.0;" x1="1695.5" x2="1737.5" y1="631.5547" y2="631.5547"/><line style="stroke:#181818;stroke-width:1.0;stroke-dasharray:2.0,2.0;" x1="1737.5" x2="1737.5" y1="631.5547" y2="644.5547"/><line style="stroke:#181818;stroke-width:1.0;stroke-dasharray:2.0,2.0;" x1="1696.5" x2="1737.5" y1="644.5547" y2="644.5547"/><polygon fill="#181818" points="1706.5,640.5547,1696.5,644.5547,1706.5,648.5547,1702.5,644.5547" style="stroke:#181818;stroke-width:1.0;"/><text fill="#000000" font-family="sans-serif" font-size="13" lengthAdjust="spacing" textLength="238" x="1702.5" y="626.4888">Fetch Mangata version of ETH adress</text><line style="stroke:#000000;stroke-width:1.0;stroke-dasharray:2.0,2.0;" x1="1628.5" x2="2013.5" y1="653.5547" y2="653.5547"/><text fill="#000000" font-family="sans-serif" font-size="11" font-weight="bold" lengthAdjust="spacing" textLength="203" x="1633.5" y="663.7651">[ETH address does NOT exists]</text><line style="stroke:#181818;stroke-width:1.0;stroke-dasharray:2.0,2.0;" x1="1695.5" x2="1737.5" y1="688.4922" y2="688.4922"/><line style="stroke:#181818;stroke-width:1.0;stroke-dasharray:2.0,2.0;" x1="1737.5" x2="1737.5" y1="688.4922" y2="701.4922"/><line style="stroke:#181818;stroke-width:1.0;stroke-dasharray:2.0,2.0;" x1="1696.5" x2="1737.5" y1="701.4922" y2="701.4922"/><polygon fill="#181818" points="1706.5,697.4922,1696.5,701.4922,1706.5,705.4922,1702.5,701.4922" style="stroke:#181818;stroke-width:1.0;"/><text fill="#000000" font-family="sans-serif" font-size="13" lengthAdjust="spacing" textLength="299" x="1702.5" y="683.4263">Creates new ETH compatible Mangata address</text><path d="M1628.5,723.4922 L1694.5,723.4922 L1694.5,730.625 L1684.5,740.625 L1628.5,740.625 L1628.5,723.4922 " fill="#EEEEEE" style="stroke:#000000;stroke-width:1.5;"/><rect fill="none" height="116.2031" style="stroke:#000000;stroke-width:1.5;" width="334" x="1628.5" y="723.4922"/><text fill="#000000" font-family="sans-serif" font-size="13" font-weight="bold" lengthAdjust="spacing" textLength="21" x="1643.5" y="736.5591">alt</text><text fill="#000000" font-family="sans-serif" font-size="11" font-weight="bold" lengthAdjust="spacing" textLength="216" x="1709.5" y="735.7026">[ETH Asset registry DOES exists]</text><line style="stroke:#181818;stroke-width:1.0;stroke-dasharray:2.0,2.0;" x1="1695.5" x2="1737.5" y1="761.7578" y2="761.7578"/><line style="stroke:#181818;stroke-width:1.0;stroke-dasharray:2.0,2.0;" x1="1737.5" x2="1737.5" y1="761.7578" y2="774.7578"/><line style="stroke:#181818;stroke-width:1.0;stroke-dasharray:2.0,2.0;" x1="1696.5" x2="1737.5" y1="774.7578" y2="774.7578"/><polygon fill="#181818" points="1706.5,770.7578,1696.5,774.7578,1706.5,778.7578,1702.5,774.7578" style="stroke:#181818;stroke-width:1.0;"/><text fill="#000000" font-family="sans-serif" font-size="13" lengthAdjust="spacing" textLength="248" x="1702.5" y="756.6919">Fetch Mangata version of ERC20 token</text><line style="stroke:#000000;stroke-width:1.0;stroke-dasharray:2.0,2.0;" x1="1628.5" x2="1962.5" y1="783.7578" y2="783.7578"/><text fill="#000000" font-family="sans-serif" font-size="11" font-weight="bold" lengthAdjust="spacing" textLength="203" x="1633.5" y="793.9683">[ETH address does NOT exists]</text><line style="stroke:#181818;stroke-width:1.0;stroke-dasharray:2.0,2.0;" x1="1695.5" x2="1737.5" y1="818.6953" y2="818.6953"/><line style="stroke:#181818;stroke-width:1.0;stroke-dasharray:2.0,2.0;" x1="1737.5" x2="1737.5" y1="818.6953" y2="831.6953"/><line style="stroke:#181818;stroke-width:1.0;stroke-dasharray:2.0,2.0;" x1="1696.5" x2="1737.5" y1="831.6953" y2="831.6953"/><polygon fill="#181818" points="1706.5,827.6953,1696.5,831.6953,1706.5,835.6953,1702.5,831.6953" style="stroke:#181818;stroke-width:1.0;"/><text fill="#000000" font-family="sans-serif" font-size="13" lengthAdjust="spacing" textLength="243" x="1702.5" y="813.6294">Register new asset registry and use it</text><line style="stroke:#181818;stroke-width:1.0;stroke-dasharray:2.0,2.0;" x1="1695.5" x2="1737.5" y1="867.8281" y2="867.8281"/><line style="stroke:#181818;stroke-width:1.0;stroke-dasharray:2.0,2.0;" x1="1737.5" x2="1737.5" y1="867.8281" y2="880.8281"/><line style="stroke:#181818;stroke-width:1.0;stroke-dasharray:2.0,2.0;" x1="1696.5" x2="1737.5" y1="880.8281" y2="880.8281"/><polygon fill="#181818" points="1706.5,876.8281,1696.5,880.8281,1706.5,884.8281,1702.5,880.8281" style="stroke:#181818;stroke-width:1.0;"/><text fill="#000000" font-family="sans-serif" font-size="13" lengthAdjust="spacing" textLength="120" x="1702.5" y="862.7622">Mint token for user</text><line style="stroke:#000000;stroke-width:1.0;stroke-dasharray:2.0,2.0;" x1="1292" x2="2133.5" y1="889.8281" y2="889.8281"/><text fill="#000000" font-family="sans-serif" font-size="11" font-weight="bold" lengthAdjust="spacing" textLength="165" x="1297" y="900.0386">[l1_read is WITHDRAWAL]</text><line style="stroke:#181818;stroke-width:1.0;stroke-dasharray:2.0,2.0;" x1="1695.5" x2="1737.5" y1="924.7656" y2="924.7656"/><line style="stroke:#181818;stroke-width:1.0;stroke-dasharray:2.0,2.0;" x1="1737.5" x2="1737.5" y1="924.7656" y2="937.7656"/><line style="stroke:#181818;stroke-width:1.0;stroke-dasharray:2.0,2.0;" x1="1696.5" x2="1737.5" y1="937.7656" y2="937.7656"/><polygon fill="#181818" points="1706.5,933.7656,1696.5,937.7656,1706.5,941.7656,1702.5,937.7656" style="stroke:#181818;stroke-width:1.0;"/><text fill="#000000" font-family="sans-serif" font-size="13" lengthAdjust="spacing" textLength="331" x="1702.5" y="919.6997">Withdrawal validations (balance,token existence,...)</text><line style="stroke:#181818;stroke-width:1.0;stroke-dasharray:2.0,2.0;" x1="1695.5" x2="1737.5" y1="966.8984" y2="966.8984"/><line style="stroke:#181818;stroke-width:1.0;stroke-dasharray:2.0,2.0;" x1="1737.5" x2="1737.5" y1="966.8984" y2="979.8984"/><line style="stroke:#181818;stroke-width:1.0;stroke-dasharray:2.0,2.0;" x1="1696.5" x2="1737.5" y1="979.8984" y2="979.8984"/><polygon fill="#181818" points="1706.5,975.8984,1696.5,979.8984,1706.5,983.8984,1702.5,979.8984" style="stroke:#181818;stroke-width:1.0;"/><text fill="#000000" font-family="sans-serif" font-size="13" lengthAdjust="spacing" textLength="123" x="1702.5" y="961.8325">Burn token for user</text><line style="stroke:#000000;stroke-width:1.0;stroke-dasharray:2.0,2.0;" x1="1292" x2="2133.5" y1="988.8984" y2="988.8984"/><text fill="#000000" font-family="sans-serif" font-size="11" font-weight="bold" lengthAdjust="spacing" textLength="252" x="1297" y="999.1089">[l1_read is DELETE_PENDING_UPDATES]</text><path d="M1395,1007.7031 L1395,1032.7031 L1996,1032.7031 L1996,1017.7031 L1986,1007.7031 L1395,1007.7031 " fill="#FEFFDD" style="stroke:#181818;stroke-width:0.5;"/><path d="M1986,1007.7031 L1986,1017.7031 L1996,1017.7031 L1986,1007.7031 " fill="#FEFFDD" style="stroke:#181818;stroke-width:0.5;"/><text fill="#000000" font-family="sans-serif" font-size="13" lengthAdjust="spacing" textLength="580" x="1401" y="1024.77">This action is triggered from Mangata contract when dep/with is confirmed by the updater.</text><line style="stroke:#181818;stroke-width:1.0;stroke-dasharray:2.0,2.0;" x1="1695.5" x2="1737.5" y1="1058.9688" y2="1058.9688"/><line style="stroke:#181818;stroke-width:1.0;stroke-dasharray:2.0,2.0;" x1="1737.5" x2="1737.5" y1="1058.9688" y2="1071.9688"/><line style="stroke:#181818;stroke-width:1.0;stroke-dasharray:2.0,2.0;" x1="1696.5" x2="1737.5" y1="1071.9688" y2="1071.9688"/><polygon fill="#181818" points="1706.5,1067.9688,1696.5,1071.9688,1706.5,1075.9688,1702.5,1071.9688" style="stroke:#181818;stroke-width:1.0;"/><text fill="#000000" font-family="sans-serif" font-size="13" lengthAdjust="spacing" textLength="248" x="1702.5" y="1053.9028">Deletes all processed pending updates</text><line style="stroke:#000000;stroke-width:1.0;stroke-dasharray:2.0,2.0;" x1="1292" x2="2133.5" y1="1080.9688" y2="1080.9688"/><text fill="#000000" font-family="sans-serif" font-size="11" font-weight="bold" lengthAdjust="spacing" textLength="214" x="1297" y="1091.1792">[l1_read is CANCEL_RESOLUTION]</text><path d="M1302,1099.7734 L1302,1124.7734 L2088,1124.7734 L2088,1109.7734 L2078,1099.7734 L1302,1099.7734 " fill="#FEFFDD" style="stroke:#181818;stroke-width:0.5;"/><path d="M2078,1099.7734 L2078,1109.7734 L2088,1109.7734 L2078,1099.7734 " fill="#FEFFDD" style="stroke:#181818;stroke-width:0.5;"/><text fill="#000000" font-family="sans-serif" font-size="13" lengthAdjust="spacing" textLength="765" x="1308" y="1116.8403">This action is triggered from Mangata contract when cancelation is resolved. It will be resolved by comparing the reads.</text><path d="M1628.5,1136.9063 L1694.5,1136.9063 L1694.5,1144.0391 L1684.5,1154.0391 L1628.5,1154.0391 L1628.5,1136.9063 " fill="#EEEEEE" style="stroke:#000000;stroke-width:1.5;"/><rect fill="none" height="200.4688" style="stroke:#000000;stroke-width:1.5;" width="495" x="1628.5" y="1136.9063"/><text fill="#000000" font-family="sans-serif" font-size="13" font-weight="bold" lengthAdjust="spacing" textLength="21" x="1643.5" y="1149.9731">alt</text><text fill="#000000" font-family="sans-serif" font-size="11" font-weight="bold" lengthAdjust="spacing" textLength="292" x="1709.5" y="1149.1167">[CANCEL_RESOLUTION is CANCEL_APPROVED]</text><line style="stroke:#181818;stroke-width:1.0;stroke-dasharray:2.0,2.0;" x1="1695.5" x2="1737.5" y1="1175.1719" y2="1175.1719"/><line style="stroke:#181818;stroke-width:1.0;stroke-dasharray:2.0,2.0;" x1="1737.5" x2="1737.5" y1="1175.1719" y2="1188.1719"/><line style="stroke:#181818;stroke-width:1.0;stroke-dasharray:2.0,2.0;" x1="1696.5" x2="1737.5" y1="1188.1719" y2="1188.1719"/><polygon fill="#181818" points="1706.5,1184.1719,1696.5,1188.1719,1706.5,1192.1719,1702.5,1188.1719" style="stroke:#181818;stroke-width:1.0;"/><text fill="#000000" font-family="sans-serif" font-size="13" lengthAdjust="spacing" textLength="362" x="1702.5" y="1170.106">Find malicious l1_read in history with Sequencer address</text><line style="stroke:#181818;stroke-width:1.0;stroke-dasharray:2.0,2.0;" x1="1695.5" x2="1737.5" y1="1217.3047" y2="1217.3047"/><line style="stroke:#181818;stroke-width:1.0;stroke-dasharray:2.0,2.0;" x1="1737.5" x2="1737.5" y1="1217.3047" y2="1230.3047"/><line style="stroke:#181818;stroke-width:1.0;stroke-dasharray:2.0,2.0;" x1="1696.5" x2="1737.5" y1="1230.3047" y2="1230.3047"/><polygon fill="#181818" points="1706.5,1226.3047,1696.5,1230.3047,1706.5,1234.3047,1702.5,1230.3047" style="stroke:#181818;stroke-width:1.0;"/><text fill="#000000" font-family="sans-serif" font-size="13" lengthAdjust="spacing" textLength="225" x="1702.5" y="1212.2388">Call slash_sequencer(seq_address)</text><line style="stroke:#000000;stroke-width:1.0;stroke-dasharray:2.0,2.0;" x1="1628.5" x2="2123.5" y1="1239.3047" y2="1239.3047"/><text fill="#000000" font-family="sans-serif" font-size="11" font-weight="bold" lengthAdjust="spacing" textLength="326" x="1633.5" y="1249.5151">[CANCEL_RESOLUTION is CANCEL_NOT_APPROVED]</text><line style="stroke:#181818;stroke-width:1.0;stroke-dasharray:2.0,2.0;" x1="1695.5" x2="1737.5" y1="1274.2422" y2="1274.2422"/><line style="stroke:#181818;stroke-width:1.0;stroke-dasharray:2.0,2.0;" x1="1737.5" x2="1737.5" y1="1274.2422" y2="1287.2422"/><line style="stroke:#181818;stroke-width:1.0;stroke-dasharray:2.0,2.0;" x1="1696.5" x2="1737.5" y1="1287.2422" y2="1287.2422"/><polygon fill="#181818" points="1706.5,1283.2422,1696.5,1287.2422,1706.5,1291.2422,1702.5,1287.2422" style="stroke:#181818;stroke-width:1.0;"/><text fill="#000000" font-family="sans-serif" font-size="13" lengthAdjust="spacing" textLength="409" x="1702.5" y="1269.1763">Find malicious cancel request in history with Sequencer address</text><line style="stroke:#181818;stroke-width:1.0;stroke-dasharray:2.0,2.0;" x1="1695.5" x2="1737.5" y1="1316.375" y2="1316.375"/><line style="stroke:#181818;stroke-width:1.0;stroke-dasharray:2.0,2.0;" x1="1737.5" x2="1737.5" y1="1316.375" y2="1329.375"/><line style="stroke:#181818;stroke-width:1.0;stroke-dasharray:2.0,2.0;" x1="1696.5" x2="1737.5" y1="1329.375" y2="1329.375"/><polygon fill="#181818" points="1706.5,1325.375,1696.5,1329.375,1706.5,1333.375,1702.5,1329.375" style="stroke:#181818;stroke-width:1.0;"/><text fill="#000000" font-family="sans-serif" font-size="13" lengthAdjust="spacing" textLength="225" x="1702.5" y="1311.3091">Call slash_sequencer(seq_address)</text><line style="stroke:#000000;stroke-width:1.0;stroke-dasharray:2.0,2.0;" x1="1292" x2="2133.5" y1="1345.375" y2="1345.375"/><text fill="#000000" font-family="sans-serif" font-size="11" font-weight="bold" lengthAdjust="spacing" textLength="205" x="1297" y="1355.5854">[l1_read is ONLY_INFO_UPDATE]</text><path d="M1428,1364.1797 L1428,1389.1797 L1963,1389.1797 L1963,1374.1797 L1953,1364.1797 L1428,1364.1797 " fill="#FEFFDD" style="stroke:#181818;stroke-width:0.5;"/><path d="M1953,1364.1797 L1953,1374.1797 L1963,1374.1797 L1953,1364.1797 " fill="#FEFFDD" style="stroke:#181818;stroke-width:0.5;"/><text fill="#000000" font-family="sans-serif" font-size="13" lengthAdjust="spacing" textLength="514" x="1434" y="1381.2466">We dont need to do any action, it serves as information event for our contracts.</text><line style="stroke:#181818;stroke-width:1.0;stroke-dasharray:2.0,2.0;" x1="1695.5" x2="1737.5" y1="1422.4453" y2="1422.4453"/><line style="stroke:#181818;stroke-width:1.0;stroke-dasharray:2.0,2.0;" x1="1737.5" x2="1737.5" y1="1422.4453" y2="1435.4453"/><line style="stroke:#181818;stroke-width:1.0;stroke-dasharray:2.0,2.0;" x1="1696.5" x2="1737.5" y1="1435.4453" y2="1435.4453"/><polygon fill="#181818" points="1706.5,1431.4453,1696.5,1435.4453,1706.5,1439.4453,1702.5,1435.4453" style="stroke:#181818;stroke-width:1.0;"/><text fill="#000000" font-family="sans-serif" font-size="13" lengthAdjust="spacing" textLength="402" x="1702.5" y="1417.3794">Store succesfull WITHDRAWAL or DEPOSIT to pending_updates</text><line style="stroke:#181818;stroke-width:1.0;stroke-dasharray:2.0,2.0;" x1="1695.5" x2="1737.5" y1="1464.5781" y2="1464.5781"/><line style="stroke:#181818;stroke-width:1.0;stroke-dasharray:2.0,2.0;" x1="1737.5" x2="1737.5" y1="1464.5781" y2="1477.5781"/><line style="stroke:#181818;stroke-width:1.0;stroke-dasharray:2.0,2.0;" x1="1696.5" x2="1737.5" y1="1477.5781" y2="1477.5781"/><polygon fill="#181818" points="1706.5,1473.5781,1696.5,1477.5781,1706.5,1481.5781,1702.5,1477.5781" style="stroke:#181818;stroke-width:1.0;"/><text fill="#000000" font-family="sans-serif" font-size="13" lengthAdjust="spacing" textLength="423" x="1702.5" y="1459.5122">Returns back the READ right for sequencer (node storage update)</text><polygon fill="#181818" points="1706.5,1523.7109,1696.5,1527.7109,1706.5,1531.7109,1702.5,1527.7109" style="stroke:#181818;stroke-width:1.0;"/><line style="stroke:#181818;stroke-width:1.0;stroke-dasharray:2.0,2.0;" x1="1700.5" x2="2684.5" y1="1527.7109" y2="1527.7109"/><text fill="#000000" font-family="sans-serif" font-size="13" lengthAdjust="spacing" textLength="373" x="1712.5" y="1522.645">Reads that new N block(s) was produced by some collator</text><polygon fill="#181818" points="2880.5,1552.8438,2890.5,1556.8438,2880.5,1560.8438,2884.5,1556.8438" style="stroke:#181818;stroke-width:1.0;"/><line style="stroke:#181818;stroke-width:1.0;stroke-dasharray:2.0,2.0;" x1="2685.5" x2="2886.5" y1="1556.8438" y2="1556.8438"/><text fill="#000000" font-family="sans-serif" font-size="13" lengthAdjust="spacing" textLength="183" x="2692.5" y="1551.7778">Submits task: Finalize blocks</text><polygon fill="#181818" points="1706.5,1581.9766,1696.5,1585.9766,1706.5,1589.9766,1702.5,1585.9766" style="stroke:#181818;stroke-width:1.0;"/><line style="stroke:#181818;stroke-width:1.0;stroke-dasharray:2.0,2.0;" x1="1700.5" x2="2891.5" y1="1585.9766" y2="1585.9766"/><text fill="#000000" font-family="sans-serif" font-size="13" lengthAdjust="spacing" textLength="204" x="1712.5" y="1580.9106">Reads pending_updates hashes</text><polygon fill="#181818" points="3566.5,1611.1094,3576.5,1615.1094,3566.5,1619.1094,3570.5,1615.1094" style="stroke:#181818;stroke-width:1.0;"/><line style="stroke:#181818;stroke-width:1.0;stroke-dasharray:2.0,2.0;" x1="2892.5" x2="3572.5" y1="1615.1094" y2="1615.1094"/><text fill="#000000" font-family="sans-serif" font-size="13" lengthAdjust="spacing" textLength="210" x="2899.5" y="1610.0435">Check finalisation on Relay chain</text><line style="stroke:#181818;stroke-width:1.0;stroke-dasharray:2.0,2.0;" x1="2892.5" x2="2934.5" y1="1644.2422" y2="1644.2422"/><line style="stroke:#181818;stroke-width:1.0;stroke-dasharray:2.0,2.0;" x1="2934.5" x2="2934.5" y1="1644.2422" y2="1657.2422"/><line style="stroke:#181818;stroke-width:1.0;stroke-dasharray:2.0,2.0;" x1="2893.5" x2="2934.5" y1="1657.2422" y2="1657.2422"/><polygon fill="#181818" points="2903.5,1653.2422,2893.5,1657.2422,2903.5,1661.2422,2899.5,1657.2422" style="stroke:#181818;stroke-width:1.0;"/><text fill="#000000" font-family="sans-serif" font-size="13" lengthAdjust="spacing" textLength="263" x="2899.5" y="1639.1763">(V2) execute try-runtime block validation</text><line style="stroke:#181818;stroke-width:1.0;stroke-dasharray:2.0,2.0;" x1="2892.5" x2="2934.5" y1="1686.375" y2="1686.375"/><line style="stroke:#181818;stroke-width:1.0;stroke-dasharray:2.0,2.0;" x1="2934.5" x2="2934.5" y1="1686.375" y2="1699.375"/><line style="stroke:#181818;stroke-width:1.0;stroke-dasharray:2.0,2.0;" x1="2893.5" x2="2934.5" y1="1699.375" y2="1699.375"/><polygon fill="#181818" points="2903.5,1695.375,2893.5,1699.375,2903.5,1703.375,2899.5,1699.375" style="stroke:#181818;stroke-width:1.0;"/><text fill="#000000" font-family="sans-serif" font-size="13" lengthAdjust="spacing" textLength="225" x="2899.5" y="1681.3091">Sign the response with operator PK</text><polygon fill="#181818" points="2696.5,1724.5078,2686.5,1728.5078,2696.5,1732.5078,2692.5,1728.5078" style="stroke:#181818;stroke-width:1.0;"/><line style="stroke:#181818;stroke-width:1.0;stroke-dasharray:2.0,2.0;" x1="2690.5" x2="2891.5" y1="1728.5078" y2="1728.5078"/><text fill="#000000" font-family="sans-serif" font-size="13" lengthAdjust="spacing" textLength="135" x="2702.5" y="1723.4419">Returns finished task</text><polygon fill="#181818" points="3157.5,1753.6406,3167.5,1757.6406,3157.5,1761.6406,3161.5,1757.6406" style="stroke:#181818;stroke-width:1.0;"/><line style="stroke:#181818;stroke-width:1.0;stroke-dasharray:2.0,2.0;" x1="2685.5" x2="3163.5" y1="1757.6406" y2="1757.6406"/><text fill="#000000" font-family="sans-serif" font-size="13" lengthAdjust="spacing" textLength="366" x="2692.5" y="1752.5747">Submits TX on ETH Contract with the hashed information</text><line style="stroke:#181818;stroke-width:1.0;stroke-dasharray:2.0,2.0;" x1="3169.5" x2="3211.5" y1="1786.7734" y2="1786.7734"/><line style="stroke:#181818;stroke-width:1.0;stroke-dasharray:2.0,2.0;" x1="3211.5" x2="3211.5" y1="1786.7734" y2="1799.7734"/><line style="stroke:#181818;stroke-width:1.0;stroke-dasharray:2.0,2.0;" x1="3170.5" x2="3211.5" y1="1799.7734" y2="1799.7734"/><polygon fill="#181818" points="3180.5,1795.7734,3170.5,1799.7734,3180.5,1803.7734,3176.5,1799.7734" style="stroke:#181818;stroke-width:1.0;"/><text fill="#000000" font-family="sans-serif" font-size="13" lengthAdjust="spacing" textLength="304" x="3176.5" y="1781.7075">(V1.1) Stored block hash in a key-value storage</text><line style="stroke:#181818;stroke-width:1.0;stroke-dasharray:2.0,2.0;" x1="3169.5" x2="3211.5" y1="1828.9063" y2="1828.9063"/><line style="stroke:#181818;stroke-width:1.0;stroke-dasharray:2.0,2.0;" x1="3211.5" x2="3211.5" y1="1828.9063" y2="1841.9063"/><line style="stroke:#181818;stroke-width:1.0;stroke-dasharray:2.0,2.0;" x1="3170.5" x2="3211.5" y1="1841.9063" y2="1841.9063"/><polygon fill="#181818" points="3180.5,1837.9063,3170.5,1841.9063,3180.5,1845.9063,3176.5,1841.9063" style="stroke:#181818;stroke-width:1.0;"/><text fill="#000000" font-family="sans-serif" font-size="13" lengthAdjust="spacing" textLength="395" x="3176.5" y="1823.8403">(V1.1) Stores pending_updates hashes in a key-value storage</text><line style="stroke:#181818;stroke-width:1.0;stroke-dasharray:2.0,2.0;" x1="3169.5" x2="3211.5" y1="1871.0391" y2="1871.0391"/><line style="stroke:#181818;stroke-width:1.0;stroke-dasharray:2.0,2.0;" x1="3211.5" x2="3211.5" y1="1871.0391" y2="1884.0391"/><line style="stroke:#181818;stroke-width:1.0;stroke-dasharray:2.0,2.0;" x1="3170.5" x2="3211.5" y1="1884.0391" y2="1884.0391"/><polygon fill="#181818" points="3180.5,1880.0391,3170.5,1884.0391,3180.5,1888.0391,3176.5,1884.0391" style="stroke:#181818;stroke-width:1.0;"/><text fill="#000000" font-family="sans-serif" font-size="13" lengthAdjust="spacing" textLength="197" x="3176.5" y="1865.9731">(V1.1) Removes old block data</text><polygon fill="#181818" points="3157.5,1909.1719,3167.5,1913.1719,3157.5,1917.1719,3161.5,1913.1719" style="stroke:#181818;stroke-width:1.0;"/><line style="stroke:#181818;stroke-width:1.0;stroke-dasharray:2.0,2.0;" x1="2210.5" x2="3163.5" y1="1913.1719" y2="1913.1719"/><text fill="#000000" font-family="sans-serif" font-size="13" lengthAdjust="spacing" textLength="202" x="2217.5" y="1908.106">Subscribed for block finalisation</text><polygon fill="#181818" points="1706.5,1938.3047,1696.5,1942.3047,1706.5,1946.3047,1702.5,1942.3047" style="stroke:#181818;stroke-width:1.0;"/><line style="stroke:#181818;stroke-width:1.0;stroke-dasharray:2.0,2.0;" x1="1700.5" x2="2209.5" y1="1942.3047" y2="1942.3047"/><text fill="#000000" font-family="sans-serif" font-size="13" lengthAdjust="spacing" textLength="491" x="1712.5" y="1937.2388">Read pending_updates storage with hashes and latest_eigen_finalized_block</text><polygon fill="#181818" points="335.5,1967.4375,325.5,1971.4375,335.5,1975.4375,331.5,1971.4375" style="stroke:#181818;stroke-width:1.0;"/><line style="stroke:#181818;stroke-width:1.0;stroke-dasharray:2.0,2.0;" x1="329.5" x2="2209.5" y1="1971.4375" y2="1971.4375"/><text fill="#000000" font-family="sans-serif" font-size="13" lengthAdjust="spacing" textLength="373" x="341.5" y="1966.3716">Executes TX on ETH with all pending_updates with hashes</text><line style="stroke:#181818;stroke-width:1.0;stroke-dasharray:2.0,2.0;" x1="2210.5" x2="2252.5" y1="2000.5703" y2="2000.5703"/><line style="stroke:#181818;stroke-width:1.0;stroke-dasharray:2.0,2.0;" x1="2252.5" x2="2252.5" y1="2000.5703" y2="2013.5703"/><line style="stroke:#181818;stroke-width:1.0;stroke-dasharray:2.0,2.0;" x1="2211.5" x2="2252.5" y1="2013.5703" y2="2013.5703"/><polygon fill="#181818" points="2221.5,2009.5703,2211.5,2013.5703,2221.5,2017.5703,2217.5,2013.5703" style="stroke:#181818;stroke-width:1.0;"/><text fill="#000000" font-family="sans-serif" font-size="13" lengthAdjust="spacing" textLength="461" x="2217.5" y="1995.5044">V1 resilience handling: store processed blocks and tx Indexes into Redis</text><polygon fill="#181818" points="3157.5,2038.7031,3167.5,2042.7031,3157.5,2046.7031,3161.5,2042.7031" style="stroke:#181818;stroke-width:1.0;"/><line style="stroke:#181818;stroke-width:1.0;stroke-dasharray:2.0,2.0;" x1="324.5" x2="3163.5" y1="2042.7031" y2="2042.7031"/><text fill="#000000" font-family="sans-serif" font-size="13" lengthAdjust="spacing" textLength="266" x="331.5" y="2037.6372">(V1.1) Compare pending_updates hashes</text><path d="M10,2057.7031 L76,2057.7031 L76,2064.8359 L66,2074.8359 L10,2074.8359 L10,2057.7031 " fill="#EEEEEE" style="stroke:#000000;stroke-width:1.5;"/><rect fill="none" height="90.2031" style="stroke:#000000;stroke-width:1.5;" width="412" x="10" y="2057.7031"/><text fill="#000000" font-family="sans-serif" font-size="13" font-weight="bold" lengthAdjust="spacing" textLength="21" x="25" y="2070.77">alt</text><text fill="#000000" font-family="sans-serif" font-size="11" font-weight="bold" lengthAdjust="spacing" textLength="190" x="91" y="2069.9136">[pending_update is DEPOSIT]</text><polygon fill="#181818" points="104.5,2091.9688,94.5,2095.9688,104.5,2099.9688,100.5,2095.9688" style="stroke:#181818;stroke-width:1.0;"/><line style="stroke:#181818;stroke-width:1.0;stroke-dasharray:2.0,2.0;" x1="98.5" x2="323.5" y1="2095.9688" y2="2095.9688"/><text fill="#000000" font-family="sans-serif" font-size="13" lengthAdjust="spacing" textLength="189" x="110.5" y="2090.9028">Locks amount to the contract</text><line style="stroke:#000000;stroke-width:1.0;stroke-dasharray:2.0,2.0;" x1="10" x2="422" y1="2104.9688" y2="2104.9688"/><text fill="#000000" font-family="sans-serif" font-size="11" font-weight="bold" lengthAdjust="spacing" textLength="165" x="15" y="2115.1792">[l1_read is WITHDRAWAL]</text><polygon fill="#181818" points="104.5,2135.9063,94.5,2139.9063,104.5,2143.9063,100.5,2139.9063" style="stroke:#181818;stroke-width:1.0;"/><line style="stroke:#181818;stroke-width:1.0;stroke-dasharray:2.0,2.0;" x1="98.5" x2="323.5" y1="2139.9063" y2="2139.9063"/><text fill="#000000" font-family="sans-serif" font-size="13" lengthAdjust="spacing" textLength="183" x="110.5" y="2134.8403">Sends funds to user address</text><!--SRC=[lLZTK-Cs47_tNx53Pph9zA3b7ddeJ2xnzPY6X4a2j4yUnLPY5TjA9PcG_lNTbUIl40FNNWj3nh5Mkx_zteN5HYfmFsVXwWlSSCDofX_XJdDrva-OXXA_1i6EAIDYiME5WRCRLcoPOK3Nnh8mYiNcp57dxYZsRuDWBP_Xx9DSmpaaPS9XdqfGPQ6XOZAMMSO8om-mv7-Ml8Yv8awou82YdqJCp-2xgTYcvbDMyYwIviO0PGmz25szxHBNaZmjKiR-LS2B111gZw9tkuGPiWhPmpqVKOPYomiORHNVMX7Vm-h6ahFgLH2GC1uR8L5xVs6-uueEDGn6zqk7IVftf-ZR5jTUMqudjS4xg1OonbzOy8mTFBMYvo0WhyBv-S_73hk2bHBRBHucV2UrC20tS0aF9DZ8HuGG14TNJhCPfpn-r20s42x67t_ob_cpq8Py2oRbK72pb-hHMSQQZLXLNwxWse1eVAITtq2g1E4P2JibapBcm62ToVWH6FeGkVvHQbET9I0m1kjuEE8_M9Ph7Ikn8niFAyXxpX2SWlnGapgUwr9anidgPUbva7OrIOHdN9i8CSLSQvv43TvNYD2GXMRM_v58ZhLuOV05PmcmBBCnWixxSIzC2ck6hCZURw9vFv8-tT6QkR2cVn89ZxBBI14c_cpK1LWq16_3JPmYfZRCtWZG-4bnieSdXiaFeY2_OxAAObi9q8vt8lIkD1nFbP0939nMHPclkHe6mLR9SeSL1lC3rGEd3HccgGevEwonG0a4cSidJY6cA_gxcoao0SYatC46gJcBqohk322Yo0E8702a3QY2TYzuoFQa-Q2V7WFSiqnGlR6Pr5Ixb24-NiXocyBIi4S7rjh_BOuBJigv45s4emaeAgsmKJ9lOW06XSHYJUPdM-vhth2Dc64gL1x699s4j_FbzQeMtYj-uigA9eUIPhQw3TOiOoZtmyN5nR35WuHGdB0aKHYAC9c7Irz3MbIziZvJgDMDveahRNs-yJo9POiDppJlI4iaccasNts5n37QWvn54KkiOfdlKCTrnciOddjRS96Sq7c4gMUmN6zHjZfyEzMRQloDTLzOg1Wxf3phegTIXoq7Mk7PrRk7vmqcl6yTb4Ds5caXRWNWm_NgosGnUXXDt-BvWDKYKMpFijCnsEfK_4LCzl3yLAhYVJWduJHSXT5jE9jSptw9xcuderMuRAnIIAmscA2gcKqQYwrIvE1B5puPrwgncDhihRnTD-PzYdZgLc1RQR4HAiSBwuCj07wOkGXQFh4GWZVJEECKw5JHwqPHLMRFLlUOO3oQZSDfj0YNy-dTwde-2_upvMFoQCQgEnZQCdlYoGMD5hRGOy6lNf9DRBugKe6iOxlBAxQXL7sXJ4l3qUtjOduVJjwkYfy5yiun6cCXIzqOgm1K6YaEhiUr1kGNLQIl8f67TCPq6jNLVO1FaUVGXBPrqslgO3duvoevJw194GFEKl-lPdMXwOd8-MpwUtGz-ppt-VY-W7pWM2QnFXKSWmVxRoAnpXryY7x0McVt5qeIxDu5reNS1I9_udYBweGiLHsmhmLQqDNZhUHSsgb9bp6cvQP4ApN54QVdgbT3QvJg9kmh9TvWeTCuLUBOSpn08FMxvuUM9e7xHdz1lIoza4jZdacPiSrbvWQlWHx27crRp_gOm5hclF5Lbr-rM5MJAdB4VTT6AeRfNznnrK55TnB4aSLm4jCfFxfZToo_2y36SjUicZVjCWPnoaJHlTN06zn_7683uZ7DizW-pt5XDYBt05jTgu_1KcmBNy7q3fiRTqbMKz_-shrPswbnCS8MckPqij6H8JiRPsFDrM-aNtj5TM89Y3LJqaw3eCFb5D_1_UN5vT15S-9r9pvKF1WyyiEvMmfyb7qTmpvF_blcrNWjimeoScUuSBjEssC_saBNrChGmkvMEsmwbxi1-KABAkMivRrAD7tvfSwAZZO-ultkr-7_Oh4CNI2s_LilSyVIsr8xNFqpBZIN59GY4rGdaBH8CcHGRNhDAE5oqK8tpt1T99WFskr_2uwhrkb_GvpsoTXsTTwNkm7ryUvPTwKv9Ob6l2kOEf2vBEsSQaEz9WjUdL7xcIuH2YPWIP_8q_whfkgAUFGt]--></g></svg>