<?xml version="1.0" encoding="us-ascii" standalone="no"?><svg xmlns="http://www.w3.org/2000/svg" xmlns:xlink="http://www.w3.org/1999/xlink" contentStyleType="text/css" height="2109px" preserveAspectRatio="none" style="width:3561px;height:2109px;background:#FFFFFF;" version="1.1" viewBox="0 0 3561 2109" width="3561px" zoomAndPan="magnify"><defs/><g><rect fill="#ADD8E6" height="2097.1328" style="stroke:#181818;stroke-width:0.5;" width="765.5" x="1065" y="6"/><text fill="#000000" font-family="sans-serif" font-size="13" font-weight="bold" lengthAdjust="spacing" textLength="504" x="1195.75" y="18.0669">Bob - dude who runs Mangata Collator + Sequencer as one service</text><rect fill="none" height="150.4688" style="stroke:#000000;stroke-width:1.5;" width="1689.5" x="157" y="227.8281"/><rect fill="none" height="90.2031" style="stroke:#000000;stroke-width:1.5;" width="1669.5" x="167" y="281.0938"/><rect fill="none" height="668.1484" style="stroke:#000000;stroke-width:1.5;" width="575" x="1662.5" y="619.0938"/><rect fill="none" height="637.0156" style="stroke:#000000;stroke-width:1.5;" width="555" x="1672.5" y="643.2266"/><rect fill="none" height="563.75" style="stroke:#000000;stroke-width:1.5;" width="535" x="1682.5" y="667.3594"/><rect fill="none" height="116.2031" style="stroke:#000000;stroke-width:1.5;" width="385" x="1702.5" y="691.4922"/><rect fill="none" height="402.4141" style="stroke:#000000;stroke-width:1.5;" width="515" x="1692.5" y="821.6953"/><rect fill="none" height="200.4688" style="stroke:#000000;stroke-width:1.5;" width="495" x="1702.5" y="1016.6406"/><rect fill="none" height="90.2031" style="stroke:#000000;stroke-width:1.5;" width="486" x="10" y="1916.6328"/><line style="stroke:#181818;stroke-width:0.5;stroke-dasharray:5.0,5.0;" x1="93" x2="93" y1="81.2969" y2="2023.8359"/><line style="stroke:#181818;stroke-width:0.5;stroke-dasharray:5.0,5.0;" x1="239" x2="239" y1="81.2969" y2="2023.8359"/><line style="stroke:#181818;stroke-width:0.5;stroke-dasharray:5.0,5.0;" x1="398" x2="398" y1="81.2969" y2="2023.8359"/><line style="stroke:#181818;stroke-width:0.5;stroke-dasharray:5.0,5.0;" x1="1135" x2="1135" y1="81.2969" y2="2023.8359"/><line style="stroke:#181818;stroke-width:0.5;stroke-dasharray:5.0,5.0;" x1="1769.5" x2="1769.5" y1="81.2969" y2="2023.8359"/><line style="stroke:#181818;stroke-width:0.5;stroke-dasharray:5.0,5.0;" x1="2486" x2="2486" y1="81.2969" y2="2023.8359"/><line style="stroke:#181818;stroke-width:0.5;stroke-dasharray:5.0,5.0;" x1="2650" x2="2650" y1="81.2969" y2="2023.8359"/><line style="stroke:#181818;stroke-width:0.5;stroke-dasharray:5.0,5.0;" x1="2857.5" x2="2857.5" y1="81.2969" y2="2023.8359"/><line style="stroke:#181818;stroke-width:0.5;stroke-dasharray:5.0,5.0;" x1="3134" x2="3134" y1="81.2969" y2="2023.8359"/><line style="stroke:#181818;stroke-width:0.5;stroke-dasharray:5.0,5.0;" x1="3500.5" x2="3500.5" y1="81.2969" y2="2023.8359"/><text fill="#000000" font-family="sans-serif" font-size="14" lengthAdjust="spacing" textLength="141" x="20" y="77.9951">ETH Metamask User</text><ellipse cx="93.5" cy="13.5" fill="#E2E2F0" rx="8" ry="8" style="stroke:#181818;stroke-width:0.5;"/><path d="M93.5,21.5 L93.5,48.5 M80.5,29.5 L106.5,29.5 M93.5,48.5 L80.5,63.5 M93.5,48.5 L106.5,63.5 " fill="none" style="stroke:#181818;stroke-width:0.5;"/><text fill="#000000" font-family="sans-serif" font-size="14" lengthAdjust="spacing" textLength="141" x="20" y="2035.8311">ETH Metamask User</text><ellipse cx="93.5" cy="2047.6328" fill="#E2E2F0" rx="8" ry="8" style="stroke:#181818;stroke-width:0.5;"/><path d="M93.5,2055.6328 L93.5,2082.6328 M80.5,2063.6328 L106.5,2063.6328 M93.5,2082.6328 L80.5,2097.6328 M93.5,2082.6328 L106.5,2097.6328 " fill="none" style="stroke:#181818;stroke-width:0.5;"/><rect fill="#E2E2F0" height="30.2969" rx="2.5" ry="2.5" style="stroke:#181818;stroke-width:0.5;" width="124" x="177" y="50"/><text fill="#000000" font-family="sans-serif" font-size="14" lengthAdjust="spacing" textLength="110" x="184" y="69.9951">WETH Contract</text><rect fill="#E2E2F0" height="30.2969" rx="2.5" ry="2.5" style="stroke:#181818;stroke-width:0.5;" width="124" x="177" y="2022.8359"/><text fill="#000000" font-family="sans-serif" font-size="14" lengthAdjust="spacing" textLength="110" x="184" y="2042.8311">WETH Contract</text><rect fill="#E2E2F0" height="30.2969" rx="2.5" ry="2.5" style="stroke:#181818;stroke-width:0.5;" width="175" x="311" y="50"/><text fill="#000000" font-family="sans-serif" font-size="14" lengthAdjust="spacing" textLength="161" x="318" y="69.9951">Mangata ETH Contract</text><rect fill="#E2E2F0" height="30.2969" rx="2.5" ry="2.5" style="stroke:#181818;stroke-width:0.5;" width="175" x="311" y="2022.8359"/><text fill="#000000" font-family="sans-serif" font-size="14" lengthAdjust="spacing" textLength="161" x="318" y="2042.8311">Mangata ETH Contract</text><rect fill="#E2E2F0" height="30.2969" rx="2.5" ry="2.5" style="stroke:#181818;stroke-width:0.5;" width="133" x="1069" y="50"/><text fill="#000000" font-family="sans-serif" font-size="14" lengthAdjust="spacing" textLength="119" x="1076" y="69.9951">Sequencer (Bob)</text><rect fill="#E2E2F0" height="30.2969" rx="2.5" ry="2.5" style="stroke:#181818;stroke-width:0.5;" width="133" x="1069" y="2022.8359"/><text fill="#000000" font-family="sans-serif" font-size="14" lengthAdjust="spacing" textLength="119" x="1076" y="2042.8311">Sequencer (Bob)</text><rect fill="#E2E2F0" height="30.2969" rx="2.5" ry="2.5" style="stroke:#181818;stroke-width:0.5;" width="114" x="1712.5" y="50"/><text fill="#000000" font-family="sans-serif" font-size="14" lengthAdjust="spacing" textLength="100" x="1719.5" y="69.9951">Collator (Bob)</text><rect fill="#E2E2F0" height="30.2969" rx="2.5" ry="2.5" style="stroke:#181818;stroke-width:0.5;" width="114" x="1712.5" y="2022.8359"/><text fill="#000000" font-family="sans-serif" font-size="14" lengthAdjust="spacing" textLength="100" x="1719.5" y="2042.8311">Collator (Bob)</text><rect fill="#E2E2F0" height="30.2969" rx="2.5" ry="2.5" style="stroke:#181818;stroke-width:0.5;" width="137" x="2418" y="50"/><text fill="#000000" font-family="sans-serif" font-size="14" lengthAdjust="spacing" textLength="123" x="2425" y="69.9951">Mangata Updater</text><rect fill="#E2E2F0" height="30.2969" rx="2.5" ry="2.5" style="stroke:#181818;stroke-width:0.5;" width="137" x="2418" y="2022.8359"/><text fill="#000000" font-family="sans-serif" font-size="14" lengthAdjust="spacing" textLength="123" x="2425" y="2042.8311">Mangata Updater</text><rect fill="#E2E2F0" height="30.2969" rx="2.5" ry="2.5" style="stroke:#181818;stroke-width:0.5;" width="171" x="2565" y="50"/><text fill="#000000" font-family="sans-serif" font-size="14" lengthAdjust="spacing" textLength="157" x="2572" y="69.9951">Eigen Agregator &amp; TM</text><rect fill="#E2E2F0" height="30.2969" rx="2.5" ry="2.5" style="stroke:#181818;stroke-width:0.5;" width="171" x="2565" y="2022.8359"/><text fill="#000000" font-family="sans-serif" font-size="14" lengthAdjust="spacing" textLength="157" x="2572" y="2042.8311">Eigen Agregator &amp; TM</text><rect fill="#E2E2F0" height="30.2969" style="stroke:#181818;stroke-width:0.5;" width="174" x="2772.5" y="46"/><rect fill="#E2E2F0" height="30.2969" style="stroke:#181818;stroke-width:0.5;" width="174" x="2768.5" y="50"/><text fill="#000000" font-family="sans-serif" font-size="14" lengthAdjust="spacing" textLength="160" x="2775.5" y="69.9951">Eigen Operators (AVS)</text><rect fill="#E2E2F0" height="30.2969" style="stroke:#181818;stroke-width:0.5;" width="174" x="2772.5" y="2022.8359"/><rect fill="#E2E2F0" height="30.2969" style="stroke:#181818;stroke-width:0.5;" width="174" x="2768.5" y="2026.8359"/><text fill="#000000" font-family="sans-serif" font-size="14" lengthAdjust="spacing" textLength="160" x="2775.5" y="2046.8311">Eigen Operators (AVS)</text><rect fill="#E2E2F0" height="30.2969" style="stroke:#181818;stroke-width:0.5;" width="161" x="3056" y="46"/><rect fill="#E2E2F0" height="30.2969" style="stroke:#181818;stroke-width:0.5;" width="161" x="3052" y="50"/><text fill="#000000" font-family="sans-serif" font-size="14" lengthAdjust="spacing" textLength="147" x="3059" y="69.9951">Eigen ETH Contracts</text><rect fill="#E2E2F0" height="30.2969" style="stroke:#181818;stroke-width:0.5;" width="161" x="3056" y="2022.8359"/><rect fill="#E2E2F0" height="30.2969" style="stroke:#181818;stroke-width:0.5;" width="161" x="3052" y="2026.8359"/><text fill="#000000" font-family="sans-serif" font-size="14" lengthAdjust="spacing" textLength="147" x="3059" y="2046.8311">Eigen ETH Contracts</text><rect fill="#E2E2F0" height="30.2969" rx="2.5" ry="2.5" style="stroke:#181818;stroke-width:0.5;" width="110" x="3445.5" y="50"/><text fill="#000000" font-family="sans-serif" font-size="14" lengthAdjust="spacing" textLength="96" x="3452.5" y="69.9951">Rococo Relay</text><rect fill="#E2E2F0" height="30.2969" rx="2.5" ry="2.5" style="stroke:#181818;stroke-width:0.5;" width="110" x="3445.5" y="2022.8359"/><text fill="#000000" font-family="sans-serif" font-size="14" lengthAdjust="spacing" textLength="96" x="3452.5" y="2042.8311">Rococo Relay</text><polygon fill="#181818" points="386.5,108.4297,396.5,112.4297,386.5,116.4297,390.5,112.4297" style="stroke:#181818;stroke-width:1.0;"/><line style="stroke:#181818;stroke-width:1.0;stroke-dasharray:2.0,2.0;" x1="93.5" x2="392.5" y1="112.4297" y2="112.4297"/><text fill="#000000" font-family="sans-serif" font-size="13" lengthAdjust="spacing" textLength="207" x="100.5" y="107.3638">Trigger deposit of 1 WETH token</text><line style="stroke:#181818;stroke-width:1.0;stroke-dasharray:2.0,2.0;" x1="1769.5" x2="1811.5" y1="141.5625" y2="141.5625"/><line style="stroke:#181818;stroke-width:1.0;stroke-dasharray:2.0,2.0;" x1="1811.5" x2="1811.5" y1="141.5625" y2="154.5625"/><line style="stroke:#181818;stroke-width:1.0;stroke-dasharray:2.0,2.0;" x1="1770.5" x2="1811.5" y1="154.5625" y2="154.5625"/><polygon fill="#181818" points="1780.5,150.5625,1770.5,154.5625,1780.5,158.5625,1776.5,154.5625" style="stroke:#181818;stroke-width:1.0;"/><text fill="#000000" font-family="sans-serif" font-size="13" lengthAdjust="spacing" textLength="429" x="1776.5" y="136.4966">It is collators (Bob) order to produce a block and he just produced it</text><polygon fill="#181818" points="1757.5,179.6953,1767.5,183.6953,1757.5,187.6953,1761.5,183.6953" style="stroke:#181818;stroke-width:1.0;"/><line style="stroke:#181818;stroke-width:1.0;stroke-dasharray:2.0,2.0;" x1="1135.5" x2="1763.5" y1="183.6953" y2="183.6953"/><text fill="#000000" font-family="sans-serif" font-size="13" lengthAdjust="spacing" textLength="366" x="1142.5" y="178.6294">(Subscription) Checks weather my collator just built block</text><polygon fill="#181818" points="1757.5,208.8281,1767.5,212.8281,1757.5,216.8281,1761.5,212.8281" style="stroke:#181818;stroke-width:1.0;"/><line style="stroke:#181818;stroke-width:1.0;stroke-dasharray:2.0,2.0;" x1="1135.5" x2="1763.5" y1="212.8281" y2="212.8281"/><text fill="#000000" font-family="sans-serif" font-size="13" lengthAdjust="spacing" textLength="610" x="1142.5" y="207.7622">Checks the sequencer_latest_processed_block and sequencer_latest_processed_transaction_id</text><path d="M157,227.8281 L295,227.8281 L295,234.9609 L285,244.9609 L157,244.9609 L157,227.8281 " fill="#EEEEEE" style="stroke:#000000;stroke-width:1.5;"/><rect fill="none" height="150.4688" style="stroke:#000000;stroke-width:1.5;" width="1689.5" x="157" y="227.8281"/><text fill="#000000" font-family="sans-serif" font-size="13" font-weight="bold" lengthAdjust="spacing" textLength="93" x="172" y="240.895">Iteration V2</text><polygon fill="#181818" points="1757.5,262.0938,1767.5,266.0938,1757.5,270.0938,1761.5,266.0938" style="stroke:#181818;stroke-width:1.0;"/><line style="stroke:#181818;stroke-width:1.0;stroke-dasharray:2.0,2.0;" x1="1135.5" x2="1763.5" y1="266.0938" y2="266.0938"/><text fill="#000000" font-family="sans-serif" font-size="13" lengthAdjust="spacing" textLength="414" x="1142.5" y="261.0278">Checks if the token already exists using RPC getL1AssetRegistry</text><path d="M167,281.0938 L233,281.0938 L233,288.2266 L223,298.2266 L167,298.2266 L167,281.0938 " fill="#EEEEEE" style="stroke:#000000;stroke-width:1.5;"/><rect fill="none" height="90.2031" style="stroke:#000000;stroke-width:1.5;" width="1669.5" x="167" y="281.0938"/><text fill="#000000" font-family="sans-serif" font-size="13" font-weight="bold" lengthAdjust="spacing" textLength="21" x="182" y="294.1606">alt</text><text fill="#000000" font-family="sans-serif" font-size="11" font-weight="bold" lengthAdjust="spacing" textLength="254" x="248" y="293.3042">[ERC20 token DOES exists in Mangata]</text><line style="stroke:#000000;stroke-width:1.0;stroke-dasharray:2.0,2.0;" x1="167" x2="1836.5" y1="299.2266" y2="299.2266"/><text fill="#000000" font-family="sans-serif" font-size="11" font-weight="bold" lengthAdjust="spacing" textLength="323" x="172" y="309.437">[ERC20 token does NOT exists in Asset Registry]</text><polygon fill="#181818" points="250,330.1641,240,334.1641,250,338.1641,246,334.1641" style="stroke:#181818;stroke-width:1.0;"/><line style="stroke:#181818;stroke-width:1.0;stroke-dasharray:2.0,2.0;" x1="244" x2="1134.5" y1="334.1641" y2="334.1641"/><text fill="#000000" font-family="sans-serif" font-size="13" lengthAdjust="spacing" textLength="485" x="256" y="329.0981">Check for metadata (symbol, decimals,...) and also validates that ID is valid</text><polygon fill="#181818" points="1757.5,359.2969,1767.5,363.2969,1757.5,367.2969,1761.5,363.2969" style="stroke:#181818;stroke-width:1.0;"/><line style="stroke:#181818;stroke-width:1.0;stroke-dasharray:2.0,2.0;" x1="1135.5" x2="1763.5" y1="363.2969" y2="363.2969"/><text fill="#000000" font-family="sans-serif" font-size="13" lengthAdjust="spacing" textLength="234" x="1142.5" y="358.231">executing register_l1_asset extrinsic</text><polygon fill="#181818" points="409.5,402.4297,399.5,406.4297,409.5,410.4297,405.5,406.4297" style="stroke:#181818;stroke-width:1.0;"/><line style="stroke:#181818;stroke-width:1.0;stroke-dasharray:2.0,2.0;" x1="403.5" x2="1134.5" y1="406.4297" y2="406.4297"/><text fill="#000000" font-family="sans-serif" font-size="13" lengthAdjust="spacing" textLength="713" x="415.5" y="401.3638">Read all ETH dep/with based on sequencer_latest_processed_block sequencer_latest_processed_transaction_id</text><polygon fill="#181818" points="1757.5,431.5625,1767.5,435.5625,1757.5,439.5625,1761.5,435.5625" style="stroke:#181818;stroke-width:1.0;"/><line style="stroke:#181818;stroke-width:1.0;stroke-dasharray:2.0,2.0;" x1="1135.5" x2="1763.5" y1="435.5625" y2="435.5625"/><text fill="#000000" font-family="sans-serif" font-size="13" lengthAdjust="spacing" textLength="375" x="1142.5" y="430.4966">Submit provide_l1_read extr. with all fetched ETH dep/with</text><line style="stroke:#181818;stroke-width:1.0;stroke-dasharray:2.0,2.0;" x1="1769.5" x2="1811.5" y1="464.6953" y2="464.6953"/><line style="stroke:#181818;stroke-width:1.0;stroke-dasharray:2.0,2.0;" x1="1811.5" x2="1811.5" y1="464.6953" y2="477.6953"/><line style="stroke:#181818;stroke-width:1.0;stroke-dasharray:2.0,2.0;" x1="1770.5" x2="1811.5" y1="477.6953" y2="477.6953"/><polygon fill="#181818" points="1780.5,473.6953,1770.5,477.6953,1780.5,481.6953,1776.5,477.6953" style="stroke:#181818;stroke-width:1.0;"/><text fill="#000000" font-family="sans-serif" font-size="13" lengthAdjust="spacing" textLength="336" x="1776.5" y="459.6294">Validates if Sequencer have enough Stake to submit</text><line style="stroke:#181818;stroke-width:1.0;stroke-dasharray:2.0,2.0;" x1="1769.5" x2="1811.5" y1="506.8281" y2="506.8281"/><line style="stroke:#181818;stroke-width:1.0;stroke-dasharray:2.0,2.0;" x1="1811.5" x2="1811.5" y1="506.8281" y2="519.8281"/><line style="stroke:#181818;stroke-width:1.0;stroke-dasharray:2.0,2.0;" x1="1770.5" x2="1811.5" y1="519.8281" y2="519.8281"/><polygon fill="#181818" points="1780.5,515.8281,1770.5,519.8281,1780.5,523.8281,1776.5,519.8281" style="stroke:#181818;stroke-width:1.0;"/><text fill="#000000" font-family="sans-serif" font-size="13" lengthAdjust="spacing" textLength="413" x="1776.5" y="501.7622">Removes the READ right from sequencer (node storage update)</text><line style="stroke:#181818;stroke-width:1.0;stroke-dasharray:2.0,2.0;" x1="1769.5" x2="1811.5" y1="548.9609" y2="548.9609"/><line style="stroke:#181818;stroke-width:1.0;stroke-dasharray:2.0,2.0;" x1="1811.5" x2="1811.5" y1="548.9609" y2="561.9609"/><line style="stroke:#181818;stroke-width:1.0;stroke-dasharray:2.0,2.0;" x1="1770.5" x2="1811.5" y1="561.9609" y2="561.9609"/><polygon fill="#181818" points="1780.5,557.9609,1770.5,561.9609,1780.5,565.9609,1776.5,561.9609" style="stroke:#181818;stroke-width:1.0;"/><text fill="#000000" font-family="sans-serif" font-size="13" lengthAdjust="spacing" textLength="474" x="1776.5" y="543.895">store new value into pending_l1_reads with dispute period (block number)</text><line style="stroke:#181818;stroke-width:1.0;stroke-dasharray:2.0,2.0;" x1="1769.5" x2="1811.5" y1="591.0938" y2="591.0938"/><line style="stroke:#181818;stroke-width:1.0;stroke-dasharray:2.0,2.0;" x1="1811.5" x2="1811.5" y1="591.0938" y2="604.0938"/><line style="stroke:#181818;stroke-width:1.0;stroke-dasharray:2.0,2.0;" x1="1770.5" x2="1811.5" y1="604.0938" y2="604.0938"/><polygon fill="#181818" points="1780.5,600.0938,1770.5,604.0938,1780.5,608.0938,1776.5,604.0938" style="stroke:#181818;stroke-width:1.0;"/><text fill="#000000" font-family="sans-serif" font-size="13" lengthAdjust="spacing" textLength="423" x="1776.5" y="586.0278">Returns back the READ right for sequencer (node storage update)</text><path d="M1662.5,619.0938 L2193.5,619.0938 L2193.5,626.2266 L2183.5,636.2266 L1662.5,636.2266 L1662.5,619.0938 " fill="#EEEEEE" style="stroke:#000000;stroke-width:1.5;"/><rect fill="none" height="668.1484" style="stroke:#000000;stroke-width:1.5;" width="575" x="1662.5" y="619.0938"/><text fill="#000000" font-family="sans-serif" font-size="13" font-weight="bold" lengthAdjust="spacing" textLength="486" x="1677.5" y="632.1606">Separate action on Collator (maybe will move to separate UML)</text><path d="M1672.5,643.2266 L1750.5,643.2266 L1750.5,650.3594 L1740.5,660.3594 L1672.5,660.3594 L1672.5,643.2266 " fill="#EEEEEE" style="stroke:#000000;stroke-width:1.5;"/><rect fill="none" height="637.0156" style="stroke:#000000;stroke-width:1.5;" width="555" x="1672.5" y="643.2266"/><text fill="#000000" font-family="sans-serif" font-size="13" font-weight="bold" lengthAdjust="spacing" textLength="33" x="1687.5" y="656.2935">loop</text><text fill="#000000" font-family="sans-serif" font-size="11" font-weight="bold" lengthAdjust="spacing" textLength="258" x="1765.5" y="655.437">[for each block at end_dispute_period]</text><path d="M1682.5,667.3594 L1760.5,667.3594 L1760.5,674.4922 L1750.5,684.4922 L1682.5,684.4922 L1682.5,667.3594 " fill="#EEEEEE" style="stroke:#000000;stroke-width:1.5;"/><rect fill="none" height="563.75" style="stroke:#000000;stroke-width:1.5;" width="535" x="1682.5" y="667.3594"/><text fill="#000000" font-family="sans-serif" font-size="13" font-weight="bold" lengthAdjust="spacing" textLength="33" x="1697.5" y="680.4263">loop</text><text fill="#000000" font-family="sans-serif" font-size="11" font-weight="bold" lengthAdjust="spacing" textLength="119" x="1775.5" y="679.5698">[for each l1_read]</text><path d="M1702.5,691.4922 L1768.5,691.4922 L1768.5,698.625 L1758.5,708.625 L1702.5,708.625 L1702.5,691.4922 " fill="#EEEEEE" style="stroke:#000000;stroke-width:1.5;"/><rect fill="none" height="116.2031" style="stroke:#000000;stroke-width:1.5;" width="385" x="1702.5" y="691.4922"/><text fill="#000000" font-family="sans-serif" font-size="13" font-weight="bold" lengthAdjust="spacing" textLength="21" x="1717.5" y="704.5591">alt</text><text fill="#000000" font-family="sans-serif" font-size="11" font-weight="bold" lengthAdjust="spacing" textLength="173" x="1783.5" y="703.7026">[ETH address DOES exists]</text><line style="stroke:#181818;stroke-width:1.0;stroke-dasharray:2.0,2.0;" x1="1769.5" x2="1811.5" y1="729.7578" y2="729.7578"/><line style="stroke:#181818;stroke-width:1.0;stroke-dasharray:2.0,2.0;" x1="1811.5" x2="1811.5" y1="729.7578" y2="742.7578"/><line style="stroke:#181818;stroke-width:1.0;stroke-dasharray:2.0,2.0;" x1="1770.5" x2="1811.5" y1="742.7578" y2="742.7578"/><polygon fill="#181818" points="1780.5,738.7578,1770.5,742.7578,1780.5,746.7578,1776.5,742.7578" style="stroke:#181818;stroke-width:1.0;"/><text fill="#000000" font-family="sans-serif" font-size="13" lengthAdjust="spacing" textLength="238" x="1776.5" y="724.6919">Fetch Mangata version of ETH adress</text><line style="stroke:#000000;stroke-width:1.0;stroke-dasharray:2.0,2.0;" x1="1702.5" x2="2087.5" y1="751.7578" y2="751.7578"/><text fill="#000000" font-family="sans-serif" font-size="11" font-weight="bold" lengthAdjust="spacing" textLength="203" x="1707.5" y="761.9683">[ETH address does NOT exists]</text><line style="stroke:#181818;stroke-width:1.0;stroke-dasharray:2.0,2.0;" x1="1769.5" x2="1811.5" y1="786.6953" y2="786.6953"/><line style="stroke:#181818;stroke-width:1.0;stroke-dasharray:2.0,2.0;" x1="1811.5" x2="1811.5" y1="786.6953" y2="799.6953"/><line style="stroke:#181818;stroke-width:1.0;stroke-dasharray:2.0,2.0;" x1="1770.5" x2="1811.5" y1="799.6953" y2="799.6953"/><polygon fill="#181818" points="1780.5,795.6953,1770.5,799.6953,1780.5,803.6953,1776.5,799.6953" style="stroke:#181818;stroke-width:1.0;"/><text fill="#000000" font-family="sans-serif" font-size="13" lengthAdjust="spacing" textLength="299" x="1776.5" y="781.6294">Creates new ETH compatible Mangata address</text><path d="M1692.5,821.6953 L1758.5,821.6953 L1758.5,828.8281 L1748.5,838.8281 L1692.5,838.8281 L1692.5,821.6953 " fill="#EEEEEE" style="stroke:#000000;stroke-width:1.5;"/><rect fill="none" height="402.4141" style="stroke:#000000;stroke-width:1.5;" width="515" x="1692.5" y="821.6953"/><text fill="#000000" font-family="sans-serif" font-size="13" font-weight="bold" lengthAdjust="spacing" textLength="21" x="1707.5" y="834.7622">alt</text><text fill="#000000" font-family="sans-serif" font-size="11" font-weight="bold" lengthAdjust="spacing" textLength="133" x="1773.5" y="833.9058">[l1_read is DEPOSIT]</text><line style="stroke:#181818;stroke-width:1.0;stroke-dasharray:2.0,2.0;" x1="1769.5" x2="1811.5" y1="859.9609" y2="859.9609"/><line style="stroke:#181818;stroke-width:1.0;stroke-dasharray:2.0,2.0;" x1="1811.5" x2="1811.5" y1="859.9609" y2="872.9609"/><line style="stroke:#181818;stroke-width:1.0;stroke-dasharray:2.0,2.0;" x1="1770.5" x2="1811.5" y1="872.9609" y2="872.9609"/><polygon fill="#181818" points="1780.5,868.9609,1770.5,872.9609,1780.5,876.9609,1776.5,872.9609" style="stroke:#181818;stroke-width:1.0;"/><text fill="#000000" font-family="sans-serif" font-size="13" lengthAdjust="spacing" textLength="120" x="1776.5" y="854.895">Mint token for user</text><line style="stroke:#000000;stroke-width:1.0;stroke-dasharray:2.0,2.0;" x1="1692.5" x2="2207.5" y1="881.9609" y2="881.9609"/><text fill="#000000" font-family="sans-serif" font-size="11" font-weight="bold" lengthAdjust="spacing" textLength="165" x="1697.5" y="892.1714">[l1_read is WITHDRAWAL]</text><line style="stroke:#181818;stroke-width:1.0;stroke-dasharray:2.0,2.0;" x1="1769.5" x2="1811.5" y1="916.8984" y2="916.8984"/><line style="stroke:#181818;stroke-width:1.0;stroke-dasharray:2.0,2.0;" x1="1811.5" x2="1811.5" y1="916.8984" y2="929.8984"/><line style="stroke:#181818;stroke-width:1.0;stroke-dasharray:2.0,2.0;" x1="1770.5" x2="1811.5" y1="929.8984" y2="929.8984"/><polygon fill="#181818" points="1780.5,925.8984,1770.5,929.8984,1780.5,933.8984,1776.5,929.8984" style="stroke:#181818;stroke-width:1.0;"/><text fill="#000000" font-family="sans-serif" font-size="13" lengthAdjust="spacing" textLength="123" x="1776.5" y="911.8325">Burn token for user</text><line style="stroke:#000000;stroke-width:1.0;stroke-dasharray:2.0,2.0;" x1="1692.5" x2="2207.5" y1="938.8984" y2="938.8984"/><text fill="#000000" font-family="sans-serif" font-size="11" font-weight="bold" lengthAdjust="spacing" textLength="251" x="1697.5" y="949.1089">[l1_read is DELETE_PENDING)UPDATES]</text><line style="stroke:#181818;stroke-width:1.0;stroke-dasharray:2.0,2.0;" x1="1769.5" x2="1811.5" y1="973.8359" y2="973.8359"/><line style="stroke:#181818;stroke-width:1.0;stroke-dasharray:2.0,2.0;" x1="1811.5" x2="1811.5" y1="973.8359" y2="986.8359"/><line style="stroke:#181818;stroke-width:1.0;stroke-dasharray:2.0,2.0;" x1="1770.5" x2="1811.5" y1="986.8359" y2="986.8359"/><polygon fill="#181818" points="1780.5,982.8359,1770.5,986.8359,1780.5,990.8359,1776.5,986.8359" style="stroke:#181818;stroke-width:1.0;"/><text fill="#000000" font-family="sans-serif" font-size="13" lengthAdjust="spacing" textLength="248" x="1776.5" y="968.77">Deletes all processed pending updates</text><line style="stroke:#000000;stroke-width:1.0;stroke-dasharray:2.0,2.0;" x1="1692.5" x2="2207.5" y1="995.8359" y2="995.8359"/><text fill="#000000" font-family="sans-serif" font-size="11" font-weight="bold" lengthAdjust="spacing" textLength="214" x="1697.5" y="1006.0464">[l1_read is CANCEL_RESOLUTION]</text><path d="M1702.5,1016.6406 L1768.5,1016.6406 L1768.5,1023.7734 L1758.5,1033.7734 L1702.5,1033.7734 L1702.5,1016.6406 " fill="#EEEEEE" style="stroke:#000000;stroke-width:1.5;"/><rect fill="none" height="200.4688" style="stroke:#000000;stroke-width:1.5;" width="495" x="1702.5" y="1016.6406"/><text fill="#000000" font-family="sans-serif" font-size="13" font-weight="bold" lengthAdjust="spacing" textLength="21" x="1717.5" y="1029.7075">alt</text><text fill="#000000" font-family="sans-serif" font-size="11" font-weight="bold" lengthAdjust="spacing" textLength="292" x="1783.5" y="1028.8511">[CANCEL_RESOLUTION is CANCEL_APPROVED]</text><line style="stroke:#181818;stroke-width:1.0;stroke-dasharray:2.0,2.0;" x1="1769.5" x2="1811.5" y1="1054.9063" y2="1054.9063"/><line style="stroke:#181818;stroke-width:1.0;stroke-dasharray:2.0,2.0;" x1="1811.5" x2="1811.5" y1="1054.9063" y2="1067.9063"/><line style="stroke:#181818;stroke-width:1.0;stroke-dasharray:2.0,2.0;" x1="1770.5" x2="1811.5" y1="1067.9063" y2="1067.9063"/><polygon fill="#181818" points="1780.5,1063.9063,1770.5,1067.9063,1780.5,1071.9063,1776.5,1067.9063" style="stroke:#181818;stroke-width:1.0;"/><text fill="#000000" font-family="sans-serif" font-size="13" lengthAdjust="spacing" textLength="362" x="1776.5" y="1049.8403">Find malicious l1_read in history with Sequencer address</text><line style="stroke:#181818;stroke-width:1.0;stroke-dasharray:2.0,2.0;" x1="1769.5" x2="1811.5" y1="1097.0391" y2="1097.0391"/><line style="stroke:#181818;stroke-width:1.0;stroke-dasharray:2.0,2.0;" x1="1811.5" x2="1811.5" y1="1097.0391" y2="1110.0391"/><line style="stroke:#181818;stroke-width:1.0;stroke-dasharray:2.0,2.0;" x1="1770.5" x2="1811.5" y1="1110.0391" y2="1110.0391"/><polygon fill="#181818" points="1780.5,1106.0391,1770.5,1110.0391,1780.5,1114.0391,1776.5,1110.0391" style="stroke:#181818;stroke-width:1.0;"/><text fill="#000000" font-family="sans-serif" font-size="13" lengthAdjust="spacing" textLength="225" x="1776.5" y="1091.9731">Call slash_sequencer(seq_address)</text><line style="stroke:#000000;stroke-width:1.0;stroke-dasharray:2.0,2.0;" x1="1702.5" x2="2197.5" y1="1119.0391" y2="1119.0391"/><text fill="#000000" font-family="sans-serif" font-size="11" font-weight="bold" lengthAdjust="spacing" textLength="326" x="1707.5" y="1129.2495">[CANCEL_RESOLUTION is CANCEL_NOT_APPROVED]</text><line style="stroke:#181818;stroke-width:1.0;stroke-dasharray:2.0,2.0;" x1="1769.5" x2="1811.5" y1="1153.9766" y2="1153.9766"/><line style="stroke:#181818;stroke-width:1.0;stroke-dasharray:2.0,2.0;" x1="1811.5" x2="1811.5" y1="1153.9766" y2="1166.9766"/><line style="stroke:#181818;stroke-width:1.0;stroke-dasharray:2.0,2.0;" x1="1770.5" x2="1811.5" y1="1166.9766" y2="1166.9766"/><polygon fill="#181818" points="1780.5,1162.9766,1770.5,1166.9766,1780.5,1170.9766,1776.5,1166.9766" style="stroke:#181818;stroke-width:1.0;"/><text fill="#000000" font-family="sans-serif" font-size="13" lengthAdjust="spacing" textLength="409" x="1776.5" y="1148.9106">Find malicious cancel request in history with Sequencer address</text><line style="stroke:#181818;stroke-width:1.0;stroke-dasharray:2.0,2.0;" x1="1769.5" x2="1811.5" y1="1196.1094" y2="1196.1094"/><line style="stroke:#181818;stroke-width:1.0;stroke-dasharray:2.0,2.0;" x1="1811.5" x2="1811.5" y1="1196.1094" y2="1209.1094"/><line style="stroke:#181818;stroke-width:1.0;stroke-dasharray:2.0,2.0;" x1="1770.5" x2="1811.5" y1="1209.1094" y2="1209.1094"/><polygon fill="#181818" points="1780.5,1205.1094,1770.5,1209.1094,1780.5,1213.1094,1776.5,1209.1094" style="stroke:#181818;stroke-width:1.0;"/><text fill="#000000" font-family="sans-serif" font-size="13" lengthAdjust="spacing" textLength="225" x="1776.5" y="1191.0435">Call slash_sequencer(seq_address)</text><line style="stroke:#181818;stroke-width:1.0;stroke-dasharray:2.0,2.0;" x1="1769.5" x2="1811.5" y1="1259.2422" y2="1259.2422"/><line style="stroke:#181818;stroke-width:1.0;stroke-dasharray:2.0,2.0;" x1="1811.5" x2="1811.5" y1="1259.2422" y2="1272.2422"/><line style="stroke:#181818;stroke-width:1.0;stroke-dasharray:2.0,2.0;" x1="1770.5" x2="1811.5" y1="1272.2422" y2="1272.2422"/><polygon fill="#181818" points="1780.5,1268.2422,1770.5,1272.2422,1780.5,1276.2422,1776.5,1272.2422" style="stroke:#181818;stroke-width:1.0;"/><text fill="#000000" font-family="sans-serif" font-size="13" lengthAdjust="spacing" textLength="402" x="1776.5" y="1254.1763">Store succesfull WITHDRAWAL or DEPOSIT to pending_updates</text><polygon fill="#181818" points="1780.5,1311.375,1770.5,1315.375,1780.5,1319.375,1776.5,1315.375" style="stroke:#181818;stroke-width:1.0;"/><line style="stroke:#181818;stroke-width:1.0;stroke-dasharray:2.0,2.0;" x1="1774.5" x2="2649.5" y1="1315.375" y2="1315.375"/><text fill="#000000" font-family="sans-serif" font-size="13" lengthAdjust="spacing" textLength="373" x="1786.5" y="1310.3091">Reads that new N block(s) was produced by some collator</text><polygon fill="#181818" points="2845.5,1340.5078,2855.5,1344.5078,2845.5,1348.5078,2849.5,1344.5078" style="stroke:#181818;stroke-width:1.0;"/><line style="stroke:#181818;stroke-width:1.0;stroke-dasharray:2.0,2.0;" x1="2650.5" x2="2851.5" y1="1344.5078" y2="1344.5078"/><text fill="#000000" font-family="sans-serif" font-size="13" lengthAdjust="spacing" textLength="183" x="2657.5" y="1339.4419">Submits task: Finalize blocks</text><polygon fill="#181818" points="1780.5,1369.6406,1770.5,1373.6406,1780.5,1377.6406,1776.5,1373.6406" style="stroke:#181818;stroke-width:1.0;"/><line style="stroke:#181818;stroke-width:1.0;stroke-dasharray:2.0,2.0;" x1="1774.5" x2="2856.5" y1="1373.6406" y2="1373.6406"/><text fill="#000000" font-family="sans-serif" font-size="13" lengthAdjust="spacing" textLength="204" x="1786.5" y="1368.5747">Reads pending_updates hashes</text><polygon fill="#181818" points="3488.5,1398.7734,3498.5,1402.7734,3488.5,1406.7734,3492.5,1402.7734" style="stroke:#181818;stroke-width:1.0;"/><line style="stroke:#181818;stroke-width:1.0;stroke-dasharray:2.0,2.0;" x1="2857.5" x2="3494.5" y1="1402.7734" y2="1402.7734"/><text fill="#000000" font-family="sans-serif" font-size="13" lengthAdjust="spacing" textLength="210" x="2864.5" y="1397.7075">Check finalisation on Relay chain</text><line style="stroke:#181818;stroke-width:1.0;stroke-dasharray:2.0,2.0;" x1="2857.5" x2="2899.5" y1="1431.9063" y2="1431.9063"/><line style="stroke:#181818;stroke-width:1.0;stroke-dasharray:2.0,2.0;" x1="2899.5" x2="2899.5" y1="1431.9063" y2="1444.9063"/><line style="stroke:#181818;stroke-width:1.0;stroke-dasharray:2.0,2.0;" x1="2858.5" x2="2899.5" y1="1444.9063" y2="1444.9063"/><polygon fill="#181818" points="2868.5,1440.9063,2858.5,1444.9063,2868.5,1448.9063,2864.5,1444.9063" style="stroke:#181818;stroke-width:1.0;"/><text fill="#000000" font-family="sans-serif" font-size="13" lengthAdjust="spacing" textLength="263" x="2864.5" y="1426.8403">(V2) execute try-runtime block validation</text><line style="stroke:#181818;stroke-width:1.0;stroke-dasharray:2.0,2.0;" x1="2857.5" x2="2899.5" y1="1474.0391" y2="1474.0391"/><line style="stroke:#181818;stroke-width:1.0;stroke-dasharray:2.0,2.0;" x1="2899.5" x2="2899.5" y1="1474.0391" y2="1487.0391"/><line style="stroke:#181818;stroke-width:1.0;stroke-dasharray:2.0,2.0;" x1="2858.5" x2="2899.5" y1="1487.0391" y2="1487.0391"/><polygon fill="#181818" points="2868.5,1483.0391,2858.5,1487.0391,2868.5,1491.0391,2864.5,1487.0391" style="stroke:#181818;stroke-width:1.0;"/><text fill="#000000" font-family="sans-serif" font-size="13" lengthAdjust="spacing" textLength="225" x="2864.5" y="1468.9731">Sign the response with operator PK</text><polygon fill="#181818" points="2661.5,1512.1719,2651.5,1516.1719,2661.5,1520.1719,2657.5,1516.1719" style="stroke:#181818;stroke-width:1.0;"/><line style="stroke:#181818;stroke-width:1.0;stroke-dasharray:2.0,2.0;" x1="2655.5" x2="2856.5" y1="1516.1719" y2="1516.1719"/><text fill="#000000" font-family="sans-serif" font-size="13" lengthAdjust="spacing" textLength="135" x="2667.5" y="1511.106">Returns finished task</text><polygon fill="#181818" points="3122.5,1541.3047,3132.5,1545.3047,3122.5,1549.3047,3126.5,1545.3047" style="stroke:#181818;stroke-width:1.0;"/><line style="stroke:#181818;stroke-width:1.0;stroke-dasharray:2.0,2.0;" x1="2650.5" x2="3128.5" y1="1545.3047" y2="1545.3047"/><text fill="#000000" font-family="sans-serif" font-size="13" lengthAdjust="spacing" textLength="366" x="2657.5" y="1540.2388">Submits TX on ETH Contract with the hashed information</text><line style="stroke:#181818;stroke-width:1.0;stroke-dasharray:2.0,2.0;" x1="3134.5" x2="3176.5" y1="1574.4375" y2="1574.4375"/><line style="stroke:#181818;stroke-width:1.0;stroke-dasharray:2.0,2.0;" x1="3176.5" x2="3176.5" y1="1574.4375" y2="1587.4375"/><line style="stroke:#181818;stroke-width:1.0;stroke-dasharray:2.0,2.0;" x1="3135.5" x2="3176.5" y1="1587.4375" y2="1587.4375"/><polygon fill="#181818" points="3145.5,1583.4375,3135.5,1587.4375,3145.5,1591.4375,3141.5,1587.4375" style="stroke:#181818;stroke-width:1.0;"/><text fill="#000000" font-family="sans-serif" font-size="13" lengthAdjust="spacing" textLength="261" x="3141.5" y="1569.3716">Stored block hash in a key-value storage</text><line style="stroke:#181818;stroke-width:1.0;stroke-dasharray:2.0,2.0;" x1="3134.5" x2="3176.5" y1="1616.5703" y2="1616.5703"/><line style="stroke:#181818;stroke-width:1.0;stroke-dasharray:2.0,2.0;" x1="3176.5" x2="3176.5" y1="1616.5703" y2="1629.5703"/><line style="stroke:#181818;stroke-width:1.0;stroke-dasharray:2.0,2.0;" x1="3135.5" x2="3176.5" y1="1629.5703" y2="1629.5703"/><polygon fill="#181818" points="3145.5,1625.5703,3135.5,1629.5703,3145.5,1633.5703,3141.5,1629.5703" style="stroke:#181818;stroke-width:1.0;"/><text fill="#000000" font-family="sans-serif" font-size="13" lengthAdjust="spacing" textLength="352" x="3141.5" y="1611.5044">Stores pending_updates hashes in a key-value storage</text><line style="stroke:#181818;stroke-width:1.0;stroke-dasharray:2.0,2.0;" x1="3134.5" x2="3176.5" y1="1658.7031" y2="1658.7031"/><line style="stroke:#181818;stroke-width:1.0;stroke-dasharray:2.0,2.0;" x1="3176.5" x2="3176.5" y1="1658.7031" y2="1671.7031"/><line style="stroke:#181818;stroke-width:1.0;stroke-dasharray:2.0,2.0;" x1="3135.5" x2="3176.5" y1="1671.7031" y2="1671.7031"/><polygon fill="#181818" points="3145.5,1667.7031,3135.5,1671.7031,3145.5,1675.7031,3141.5,1671.7031" style="stroke:#181818;stroke-width:1.0;"/><text fill="#000000" font-family="sans-serif" font-size="13" lengthAdjust="spacing" textLength="154" x="3141.5" y="1653.6372">Removes old block data</text><polygon fill="#181818" points="3122.5,1696.8359,3132.5,1700.8359,3122.5,1704.8359,3126.5,1700.8359" style="stroke:#181818;stroke-width:1.0;"/><line style="stroke:#181818;stroke-width:1.0;stroke-dasharray:2.0,2.0;" x1="2486.5" x2="3128.5" y1="1700.8359" y2="1700.8359"/><text fill="#000000" font-family="sans-serif" font-size="13" lengthAdjust="spacing" textLength="202" x="2493.5" y="1695.77">Subscribed for block finalisation</text><polygon fill="#181818" points="1780.5,1725.9688,1770.5,1729.9688,1780.5,1733.9688,1776.5,1729.9688" style="stroke:#181818;stroke-width:1.0;"/><line style="stroke:#181818;stroke-width:1.0;stroke-dasharray:2.0,2.0;" x1="1774.5" x2="2485.5" y1="1729.9688" y2="1729.9688"/><text fill="#000000" font-family="sans-serif" font-size="13" lengthAdjust="spacing" textLength="491" x="1786.5" y="1724.9028">Read pending_updates storage with hashes and latest_eigen_finalized_block</text><polygon fill="#181818" points="409.5,1755.1016,399.5,1759.1016,409.5,1763.1016,405.5,1759.1016" style="stroke:#181818;stroke-width:1.0;"/><line style="stroke:#181818;stroke-width:1.0;stroke-dasharray:2.0,2.0;" x1="403.5" x2="2485.5" y1="1759.1016" y2="1759.1016"/><text fill="#000000" font-family="sans-serif" font-size="13" lengthAdjust="spacing" textLength="373" x="415.5" y="1754.0356">Executes TX on ETH with all pending_updates with hashes</text><polygon fill="#181818" points="1780.5,1784.2344,1770.5,1788.2344,1780.5,1792.2344,1776.5,1788.2344" style="stroke:#181818;stroke-width:1.0;"/><line style="stroke:#181818;stroke-width:1.0;stroke-dasharray:2.0,2.0;" x1="1774.5" x2="2485.5" y1="1788.2344" y2="1788.2344"/><text fill="#000000" font-family="sans-serif" font-size="13" lengthAdjust="spacing" textLength="693" x="1786.5" y="1783.1685">Execute submited_pending_updates extrinsic with submited hashes and latest finalized block by Eigen layer</text><line style="stroke:#181818;stroke-width:1.0;stroke-dasharray:2.0,2.0;" x1="1769.5" x2="1811.5" y1="1817.3672" y2="1817.3672"/><line style="stroke:#181818;stroke-width:1.0;stroke-dasharray:2.0,2.0;" x1="1811.5" x2="1811.5" y1="1817.3672" y2="1830.3672"/><line style="stroke:#181818;stroke-width:1.0;stroke-dasharray:2.0,2.0;" x1="1770.5" x2="1811.5" y1="1830.3672" y2="1830.3672"/><polygon fill="#181818" points="1780.5,1826.3672,1770.5,1830.3672,1780.5,1834.3672,1776.5,1830.3672" style="stroke:#181818;stroke-width:1.0;"/><text fill="#000000" font-family="sans-serif" font-size="13" lengthAdjust="spacing" textLength="236" x="1776.5" y="1812.3013">Updated latest_eigen_finalized_block</text><line style="stroke:#181818;stroke-width:1.0;stroke-dasharray:2.0,2.0;" x1="1769.5" x2="1811.5" y1="1859.5" y2="1859.5"/><line style="stroke:#181818;stroke-width:1.0;stroke-dasharray:2.0,2.0;" x1="1811.5" x2="1811.5" y1="1859.5" y2="1872.5"/><line style="stroke:#181818;stroke-width:1.0;stroke-dasharray:2.0,2.0;" x1="1770.5" x2="1811.5" y1="1872.5" y2="1872.5"/><polygon fill="#181818" points="1780.5,1868.5,1770.5,1872.5,1780.5,1876.5,1776.5,1872.5" style="stroke:#181818;stroke-width:1.0;"/><text fill="#000000" font-family="sans-serif" font-size="13" lengthAdjust="spacing" textLength="355" x="1776.5" y="1854.4341">Removes all submited pending_updates based on hash</text><polygon fill="#181818" points="3122.5,1897.6328,3132.5,1901.6328,3122.5,1905.6328,3126.5,1901.6328" style="stroke:#181818;stroke-width:1.0;"/><line style="stroke:#181818;stroke-width:1.0;stroke-dasharray:2.0,2.0;" x1="398.5" x2="3128.5" y1="1901.6328" y2="1901.6328"/><text fill="#000000" font-family="sans-serif" font-size="13" lengthAdjust="spacing" textLength="223" x="405.5" y="1896.5669">Compare pending_updates hashes</text><path d="M10,1916.6328 L76,1916.6328 L76,1923.7656 L66,1933.7656 L10,1933.7656 L10,1916.6328 " fill="#EEEEEE" style="stroke:#000000;stroke-width:1.5;"/><rect fill="none" height="90.2031" style="stroke:#000000;stroke-width:1.5;" width="486" x="10" y="1916.6328"/><text fill="#000000" font-family="sans-serif" font-size="13" font-weight="bold" lengthAdjust="spacing" textLength="21" x="25" y="1929.6997">alt</text><text fill="#000000" font-family="sans-serif" font-size="11" font-weight="bold" lengthAdjust="spacing" textLength="190" x="91" y="1928.8433">[pending_update is DEPOSIT]</text><polygon fill="#181818" points="104.5,1950.8984,94.5,1954.8984,104.5,1958.8984,100.5,1954.8984" style="stroke:#181818;stroke-width:1.0;"/><line style="stroke:#181818;stroke-width:1.0;stroke-dasharray:2.0,2.0;" x1="98.5" x2="397.5" y1="1954.8984" y2="1954.8984"/><text fill="#000000" font-family="sans-serif" font-size="13" lengthAdjust="spacing" textLength="189" x="110.5" y="1949.8325">Locks amount to the contract</text><line style="stroke:#000000;stroke-width:1.0;stroke-dasharray:2.0,2.0;" x1="10" x2="496" y1="1963.8984" y2="1963.8984"/><text fill="#000000" font-family="sans-serif" font-size="11" font-weight="bold" lengthAdjust="spacing" textLength="165" x="15" y="1974.1089">[l1_read is WITHDRAWAL]</text><polygon fill="#181818" points="104.5,1994.8359,94.5,1998.8359,104.5,2002.8359,100.5,1998.8359" style="stroke:#181818;stroke-width:1.0;"/><line style="stroke:#181818;stroke-width:1.0;stroke-dasharray:2.0,2.0;" x1="98.5" x2="397.5" y1="1998.8359" y2="1998.8359"/><text fill="#000000" font-family="sans-serif" font-size="13" lengthAdjust="spacing" textLength="183" x="110.5" y="1993.77">Sends funds to user address</text><!--SRC=[lLTBR-Cs4BxhLmnIeB3HJThTunuAU6sr3UeaXkraUpDeQMonaKHNf9Aulxup9FMq5I_sq0smaCdXDwzlXaCH6LM0-tSLhl-0EpGY4_eP7ZKMLtv7Q2ZfPn0SH65a90yYDt3rbUMdAZU5YCoL4tj5aqH-gIjz9_AzC0BE7ChSLdqksAetkFgYjd0DSHaZl2OAYZBNK85CLPeAjlmdME4_9UOH5eoaSWGoz4L6U0K_pEK-CL_I4hkMD2T6f6FiZT3LQbUurkHbIJBoIm7cCP2fmNb77m-nC1n3Zfxxxac6SeyvJFO5xgsA7s5zPyL5jHG4h0mZ8nLvxmyy7B3WJGsZoTFAsQJysZdvTiIrznPvvtoYbYgYFrXYAevUkk3l860EmFNrh_s4VOPr8VTxsepneBGqe7Rm4Im_Z7ec4vmVraa-N_tu3BS6P1DHxQ8CgeW9p2Wu52ek8mG1srH5po0euWd2twKsrLuCaXXJPw-7FrgLMnqLyi0H6SCqmUYPMIfCGhBPiHPrcDjIfiRf6eJq60JGS6P3UwZDXcoAK6kCDuszxmXHz78jRBOsCWw2VQ7A0yM4SqbhyFGfe0HSC4Jkh2qkq28jKCH7m3Uf3LUjpFUmN4nXZsR-SK9QpHBtj5SS0r_Rv72ud7xwnIFC7i9LTLpcLSLvOKmrTgHZXHhk7zQj4rO9zBJqlMZt2Uy9x2WB6RMVcAjdf8_PLgKVY5AHp4IgFzpSt8njGEc7WXUHIgufJeGmS3jZ7jd50OrDtF0Dez9mO0fh96VcuqPOi_7D53BNCgeSpcCkypx1JWfWIL4dmr9RR5G5FxzAay1MK9QfALqcohUJPCWh8decRLMyo1ZP8sQ2TUW6h3LitWvDb91DRJC7Y_EfZZ5nhEcQYNX12emgzmciZ7Xcxe6sweUGbfYf5tH5immdCoYuDSEkK5ahJQDSKRFNT4BiqVVCyH0aYo7a-CfPBv6On_s2SaM9hRpNpl5OwaDfa7OBgM8OkP3dPRR5OZniiYaBQg9RGR9zkqdwajc-c5T8pPKMm6MGoT1SAPauRkbsavGOZe-DOoN_U3Sd481KgODLY29AgZPec9WRxzV6-KMobhJT0puITgTTyPH_4SS5KQnTyNNj30JbDwPFVGk_OA6jJpkFnt2TJj7IqkiKbpHDoMfc7YUOOIAL7QWfRbEirNlaLgMwhvQRLHLGRvY5YuVLxVgItZlYaUzj74CxzhGyQW5-lLt_CLjElaxcbp2_496-3NCMpiDrk5c4zxFR-z_7ZulPP1skBk7FC4ME5HTutJUgMl24r0CQfvFxQJZVBCFLm_nnVVjmtmsY2-E9KElaPB5OFZo5i_h0C7aaDMzgvJHfg58tHkIGIAwUewlMra3NIV1xP67FTIfqigdBSaHV6uymhY6i- - -vGmpzVfSYGPfJkbR81fec_b_FykRcwvL4SF9ZGDlAzbHTHaIXNKcQ6uxJJ5QL4BGQRKEke7LPrlFhIK_bdcmlRAxhUzVEHdeChpHbrWFTzWXQPTWCsbsyQjQjxZn2f0UBJGPbubzqg3gevCuQqNE0BZMTOE-C7NlhwSIYQr5rSJiVGvG8cNTFDUQDdZwD_RH1lRquNjCRniZC6rYDC8Gt1B2I-zpUFPJg0qtqw7XKIo_-x9wiuzHSNsIsr7pZSunwWUmy0ffehlzY_zgl1gUM3R5XufgbHfOvspiePt6PLR5tcW6uC0Gyu_7QNTt-wln6fA7SVJTgDPoej3AI9r1wxhX7sq2e-5Mn9RUuexjJROPq3dUvTs9-DJdO87jVUCxraw1LlTbvSlk1iOD_Ces6ZdFjLDOJO5zxM-k0rHxEptXaGX-ZdfeTMYLtwWpKRlYOKQcxHoeL4nQ3awXxIry8oONPqtRIohA-1_MaRlaP1BsGdkF0b2UI0eSwIS0NPtUlEuQSKy6ZmMUOS_i2aQdIpYAsy6gnuDqvP1XqHQPGEoZvVyAqR_dg6gAj_m00]--></g></svg>