<?xml version="1.0" encoding="us-ascii" standalone="no"?><svg xmlns="http://www.w3.org/2000/svg" xmlns:xlink="http://www.w3.org/1999/xlink" contentStyleType="text/css" height="1788px" preserveAspectRatio="none" style="width:3365px;height:1788px;background:#FFFFFF;" version="1.1" viewBox="0 0 3365 1788" width="3365px" zoomAndPan="magnify"><defs/><g><rect fill="#ADD8E6" height="1776.6563" style="stroke:#181818;stroke-width:0.5;" width="765.5" x="982" y="6"/><text fill="#000000" font-family="sans-serif" font-size="13" font-weight="bold" lengthAdjust="spacing" textLength="504" x="1112.75" y="18.0669">Bob - dude who runs Mangata Collator + Sequencer as one service</text><rect fill="none" height="512.1406" style="stroke:#000000;stroke-width:1.5;" width="536" x="1589.5" y="454.625"/><rect fill="none" height="481.0078" style="stroke:#000000;stroke-width:1.5;" width="508" x="1599.5" y="478.7578"/><rect fill="none" height="407.7422" style="stroke:#000000;stroke-width:1.5;" width="405" x="1609.5" y="502.8906"/><rect fill="none" height="116.2031" style="stroke:#000000;stroke-width:1.5;" width="385" x="1619.5" y="527.0234"/><rect fill="none" height="116.2031" style="stroke:#000000;stroke-width:1.5;" width="379" x="1619.5" y="657.2266"/><rect fill="none" height="116.2031" style="stroke:#000000;stroke-width:1.5;" width="219" x="1619.5" y="787.4297"/><rect fill="none" height="90.2031" style="stroke:#000000;stroke-width:1.5;" width="403" x="10" y="1596.1563"/><line style="stroke:#181818;stroke-width:0.5;stroke-dasharray:5.0,5.0;" x1="93" x2="93" y1="81.2969" y2="1703.3594"/><line style="stroke:#181818;stroke-width:0.5;stroke-dasharray:5.0,5.0;" x1="315" x2="315" y1="81.2969" y2="1703.3594"/><line style="stroke:#181818;stroke-width:0.5;stroke-dasharray:5.0,5.0;" x1="1052" x2="1052" y1="81.2969" y2="1703.3594"/><line style="stroke:#181818;stroke-width:0.5;stroke-dasharray:5.0,5.0;" x1="1686.5" x2="1686.5" y1="81.2969" y2="1703.3594"/><line style="stroke:#181818;stroke-width:0.5;stroke-dasharray:5.0,5.0;" x1="2174" x2="2174" y1="81.2969" y2="1703.3594"/><line style="stroke:#181818;stroke-width:0.5;stroke-dasharray:5.0,5.0;" x1="2453" x2="2453" y1="81.2969" y2="1703.3594"/><line style="stroke:#181818;stroke-width:0.5;stroke-dasharray:5.0,5.0;" x1="2660.5" x2="2660.5" y1="81.2969" y2="1703.3594"/><line style="stroke:#181818;stroke-width:0.5;stroke-dasharray:5.0,5.0;" x1="2937.5" x2="2937.5" y1="81.2969" y2="1703.3594"/><line style="stroke:#181818;stroke-width:0.5;stroke-dasharray:5.0,5.0;" x1="3303.5" x2="3303.5" y1="81.2969" y2="1703.3594"/><text fill="#000000" font-family="sans-serif" font-size="14" lengthAdjust="spacing" textLength="141" x="20" y="77.9951">ETH Metamask User</text><ellipse cx="93.5" cy="13.5" fill="#E2E2F0" rx="8" ry="8" style="stroke:#181818;stroke-width:0.5;"/><path d="M93.5,21.5 L93.5,48.5 M80.5,29.5 L106.5,29.5 M93.5,48.5 L80.5,63.5 M93.5,48.5 L106.5,63.5 " fill="none" style="stroke:#181818;stroke-width:0.5;"/><text fill="#000000" font-family="sans-serif" font-size="14" lengthAdjust="spacing" textLength="141" x="20" y="1715.3545">ETH Metamask User</text><ellipse cx="93.5" cy="1727.1563" fill="#E2E2F0" rx="8" ry="8" style="stroke:#181818;stroke-width:0.5;"/><path d="M93.5,1735.1563 L93.5,1762.1563 M80.5,1743.1563 L106.5,1743.1563 M93.5,1762.1563 L80.5,1777.1563 M93.5,1762.1563 L106.5,1777.1563 " fill="none" style="stroke:#181818;stroke-width:0.5;"/><rect fill="#E2E2F0" height="30.2969" rx="2.5" ry="2.5" style="stroke:#181818;stroke-width:0.5;" width="175" x="228" y="50"/><text fill="#000000" font-family="sans-serif" font-size="14" lengthAdjust="spacing" textLength="161" x="235" y="69.9951">Mangata ETH Contract</text><rect fill="#E2E2F0" height="30.2969" rx="2.5" ry="2.5" style="stroke:#181818;stroke-width:0.5;" width="175" x="228" y="1702.3594"/><text fill="#000000" font-family="sans-serif" font-size="14" lengthAdjust="spacing" textLength="161" x="235" y="1722.3545">Mangata ETH Contract</text><rect fill="#E2E2F0" height="30.2969" rx="2.5" ry="2.5" style="stroke:#181818;stroke-width:0.5;" width="133" x="986" y="50"/><text fill="#000000" font-family="sans-serif" font-size="14" lengthAdjust="spacing" textLength="119" x="993" y="69.9951">Sequencer (Bob)</text><rect fill="#E2E2F0" height="30.2969" rx="2.5" ry="2.5" style="stroke:#181818;stroke-width:0.5;" width="133" x="986" y="1702.3594"/><text fill="#000000" font-family="sans-serif" font-size="14" lengthAdjust="spacing" textLength="119" x="993" y="1722.3545">Sequencer (Bob)</text><rect fill="#E2E2F0" height="30.2969" rx="2.5" ry="2.5" style="stroke:#181818;stroke-width:0.5;" width="114" x="1629.5" y="50"/><text fill="#000000" font-family="sans-serif" font-size="14" lengthAdjust="spacing" textLength="100" x="1636.5" y="69.9951">Collator (Bob)</text><rect fill="#E2E2F0" height="30.2969" rx="2.5" ry="2.5" style="stroke:#181818;stroke-width:0.5;" width="114" x="1629.5" y="1702.3594"/><text fill="#000000" font-family="sans-serif" font-size="14" lengthAdjust="spacing" textLength="100" x="1636.5" y="1722.3545">Collator (Bob)</text><rect fill="#E2E2F0" height="30.2969" rx="2.5" ry="2.5" style="stroke:#181818;stroke-width:0.5;" width="137" x="2106" y="50"/><text fill="#000000" font-family="sans-serif" font-size="14" lengthAdjust="spacing" textLength="123" x="2113" y="69.9951">Mangata Updater</text><rect fill="#E2E2F0" height="30.2969" rx="2.5" ry="2.5" style="stroke:#181818;stroke-width:0.5;" width="137" x="2106" y="1702.3594"/><text fill="#000000" font-family="sans-serif" font-size="14" lengthAdjust="spacing" textLength="123" x="2113" y="1722.3545">Mangata Updater</text><rect fill="#E2E2F0" height="30.2969" rx="2.5" ry="2.5" style="stroke:#181818;stroke-width:0.5;" width="171" x="2368" y="50"/><text fill="#000000" font-family="sans-serif" font-size="14" lengthAdjust="spacing" textLength="157" x="2375" y="69.9951">Eigen Agregator &amp; TM</text><rect fill="#E2E2F0" height="30.2969" rx="2.5" ry="2.5" style="stroke:#181818;stroke-width:0.5;" width="171" x="2368" y="1702.3594"/><text fill="#000000" font-family="sans-serif" font-size="14" lengthAdjust="spacing" textLength="157" x="2375" y="1722.3545">Eigen Agregator &amp; TM</text><rect fill="#E2E2F0" height="30.2969" style="stroke:#181818;stroke-width:0.5;" width="174" x="2575.5" y="46"/><rect fill="#E2E2F0" height="30.2969" style="stroke:#181818;stroke-width:0.5;" width="174" x="2571.5" y="50"/><text fill="#000000" font-family="sans-serif" font-size="14" lengthAdjust="spacing" textLength="160" x="2578.5" y="69.9951">Eigen Operators (AVS)</text><rect fill="#E2E2F0" height="30.2969" style="stroke:#181818;stroke-width:0.5;" width="174" x="2575.5" y="1702.3594"/><rect fill="#E2E2F0" height="30.2969" style="stroke:#181818;stroke-width:0.5;" width="174" x="2571.5" y="1706.3594"/><text fill="#000000" font-family="sans-serif" font-size="14" lengthAdjust="spacing" textLength="160" x="2578.5" y="1726.3545">Eigen Operators (AVS)</text><rect fill="#E2E2F0" height="30.2969" rx="2.5" ry="2.5" style="stroke:#181818;stroke-width:0.5;" width="154" x="2860.5" y="50"/><text fill="#000000" font-family="sans-serif" font-size="14" lengthAdjust="spacing" textLength="140" x="2867.5" y="69.9951">Eigen ETH Contract</text><rect fill="#E2E2F0" height="30.2969" rx="2.5" ry="2.5" style="stroke:#181818;stroke-width:0.5;" width="154" x="2860.5" y="1702.3594"/><text fill="#000000" font-family="sans-serif" font-size="14" lengthAdjust="spacing" textLength="140" x="2867.5" y="1722.3545">Eigen ETH Contract</text><rect fill="#E2E2F0" height="30.2969" rx="2.5" ry="2.5" style="stroke:#181818;stroke-width:0.5;" width="112" x="3247.5" y="50"/><text fill="#000000" font-family="sans-serif" font-size="14" lengthAdjust="spacing" textLength="98" x="3254.5" y="69.9951">Kusama Relay</text><rect fill="#E2E2F0" height="30.2969" rx="2.5" ry="2.5" style="stroke:#181818;stroke-width:0.5;" width="112" x="3247.5" y="1702.3594"/><text fill="#000000" font-family="sans-serif" font-size="14" lengthAdjust="spacing" textLength="98" x="3254.5" y="1722.3545">Kusama Relay</text><polygon fill="#181818" points="303.5,108.4297,313.5,112.4297,303.5,116.4297,307.5,112.4297" style="stroke:#181818;stroke-width:1.0;"/><line style="stroke:#181818;stroke-width:1.0;stroke-dasharray:2.0,2.0;" x1="93.5" x2="309.5" y1="112.4297" y2="112.4297"/><text fill="#000000" font-family="sans-serif" font-size="13" lengthAdjust="spacing" textLength="198" x="100.5" y="107.3638">Trigger deposit of 1 MGR token</text><line style="stroke:#181818;stroke-width:1.0;stroke-dasharray:2.0,2.0;" x1="1686.5" x2="1728.5" y1="141.5625" y2="141.5625"/><line style="stroke:#181818;stroke-width:1.0;stroke-dasharray:2.0,2.0;" x1="1728.5" x2="1728.5" y1="141.5625" y2="154.5625"/><line style="stroke:#181818;stroke-width:1.0;stroke-dasharray:2.0,2.0;" x1="1687.5" x2="1728.5" y1="154.5625" y2="154.5625"/><polygon fill="#181818" points="1697.5,150.5625,1687.5,154.5625,1697.5,158.5625,1693.5,154.5625" style="stroke:#181818;stroke-width:1.0;"/><text fill="#000000" font-family="sans-serif" font-size="13" lengthAdjust="spacing" textLength="429" x="1693.5" y="136.4966">It is collators (Bob) order to produce a block and he just produced it</text><polygon fill="#181818" points="1674.5,179.6953,1684.5,183.6953,1674.5,187.6953,1678.5,183.6953" style="stroke:#181818;stroke-width:1.0;"/><line style="stroke:#181818;stroke-width:1.0;stroke-dasharray:2.0,2.0;" x1="1052.5" x2="1680.5" y1="183.6953" y2="183.6953"/><text fill="#000000" font-family="sans-serif" font-size="13" lengthAdjust="spacing" textLength="366" x="1059.5" y="178.6294">(Subscription) Checks weather my collator just built block</text><polygon fill="#181818" points="1674.5,208.8281,1684.5,212.8281,1674.5,216.8281,1678.5,212.8281" style="stroke:#181818;stroke-width:1.0;"/><line style="stroke:#181818;stroke-width:1.0;stroke-dasharray:2.0,2.0;" x1="1052.5" x2="1680.5" y1="212.8281" y2="212.8281"/><text fill="#000000" font-family="sans-serif" font-size="13" lengthAdjust="spacing" textLength="610" x="1059.5" y="207.7622">Checks the sequencer_latest_processed_block and sequencer_latest_processed_transaction_id</text><polygon fill="#181818" points="326.5,237.9609,316.5,241.9609,326.5,245.9609,322.5,241.9609" style="stroke:#181818;stroke-width:1.0;"/><line style="stroke:#181818;stroke-width:1.0;stroke-dasharray:2.0,2.0;" x1="320.5" x2="1051.5" y1="241.9609" y2="241.9609"/><text fill="#000000" font-family="sans-serif" font-size="13" lengthAdjust="spacing" textLength="713" x="332.5" y="236.895">Read all ETH dep/with based on sequencer_latest_processed_block sequencer_latest_processed_transaction_id</text><polygon fill="#181818" points="1674.5,267.0938,1684.5,271.0938,1674.5,275.0938,1678.5,271.0938" style="stroke:#181818;stroke-width:1.0;"/><line style="stroke:#181818;stroke-width:1.0;stroke-dasharray:2.0,2.0;" x1="1052.5" x2="1680.5" y1="271.0938" y2="271.0938"/><text fill="#000000" font-family="sans-serif" font-size="13" lengthAdjust="spacing" textLength="375" x="1059.5" y="266.0278">Submit provide_l1_read extr. with all fetched ETH dep/with</text><line style="stroke:#181818;stroke-width:1.0;stroke-dasharray:2.0,2.0;" x1="1686.5" x2="1728.5" y1="300.2266" y2="300.2266"/><line style="stroke:#181818;stroke-width:1.0;stroke-dasharray:2.0,2.0;" x1="1728.5" x2="1728.5" y1="300.2266" y2="313.2266"/><line style="stroke:#181818;stroke-width:1.0;stroke-dasharray:2.0,2.0;" x1="1687.5" x2="1728.5" y1="313.2266" y2="313.2266"/><polygon fill="#181818" points="1697.5,309.2266,1687.5,313.2266,1697.5,317.2266,1693.5,313.2266" style="stroke:#181818;stroke-width:1.0;"/><text fill="#000000" font-family="sans-serif" font-size="13" lengthAdjust="spacing" textLength="336" x="1693.5" y="295.1606">Validates if Sequencer have enough Stake to submit</text><line style="stroke:#181818;stroke-width:1.0;stroke-dasharray:2.0,2.0;" x1="1686.5" x2="1728.5" y1="342.3594" y2="342.3594"/><line style="stroke:#181818;stroke-width:1.0;stroke-dasharray:2.0,2.0;" x1="1728.5" x2="1728.5" y1="342.3594" y2="355.3594"/><line style="stroke:#181818;stroke-width:1.0;stroke-dasharray:2.0,2.0;" x1="1687.5" x2="1728.5" y1="355.3594" y2="355.3594"/><polygon fill="#181818" points="1697.5,351.3594,1687.5,355.3594,1697.5,359.3594,1693.5,355.3594" style="stroke:#181818;stroke-width:1.0;"/><text fill="#000000" font-family="sans-serif" font-size="13" lengthAdjust="spacing" textLength="413" x="1693.5" y="337.2935">Removes the READ right from sequencer (node storage update)</text><line style="stroke:#181818;stroke-width:1.0;stroke-dasharray:2.0,2.0;" x1="1686.5" x2="1728.5" y1="384.4922" y2="384.4922"/><line style="stroke:#181818;stroke-width:1.0;stroke-dasharray:2.0,2.0;" x1="1728.5" x2="1728.5" y1="384.4922" y2="397.4922"/><line style="stroke:#181818;stroke-width:1.0;stroke-dasharray:2.0,2.0;" x1="1687.5" x2="1728.5" y1="397.4922" y2="397.4922"/><polygon fill="#181818" points="1697.5,393.4922,1687.5,397.4922,1697.5,401.4922,1693.5,397.4922" style="stroke:#181818;stroke-width:1.0;"/><text fill="#000000" font-family="sans-serif" font-size="13" lengthAdjust="spacing" textLength="474" x="1693.5" y="379.4263">store new value into pending_l1_reads with dispute period (block number)</text><line style="stroke:#181818;stroke-width:1.0;stroke-dasharray:2.0,2.0;" x1="1686.5" x2="1728.5" y1="426.625" y2="426.625"/><line style="stroke:#181818;stroke-width:1.0;stroke-dasharray:2.0,2.0;" x1="1728.5" x2="1728.5" y1="426.625" y2="439.625"/><line style="stroke:#181818;stroke-width:1.0;stroke-dasharray:2.0,2.0;" x1="1687.5" x2="1728.5" y1="439.625" y2="439.625"/><polygon fill="#181818" points="1697.5,435.625,1687.5,439.625,1697.5,443.625,1693.5,439.625" style="stroke:#181818;stroke-width:1.0;"/><text fill="#000000" font-family="sans-serif" font-size="13" lengthAdjust="spacing" textLength="423" x="1693.5" y="421.5591">Returns back the READ right for sequencer (node storage update)</text><path d="M1589.5,454.625 L2120.5,454.625 L2120.5,461.7578 L2110.5,471.7578 L1589.5,471.7578 L1589.5,454.625 " fill="#EEEEEE" style="stroke:#000000;stroke-width:1.5;"/><rect fill="none" height="512.1406" style="stroke:#000000;stroke-width:1.5;" width="536" x="1589.5" y="454.625"/><text fill="#000000" font-family="sans-serif" font-size="13" font-weight="bold" lengthAdjust="spacing" textLength="486" x="1604.5" y="467.6919">Separate action on Collator (maybe will move to separate UML)</text><path d="M1599.5,478.7578 L1677.5,478.7578 L1677.5,485.8906 L1667.5,495.8906 L1599.5,495.8906 L1599.5,478.7578 " fill="#EEEEEE" style="stroke:#000000;stroke-width:1.5;"/><rect fill="none" height="481.0078" style="stroke:#000000;stroke-width:1.5;" width="508" x="1599.5" y="478.7578"/><text fill="#000000" font-family="sans-serif" font-size="13" font-weight="bold" lengthAdjust="spacing" textLength="33" x="1614.5" y="491.8247">loop</text><text fill="#000000" font-family="sans-serif" font-size="11" font-weight="bold" lengthAdjust="spacing" textLength="248" x="1692.5" y="490.9683">[for each block at block_finalization]</text><path d="M1609.5,502.8906 L1687.5,502.8906 L1687.5,510.0234 L1677.5,520.0234 L1609.5,520.0234 L1609.5,502.8906 " fill="#EEEEEE" style="stroke:#000000;stroke-width:1.5;"/><rect fill="none" height="407.7422" style="stroke:#000000;stroke-width:1.5;" width="405" x="1609.5" y="502.8906"/><text fill="#000000" font-family="sans-serif" font-size="13" font-weight="bold" lengthAdjust="spacing" textLength="33" x="1624.5" y="515.9575">loop</text><text fill="#000000" font-family="sans-serif" font-size="11" font-weight="bold" lengthAdjust="spacing" textLength="119" x="1702.5" y="515.1011">[for each l1_read]</text><path d="M1619.5,527.0234 L1685.5,527.0234 L1685.5,534.1563 L1675.5,544.1563 L1619.5,544.1563 L1619.5,527.0234 " fill="#EEEEEE" style="stroke:#000000;stroke-width:1.5;"/><rect fill="none" height="116.2031" style="stroke:#000000;stroke-width:1.5;" width="385" x="1619.5" y="527.0234"/><text fill="#000000" font-family="sans-serif" font-size="13" font-weight="bold" lengthAdjust="spacing" textLength="21" x="1634.5" y="540.0903">alt</text><text fill="#000000" font-family="sans-serif" font-size="11" font-weight="bold" lengthAdjust="spacing" textLength="173" x="1700.5" y="539.2339">[ETH address DOES exists]</text><line style="stroke:#181818;stroke-width:1.0;stroke-dasharray:2.0,2.0;" x1="1686.5" x2="1728.5" y1="565.2891" y2="565.2891"/><line style="stroke:#181818;stroke-width:1.0;stroke-dasharray:2.0,2.0;" x1="1728.5" x2="1728.5" y1="565.2891" y2="578.2891"/><line style="stroke:#181818;stroke-width:1.0;stroke-dasharray:2.0,2.0;" x1="1687.5" x2="1728.5" y1="578.2891" y2="578.2891"/><polygon fill="#181818" points="1697.5,574.2891,1687.5,578.2891,1697.5,582.2891,1693.5,578.2891" style="stroke:#181818;stroke-width:1.0;"/><text fill="#000000" font-family="sans-serif" font-size="13" lengthAdjust="spacing" textLength="238" x="1693.5" y="560.2231">Fetch Mangata version of ETH adress</text><line style="stroke:#000000;stroke-width:1.0;stroke-dasharray:2.0,2.0;" x1="1619.5" x2="2004.5" y1="587.2891" y2="587.2891"/><text fill="#000000" font-family="sans-serif" font-size="11" font-weight="bold" lengthAdjust="spacing" textLength="203" x="1624.5" y="597.4995">[ETH address does NOT exists]</text><line style="stroke:#181818;stroke-width:1.0;stroke-dasharray:2.0,2.0;" x1="1686.5" x2="1728.5" y1="622.2266" y2="622.2266"/><line style="stroke:#181818;stroke-width:1.0;stroke-dasharray:2.0,2.0;" x1="1728.5" x2="1728.5" y1="622.2266" y2="635.2266"/><line style="stroke:#181818;stroke-width:1.0;stroke-dasharray:2.0,2.0;" x1="1687.5" x2="1728.5" y1="635.2266" y2="635.2266"/><polygon fill="#181818" points="1697.5,631.2266,1687.5,635.2266,1697.5,639.2266,1693.5,635.2266" style="stroke:#181818;stroke-width:1.0;"/><text fill="#000000" font-family="sans-serif" font-size="13" lengthAdjust="spacing" textLength="299" x="1693.5" y="617.1606">Creates new ETH compatible Mangata address</text><path d="M1619.5,657.2266 L1685.5,657.2266 L1685.5,664.3594 L1675.5,674.3594 L1619.5,674.3594 L1619.5,657.2266 " fill="#EEEEEE" style="stroke:#000000;stroke-width:1.5;"/><rect fill="none" height="116.2031" style="stroke:#000000;stroke-width:1.5;" width="379" x="1619.5" y="657.2266"/><text fill="#000000" font-family="sans-serif" font-size="13" font-weight="bold" lengthAdjust="spacing" textLength="21" x="1634.5" y="670.2935">alt</text><text fill="#000000" font-family="sans-serif" font-size="11" font-weight="bold" lengthAdjust="spacing" textLength="293" x="1700.5" y="669.437">[ERC20 token DOES exists in Asset Registry]</text><line style="stroke:#181818;stroke-width:1.0;stroke-dasharray:2.0,2.0;" x1="1686.5" x2="1728.5" y1="695.4922" y2="695.4922"/><line style="stroke:#181818;stroke-width:1.0;stroke-dasharray:2.0,2.0;" x1="1728.5" x2="1728.5" y1="695.4922" y2="708.4922"/><line style="stroke:#181818;stroke-width:1.0;stroke-dasharray:2.0,2.0;" x1="1687.5" x2="1728.5" y1="708.4922" y2="708.4922"/><polygon fill="#181818" points="1697.5,704.4922,1687.5,708.4922,1697.5,712.4922,1693.5,708.4922" style="stroke:#181818;stroke-width:1.0;"/><text fill="#000000" font-family="sans-serif" font-size="13" lengthAdjust="spacing" textLength="236" x="1693.5" y="690.4263">Fetch Asset registry version of token</text><line style="stroke:#000000;stroke-width:1.0;stroke-dasharray:2.0,2.0;" x1="1619.5" x2="1998.5" y1="717.4922" y2="717.4922"/><text fill="#000000" font-family="sans-serif" font-size="11" font-weight="bold" lengthAdjust="spacing" textLength="323" x="1624.5" y="727.7026">[ERC20 token does NOT exists in Asset Registry]</text><line style="stroke:#181818;stroke-width:1.0;stroke-dasharray:2.0,2.0;" x1="1686.5" x2="1728.5" y1="752.4297" y2="752.4297"/><line style="stroke:#181818;stroke-width:1.0;stroke-dasharray:2.0,2.0;" x1="1728.5" x2="1728.5" y1="752.4297" y2="765.4297"/><line style="stroke:#181818;stroke-width:1.0;stroke-dasharray:2.0,2.0;" x1="1687.5" x2="1728.5" y1="765.4297" y2="765.4297"/><polygon fill="#181818" points="1697.5,761.4297,1687.5,765.4297,1697.5,769.4297,1693.5,765.4297" style="stroke:#181818;stroke-width:1.0;"/><text fill="#000000" font-family="sans-serif" font-size="13" lengthAdjust="spacing" textLength="284" x="1693.5" y="747.3638">Create a new ERC20 token in Asset Registry</text><path d="M1619.5,787.4297 L1685.5,787.4297 L1685.5,794.5625 L1675.5,804.5625 L1619.5,804.5625 L1619.5,787.4297 " fill="#EEEEEE" style="stroke:#000000;stroke-width:1.5;"/><rect fill="none" height="116.2031" style="stroke:#000000;stroke-width:1.5;" width="219" x="1619.5" y="787.4297"/><text fill="#000000" font-family="sans-serif" font-size="13" font-weight="bold" lengthAdjust="spacing" textLength="21" x="1634.5" y="800.4966">alt</text><text fill="#000000" font-family="sans-serif" font-size="11" font-weight="bold" lengthAdjust="spacing" textLength="133" x="1700.5" y="799.6401">[l1_read is DEPOSIT]</text><line style="stroke:#181818;stroke-width:1.0;stroke-dasharray:2.0,2.0;" x1="1686.5" x2="1728.5" y1="825.6953" y2="825.6953"/><line style="stroke:#181818;stroke-width:1.0;stroke-dasharray:2.0,2.0;" x1="1728.5" x2="1728.5" y1="825.6953" y2="838.6953"/><line style="stroke:#181818;stroke-width:1.0;stroke-dasharray:2.0,2.0;" x1="1687.5" x2="1728.5" y1="838.6953" y2="838.6953"/><polygon fill="#181818" points="1697.5,834.6953,1687.5,838.6953,1697.5,842.6953,1693.5,838.6953" style="stroke:#181818;stroke-width:1.0;"/><text fill="#000000" font-family="sans-serif" font-size="13" lengthAdjust="spacing" textLength="120" x="1693.5" y="820.6294">Mint token for user</text><line style="stroke:#000000;stroke-width:1.0;stroke-dasharray:2.0,2.0;" x1="1619.5" x2="1838.5" y1="847.6953" y2="847.6953"/><text fill="#000000" font-family="sans-serif" font-size="11" font-weight="bold" lengthAdjust="spacing" textLength="165" x="1624.5" y="857.9058">[l1_read is WITHDRAWAL]</text><line style="stroke:#181818;stroke-width:1.0;stroke-dasharray:2.0,2.0;" x1="1686.5" x2="1728.5" y1="882.6328" y2="882.6328"/><line style="stroke:#181818;stroke-width:1.0;stroke-dasharray:2.0,2.0;" x1="1728.5" x2="1728.5" y1="882.6328" y2="895.6328"/><line style="stroke:#181818;stroke-width:1.0;stroke-dasharray:2.0,2.0;" x1="1687.5" x2="1728.5" y1="895.6328" y2="895.6328"/><polygon fill="#181818" points="1697.5,891.6328,1687.5,895.6328,1697.5,899.6328,1693.5,895.6328" style="stroke:#181818;stroke-width:1.0;"/><text fill="#000000" font-family="sans-serif" font-size="13" lengthAdjust="spacing" textLength="123" x="1693.5" y="877.5669">Burn token for user</text><line style="stroke:#181818;stroke-width:1.0;stroke-dasharray:2.0,2.0;" x1="1686.5" x2="1728.5" y1="938.7656" y2="938.7656"/><line style="stroke:#181818;stroke-width:1.0;stroke-dasharray:2.0,2.0;" x1="1728.5" x2="1728.5" y1="938.7656" y2="951.7656"/><line style="stroke:#181818;stroke-width:1.0;stroke-dasharray:2.0,2.0;" x1="1687.5" x2="1728.5" y1="951.7656" y2="951.7656"/><polygon fill="#181818" points="1697.5,947.7656,1687.5,951.7656,1697.5,955.7656,1693.5,951.7656" style="stroke:#181818;stroke-width:1.0;"/><text fill="#000000" font-family="sans-serif" font-size="13" lengthAdjust="spacing" textLength="402" x="1693.5" y="933.6997">Store succesfull WITHDRAWAL or DEPOSIT to pending_updates</text><polygon fill="#181818" points="1697.5,990.8984,1687.5,994.8984,1697.5,998.8984,1693.5,994.8984" style="stroke:#181818;stroke-width:1.0;"/><line style="stroke:#181818;stroke-width:1.0;stroke-dasharray:2.0,2.0;" x1="1691.5" x2="2452.5" y1="994.8984" y2="994.8984"/><text fill="#000000" font-family="sans-serif" font-size="13" lengthAdjust="spacing" textLength="373" x="1703.5" y="989.8325">Reads that new N block(s) was produced by some collator</text><polygon fill="#181818" points="2648.5,1020.0313,2658.5,1024.0313,2648.5,1028.0313,2652.5,1024.0313" style="stroke:#181818;stroke-width:1.0;"/><line style="stroke:#181818;stroke-width:1.0;stroke-dasharray:2.0,2.0;" x1="2453.5" x2="2654.5" y1="1024.0313" y2="1024.0313"/><text fill="#000000" font-family="sans-serif" font-size="13" lengthAdjust="spacing" textLength="183" x="2460.5" y="1018.9653">Submits task: Finalize blocks</text><polygon fill="#181818" points="1697.5,1049.1641,1687.5,1053.1641,1697.5,1057.1641,1693.5,1053.1641" style="stroke:#181818;stroke-width:1.0;"/><line style="stroke:#181818;stroke-width:1.0;stroke-dasharray:2.0,2.0;" x1="1691.5" x2="2659.5" y1="1053.1641" y2="1053.1641"/><text fill="#000000" font-family="sans-serif" font-size="13" lengthAdjust="spacing" textLength="204" x="1703.5" y="1048.0981">Reads pending_updates hashes</text><polygon fill="#181818" points="3291.5,1078.2969,3301.5,1082.2969,3291.5,1086.2969,3295.5,1082.2969" style="stroke:#181818;stroke-width:1.0;"/><line style="stroke:#181818;stroke-width:1.0;stroke-dasharray:2.0,2.0;" x1="2660.5" x2="3297.5" y1="1082.2969" y2="1082.2969"/><text fill="#000000" font-family="sans-serif" font-size="13" lengthAdjust="spacing" textLength="210" x="2667.5" y="1077.231">Check finalisation on Relay chain</text><line style="stroke:#181818;stroke-width:1.0;stroke-dasharray:2.0,2.0;" x1="2660.5" x2="2702.5" y1="1111.4297" y2="1111.4297"/><line style="stroke:#181818;stroke-width:1.0;stroke-dasharray:2.0,2.0;" x1="2702.5" x2="2702.5" y1="1111.4297" y2="1124.4297"/><line style="stroke:#181818;stroke-width:1.0;stroke-dasharray:2.0,2.0;" x1="2661.5" x2="2702.5" y1="1124.4297" y2="1124.4297"/><polygon fill="#181818" points="2671.5,1120.4297,2661.5,1124.4297,2671.5,1128.4297,2667.5,1124.4297" style="stroke:#181818;stroke-width:1.0;"/><text fill="#000000" font-family="sans-serif" font-size="13" lengthAdjust="spacing" textLength="263" x="2667.5" y="1106.3638">(V2) execute try-runtime block validation</text><line style="stroke:#181818;stroke-width:1.0;stroke-dasharray:2.0,2.0;" x1="2660.5" x2="2702.5" y1="1153.5625" y2="1153.5625"/><line style="stroke:#181818;stroke-width:1.0;stroke-dasharray:2.0,2.0;" x1="2702.5" x2="2702.5" y1="1153.5625" y2="1166.5625"/><line style="stroke:#181818;stroke-width:1.0;stroke-dasharray:2.0,2.0;" x1="2661.5" x2="2702.5" y1="1166.5625" y2="1166.5625"/><polygon fill="#181818" points="2671.5,1162.5625,2661.5,1166.5625,2671.5,1170.5625,2667.5,1166.5625" style="stroke:#181818;stroke-width:1.0;"/><text fill="#000000" font-family="sans-serif" font-size="13" lengthAdjust="spacing" textLength="225" x="2667.5" y="1148.4966">Sign the response with operator PK</text><polygon fill="#181818" points="2464.5,1191.6953,2454.5,1195.6953,2464.5,1199.6953,2460.5,1195.6953" style="stroke:#181818;stroke-width:1.0;"/><line style="stroke:#181818;stroke-width:1.0;stroke-dasharray:2.0,2.0;" x1="2458.5" x2="2659.5" y1="1195.6953" y2="1195.6953"/><text fill="#000000" font-family="sans-serif" font-size="13" lengthAdjust="spacing" textLength="135" x="2470.5" y="1190.6294">Returns finished task</text><polygon fill="#181818" points="2925.5,1220.8281,2935.5,1224.8281,2925.5,1228.8281,2929.5,1224.8281" style="stroke:#181818;stroke-width:1.0;"/><line style="stroke:#181818;stroke-width:1.0;stroke-dasharray:2.0,2.0;" x1="2453.5" x2="2931.5" y1="1224.8281" y2="1224.8281"/><text fill="#000000" font-family="sans-serif" font-size="13" lengthAdjust="spacing" textLength="366" x="2460.5" y="1219.7622">Submits TX on ETH Contract with the hashed information</text><line style="stroke:#181818;stroke-width:1.0;stroke-dasharray:2.0,2.0;" x1="2937.5" x2="2979.5" y1="1253.9609" y2="1253.9609"/><line style="stroke:#181818;stroke-width:1.0;stroke-dasharray:2.0,2.0;" x1="2979.5" x2="2979.5" y1="1253.9609" y2="1266.9609"/><line style="stroke:#181818;stroke-width:1.0;stroke-dasharray:2.0,2.0;" x1="2938.5" x2="2979.5" y1="1266.9609" y2="1266.9609"/><polygon fill="#181818" points="2948.5,1262.9609,2938.5,1266.9609,2948.5,1270.9609,2944.5,1266.9609" style="stroke:#181818;stroke-width:1.0;"/><text fill="#000000" font-family="sans-serif" font-size="13" lengthAdjust="spacing" textLength="261" x="2944.5" y="1248.895">Stored block hash in a key-value storage</text><line style="stroke:#181818;stroke-width:1.0;stroke-dasharray:2.0,2.0;" x1="2937.5" x2="2979.5" y1="1296.0938" y2="1296.0938"/><line style="stroke:#181818;stroke-width:1.0;stroke-dasharray:2.0,2.0;" x1="2979.5" x2="2979.5" y1="1296.0938" y2="1309.0938"/><line style="stroke:#181818;stroke-width:1.0;stroke-dasharray:2.0,2.0;" x1="2938.5" x2="2979.5" y1="1309.0938" y2="1309.0938"/><polygon fill="#181818" points="2948.5,1305.0938,2938.5,1309.0938,2948.5,1313.0938,2944.5,1309.0938" style="stroke:#181818;stroke-width:1.0;"/><text fill="#000000" font-family="sans-serif" font-size="13" lengthAdjust="spacing" textLength="352" x="2944.5" y="1291.0278">Stores pending_updates hashes in a key-value storage</text><line style="stroke:#181818;stroke-width:1.0;stroke-dasharray:2.0,2.0;" x1="2937.5" x2="2979.5" y1="1338.2266" y2="1338.2266"/><line style="stroke:#181818;stroke-width:1.0;stroke-dasharray:2.0,2.0;" x1="2979.5" x2="2979.5" y1="1338.2266" y2="1351.2266"/><line style="stroke:#181818;stroke-width:1.0;stroke-dasharray:2.0,2.0;" x1="2938.5" x2="2979.5" y1="1351.2266" y2="1351.2266"/><polygon fill="#181818" points="2948.5,1347.2266,2938.5,1351.2266,2948.5,1355.2266,2944.5,1351.2266" style="stroke:#181818;stroke-width:1.0;"/><text fill="#000000" font-family="sans-serif" font-size="13" lengthAdjust="spacing" textLength="154" x="2944.5" y="1333.1606">Removes old block data</text><polygon fill="#181818" points="2925.5,1376.3594,2935.5,1380.3594,2925.5,1384.3594,2929.5,1380.3594" style="stroke:#181818;stroke-width:1.0;"/><line style="stroke:#181818;stroke-width:1.0;stroke-dasharray:2.0,2.0;" x1="2174.5" x2="2931.5" y1="1380.3594" y2="1380.3594"/><text fill="#000000" font-family="sans-serif" font-size="13" lengthAdjust="spacing" textLength="202" x="2181.5" y="1375.2935">Subscribed for block finalisation</text><line style="stroke:#181818;stroke-width:1.0;stroke-dasharray:2.0,2.0;" x1="2174.5" x2="2216.5" y1="1409.4922" y2="1409.4922"/><line style="stroke:#181818;stroke-width:1.0;stroke-dasharray:2.0,2.0;" x1="2216.5" x2="2216.5" y1="1409.4922" y2="1422.4922"/><line style="stroke:#181818;stroke-width:1.0;stroke-dasharray:2.0,2.0;" x1="2175.5" x2="2216.5" y1="1422.4922" y2="1422.4922"/><polygon fill="#181818" points="2185.5,1418.4922,2175.5,1422.4922,2185.5,1426.4922,2181.5,1422.4922" style="stroke:#181818;stroke-width:1.0;"/><text fill="#000000" font-family="sans-serif" font-size="13" lengthAdjust="spacing" textLength="265" x="2181.5" y="1404.4263">Stores lates finalized block by Eigen layer</text><polygon fill="#181818" points="1697.5,1447.625,1687.5,1451.625,1697.5,1455.625,1693.5,1451.625" style="stroke:#181818;stroke-width:1.0;"/><line style="stroke:#181818;stroke-width:1.0;stroke-dasharray:2.0,2.0;" x1="1691.5" x2="2173.5" y1="1451.625" y2="1451.625"/><text fill="#000000" font-family="sans-serif" font-size="13" lengthAdjust="spacing" textLength="281" x="1703.5" y="1446.5591">Read pending_updates storage with hashes</text><polygon fill="#181818" points="326.5,1476.7578,316.5,1480.7578,326.5,1484.7578,322.5,1480.7578" style="stroke:#181818;stroke-width:1.0;"/><line style="stroke:#181818;stroke-width:1.0;stroke-dasharray:2.0,2.0;" x1="320.5" x2="2173.5" y1="1480.7578" y2="1480.7578"/><text fill="#000000" font-family="sans-serif" font-size="13" lengthAdjust="spacing" textLength="373" x="332.5" y="1475.6919">Executes TX on ETH with all pending_updates with hashes</text><polygon fill="#181818" points="1697.5,1505.8906,1687.5,1509.8906,1697.5,1513.8906,1693.5,1509.8906" style="stroke:#181818;stroke-width:1.0;"/><line style="stroke:#181818;stroke-width:1.0;stroke-dasharray:2.0,2.0;" x1="1691.5" x2="2173.5" y1="1509.8906" y2="1509.8906"/><text fill="#000000" font-family="sans-serif" font-size="13" lengthAdjust="spacing" textLength="291" x="1703.5" y="1504.8247">Execute submited_pending_updates extrinsic</text><line style="stroke:#181818;stroke-width:1.0;stroke-dasharray:2.0,2.0;" x1="1686.5" x2="1728.5" y1="1539.0234" y2="1539.0234"/><line style="stroke:#181818;stroke-width:1.0;stroke-dasharray:2.0,2.0;" x1="1728.5" x2="1728.5" y1="1539.0234" y2="1552.0234"/><line style="stroke:#181818;stroke-width:1.0;stroke-dasharray:2.0,2.0;" x1="1687.5" x2="1728.5" y1="1552.0234" y2="1552.0234"/><polygon fill="#181818" points="1697.5,1548.0234,1687.5,1552.0234,1697.5,1556.0234,1693.5,1552.0234" style="stroke:#181818;stroke-width:1.0;"/><text fill="#000000" font-family="sans-serif" font-size="13" lengthAdjust="spacing" textLength="355" x="1693.5" y="1533.9575">Removes all submited pending_updates based on hash</text><polygon fill="#181818" points="2925.5,1577.1563,2935.5,1581.1563,2925.5,1585.1563,2929.5,1581.1563" style="stroke:#181818;stroke-width:1.0;"/><line style="stroke:#181818;stroke-width:1.0;stroke-dasharray:2.0,2.0;" x1="315.5" x2="2931.5" y1="1581.1563" y2="1581.1563"/><text fill="#000000" font-family="sans-serif" font-size="13" lengthAdjust="spacing" textLength="223" x="322.5" y="1576.0903">Compare pending_updates hashes</text><path d="M10,1596.1563 L76,1596.1563 L76,1603.2891 L66,1613.2891 L10,1613.2891 L10,1596.1563 " fill="#EEEEEE" style="stroke:#000000;stroke-width:1.5;"/><rect fill="none" height="90.2031" style="stroke:#000000;stroke-width:1.5;" width="403" x="10" y="1596.1563"/><text fill="#000000" font-family="sans-serif" font-size="13" font-weight="bold" lengthAdjust="spacing" textLength="21" x="25" y="1609.2231">alt</text><text fill="#000000" font-family="sans-serif" font-size="11" font-weight="bold" lengthAdjust="spacing" textLength="190" x="91" y="1608.3667">[pending_update is DEPOSIT]</text><polygon fill="#181818" points="104.5,1630.4219,94.5,1634.4219,104.5,1638.4219,100.5,1634.4219" style="stroke:#181818;stroke-width:1.0;"/><line style="stroke:#181818;stroke-width:1.0;stroke-dasharray:2.0,2.0;" x1="98.5" x2="314.5" y1="1634.4219" y2="1634.4219"/><text fill="#000000" font-family="sans-serif" font-size="13" lengthAdjust="spacing" textLength="189" x="110.5" y="1629.356">Locks amount to the contract</text><line style="stroke:#000000;stroke-width:1.0;stroke-dasharray:2.0,2.0;" x1="10" x2="413" y1="1643.4219" y2="1643.4219"/><text fill="#000000" font-family="sans-serif" font-size="11" font-weight="bold" lengthAdjust="spacing" textLength="165" x="15" y="1653.6323">[l1_read is WITHDRAWAL]</text><polygon fill="#181818" points="104.5,1674.3594,94.5,1678.3594,104.5,1682.3594,100.5,1678.3594" style="stroke:#181818;stroke-width:1.0;"/><line style="stroke:#181818;stroke-width:1.0;stroke-dasharray:2.0,2.0;" x1="98.5" x2="314.5" y1="1678.3594" y2="1678.3594"/><text fill="#000000" font-family="sans-serif" font-size="13" lengthAdjust="spacing" textLength="193" x="110.5" y="1673.2935">Sends funds to user's address</text><!--SRC=[dLPjRzis4FwkNt7mWCt6a6tjntmOu3ZU6ZHk2jj9zysWfRF4MH8zaahg_lhUaTIROoLP2wIGoRldddlbYTWg3VxVQBx-00kqeX1c3_S6zIZS20CL_OmEGbiPouCeBOmMeao55S1QCrLQBM8xyiA5luh3QHHjrLSONQajN41I9GXFcG9TbGPga9dASy5KVeKL_bTX6QDc95KYaEL76UC8VhgLQMQlyWhxJ5gDCTcO11AcFkqBDvQ2B4d6uIZ2CW6Y6frtzFwG2Cj1uN3uxnF9kKonX6cgCNKcVeRrmecB-YYAs1Z6LYhoFYZS7L3pfO7nz67bEQbmTix0cOWZNpJnxkbyh0nb59QOYsEGrlmTHPnJkBZuypHVbx3MCatfCi63CjA2si4xMFoz1AlsHC1xuLnazVh79TnOa6qyZOynA9qGbbLmq2gfOWG1srp5Un0KxmpXtyhO-Yu1IVNIvEu4VxogjYRMyi3ncy0imtXlu0c5pKYsE3QY7dDRoTnwMuEG0OC0sehPq1qQko5ECHg3oQRb-u8G1QyqmkLs8vCJYyzYl4IHWCXpbquAzEzFqcQm5OH4PVywcHybqhfEmIoaY_oZJ72JlzjeveHVhVuD71kcjqCRPyIfItEm01v4Bhap3CXTfvCpyOY0fQhI35PMx96hmJZpGqXBBDGZ-iGivzDhqDpyiDEgQ5s7SQbed1ZI42c6hfmCGR8OGebFy2XeY80ikIQfwMMPrjuRxtWYpQ6oIBTQgWJ6FkHbLMnHJuOfsqfJMsy5oPxo9kdNQ4UfLjM1maRzImVWCyZ5q0wjGXotD3yb9ORZu-9OozylRWa485Vgu0oYYBEwrK8VR7Qof1nz4mnDiX7Fzxv2Y8IxYS83G6t4-HT9egd4uFfklg8waSQQ804m49I_k7oQEV-8sZYVTW6FuG84vWPxLX95-VzqjtwZfHcnvihZ13DCh8e3kRdDiJ4Va6k3PHA-kcukP-__27EkuoOL2qofkInbEQK3VNoRurv71vsk_yv4p_MEvHFN_xzr7moQj2uQ7UGXfBF1g4S23VNh-UUxrStwDRiBQgfWYGlAhGqT7pk0NsxM7wwNqo_JszSmhwYh1Z3xfEkVqGjWApS4J1NJhDnLr4Oj3tgeQZUXCnbyUnhVB6o2_wBcINys17Y8s8mQZaF_oRVTs4pWYLxUvfNR7i6e0jlTeuzNF__ra2P4Migeg7pteaSrKIrtbiI90pI5JOOdEcuL2AyW-DbWH3rstCu0SIPasTTgwOqVta-eI37cQKdLT45hdPL58CY3bjy3dZK302kPbcvOKcCUQ2b2Fu0RwSyV-vfDdDfvIxIbuIUAOtGIoDvYr4Pp_G_xrrsal5acui949LfIiHMUUm_bB2vNLHASPW3kCm5xF5xujoRC-ZSY3UNkXr7hrrJbDKc25RG2-Zrs85IyQct9BUuwhzMja9vo-6xukvqaY7zh8aDLxrTOgYjguYv0ltYV-L-_bIvBeP2xwi_MgxcloMwgcvNc57m8jEKKqCBEGYlMAGGlJR8qCevUMsYOG0tpZ4cp_haQYg8JjyxbQSRFdCQXRezuZlVl-kFyd0aUiPTmooC6HA4gDzDTSpHYqOlpV1XqHLIeC2h-dp3vy1VJFCnq-Hq0]--></g></svg>