<?xml version="1.0" encoding="us-ascii" standalone="no"?><svg xmlns="http://www.w3.org/2000/svg" xmlns:xlink="http://www.w3.org/1999/xlink" contentStyleType="text/css" height="769px" preserveAspectRatio="none" style="width:2018px;height:769px;background:#FFFFFF;" version="1.1" viewBox="0 0 2018 769" width="2018px" zoomAndPan="magnify"><defs/><g><rect fill="#ADD8E6" height="757.9219" style="stroke:#181818;stroke-width:0.5;" width="555" x="1414.5" y="6"/><text fill="#000000" font-family="sans-serif" font-size="13" font-weight="bold" lengthAdjust="spacing" textLength="110" x="1637" y="18.0669">Mangata Node</text><rect fill="none" height="410.6641" style="stroke:#000000;stroke-width:1.5;" width="1965.5" x="10" y="156.5625"/><line style="stroke:#181818;stroke-width:0.5;stroke-dasharray:5.0,5.0;" x1="77" x2="77" y1="81.2969" y2="684.625"/><line style="stroke:#181818;stroke-width:0.5;stroke-dasharray:5.0,5.0;" x1="362.5" x2="362.5" y1="81.2969" y2="684.625"/><line style="stroke:#181818;stroke-width:0.5;stroke-dasharray:5.0,5.0;" x1="680.5" x2="680.5" y1="81.2969" y2="684.625"/><line style="stroke:#181818;stroke-width:0.5;stroke-dasharray:5.0,5.0;" x1="1213.5" x2="1213.5" y1="81.2969" y2="684.625"/><line style="stroke:#181818;stroke-width:0.5;stroke-dasharray:5.0,5.0;" x1="1348.5" x2="1348.5" y1="81.2969" y2="684.625"/><line style="stroke:#181818;stroke-width:0.5;stroke-dasharray:5.0,5.0;" x1="1485.5" x2="1485.5" y1="81.2969" y2="684.625"/><line style="stroke:#181818;stroke-width:0.5;stroke-dasharray:5.0,5.0;" x1="1877.5" x2="1877.5" y1="81.2969" y2="684.625"/><text fill="#000000" font-family="sans-serif" font-size="14" lengthAdjust="spacing" textLength="109" x="20" y="77.9951">Metamask User</text><ellipse cx="77.5" cy="13.5" fill="#E2E2F0" rx="8" ry="8" style="stroke:#181818;stroke-width:0.5;"/><path d="M77.5,21.5 L77.5,48.5 M64.5,29.5 L90.5,29.5 M77.5,48.5 L64.5,63.5 M77.5,48.5 L90.5,63.5 " fill="none" style="stroke:#181818;stroke-width:0.5;"/><text fill="#000000" font-family="sans-serif" font-size="14" lengthAdjust="spacing" textLength="109" x="20" y="696.6201">Metamask User</text><ellipse cx="77.5" cy="708.4219" fill="#E2E2F0" rx="8" ry="8" style="stroke:#181818;stroke-width:0.5;"/><path d="M77.5,716.4219 L77.5,743.4219 M64.5,724.4219 L90.5,724.4219 M77.5,743.4219 L64.5,758.4219 M77.5,743.4219 L90.5,758.4219 " fill="none" style="stroke:#181818;stroke-width:0.5;"/><rect fill="#E2E2F0" height="30.2969" rx="2.5" ry="2.5" style="stroke:#181818;stroke-width:0.5;" width="168" x="278.5" y="50"/><text fill="#000000" font-family="sans-serif" font-size="14" lengthAdjust="spacing" textLength="154" x="285.5" y="69.9951">app.mangata.finance</text><rect fill="#E2E2F0" height="30.2969" rx="2.5" ry="2.5" style="stroke:#181818;stroke-width:0.5;" width="168" x="278.5" y="683.625"/><text fill="#000000" font-family="sans-serif" font-size="14" lengthAdjust="spacing" textLength="154" x="285.5" y="703.6201">app.mangata.finance</text><rect fill="#E2E2F0" height="30.2969" rx="2.5" ry="2.5" style="stroke:#181818;stroke-width:0.5;" width="44" x="658.5" y="50"/><text fill="#000000" font-family="sans-serif" font-size="14" lengthAdjust="spacing" textLength="30" x="665.5" y="69.9951">SDK</text><rect fill="#E2E2F0" height="30.2969" rx="2.5" ry="2.5" style="stroke:#181818;stroke-width:0.5;" width="44" x="658.5" y="683.625"/><text fill="#000000" font-family="sans-serif" font-size="14" lengthAdjust="spacing" textLength="30" x="665.5" y="703.6201">SDK</text><text fill="#000000" font-family="sans-serif" font-size="14" lengthAdjust="spacing" textLength="124" x="1148.5" y="77.9951">Metamask Wallet</text><ellipse cx="1213.5" cy="13.5" fill="#E2E2F0" rx="8" ry="8" style="stroke:#181818;stroke-width:0.5;"/><path d="M1213.5,21.5 L1213.5,48.5 M1200.5,29.5 L1226.5,29.5 M1213.5,48.5 L1200.5,63.5 M1213.5,48.5 L1226.5,63.5 " fill="none" style="stroke:#181818;stroke-width:0.5;"/><text fill="#000000" font-family="sans-serif" font-size="14" lengthAdjust="spacing" textLength="124" x="1148.5" y="696.6201">Metamask Wallet</text><ellipse cx="1213.5" cy="708.4219" fill="#E2E2F0" rx="8" ry="8" style="stroke:#181818;stroke-width:0.5;"/><path d="M1213.5,716.4219 L1213.5,743.4219 M1200.5,724.4219 L1226.5,724.4219 M1213.5,743.4219 L1200.5,758.4219 M1213.5,743.4219 L1226.5,758.4219 " fill="none" style="stroke:#181818;stroke-width:0.5;"/><text fill="#000000" font-family="sans-serif" font-size="14" lengthAdjust="spacing" textLength="114" x="1288.5" y="77.9951">Polkadot Wallet</text><ellipse cx="1348.5" cy="13.5" fill="#E2E2F0" rx="8" ry="8" style="stroke:#181818;stroke-width:0.5;"/><path d="M1348.5,21.5 L1348.5,48.5 M1335.5,29.5 L1361.5,29.5 M1348.5,48.5 L1335.5,63.5 M1348.5,48.5 L1361.5,63.5 " fill="none" style="stroke:#181818;stroke-width:0.5;"/><text fill="#000000" font-family="sans-serif" font-size="14" lengthAdjust="spacing" textLength="114" x="1288.5" y="696.6201">Polkadot Wallet</text><ellipse cx="1348.5" cy="708.4219" fill="#E2E2F0" rx="8" ry="8" style="stroke:#181818;stroke-width:0.5;"/><path d="M1348.5,716.4219 L1348.5,743.4219 M1335.5,724.4219 L1361.5,724.4219 M1348.5,743.4219 L1335.5,758.4219 M1348.5,743.4219 L1361.5,758.4219 " fill="none" style="stroke:#181818;stroke-width:0.5;"/><rect fill="#E2E2F0" height="30.2969" rx="2.5" ry="2.5" style="stroke:#181818;stroke-width:0.5;" width="135" x="1418.5" y="50"/><text fill="#000000" font-family="sans-serif" font-size="14" lengthAdjust="spacing" textLength="121" x="1425.5" y="69.9951">Mangata RPC API</text><rect fill="#E2E2F0" height="30.2969" rx="2.5" ry="2.5" style="stroke:#181818;stroke-width:0.5;" width="135" x="1418.5" y="683.625"/><text fill="#000000" font-family="sans-serif" font-size="14" lengthAdjust="spacing" textLength="121" x="1425.5" y="703.6201">Mangata RPC API</text><rect fill="#E2E2F0" height="30.2969" rx="2.5" ry="2.5" style="stroke:#181818;stroke-width:0.5;" width="175" x="1790.5" y="50"/><text fill="#000000" font-family="sans-serif" font-size="14" lengthAdjust="spacing" textLength="161" x="1797.5" y="69.9951">Mangata Extrinsics API</text><rect fill="#E2E2F0" height="30.2969" rx="2.5" ry="2.5" style="stroke:#181818;stroke-width:0.5;" width="175" x="1790.5" y="683.625"/><text fill="#000000" font-family="sans-serif" font-size="14" lengthAdjust="spacing" textLength="161" x="1797.5" y="703.6201">Mangata Extrinsics API</text><polygon fill="#181818" points="350.5,108.4297,360.5,112.4297,350.5,116.4297,354.5,112.4297" style="stroke:#181818;stroke-width:1.0;"/><line style="stroke:#181818;stroke-width:1.0;stroke-dasharray:2.0,2.0;" x1="77.5" x2="356.5" y1="112.4297" y2="112.4297"/><text fill="#000000" font-family="sans-serif" font-size="13" lengthAdjust="spacing" textLength="261" x="84.5" y="107.3638">Click wants to SWAP Token A for token B</text><polygon fill="#181818" points="668.5,137.5625,678.5,141.5625,668.5,145.5625,672.5,141.5625" style="stroke:#181818;stroke-width:1.0;"/><line style="stroke:#181818;stroke-width:1.0;stroke-dasharray:2.0,2.0;" x1="362.5" x2="674.5" y1="141.5625" y2="141.5625"/><text fill="#000000" font-family="sans-serif" font-size="13" lengthAdjust="spacing" textLength="294" x="369.5" y="136.4966">sign transaction with unified sign SDK method</text><path d="M10,156.5625 L76,156.5625 L76,163.6953 L66,173.6953 L10,173.6953 L10,156.5625 " fill="#EEEEEE" style="stroke:#000000;stroke-width:1.5;"/><rect fill="none" height="410.6641" style="stroke:#000000;stroke-width:1.5;" width="1965.5" x="10" y="156.5625"/><text fill="#000000" font-family="sans-serif" font-size="13" font-weight="bold" lengthAdjust="spacing" textLength="21" x="25" y="169.6294">alt</text><text fill="#000000" font-family="sans-serif" font-size="11" font-weight="bold" lengthAdjust="spacing" textLength="177" x="91" y="168.7729">[METAMASK wallet is used]</text><polygon fill="#181818" points="1474,190.8281,1484,194.8281,1474,198.8281,1478,194.8281" style="stroke:#181818;stroke-width:1.0;"/><line style="stroke:#181818;stroke-width:1.0;stroke-dasharray:2.0,2.0;" x1="680.5" x2="1480" y1="194.8281" y2="194.8281"/><text fill="#000000" font-family="sans-serif" font-size="13" lengthAdjust="spacing" textLength="334" x="687.5" y="189.7622">Specific API to encode my sign method with params</text><polygon fill="#181818" points="691.5,219.9609,681.5,223.9609,691.5,227.9609,687.5,223.9609" style="stroke:#181818;stroke-width:1.0;"/><line style="stroke:#181818;stroke-width:1.0;stroke-dasharray:2.0,2.0;" x1="685.5" x2="1485" y1="223.9609" y2="223.9609"/><text fill="#000000" font-family="sans-serif" font-size="13" lengthAdjust="spacing" textLength="357" x="697.5" y="218.895">Returns encoded JSON representation of calling method</text><polygon fill="#181818" points="1201.5,249.0938,1211.5,253.0938,1201.5,257.0938,1205.5,253.0938" style="stroke:#181818;stroke-width:1.0;"/><line style="stroke:#181818;stroke-width:1.0;stroke-dasharray:2.0,2.0;" x1="680.5" x2="1207.5" y1="253.0938" y2="253.0938"/><text fill="#000000" font-family="sans-serif" font-size="13" lengthAdjust="spacing" textLength="509" x="687.5" y="248.0278">Request to sign tx with aritrary JSON encoded data received from Mangata RPC</text><polygon fill="#181818" points="88.5,278.2266,78.5,282.2266,88.5,286.2266,84.5,282.2266" style="stroke:#181818;stroke-width:1.0;"/><line style="stroke:#181818;stroke-width:1.0;stroke-dasharray:2.0,2.0;" x1="82.5" x2="1212.5" y1="282.2266" y2="282.2266"/><text fill="#000000" font-family="sans-serif" font-size="13" lengthAdjust="spacing" textLength="171" x="94.5" y="277.1606">Opening the signing popup</text><polygon fill="#181818" points="1201.5,307.3594,1211.5,311.3594,1201.5,315.3594,1205.5,311.3594" style="stroke:#181818;stroke-width:1.0;"/><line style="stroke:#181818;stroke-width:1.0;stroke-dasharray:2.0,2.0;" x1="77.5" x2="1207.5" y1="311.3594" y2="311.3594"/><text fill="#000000" font-family="sans-serif" font-size="13" lengthAdjust="spacing" textLength="76" x="84.5" y="306.2935">Signs the tx</text><polygon fill="#181818" points="691.5,336.4922,681.5,340.4922,691.5,344.4922,687.5,340.4922" style="stroke:#181818;stroke-width:1.0;"/><line style="stroke:#181818;stroke-width:1.0;stroke-dasharray:2.0,2.0;" x1="685.5" x2="1212.5" y1="340.4922" y2="340.4922"/><text fill="#000000" font-family="sans-serif" font-size="13" lengthAdjust="spacing" textLength="107" x="697.5" y="335.4263">Return signature</text><polygon fill="#181818" points="1866,365.625,1876,369.625,1866,373.625,1870,369.625" style="stroke:#181818;stroke-width:1.0;"/><line style="stroke:#181818;stroke-width:1.0;stroke-dasharray:2.0,2.0;" x1="680.5" x2="1872" y1="369.625" y2="369.625"/><text fill="#000000" font-family="sans-serif" font-size="13" lengthAdjust="spacing" textLength="341" x="687.5" y="364.5591">Execute (multy)SWAP with signature from Metamask</text><polygon fill="#181818" points="1497,394.7578,1487,398.7578,1497,402.7578,1493,398.7578" style="stroke:#181818;stroke-width:1.0;"/><line style="stroke:#181818;stroke-width:1.0;stroke-dasharray:2.0,2.0;" x1="1491" x2="1877" y1="398.7578" y2="398.7578"/><text fill="#000000" font-family="sans-serif" font-size="13" lengthAdjust="spacing" textLength="368" x="1503" y="393.6919">Decode the JSON data with same method it was encoded</text><line style="stroke:#000000;stroke-width:1.0;stroke-dasharray:2.0,2.0;" x1="10" x2="1975.5" y1="407.7578" y2="407.7578"/><text fill="#000000" font-family="sans-serif" font-size="11" font-weight="bold" lengthAdjust="spacing" textLength="176" x="15" y="417.9683">[POLKADOT wallet is used]</text><polygon fill="#181818" points="1336.5,438.6953,1346.5,442.6953,1336.5,446.6953,1340.5,442.6953" style="stroke:#181818;stroke-width:1.0;"/><line style="stroke:#181818;stroke-width:1.0;stroke-dasharray:2.0,2.0;" x1="680.5" x2="1342.5" y1="442.6953" y2="442.6953"/><text fill="#000000" font-family="sans-serif" font-size="13" lengthAdjust="spacing" textLength="117" x="687.5" y="437.6294">Request to sign tx</text><polygon fill="#181818" points="88.5,467.8281,78.5,471.8281,88.5,475.8281,84.5,471.8281" style="stroke:#181818;stroke-width:1.0;"/><line style="stroke:#181818;stroke-width:1.0;stroke-dasharray:2.0,2.0;" x1="82.5" x2="1347.5" y1="471.8281" y2="471.8281"/><text fill="#000000" font-family="sans-serif" font-size="13" lengthAdjust="spacing" textLength="127" x="94.5" y="466.7622">Opening sign popup</text><polygon fill="#181818" points="1336.5,496.9609,1346.5,500.9609,1336.5,504.9609,1340.5,500.9609" style="stroke:#181818;stroke-width:1.0;"/><line style="stroke:#181818;stroke-width:1.0;stroke-dasharray:2.0,2.0;" x1="77.5" x2="1342.5" y1="500.9609" y2="500.9609"/><text fill="#000000" font-family="sans-serif" font-size="13" lengthAdjust="spacing" textLength="51" x="84.5" y="495.895">Signs tx</text><polygon fill="#181818" points="691.5,526.0938,681.5,530.0938,691.5,534.0938,687.5,530.0938" style="stroke:#181818;stroke-width:1.0;"/><line style="stroke:#181818;stroke-width:1.0;stroke-dasharray:2.0,2.0;" x1="685.5" x2="1347.5" y1="530.0938" y2="530.0938"/><text fill="#000000" font-family="sans-serif" font-size="13" lengthAdjust="spacing" textLength="113" x="697.5" y="525.0278">Returns sidned tx</text><polygon fill="#181818" points="1866,555.2266,1876,559.2266,1866,563.2266,1870,559.2266" style="stroke:#181818;stroke-width:1.0;"/><line style="stroke:#181818;stroke-width:1.0;stroke-dasharray:2.0,2.0;" x1="680.5" x2="1872" y1="559.2266" y2="559.2266"/><text fill="#000000" font-family="sans-serif" font-size="13" lengthAdjust="spacing" textLength="447" x="687.5" y="554.1606">Execute (multy)SWAP with signature from Polkadot compatible wallet</text><line style="stroke:#181818;stroke-width:1.0;stroke-dasharray:2.0,2.0;" x1="1878" x2="1920" y1="595.3594" y2="595.3594"/><line style="stroke:#181818;stroke-width:1.0;stroke-dasharray:2.0,2.0;" x1="1920" x2="1920" y1="595.3594" y2="608.3594"/><line style="stroke:#181818;stroke-width:1.0;stroke-dasharray:2.0,2.0;" x1="1879" x2="1920" y1="608.3594" y2="608.3594"/><polygon fill="#181818" points="1889,604.3594,1879,608.3594,1889,612.3594,1885,608.3594" style="stroke:#181818;stroke-width:1.0;"/><text fill="#000000" font-family="sans-serif" font-size="13" lengthAdjust="spacing" textLength="126" x="1885" y="590.2935">Executes the SWAP</text><polygon fill="#181818" points="691.5,633.4922,681.5,637.4922,691.5,641.4922,687.5,637.4922" style="stroke:#181818;stroke-width:1.0;"/><line style="stroke:#181818;stroke-width:1.0;stroke-dasharray:2.0,2.0;" x1="685.5" x2="1877" y1="637.4922" y2="637.4922"/><text fill="#000000" font-family="sans-serif" font-size="13" lengthAdjust="spacing" textLength="154" x="697.5" y="632.4263">successfull tx execution</text><polygon fill="#181818" points="88.5,662.625,78.5,666.625,88.5,670.625,84.5,666.625" style="stroke:#181818;stroke-width:1.0;"/><line style="stroke:#181818;stroke-width:1.0;stroke-dasharray:2.0,2.0;" x1="82.5" x2="679.5" y1="666.625" y2="666.625"/><text fill="#000000" font-family="sans-serif" font-size="13" lengthAdjust="spacing" textLength="154" x="94.5" y="661.5591">successfull tx execution</text><!--SRC=[dLD1KkCm4Bph5LFP2tk01-ImLOPmO4D82cUBiv37YIgo9AJnaln-HvAJ60YNzKcMUdgwUoIfo0KetsI193iPT_0dOfWCkp92pxz222y3QQMzj0GJwVrD9-r6ahnfjPLMuIHXUVyJifxDyqbiTaB8Y_rUf358euuTqYViofcTR1nznNfdX7XrU-OhUk39DIpcnwFUREdMzFXHpn7rlBg3QlKmAIp1gykm-pq5RQDMiQ0PYtiIQ1lWfaAaSE3w-bToFeKxezKEtfaX0ZceNweLhDqEBLJGiXlAwrl1u5p4eKmXweq52j96jgoTXNTDM-YjRZKsvPH3JA5iNSEv68B5_RfQLFMSMwKuGESfDG8IOsPcGrEeFIfcKKbwqeDMSJRG7GfhOIpjsBpi8XDmuLdQCr8VR1mA6_XTBvyWe0yOqPBCQbqBYbLekpbAFAlWZKJorcEa9A1OtPUMCcXs7Gw5zTYYIQa7LAZ_ybyRN0UZaJ4tSsRkbFmKbXvjQarRpEnfxPtlFIDFiyaoQZwD6KVx4St8PoQGlCAH1Pxsb6y1gfuGhhhUqE5ddclsSAeOb0vNckkvxZo86URWK_DiDfii1BB3uo0qyJnFOGiq4M6rV9nNi-Nw-qdp0xYKCIFuv49I-VnBH9bbY6XS- -4QHDrO7ae6_5S-fsUiNEVv-hmQ78ob5pLARSnQXfOuHu3oSdgbCCQsDoRTAinulfCZUSNxTy1_]--></g></svg>