<?xml version="1.0" encoding="us-ascii" standalone="no"?><svg xmlns="http://www.w3.org/2000/svg" xmlns:xlink="http://www.w3.org/1999/xlink" contentStyleType="text/css" height="860px" preserveAspectRatio="none" style="width:2546px;height:860px;background:#FFFFFF;" version="1.1" viewBox="0 0 2546 860" width="2546px" zoomAndPan="magnify"><defs/><g><rect fill="#ADD8E6" height="848.25" style="stroke:#181818;stroke-width:0.5;" width="510" x="520" y="6"/><text fill="#000000" font-family="sans-serif" font-size="13" font-weight="bold" lengthAdjust="spacing" textLength="504" x="523" y="18.0669">Bob - dude who runs Mangata Collator + Sequencer as one service</text><line style="stroke:#181818;stroke-width:0.5;stroke-dasharray:5.0,5.0;" x1="39" x2="39" y1="81.2969" y2="774.9531"/><line style="stroke:#181818;stroke-width:0.5;stroke-dasharray:5.0,5.0;" x1="261" x2="261" y1="81.2969" y2="774.9531"/><line style="stroke:#181818;stroke-width:0.5;stroke-dasharray:5.0,5.0;" x1="641.25" x2="641.25" y1="81.2969" y2="774.9531"/><line style="stroke:#181818;stroke-width:0.5;stroke-dasharray:5.0,5.0;" x1="917.75" x2="917.75" y1="81.2969" y2="774.9531"/><line style="stroke:#181818;stroke-width:0.5;stroke-dasharray:5.0,5.0;" x1="1356.5" x2="1356.5" y1="81.2969" y2="774.9531"/><line style="stroke:#181818;stroke-width:0.5;stroke-dasharray:5.0,5.0;" x1="1635.5" x2="1635.5" y1="81.2969" y2="774.9531"/><line style="stroke:#181818;stroke-width:0.5;stroke-dasharray:5.0,5.0;" x1="1843" x2="1843" y1="81.2969" y2="774.9531"/><line style="stroke:#181818;stroke-width:0.5;stroke-dasharray:5.0,5.0;" x1="2154" x2="2154" y1="81.2969" y2="774.9531"/><line style="stroke:#181818;stroke-width:0.5;stroke-dasharray:5.0,5.0;" x1="2484" x2="2484" y1="81.2969" y2="774.9531"/><text fill="#000000" font-family="sans-serif" font-size="14" lengthAdjust="spacing" textLength="63" x="5" y="77.9951">ETH User</text><ellipse cx="39.5" cy="13.5" fill="#E2E2F0" rx="8" ry="8" style="stroke:#181818;stroke-width:0.5;"/><path d="M39.5,21.5 L39.5,48.5 M26.5,29.5 L52.5,29.5 M39.5,48.5 L26.5,63.5 M39.5,48.5 L52.5,63.5 " fill="none" style="stroke:#181818;stroke-width:0.5;"/><text fill="#000000" font-family="sans-serif" font-size="14" lengthAdjust="spacing" textLength="63" x="5" y="786.9482">ETH User</text><ellipse cx="39.5" cy="798.75" fill="#E2E2F0" rx="8" ry="8" style="stroke:#181818;stroke-width:0.5;"/><path d="M39.5,806.75 L39.5,833.75 M26.5,814.75 L52.5,814.75 M39.5,833.75 L26.5,848.75 M39.5,833.75 L52.5,848.75 " fill="none" style="stroke:#181818;stroke-width:0.5;"/><rect fill="#E2E2F0" height="30.2969" rx="2.5" ry="2.5" style="stroke:#181818;stroke-width:0.5;" width="175" x="174" y="50"/><text fill="#000000" font-family="sans-serif" font-size="14" lengthAdjust="spacing" textLength="161" x="181" y="69.9951">Mangata ETH Contract</text><rect fill="#E2E2F0" height="30.2969" rx="2.5" ry="2.5" style="stroke:#181818;stroke-width:0.5;" width="175" x="174" y="773.9531"/><text fill="#000000" font-family="sans-serif" font-size="14" lengthAdjust="spacing" textLength="161" x="181" y="793.9482">Mangata ETH Contract</text><rect fill="#E2E2F0" height="30.2969" rx="2.5" ry="2.5" style="stroke:#181818;stroke-width:0.5;" width="133" x="575.25" y="50"/><text fill="#000000" font-family="sans-serif" font-size="14" lengthAdjust="spacing" textLength="119" x="582.25" y="69.9951">Sequencer (Bob)</text><rect fill="#E2E2F0" height="30.2969" rx="2.5" ry="2.5" style="stroke:#181818;stroke-width:0.5;" width="133" x="575.25" y="773.9531"/><text fill="#000000" font-family="sans-serif" font-size="14" lengthAdjust="spacing" textLength="119" x="582.25" y="793.9482">Sequencer (Bob)</text><rect fill="#E2E2F0" height="30.2969" rx="2.5" ry="2.5" style="stroke:#181818;stroke-width:0.5;" width="114" x="860.75" y="50"/><text fill="#000000" font-family="sans-serif" font-size="14" lengthAdjust="spacing" textLength="100" x="867.75" y="69.9951">Collator (Bob)</text><rect fill="#E2E2F0" height="30.2969" rx="2.5" ry="2.5" style="stroke:#181818;stroke-width:0.5;" width="114" x="860.75" y="773.9531"/><text fill="#000000" font-family="sans-serif" font-size="14" lengthAdjust="spacing" textLength="100" x="867.75" y="793.9482">Collator (Bob)</text><rect fill="#E2E2F0" height="30.2969" rx="2.5" ry="2.5" style="stroke:#181818;stroke-width:0.5;" width="137" x="1288.5" y="50"/><text fill="#000000" font-family="sans-serif" font-size="14" lengthAdjust="spacing" textLength="123" x="1295.5" y="69.9951">Mangata Updater</text><rect fill="#E2E2F0" height="30.2969" rx="2.5" ry="2.5" style="stroke:#181818;stroke-width:0.5;" width="137" x="1288.5" y="773.9531"/><text fill="#000000" font-family="sans-serif" font-size="14" lengthAdjust="spacing" textLength="123" x="1295.5" y="793.9482">Mangata Updater</text><rect fill="#E2E2F0" height="30.2969" rx="2.5" ry="2.5" style="stroke:#181818;stroke-width:0.5;" width="171" x="1550.5" y="50"/><text fill="#000000" font-family="sans-serif" font-size="14" lengthAdjust="spacing" textLength="157" x="1557.5" y="69.9951">Eigen Agregator &amp; TM</text><rect fill="#E2E2F0" height="30.2969" rx="2.5" ry="2.5" style="stroke:#181818;stroke-width:0.5;" width="171" x="1550.5" y="773.9531"/><text fill="#000000" font-family="sans-serif" font-size="14" lengthAdjust="spacing" textLength="157" x="1557.5" y="793.9482">Eigen Agregator &amp; TM</text><rect fill="#E2E2F0" height="30.2969" style="stroke:#181818;stroke-width:0.5;" width="174" x="1758" y="46"/><rect fill="#E2E2F0" height="30.2969" style="stroke:#181818;stroke-width:0.5;" width="174" x="1754" y="50"/><text fill="#000000" font-family="sans-serif" font-size="14" lengthAdjust="spacing" textLength="160" x="1761" y="69.9951">Eigen Operators (AVS)</text><rect fill="#E2E2F0" height="30.2969" style="stroke:#181818;stroke-width:0.5;" width="174" x="1758" y="773.9531"/><rect fill="#E2E2F0" height="30.2969" style="stroke:#181818;stroke-width:0.5;" width="174" x="1754" y="777.9531"/><text fill="#000000" font-family="sans-serif" font-size="14" lengthAdjust="spacing" textLength="160" x="1761" y="797.9482">Eigen Operators (AVS)</text><rect fill="#E2E2F0" height="30.2969" rx="2.5" ry="2.5" style="stroke:#181818;stroke-width:0.5;" width="154" x="2077" y="50"/><text fill="#000000" font-family="sans-serif" font-size="14" lengthAdjust="spacing" textLength="140" x="2084" y="69.9951">Eigen ETH Contract</text><rect fill="#E2E2F0" height="30.2969" rx="2.5" ry="2.5" style="stroke:#181818;stroke-width:0.5;" width="154" x="2077" y="773.9531"/><text fill="#000000" font-family="sans-serif" font-size="14" lengthAdjust="spacing" textLength="140" x="2084" y="793.9482">Eigen ETH Contract</text><rect fill="#E2E2F0" height="30.2969" rx="2.5" ry="2.5" style="stroke:#181818;stroke-width:0.5;" width="112" x="2428" y="50"/><text fill="#000000" font-family="sans-serif" font-size="14" lengthAdjust="spacing" textLength="98" x="2435" y="69.9951">Kusama Relay</text><rect fill="#E2E2F0" height="30.2969" rx="2.5" ry="2.5" style="stroke:#181818;stroke-width:0.5;" width="112" x="2428" y="773.9531"/><text fill="#000000" font-family="sans-serif" font-size="14" lengthAdjust="spacing" textLength="98" x="2435" y="793.9482">Kusama Relay</text><polygon fill="#181818" points="249.5,108.4297,259.5,112.4297,249.5,116.4297,253.5,112.4297" style="stroke:#181818;stroke-width:1.0;"/><line style="stroke:#181818;stroke-width:1.0;stroke-dasharray:2.0,2.0;" x1="39.5" x2="255.5" y1="112.4297" y2="112.4297"/><text fill="#000000" font-family="sans-serif" font-size="13" lengthAdjust="spacing" textLength="198" x="46.5" y="107.3638">Trigger deposit of 1 MGA token</text><line style="stroke:#181818;stroke-width:1.0;stroke-dasharray:2.0,2.0;" x1="917.75" x2="959.75" y1="141.5625" y2="141.5625"/><line style="stroke:#181818;stroke-width:1.0;stroke-dasharray:2.0,2.0;" x1="959.75" x2="959.75" y1="141.5625" y2="154.5625"/><line style="stroke:#181818;stroke-width:1.0;stroke-dasharray:2.0,2.0;" x1="918.75" x2="959.75" y1="154.5625" y2="154.5625"/><polygon fill="#181818" points="928.75,150.5625,918.75,154.5625,928.75,158.5625,924.75,154.5625" style="stroke:#181818;stroke-width:1.0;"/><text fill="#000000" font-family="sans-serif" font-size="13" lengthAdjust="spacing" textLength="256" x="924.75" y="136.4966">It is collators (Bob) order to build a block</text><polygon fill="#181818" points="272.5,179.6953,262.5,183.6953,272.5,187.6953,268.5,183.6953" style="stroke:#181818;stroke-width:1.0;"/><line style="stroke:#181818;stroke-width:1.0;stroke-dasharray:2.0,2.0;" x1="266.5" x2="640.75" y1="183.6953" y2="183.6953"/><text fill="#000000" font-family="sans-serif" font-size="13" lengthAdjust="spacing" textLength="305" x="278.5" y="178.6294">Sequencer (Bob) will read ETH contract updates</text><polygon fill="#181818" points="905.75,208.8281,915.75,212.8281,905.75,216.8281,909.75,212.8281" style="stroke:#181818;stroke-width:1.0;"/><line style="stroke:#181818;stroke-width:1.0;stroke-dasharray:2.0,2.0;" x1="641.75" x2="911.75" y1="212.8281" y2="212.8281"/><text fill="#000000" font-family="sans-serif" font-size="13" lengthAdjust="spacing" textLength="252" x="648.75" y="207.7622">Submit Extrinsic with new ETH deposits</text><line style="stroke:#181818;stroke-width:1.0;stroke-dasharray:2.0,2.0;" x1="917.75" x2="959.75" y1="241.9609" y2="241.9609"/><line style="stroke:#181818;stroke-width:1.0;stroke-dasharray:2.0,2.0;" x1="959.75" x2="959.75" y1="241.9609" y2="254.9609"/><line style="stroke:#181818;stroke-width:1.0;stroke-dasharray:2.0,2.0;" x1="918.75" x2="959.75" y1="254.9609" y2="254.9609"/><polygon fill="#181818" points="928.75,250.9609,918.75,254.9609,928.75,258.9609,924.75,254.9609" style="stroke:#181818;stroke-width:1.0;"/><text fill="#000000" font-family="sans-serif" font-size="13" lengthAdjust="spacing" textLength="204" x="924.75" y="236.895">Collator (Bob) will produce block</text><polygon fill="#181818" points="928.75,280.0938,918.75,284.0938,928.75,288.0938,924.75,284.0938" style="stroke:#181818;stroke-width:1.0;"/><line style="stroke:#181818;stroke-width:1.0;stroke-dasharray:2.0,2.0;" x1="922.75" x2="1635" y1="284.0938" y2="284.0938"/><text fill="#000000" font-family="sans-serif" font-size="13" lengthAdjust="spacing" textLength="373" x="934.75" y="279.0278">Reads that new N block(s) was produced by some collator</text><polygon fill="#181818" points="1831,309.2266,1841,313.2266,1831,317.2266,1835,313.2266" style="stroke:#181818;stroke-width:1.0;"/><line style="stroke:#181818;stroke-width:1.0;stroke-dasharray:2.0,2.0;" x1="1636" x2="1837" y1="313.2266" y2="313.2266"/><text fill="#000000" font-family="sans-serif" font-size="13" lengthAdjust="spacing" textLength="183" x="1643" y="308.1606">Submits task: Finalize blocks</text><polygon fill="#181818" points="2472,338.3594,2482,342.3594,2472,346.3594,2476,342.3594" style="stroke:#181818;stroke-width:1.0;"/><line style="stroke:#181818;stroke-width:1.0;stroke-dasharray:2.0,2.0;" x1="1843" x2="2478" y1="342.3594" y2="342.3594"/><text fill="#000000" font-family="sans-serif" font-size="13" lengthAdjust="spacing" textLength="210" x="1850" y="337.2935">Check finalisation on Relay chain</text><line style="stroke:#181818;stroke-width:1.0;stroke-dasharray:2.0,2.0;" x1="1843" x2="1885" y1="371.4922" y2="371.4922"/><line style="stroke:#181818;stroke-width:1.0;stroke-dasharray:2.0,2.0;" x1="1885" x2="1885" y1="371.4922" y2="384.4922"/><line style="stroke:#181818;stroke-width:1.0;stroke-dasharray:2.0,2.0;" x1="1844" x2="1885" y1="384.4922" y2="384.4922"/><polygon fill="#181818" points="1854,380.4922,1844,384.4922,1854,388.4922,1850,384.4922" style="stroke:#181818;stroke-width:1.0;"/><text fill="#000000" font-family="sans-serif" font-size="13" lengthAdjust="spacing" textLength="297" x="1850" y="366.4263">(optional) execute try-runtime block validation</text><line style="stroke:#181818;stroke-width:1.0;stroke-dasharray:2.0,2.0;" x1="1843" x2="1885" y1="413.625" y2="413.625"/><line style="stroke:#181818;stroke-width:1.0;stroke-dasharray:2.0,2.0;" x1="1885" x2="1885" y1="413.625" y2="426.625"/><line style="stroke:#181818;stroke-width:1.0;stroke-dasharray:2.0,2.0;" x1="1844" x2="1885" y1="426.625" y2="426.625"/><polygon fill="#181818" points="1854,422.625,1844,426.625,1854,430.625,1850,426.625" style="stroke:#181818;stroke-width:1.0;"/><text fill="#000000" font-family="sans-serif" font-size="13" lengthAdjust="spacing" textLength="225" x="1850" y="408.5591">Sign the response with operator PK</text><polygon fill="#181818" points="1647,451.7578,1637,455.7578,1647,459.7578,1643,455.7578" style="stroke:#181818;stroke-width:1.0;"/><line style="stroke:#181818;stroke-width:1.0;stroke-dasharray:2.0,2.0;" x1="1641" x2="1842" y1="455.7578" y2="455.7578"/><text fill="#000000" font-family="sans-serif" font-size="13" lengthAdjust="spacing" textLength="135" x="1653" y="450.6919">Returns finished task</text><polygon fill="#181818" points="2142,480.8906,2152,484.8906,2142,488.8906,2146,484.8906" style="stroke:#181818;stroke-width:1.0;"/><line style="stroke:#181818;stroke-width:1.0;stroke-dasharray:2.0,2.0;" x1="1636" x2="2148" y1="484.8906" y2="484.8906"/><text fill="#000000" font-family="sans-serif" font-size="13" lengthAdjust="spacing" textLength="366" x="1643" y="479.8247">Submits TX on ETH Contract with the hashed information</text><line style="stroke:#181818;stroke-width:1.0;stroke-dasharray:2.0,2.0;" x1="2154" x2="2196" y1="514.0234" y2="514.0234"/><line style="stroke:#181818;stroke-width:1.0;stroke-dasharray:2.0,2.0;" x1="2196" x2="2196" y1="514.0234" y2="527.0234"/><line style="stroke:#181818;stroke-width:1.0;stroke-dasharray:2.0,2.0;" x1="2155" x2="2196" y1="527.0234" y2="527.0234"/><polygon fill="#181818" points="2165,523.0234,2155,527.0234,2165,531.0234,2161,527.0234" style="stroke:#181818;stroke-width:1.0;"/><text fill="#000000" font-family="sans-serif" font-size="13" lengthAdjust="spacing" textLength="316" x="2161" y="508.9575">Stored data for each block in a key-value storage</text><line style="stroke:#181818;stroke-width:1.0;stroke-dasharray:2.0,2.0;" x1="2154" x2="2196" y1="556.1563" y2="556.1563"/><line style="stroke:#181818;stroke-width:1.0;stroke-dasharray:2.0,2.0;" x1="2196" x2="2196" y1="556.1563" y2="569.1563"/><line style="stroke:#181818;stroke-width:1.0;stroke-dasharray:2.0,2.0;" x1="2155" x2="2196" y1="569.1563" y2="569.1563"/><polygon fill="#181818" points="2165,565.1563,2155,569.1563,2165,573.1563,2161,569.1563" style="stroke:#181818;stroke-width:1.0;"/><text fill="#000000" font-family="sans-serif" font-size="13" lengthAdjust="spacing" textLength="154" x="2161" y="551.0903">Removes old block data</text><polygon fill="#181818" points="2142,594.2891,2152,598.2891,2142,602.2891,2146,598.2891" style="stroke:#181818;stroke-width:1.0;"/><line style="stroke:#181818;stroke-width:1.0;stroke-dasharray:2.0,2.0;" x1="1357" x2="2148" y1="598.2891" y2="598.2891"/><text fill="#000000" font-family="sans-serif" font-size="13" lengthAdjust="spacing" textLength="202" x="1364" y="593.2231">Subscribed for block finalisation</text><line style="stroke:#181818;stroke-width:1.0;stroke-dasharray:2.0,2.0;" x1="1357" x2="1399" y1="627.4219" y2="627.4219"/><line style="stroke:#181818;stroke-width:1.0;stroke-dasharray:2.0,2.0;" x1="1399" x2="1399" y1="627.4219" y2="640.4219"/><line style="stroke:#181818;stroke-width:1.0;stroke-dasharray:2.0,2.0;" x1="1358" x2="1399" y1="640.4219" y2="640.4219"/><polygon fill="#181818" points="1368,636.4219,1358,640.4219,1368,644.4219,1364,640.4219" style="stroke:#181818;stroke-width:1.0;"/><text fill="#000000" font-family="sans-serif" font-size="13" lengthAdjust="spacing" textLength="265" x="1364" y="622.356">Stores lates finalized block by Eigen layer</text><polygon fill="#181818" points="928.75,665.5547,918.75,669.5547,928.75,673.5547,924.75,669.5547" style="stroke:#181818;stroke-width:1.0;"/><line style="stroke:#181818;stroke-width:1.0;stroke-dasharray:2.0,2.0;" x1="922.75" x2="1356" y1="669.5547" y2="669.5547"/><text fill="#000000" font-family="sans-serif" font-size="13" lengthAdjust="spacing" textLength="364" x="934.75" y="664.4888">Subscribed for deposit event with finished dispute period</text><polygon fill="#181818" points="272.5,694.6875,262.5,698.6875,272.5,702.6875,268.5,698.6875" style="stroke:#181818;stroke-width:1.0;"/><line style="stroke:#181818;stroke-width:1.0;stroke-dasharray:2.0,2.0;" x1="266.5" x2="1356" y1="698.6875" y2="698.6875"/><text fill="#000000" font-family="sans-serif" font-size="13" lengthAdjust="spacing" textLength="640" x="278.5" y="693.6216">Once required block is finilised and there is deposit that needs to be confirmed, executes TX on ETH</text><polygon fill="#181818" points="2142,723.8203,2152,727.8203,2142,731.8203,2146,727.8203" style="stroke:#181818;stroke-width:1.0;"/><line style="stroke:#181818;stroke-width:1.0;stroke-dasharray:2.0,2.0;" x1="261.5" x2="2148" y1="727.8203" y2="727.8203"/><text fill="#000000" font-family="sans-serif" font-size="13" lengthAdjust="spacing" textLength="240" x="268.5" y="722.7544">Confirms that required hashes match</text><polygon fill="#181818" points="50.5,752.9531,40.5,756.9531,50.5,760.9531,46.5,756.9531" style="stroke:#181818;stroke-width:1.0;"/><line style="stroke:#181818;stroke-width:1.0;stroke-dasharray:2.0,2.0;" x1="44.5" x2="260.5" y1="756.9531" y2="756.9531"/><text fill="#000000" font-family="sans-serif" font-size="13" lengthAdjust="spacing" textLength="132" x="56.5" y="751.8872">Deposit is confirmed</text><!--SRC=[XLLDRzim3BthLn0PC6JOSjWrXm5jrtsWwpeqwR2h8Z6s45jo9Jbj-kj7Mh8JUocMaqsJZu_a8oDLT1xIRtQz_WOF0Vqi6sI0bbv58tqqoZJIHfZTIbl8A86ThvoDNgeuIyvr-gIoLOYDUuRPfTl00dIh4PvA1xwr0NgGArTLaXcyXnK-jcWLUaPo5e4oxut26RpvOOeoNbOjZfaS8-QKurqc4Nhhs7d8b7t9KsMJGAk1g8hpXJuqMaPk2hSZFKyyhqs15YuAZqMNuYsiRpjtsPk4u6Ieed5KVGwuQz3pnm3pYz-hnCbbsxa4PpgE_67ezoZcfWsobd2FbJnaRy_FGl1COR7uD9tN4jRU50LzrDYuO2AuBNo4swyN4DsE2AGgkX8vl7zPmlS8vjZFa7eCpcl2YWushQaqIDXKJkt4CA3p72PJXITJLSHSwgx-tYzF8apGZfHMxQQc2gwVepSs64KuiGIBJnrCBZ2yLj1OBOb3uvrk5UOgn33RIUWzKGqGIncxR3-J_pmG2eqWWv3U3X1SZKSHZl5w7VI54A8CkoLyCLPMvYMp2ABtwuAw-HBv4jKEjfrda2mvsgSa152bD7OSTKmrTmrxo-eTu3EgDY94VrZGnaPJvvIm9rJTeRu6ipA5fGOWyGaDwHrJxmVlNpVZoA5oRbviFMq8aJUXf3PnrPFMZ3H_xC_w3rTvkYCfBHCfPGTcxDRvEd4VePp5fNmKe_a4K1YWL6LkWR4avXqU5jIBbWuLUSe2_mzvZxNR8oqvRKD2OdHQo7HLNgakA6ysn8H9fAZJqOw2ytCc7w3Y5SdkBzWd9UcbWqA2e5js2Z3QdzF4_KN0FThSs656seI6jK8pDKwFyFxPxZjQLTB5OslymCUaULD5P99qYsba7jdSPytRXBnOT4vuQ-pM-1hrXrwf9m8GGapodkliLOB8gpfGwgJ2VsLHbMTX-7ekuNDcrfszpEKl]--></g></svg>