<?xml version="1.0" encoding="us-ascii" standalone="no"?><svg xmlns="http://www.w3.org/2000/svg" xmlns:xlink="http://www.w3.org/1999/xlink" contentStyleType="text/css" height="944px" preserveAspectRatio="none" style="width:2551px;height:944px;background:#FFFFFF;" version="1.1" viewBox="0 0 2551 944" width="2551px" zoomAndPan="magnify"><defs/><g><rect fill="#ADD8E6" height="932.5156" style="stroke:#181818;stroke-width:0.5;" width="510" x="559" y="6"/><text fill="#000000" font-family="sans-serif" font-size="13" font-weight="bold" lengthAdjust="spacing" textLength="504" x="562" y="18.0669">Bob - dude who runs Mangata Collator + Sequencer as one service</text><line style="stroke:#181818;stroke-width:0.5;stroke-dasharray:5.0,5.0;" x1="78" x2="78" y1="81.2969" y2="859.2188"/><line style="stroke:#181818;stroke-width:0.5;stroke-dasharray:5.0,5.0;" x1="300" x2="300" y1="81.2969" y2="859.2188"/><line style="stroke:#181818;stroke-width:0.5;stroke-dasharray:5.0,5.0;" x1="680.25" x2="680.25" y1="81.2969" y2="859.2188"/><line style="stroke:#181818;stroke-width:0.5;stroke-dasharray:5.0,5.0;" x1="956.75" x2="956.75" y1="81.2969" y2="859.2188"/><line style="stroke:#181818;stroke-width:0.5;stroke-dasharray:5.0,5.0;" x1="1395.5" x2="1395.5" y1="81.2969" y2="859.2188"/><line style="stroke:#181818;stroke-width:0.5;stroke-dasharray:5.0,5.0;" x1="1674.5" x2="1674.5" y1="81.2969" y2="859.2188"/><line style="stroke:#181818;stroke-width:0.5;stroke-dasharray:5.0,5.0;" x1="1882" x2="1882" y1="81.2969" y2="859.2188"/><line style="stroke:#181818;stroke-width:0.5;stroke-dasharray:5.0,5.0;" x1="2159" x2="2159" y1="81.2969" y2="859.2188"/><line style="stroke:#181818;stroke-width:0.5;stroke-dasharray:5.0,5.0;" x1="2489" x2="2489" y1="81.2969" y2="859.2188"/><text fill="#000000" font-family="sans-serif" font-size="14" lengthAdjust="spacing" textLength="141" x="5" y="77.9951">ETH Metamask User</text><ellipse cx="78.5" cy="13.5" fill="#E2E2F0" rx="8" ry="8" style="stroke:#181818;stroke-width:0.5;"/><path d="M78.5,21.5 L78.5,48.5 M65.5,29.5 L91.5,29.5 M78.5,48.5 L65.5,63.5 M78.5,48.5 L91.5,63.5 " fill="none" style="stroke:#181818;stroke-width:0.5;"/><text fill="#000000" font-family="sans-serif" font-size="14" lengthAdjust="spacing" textLength="141" x="5" y="871.2139">ETH Metamask User</text><ellipse cx="78.5" cy="883.0156" fill="#E2E2F0" rx="8" ry="8" style="stroke:#181818;stroke-width:0.5;"/><path d="M78.5,891.0156 L78.5,918.0156 M65.5,899.0156 L91.5,899.0156 M78.5,918.0156 L65.5,933.0156 M78.5,918.0156 L91.5,933.0156 " fill="none" style="stroke:#181818;stroke-width:0.5;"/><rect fill="#E2E2F0" height="30.2969" rx="2.5" ry="2.5" style="stroke:#181818;stroke-width:0.5;" width="175" x="213" y="50"/><text fill="#000000" font-family="sans-serif" font-size="14" lengthAdjust="spacing" textLength="161" x="220" y="69.9951">Mangata ETH Contract</text><rect fill="#E2E2F0" height="30.2969" rx="2.5" ry="2.5" style="stroke:#181818;stroke-width:0.5;" width="175" x="213" y="858.2188"/><text fill="#000000" font-family="sans-serif" font-size="14" lengthAdjust="spacing" textLength="161" x="220" y="878.2139">Mangata ETH Contract</text><rect fill="#E2E2F0" height="30.2969" rx="2.5" ry="2.5" style="stroke:#181818;stroke-width:0.5;" width="133" x="614.25" y="50"/><text fill="#000000" font-family="sans-serif" font-size="14" lengthAdjust="spacing" textLength="119" x="621.25" y="69.9951">Sequencer (Bob)</text><rect fill="#E2E2F0" height="30.2969" rx="2.5" ry="2.5" style="stroke:#181818;stroke-width:0.5;" width="133" x="614.25" y="858.2188"/><text fill="#000000" font-family="sans-serif" font-size="14" lengthAdjust="spacing" textLength="119" x="621.25" y="878.2139">Sequencer (Bob)</text><rect fill="#E2E2F0" height="30.2969" rx="2.5" ry="2.5" style="stroke:#181818;stroke-width:0.5;" width="114" x="899.75" y="50"/><text fill="#000000" font-family="sans-serif" font-size="14" lengthAdjust="spacing" textLength="100" x="906.75" y="69.9951">Collator (Bob)</text><rect fill="#E2E2F0" height="30.2969" rx="2.5" ry="2.5" style="stroke:#181818;stroke-width:0.5;" width="114" x="899.75" y="858.2188"/><text fill="#000000" font-family="sans-serif" font-size="14" lengthAdjust="spacing" textLength="100" x="906.75" y="878.2139">Collator (Bob)</text><rect fill="#E2E2F0" height="30.2969" rx="2.5" ry="2.5" style="stroke:#181818;stroke-width:0.5;" width="137" x="1327.5" y="50"/><text fill="#000000" font-family="sans-serif" font-size="14" lengthAdjust="spacing" textLength="123" x="1334.5" y="69.9951">Mangata Updater</text><rect fill="#E2E2F0" height="30.2969" rx="2.5" ry="2.5" style="stroke:#181818;stroke-width:0.5;" width="137" x="1327.5" y="858.2188"/><text fill="#000000" font-family="sans-serif" font-size="14" lengthAdjust="spacing" textLength="123" x="1334.5" y="878.2139">Mangata Updater</text><rect fill="#E2E2F0" height="30.2969" rx="2.5" ry="2.5" style="stroke:#181818;stroke-width:0.5;" width="171" x="1589.5" y="50"/><text fill="#000000" font-family="sans-serif" font-size="14" lengthAdjust="spacing" textLength="157" x="1596.5" y="69.9951">Eigen Agregator &amp; TM</text><rect fill="#E2E2F0" height="30.2969" rx="2.5" ry="2.5" style="stroke:#181818;stroke-width:0.5;" width="171" x="1589.5" y="858.2188"/><text fill="#000000" font-family="sans-serif" font-size="14" lengthAdjust="spacing" textLength="157" x="1596.5" y="878.2139">Eigen Agregator &amp; TM</text><rect fill="#E2E2F0" height="30.2969" style="stroke:#181818;stroke-width:0.5;" width="174" x="1797" y="46"/><rect fill="#E2E2F0" height="30.2969" style="stroke:#181818;stroke-width:0.5;" width="174" x="1793" y="50"/><text fill="#000000" font-family="sans-serif" font-size="14" lengthAdjust="spacing" textLength="160" x="1800" y="69.9951">Eigen Operators (AVS)</text><rect fill="#E2E2F0" height="30.2969" style="stroke:#181818;stroke-width:0.5;" width="174" x="1797" y="858.2188"/><rect fill="#E2E2F0" height="30.2969" style="stroke:#181818;stroke-width:0.5;" width="174" x="1793" y="862.2188"/><text fill="#000000" font-family="sans-serif" font-size="14" lengthAdjust="spacing" textLength="160" x="1800" y="882.2139">Eigen Operators (AVS)</text><rect fill="#E2E2F0" height="30.2969" rx="2.5" ry="2.5" style="stroke:#181818;stroke-width:0.5;" width="154" x="2082" y="50"/><text fill="#000000" font-family="sans-serif" font-size="14" lengthAdjust="spacing" textLength="140" x="2089" y="69.9951">Eigen ETH Contract</text><rect fill="#E2E2F0" height="30.2969" rx="2.5" ry="2.5" style="stroke:#181818;stroke-width:0.5;" width="154" x="2082" y="858.2188"/><text fill="#000000" font-family="sans-serif" font-size="14" lengthAdjust="spacing" textLength="140" x="2089" y="878.2139">Eigen ETH Contract</text><rect fill="#E2E2F0" height="30.2969" rx="2.5" ry="2.5" style="stroke:#181818;stroke-width:0.5;" width="112" x="2433" y="50"/><text fill="#000000" font-family="sans-serif" font-size="14" lengthAdjust="spacing" textLength="98" x="2440" y="69.9951">Kusama Relay</text><rect fill="#E2E2F0" height="30.2969" rx="2.5" ry="2.5" style="stroke:#181818;stroke-width:0.5;" width="112" x="2433" y="858.2188"/><text fill="#000000" font-family="sans-serif" font-size="14" lengthAdjust="spacing" textLength="98" x="2440" y="878.2139">Kusama Relay</text><polygon fill="#181818" points="288.5,108.4297,298.5,112.4297,288.5,116.4297,292.5,112.4297" style="stroke:#181818;stroke-width:1.0;"/><line style="stroke:#181818;stroke-width:1.0;stroke-dasharray:2.0,2.0;" x1="78.5" x2="294.5" y1="112.4297" y2="112.4297"/><text fill="#000000" font-family="sans-serif" font-size="13" lengthAdjust="spacing" textLength="198" x="85.5" y="107.3638">Trigger deposit of 1 MGA token</text><line style="stroke:#181818;stroke-width:1.0;stroke-dasharray:2.0,2.0;" x1="956.75" x2="998.75" y1="141.5625" y2="141.5625"/><line style="stroke:#181818;stroke-width:1.0;stroke-dasharray:2.0,2.0;" x1="998.75" x2="998.75" y1="141.5625" y2="154.5625"/><line style="stroke:#181818;stroke-width:1.0;stroke-dasharray:2.0,2.0;" x1="957.75" x2="998.75" y1="154.5625" y2="154.5625"/><polygon fill="#181818" points="967.75,150.5625,957.75,154.5625,967.75,158.5625,963.75,154.5625" style="stroke:#181818;stroke-width:1.0;"/><text fill="#000000" font-family="sans-serif" font-size="13" lengthAdjust="spacing" textLength="256" x="963.75" y="136.4966">It is collators (Bob) order to build a block</text><polygon fill="#181818" points="311.5,179.6953,301.5,183.6953,311.5,187.6953,307.5,183.6953" style="stroke:#181818;stroke-width:1.0;"/><line style="stroke:#181818;stroke-width:1.0;stroke-dasharray:2.0,2.0;" x1="305.5" x2="679.75" y1="183.6953" y2="183.6953"/><text fill="#000000" font-family="sans-serif" font-size="13" lengthAdjust="spacing" textLength="305" x="317.5" y="178.6294">Sequencer (Bob) will read ETH contract updates</text><polygon fill="#181818" points="944.75,208.8281,954.75,212.8281,944.75,216.8281,948.75,212.8281" style="stroke:#181818;stroke-width:1.0;"/><line style="stroke:#181818;stroke-width:1.0;stroke-dasharray:2.0,2.0;" x1="680.75" x2="950.75" y1="212.8281" y2="212.8281"/><text fill="#000000" font-family="sans-serif" font-size="13" lengthAdjust="spacing" textLength="252" x="687.75" y="207.7622">Submit Extrinsic with new ETH deposits</text><line style="stroke:#181818;stroke-width:1.0;stroke-dasharray:2.0,2.0;" x1="956.75" x2="998.75" y1="241.9609" y2="241.9609"/><line style="stroke:#181818;stroke-width:1.0;stroke-dasharray:2.0,2.0;" x1="998.75" x2="998.75" y1="241.9609" y2="254.9609"/><line style="stroke:#181818;stroke-width:1.0;stroke-dasharray:2.0,2.0;" x1="957.75" x2="998.75" y1="254.9609" y2="254.9609"/><polygon fill="#181818" points="967.75,250.9609,957.75,254.9609,967.75,258.9609,963.75,254.9609" style="stroke:#181818;stroke-width:1.0;"/><text fill="#000000" font-family="sans-serif" font-size="13" lengthAdjust="spacing" textLength="350" x="963.75" y="236.895">A new ETH compatible address will be created for user</text><line style="stroke:#181818;stroke-width:1.0;stroke-dasharray:2.0,2.0;" x1="956.75" x2="998.75" y1="284.0938" y2="284.0938"/><line style="stroke:#181818;stroke-width:1.0;stroke-dasharray:2.0,2.0;" x1="998.75" x2="998.75" y1="284.0938" y2="297.0938"/><line style="stroke:#181818;stroke-width:1.0;stroke-dasharray:2.0,2.0;" x1="957.75" x2="998.75" y1="297.0938" y2="297.0938"/><polygon fill="#181818" points="967.75,293.0938,957.75,297.0938,967.75,301.0938,963.75,297.0938" style="stroke:#181818;stroke-width:1.0;"/><text fill="#000000" font-family="sans-serif" font-size="13" lengthAdjust="spacing" textLength="291" x="963.75" y="279.0278">New Token will be registered in asset registry</text><line style="stroke:#181818;stroke-width:1.0;stroke-dasharray:2.0,2.0;" x1="956.75" x2="998.75" y1="326.2266" y2="326.2266"/><line style="stroke:#181818;stroke-width:1.0;stroke-dasharray:2.0,2.0;" x1="998.75" x2="998.75" y1="326.2266" y2="339.2266"/><line style="stroke:#181818;stroke-width:1.0;stroke-dasharray:2.0,2.0;" x1="957.75" x2="998.75" y1="339.2266" y2="339.2266"/><polygon fill="#181818" points="967.75,335.2266,957.75,339.2266,967.75,343.2266,963.75,339.2266" style="stroke:#181818;stroke-width:1.0;"/><text fill="#000000" font-family="sans-serif" font-size="13" lengthAdjust="spacing" textLength="204" x="963.75" y="321.1606">Collator (Bob) will produce block</text><polygon fill="#181818" points="967.75,364.3594,957.75,368.3594,967.75,372.3594,963.75,368.3594" style="stroke:#181818;stroke-width:1.0;"/><line style="stroke:#181818;stroke-width:1.0;stroke-dasharray:2.0,2.0;" x1="961.75" x2="1674" y1="368.3594" y2="368.3594"/><text fill="#000000" font-family="sans-serif" font-size="13" lengthAdjust="spacing" textLength="373" x="973.75" y="363.2935">Reads that new N block(s) was produced by some collator</text><polygon fill="#181818" points="1870,393.4922,1880,397.4922,1870,401.4922,1874,397.4922" style="stroke:#181818;stroke-width:1.0;"/><line style="stroke:#181818;stroke-width:1.0;stroke-dasharray:2.0,2.0;" x1="1675" x2="1876" y1="397.4922" y2="397.4922"/><text fill="#000000" font-family="sans-serif" font-size="13" lengthAdjust="spacing" textLength="183" x="1682" y="392.4263">Submits task: Finalize blocks</text><polygon fill="#181818" points="2477,422.625,2487,426.625,2477,430.625,2481,426.625" style="stroke:#181818;stroke-width:1.0;"/><line style="stroke:#181818;stroke-width:1.0;stroke-dasharray:2.0,2.0;" x1="1882" x2="2483" y1="426.625" y2="426.625"/><text fill="#000000" font-family="sans-serif" font-size="13" lengthAdjust="spacing" textLength="210" x="1889" y="421.5591">Check finalisation on Relay chain</text><line style="stroke:#181818;stroke-width:1.0;stroke-dasharray:2.0,2.0;" x1="1882" x2="1924" y1="455.7578" y2="455.7578"/><line style="stroke:#181818;stroke-width:1.0;stroke-dasharray:2.0,2.0;" x1="1924" x2="1924" y1="455.7578" y2="468.7578"/><line style="stroke:#181818;stroke-width:1.0;stroke-dasharray:2.0,2.0;" x1="1883" x2="1924" y1="468.7578" y2="468.7578"/><polygon fill="#181818" points="1893,464.7578,1883,468.7578,1893,472.7578,1889,468.7578" style="stroke:#181818;stroke-width:1.0;"/><text fill="#000000" font-family="sans-serif" font-size="13" lengthAdjust="spacing" textLength="263" x="1889" y="450.6919">(V2) execute try-runtime block validation</text><line style="stroke:#181818;stroke-width:1.0;stroke-dasharray:2.0,2.0;" x1="1882" x2="1924" y1="497.8906" y2="497.8906"/><line style="stroke:#181818;stroke-width:1.0;stroke-dasharray:2.0,2.0;" x1="1924" x2="1924" y1="497.8906" y2="510.8906"/><line style="stroke:#181818;stroke-width:1.0;stroke-dasharray:2.0,2.0;" x1="1883" x2="1924" y1="510.8906" y2="510.8906"/><polygon fill="#181818" points="1893,506.8906,1883,510.8906,1893,514.8906,1889,510.8906" style="stroke:#181818;stroke-width:1.0;"/><text fill="#000000" font-family="sans-serif" font-size="13" lengthAdjust="spacing" textLength="225" x="1889" y="492.8247">Sign the response with operator PK</text><polygon fill="#181818" points="1686,536.0234,1676,540.0234,1686,544.0234,1682,540.0234" style="stroke:#181818;stroke-width:1.0;"/><line style="stroke:#181818;stroke-width:1.0;stroke-dasharray:2.0,2.0;" x1="1680" x2="1881" y1="540.0234" y2="540.0234"/><text fill="#000000" font-family="sans-serif" font-size="13" lengthAdjust="spacing" textLength="135" x="1692" y="534.9575">Returns finished task</text><polygon fill="#181818" points="2147,565.1563,2157,569.1563,2147,573.1563,2151,569.1563" style="stroke:#181818;stroke-width:1.0;"/><line style="stroke:#181818;stroke-width:1.0;stroke-dasharray:2.0,2.0;" x1="1675" x2="2153" y1="569.1563" y2="569.1563"/><text fill="#000000" font-family="sans-serif" font-size="13" lengthAdjust="spacing" textLength="366" x="1682" y="564.0903">Submits TX on ETH Contract with the hashed information</text><line style="stroke:#181818;stroke-width:1.0;stroke-dasharray:2.0,2.0;" x1="2159" x2="2201" y1="598.2891" y2="598.2891"/><line style="stroke:#181818;stroke-width:1.0;stroke-dasharray:2.0,2.0;" x1="2201" x2="2201" y1="598.2891" y2="611.2891"/><line style="stroke:#181818;stroke-width:1.0;stroke-dasharray:2.0,2.0;" x1="2160" x2="2201" y1="611.2891" y2="611.2891"/><polygon fill="#181818" points="2170,607.2891,2160,611.2891,2170,615.2891,2166,611.2891" style="stroke:#181818;stroke-width:1.0;"/><text fill="#000000" font-family="sans-serif" font-size="13" lengthAdjust="spacing" textLength="316" x="2166" y="593.2231">Stored data for each block in a key-value storage</text><line style="stroke:#181818;stroke-width:1.0;stroke-dasharray:2.0,2.0;" x1="2159" x2="2201" y1="640.4219" y2="640.4219"/><line style="stroke:#181818;stroke-width:1.0;stroke-dasharray:2.0,2.0;" x1="2201" x2="2201" y1="640.4219" y2="653.4219"/><line style="stroke:#181818;stroke-width:1.0;stroke-dasharray:2.0,2.0;" x1="2160" x2="2201" y1="653.4219" y2="653.4219"/><polygon fill="#181818" points="2170,649.4219,2160,653.4219,2170,657.4219,2166,653.4219" style="stroke:#181818;stroke-width:1.0;"/><text fill="#000000" font-family="sans-serif" font-size="13" lengthAdjust="spacing" textLength="154" x="2166" y="635.356">Removes old block data</text><polygon fill="#181818" points="2147,678.5547,2157,682.5547,2147,686.5547,2151,682.5547" style="stroke:#181818;stroke-width:1.0;"/><line style="stroke:#181818;stroke-width:1.0;stroke-dasharray:2.0,2.0;" x1="1396" x2="2153" y1="682.5547" y2="682.5547"/><text fill="#000000" font-family="sans-serif" font-size="13" lengthAdjust="spacing" textLength="202" x="1403" y="677.4888">Subscribed for block finalisation</text><line style="stroke:#181818;stroke-width:1.0;stroke-dasharray:2.0,2.0;" x1="1396" x2="1438" y1="711.6875" y2="711.6875"/><line style="stroke:#181818;stroke-width:1.0;stroke-dasharray:2.0,2.0;" x1="1438" x2="1438" y1="711.6875" y2="724.6875"/><line style="stroke:#181818;stroke-width:1.0;stroke-dasharray:2.0,2.0;" x1="1397" x2="1438" y1="724.6875" y2="724.6875"/><polygon fill="#181818" points="1407,720.6875,1397,724.6875,1407,728.6875,1403,724.6875" style="stroke:#181818;stroke-width:1.0;"/><text fill="#000000" font-family="sans-serif" font-size="13" lengthAdjust="spacing" textLength="265" x="1403" y="706.6216">Stores lates finalized block by Eigen layer</text><polygon fill="#181818" points="967.75,749.8203,957.75,753.8203,967.75,757.8203,963.75,753.8203" style="stroke:#181818;stroke-width:1.0;"/><line style="stroke:#181818;stroke-width:1.0;stroke-dasharray:2.0,2.0;" x1="961.75" x2="1395" y1="753.8203" y2="753.8203"/><text fill="#000000" font-family="sans-serif" font-size="13" lengthAdjust="spacing" textLength="364" x="973.75" y="748.7544">Subscribed for deposit event with finished dispute period</text><polygon fill="#181818" points="311.5,778.9531,301.5,782.9531,311.5,786.9531,307.5,782.9531" style="stroke:#181818;stroke-width:1.0;"/><line style="stroke:#181818;stroke-width:1.0;stroke-dasharray:2.0,2.0;" x1="305.5" x2="1395" y1="782.9531" y2="782.9531"/><text fill="#000000" font-family="sans-serif" font-size="13" lengthAdjust="spacing" textLength="640" x="317.5" y="777.8872">Once required block is finilised and there is deposit that needs to be confirmed, executes TX on ETH</text><polygon fill="#181818" points="2147,808.0859,2157,812.0859,2147,816.0859,2151,812.0859" style="stroke:#181818;stroke-width:1.0;"/><line style="stroke:#181818;stroke-width:1.0;stroke-dasharray:2.0,2.0;" x1="300.5" x2="2153" y1="812.0859" y2="812.0859"/><text fill="#000000" font-family="sans-serif" font-size="13" lengthAdjust="spacing" textLength="240" x="307.5" y="807.02">Confirms that required hashes match</text><polygon fill="#181818" points="89.5,837.2188,79.5,841.2188,89.5,845.2188,85.5,841.2188" style="stroke:#181818;stroke-width:1.0;"/><line style="stroke:#181818;stroke-width:1.0;stroke-dasharray:2.0,2.0;" x1="83.5" x2="299.5" y1="841.2188" y2="841.2188"/><text fill="#000000" font-family="sans-serif" font-size="13" lengthAdjust="spacing" textLength="132" x="95.5" y="836.1528">Deposit is confirmed</text><!--SRC=[XLLDRzim3BthLn0PCAJOSjYEEGn8k-u3NTgXJOjTPOcnXTYIAybfqry_wiDEd2MOJxP4FZwIZpGNtbX8p-HwzGEMw7d3tGOU7Tf9lk4EElfaBRTU2TLoxM6ovBhadaFmkZBQMoxy91atwKhaKyOAymgJIrF036Gd4Lug0xRJ3dgGArFNF53v00_utA4MQ0EIqGWKUQi4Jk3TBrLM_hBkSCnaxp6b61UPXEjFnyP3f6nBbY8VCTGIY2exdUXZAxaFHGdbIEz7bjUgH0sBqc8PGxo7rJAQy_w8iH0CXLU6iiyETotQSEbWkdXwI9nCFZiLu4J5CLmCzHxvt7IEEWhtMFDTjhRXdR7GKvZDlXptQmuhgygIBYMsnYaFPWsVOFbz0TviY43A8gOOtFkFEVpqeFRrTAd6OAmaB6-Ww5GjWKDH6x5XGuDESpZgAhoekYRcNCRyUxlS2NU4jgVqq1KDPN3zwgtIJWd2yHLeV8amEK5tBg75O2bCqtAlYXg1IsdHkSIeG134ogE4DRd7EJa3TajGgrZ0tfDKeHpfY9oLfiuuzFdCxiwXZ0MSe5fhP2Sm5vODSZjolQVgEV0Lzp6jssG_TOH2giWWD08xSAR1_LoCyNffzhKbH5eOS_YcDA_LMsRXM6yNdQBaY7o5OWFhQEbuc08QyQHD41LNUkor3pLz-dm1-8gYymXKdHcj3w-Q70osX2SZtZc01rLgIZtKtBKqV9Y4C5Z_lXbx3Zc7ildEqhWIRUKgAb38zwWeem7SLsRr9-HtEB0fR21IyGYcDEccITn7A2TnAHxvoB2FWjoGYogN80W8DhYRKIqwsffaoKlyF-GzDcQBj75eD1DIGAVja5RScUoSiAh8cazUXqqTEUVtJDv17UOrcxzX7vH4bxORIO56w11WDCo7WVlrX5lKkR13ZwHoRT0AzLGPESBxPzNSqTuWNJntoWvyLEetPKH7d7uCr3ABuRYFckS8mqYPk0UCNYlReFpOA_L008onexYdAdkL8FAG3fIYLC9_rOlg94nOEtFucfd57Pov_0K0]--></g></svg>