<svg xmlns="http://www.w3.org/2000/svg" xmlns:xlink="http://www.w3.org/1999/xlink" contentStyleType="text/css" height="571px" preserveAspectRatio="none" style="width:1834px;height:571px;background:#FFFFFF;" version="1.1" viewBox="0 0 1834 571" width="1834px" zoomAndPan="magnify"><defs/><g><rect fill="#ADD8E6" height="559.2578" style="stroke:#181818;stroke-width:0.5;" width="931.978" x="1" y="6"/><text fill="#000000" font-family="sans-serif" font-size="13" font-weight="bold" lengthAdjust="spacing" textLength="85.998" x="423.99" y="18.0669">Eigen Layer</text><rect fill="#FFFFE0" height="559.2578" style="stroke:#181818;stroke-width:0.5;" width="632.1152" x="1189.1904" y="6"/><text fill="#000000" font-family="sans-serif" font-size="13" font-weight="bold" lengthAdjust="spacing" textLength="108.3672" x="1451.0645" y="18.0669">Gasp Rolldown</text><rect fill="none" height="103.2031" style="stroke:#000000;stroke-width:1.5;" width="644.1152" x="1183.1904" y="406.7578"/><line style="stroke:#181818;stroke-width:0.5;stroke-dasharray:5.0,5.0;" x1="88" x2="88" y1="60.4297" y2="526.9609"/><line style="stroke:#181818;stroke-width:0.5;stroke-dasharray:5.0,5.0;" x1="547.0298" x2="547.0298" y1="60.4297" y2="526.9609"/><line style="stroke:#181818;stroke-width:0.5;stroke-dasharray:5.0,5.0;" x1="683.0259" x2="683.0259" y1="60.4297" y2="526.9609"/><line style="stroke:#181818;stroke-width:0.5;stroke-dasharray:5.0,5.0;" x1="850.2144" x2="850.2144" y1="60.4297" y2="526.9609"/><line style="stroke:#181818;stroke-width:0.5;stroke-dasharray:5.0,5.0;" x1="1280.1904" x2="1280.1904" y1="60.4297" y2="526.9609"/><line style="stroke:#181818;stroke-width:0.5;stroke-dasharray:5.0,5.0;" x1="1765.3965" x2="1765.3965" y1="60.4297" y2="526.9609"/><rect fill="#E2E2F0" height="30.2969" style="stroke:#181818;stroke-width:0.5;" width="163.6934" x="9" y="25.1328"/><rect fill="#E2E2F0" height="30.2969" style="stroke:#181818;stroke-width:0.5;" width="163.6934" x="5" y="29.1328"/><text fill="#000000" font-family="sans-serif" font-size="14" lengthAdjust="spacing" textLength="149.6934" x="12" y="49.1279">Gasp Finelizers (AVS)</text><rect fill="#E2E2F0" height="30.2969" style="stroke:#181818;stroke-width:0.5;" width="163.6934" x="9" y="525.9609"/><rect fill="#E2E2F0" height="30.2969" style="stroke:#181818;stroke-width:0.5;" width="163.6934" x="5" y="529.9609"/><text fill="#000000" font-family="sans-serif" font-size="14" lengthAdjust="spacing" textLength="149.6934" x="12" y="549.9561">Gasp Finelizers (AVS)</text><rect fill="#E2E2F0" height="30.2969" rx="2.5" ry="2.5" style="stroke:#181818;stroke-width:0.5;" width="92.9961" x="501.0298" y="29.1328"/><text fill="#000000" font-family="sans-serif" font-size="14" lengthAdjust="spacing" textLength="78.9961" x="508.0298" y="49.1279">Aggregator</text><rect fill="#E2E2F0" height="30.2969" rx="2.5" ry="2.5" style="stroke:#181818;stroke-width:0.5;" width="92.9961" x="501.0298" y="525.9609"/><text fill="#000000" font-family="sans-serif" font-size="14" lengthAdjust="spacing" textLength="78.9961" x="508.0298" y="545.9561">Aggregator</text><rect fill="#E2E2F0" height="30.2969" rx="2.5" ry="2.5" style="stroke:#181818;stroke-width:0.5;" width="159.1885" x="604.0259" y="29.1328"/><text fill="#000000" font-family="sans-serif" font-size="14" lengthAdjust="spacing" textLength="145.1885" x="611.0259" y="49.1279">Eigen Layer contract</text><rect fill="#E2E2F0" height="30.2969" rx="2.5" ry="2.5" style="stroke:#181818;stroke-width:0.5;" width="159.1885" x="604.0259" y="525.9609"/><text fill="#000000" font-family="sans-serif" font-size="14" lengthAdjust="spacing" textLength="145.1885" x="611.0259" y="545.9561">Eigen Layer contract</text><rect fill="#E2E2F0" height="30.2969" rx="2.5" ry="2.5" style="stroke:#181818;stroke-width:0.5;" width="155.7637" x="773.2144" y="29.1328"/><text fill="#000000" font-family="sans-serif" font-size="14" lengthAdjust="spacing" textLength="141.7637" x="780.2144" y="49.1279">Gasp Eigen contract</text><rect fill="#E2E2F0" height="30.2969" rx="2.5" ry="2.5" style="stroke:#181818;stroke-width:0.5;" width="155.7637" x="773.2144" y="525.9609"/><text fill="#000000" font-family="sans-serif" font-size="14" lengthAdjust="spacing" textLength="141.7637" x="780.2144" y="545.9561">Gasp Eigen contract</text><rect fill="#E2E2F0" height="30.2969" style="stroke:#181818;stroke-width:0.5;" width="170.9736" x="1197.1904" y="25.1328"/><rect fill="#E2E2F0" height="30.2969" style="stroke:#181818;stroke-width:0.5;" width="170.9736" x="1193.1904" y="29.1328"/><text fill="#000000" font-family="sans-serif" font-size="14" lengthAdjust="spacing" textLength="156.9736" x="1200.1904" y="49.1279">L1 Rolldown Contracts</text><rect fill="#E2E2F0" height="30.2969" style="stroke:#181818;stroke-width:0.5;" width="170.9736" x="1197.1904" y="525.9609"/><rect fill="#E2E2F0" height="30.2969" style="stroke:#181818;stroke-width:0.5;" width="170.9736" x="1193.1904" y="529.9609"/><text fill="#000000" font-family="sans-serif" font-size="14" lengthAdjust="spacing" textLength="156.9736" x="1200.1904" y="549.9561">L1 Rolldown Contracts</text><rect fill="#E2E2F0" height="30.2969" style="stroke:#181818;stroke-width:0.5;" width="98.9092" x="1718.3965" y="25.1328"/><rect fill="#E2E2F0" height="30.2969" style="stroke:#181818;stroke-width:0.5;" width="98.9092" x="1714.3965" y="29.1328"/><text fill="#000000" font-family="sans-serif" font-size="14" lengthAdjust="spacing" textLength="84.9092" x="1721.3965" y="49.1279">L1 Updaters</text><rect fill="#E2E2F0" height="30.2969" style="stroke:#181818;stroke-width:0.5;" width="98.9092" x="1718.3965" y="525.9609"/><rect fill="#E2E2F0" height="30.2969" style="stroke:#181818;stroke-width:0.5;" width="98.9092" x="1714.3965" y="529.9609"/><text fill="#000000" font-family="sans-serif" font-size="14" lengthAdjust="spacing" textLength="84.9092" x="1721.3965" y="549.9561">L1 Updaters</text><path d="M362,75.4297 L362,100.4297 L731,100.4297 L731,85.4297 L721,75.4297 L362,75.4297 " fill="#FEFFDD" style="stroke:#181818;stroke-width:0.5;"/><path d="M721,75.4297 L721,85.4297 L731,85.4297 L721,75.4297 " fill="#FEFFDD" style="stroke:#181818;stroke-width:0.5;"/><text fill="#000000" font-family="sans-serif" font-size="13" lengthAdjust="spacing" textLength="348.3149" x="368" y="92.4966">Trigger is: registration event, ejection of the operator</text><polygon fill="#181818" points="99.8467,122.6953,89.8467,126.6953,99.8467,130.6953,95.8467,126.6953" style="stroke:#181818;stroke-width:1;"/><line style="stroke:#181818;stroke-width:1;stroke-dasharray:2.0,2.0;" x1="93.8467" x2="546.5278" y1="126.6953" y2="126.6953"/><text fill="#000000" font-family="sans-serif" font-size="13" lengthAdjust="spacing" textLength="231.0103" x="105.8467" y="121.6294">Creates a task "Share operator list"</text><polygon fill="#181818" points="671.6201,151.8281,681.6201,155.8281,671.6201,159.8281,675.6201,155.8281" style="stroke:#181818;stroke-width:1;"/><line style="stroke:#181818;stroke-width:1;stroke-dasharray:2.0,2.0;" x1="88.8467" x2="677.6201" y1="155.8281" y2="155.8281"/><text fill="#000000" font-family="sans-serif" font-size="13" lengthAdjust="spacing" textLength="448.3857" x="95.8467" y="150.7622">Fetch the the current aggregated BLS key and operators stake value</text><polygon fill="#181818" points="535.5278,180.9609,545.5278,184.9609,535.5278,188.9609,539.5278,184.9609" style="stroke:#181818;stroke-width:1;"/><line style="stroke:#181818;stroke-width:1;stroke-dasharray:2.0,2.0;" x1="88.8467" x2="541.5278" y1="184.9609" y2="184.9609"/><text fill="#000000" font-family="sans-serif" font-size="13" lengthAdjust="spacing" textLength="434.6812" x="95.8467" y="179.895">Signed response of aggregated BLS key and operators stake value</text><path d="M436,197.9609 L436,222.9609 L657,222.9609 L657,207.9609 L647,197.9609 L436,197.9609 " fill="#FEFFDD" style="stroke:#181818;stroke-width:0.5;"/><path d="M647,197.9609 L647,207.9609 L657,207.9609 L647,197.9609 " fill="#FEFFDD" style="stroke:#181818;stroke-width:0.5;"/><text fill="#000000" font-family="sans-serif" font-size="13" lengthAdjust="spacing" textLength="200.2622" x="442" y="215.0278">We will sign with new agg. key</text><polygon fill="#181818" points="839.0962,245.2266,849.0962,249.2266,839.0962,253.2266,843.0962,249.2266" style="stroke:#181818;stroke-width:1;"/><line style="stroke:#181818;stroke-width:1;stroke-dasharray:2.0,2.0;" x1="547.5278" x2="845.0962" y1="249.2266" y2="249.2266"/><text fill="#000000" font-family="sans-serif" font-size="13" lengthAdjust="spacing" textLength="155.5557" x="554.5278" y="244.1606">Signs the task response</text><line style="stroke:#181818;stroke-width:1;" x1="851.0962" x2="893.0962" y1="278.3594" y2="278.3594"/><line style="stroke:#181818;stroke-width:1;" x1="893.0962" x2="893.0962" y1="278.3594" y2="291.3594"/><line style="stroke:#181818;stroke-width:1;" x1="852.0962" x2="893.0962" y1="291.3594" y2="291.3594"/><polygon fill="#181818" points="862.0962,287.3594,852.0962,291.3594,862.0962,295.3594,858.0962,291.3594" style="stroke:#181818;stroke-width:1;"/><text fill="#000000" font-family="sans-serif" font-size="13" lengthAdjust="spacing" textLength="415.5811" x="858.0962" y="273.2935">Verifies the new operator list with quorum threshold and stakes</text><polygon fill="#181818" points="862.0962,316.4922,852.0962,320.4922,862.0962,324.4922,858.0962,320.4922" style="stroke:#181818;stroke-width:1;"/><line style="stroke:#181818;stroke-width:1;" x1="856.0962" x2="1764.8511" y1="320.4922" y2="320.4922"/><text fill="#000000" font-family="sans-serif" font-size="13" lengthAdjust="spacing" textLength="395.2813" x="868.0962" y="315.4263">On operator list change event, fetch the new list information</text><polygon fill="#181818" points="1291.6772,345.625,1281.6772,349.625,1291.6772,353.625,1287.6772,349.625" style="stroke:#181818;stroke-width:1;"/><line style="stroke:#181818;stroke-width:1;" x1="1285.6772" x2="1764.8511" y1="349.625" y2="349.625"/><text fill="#000000" font-family="sans-serif" font-size="13" lengthAdjust="spacing" textLength="163.2808" x="1297.6772" y="344.5591">Submits new information</text><line style="stroke:#181818;stroke-width:1;" x1="1280.6772" x2="1322.6772" y1="378.7578" y2="378.7578"/><line style="stroke:#181818;stroke-width:1;" x1="1322.6772" x2="1322.6772" y1="378.7578" y2="391.7578"/><line style="stroke:#181818;stroke-width:1;" x1="1281.6772" x2="1322.6772" y1="391.7578" y2="391.7578"/><polygon fill="#181818" points="1291.6772,387.7578,1281.6772,391.7578,1291.6772,395.7578,1287.6772,391.7578" style="stroke:#181818;stroke-width:1;"/><text fill="#000000" font-family="sans-serif" font-size="13" lengthAdjust="spacing" textLength="471.1738" x="1287.6772" y="373.6919">Validates the new list with older aggreagated key and stake information</text><path d="M1183.1904,406.7578 L1247.6333,406.7578 L1247.6333,413.8906 L1237.6333,423.8906 L1183.1904,423.8906 L1183.1904,406.7578 " fill="#EEEEEE" style="stroke:#000000;stroke-width:1.5;"/><rect fill="none" height="103.2031" style="stroke:#000000;stroke-width:1.5;" width="644.1152" x="1183.1904" y="406.7578"/><text fill="#000000" font-family="sans-serif" font-size="13" font-weight="bold" lengthAdjust="spacing" textLength="19.4429" x="1198.1904" y="419.8247">alt</text><text fill="#000000" font-family="sans-serif" font-size="11" font-weight="bold" lengthAdjust="spacing" textLength="142.4468" x="1262.6333" y="418.9683">[operator list is VALID]</text><line style="stroke:#181818;stroke-width:1;" x1="1280.6772" x2="1322.6772" y1="445.0234" y2="445.0234"/><line style="stroke:#181818;stroke-width:1;" x1="1322.6772" x2="1322.6772" y1="445.0234" y2="458.0234"/><line style="stroke:#181818;stroke-width:1;" x1="1281.6772" x2="1322.6772" y1="458.0234" y2="458.0234"/><polygon fill="#181818" points="1291.6772,454.0234,1281.6772,458.0234,1291.6772,462.0234,1287.6772,458.0234" style="stroke:#181818;stroke-width:1;"/><text fill="#000000" font-family="sans-serif" font-size="13" lengthAdjust="spacing" textLength="441.4478" x="1287.6772" y="439.9575">Updates the storage with new aggregated key and operator stakes.</text><line style="stroke:#000000;stroke-width:1;stroke-dasharray:2.0,2.0;" x1="1183.1904" x2="1827.3057" y1="467.0234" y2="467.0234"/><text fill="#000000" font-family="sans-serif" font-size="11" font-weight="bold" lengthAdjust="spacing" textLength="155.7456" x="1188.1904" y="477.2339">[operator list is INVALID]</text><polygon fill="#181818" points="1753.8511,497.9609,1763.8511,501.9609,1753.8511,505.9609,1757.8511,501.9609" style="stroke:#181818;stroke-width:1;"/><line style="stroke:#181818;stroke-width:1;" x1="1280.6772" x2="1759.8511" y1="501.9609" y2="501.9609"/><text fill="#000000" font-family="sans-serif" font-size="13" lengthAdjust="spacing" textLength="130.2349" x="1287.6772" y="496.895">Failed tx, no update</text><!--SRC=[bLDDZzCm4BtdLup21QJTbRZsWDHTMBHI11A58evECdLCNJlOJjlbrpEsutoqwO58bL9xtfitRrvAVORya-2ee62lQ79uKmZUk4VPOLPfAR5oGYiBySa_Czl2ir0enLyq5jwkjvjtUN_BBEWM3NFQP2qpJbIYPSebx9fpWzpVJW1iE5o2J9H1fPKph78JCFhhTBw43t8ZoGASq-sS0bKDfJvdMUbz2UXlP4AjJoevymkbrASbRuhtGp4yzOnsEgefGwCRs1zjpHnvEa5qyMYKfRH3q4ToO-8Rm7SZEAT3OLT0fy9IRqyFU4JbxW1_ntQWT-0Q7BVaYJrdDjB1_Vs7eM05JmP90ea7n-mUyat3p4W0adhba0t_FNXcwGgUqLLDQEj_LMSCQHhqOmsFnGRs-0gCn2GY2zQnFSAH-I3Ew4UfAzW8heZ1e6t9JFJp_HVn3Jz_8fo4b629djvS0mfFlkJ1yzrqxIfFKQ2Dmtlxaj3igXIMyLiqOYSmKdWHC-UZjZ-TDjs1AeYzqR8EyuOfRTOdw0RxLtN1LpLCSKonsGsRyvr3WL0xRGuXN5Fk56qQk2iFmjc0c1H3bahcvLicHHq2DciJvg9Hqc9ON6XQPbpXL0kJxc8KOM6xBbu-qZgNMyVlBJQs16CSPxjEARfCK6_jGuRIudNJbozBRNklw6jWGXAfEzzHXFfZ7wX_]--></g></svg>