<svg xmlns="http://www.w3.org/2000/svg" xmlns:xlink="http://www.w3.org/1999/xlink" contentStyleType="text/css" height="613px" preserveAspectRatio="none" style="width:1925px;height:613px;background:#FFFFFF;" version="1.1" viewBox="0 0 1925 613" width="1925px" zoomAndPan="magnify"><defs/><g><rect fill="#ADD8E6" height="601.3906" style="stroke:#181818;stroke-width:0.5;" width="914.5" x="1" y="6"/><text fill="#000000" font-family="sans-serif" font-size="13" font-weight="bold" lengthAdjust="spacing" textLength="86" x="415.25" y="18.0669">Eigen Layer</text><rect fill="#FFFFE0" height="601.3906" style="stroke:#181818;stroke-width:0.5;" width="793.5" x="1118.5" y="6"/><text fill="#000000" font-family="sans-serif" font-size="13" font-weight="bold" lengthAdjust="spacing" textLength="110" x="1460.25" y="18.0669">Gasp Rolldown</text><rect fill="none" height="103.2031" style="stroke:#000000;stroke-width:1.5;" width="805.5" x="1112.5" y="448.8906"/><line style="stroke:#181818;stroke-width:0.5;stroke-dasharray:5.0,5.0;" x1="87" x2="87" y1="60.4297" y2="569.0938"/><line style="stroke:#181818;stroke-width:0.5;stroke-dasharray:5.0,5.0;" x1="537.5" x2="537.5" y1="60.4297" y2="569.0938"/><line style="stroke:#181818;stroke-width:0.5;stroke-dasharray:5.0,5.0;" x1="670.5" x2="670.5" y1="60.4297" y2="569.0938"/><line style="stroke:#181818;stroke-width:0.5;stroke-dasharray:5.0,5.0;" x1="834.5" x2="834.5" y1="60.4297" y2="569.0938"/><line style="stroke:#181818;stroke-width:0.5;stroke-dasharray:5.0,5.0;" x1="1224.5" x2="1224.5" y1="60.4297" y2="569.0938"/><line style="stroke:#181818;stroke-width:0.5;stroke-dasharray:5.0,5.0;" x1="1694" x2="1694" y1="60.4297" y2="569.0938"/><line style="stroke:#181818;stroke-width:0.5;stroke-dasharray:5.0,5.0;" x1="1832" x2="1832" y1="60.4297" y2="569.0938"/><rect fill="#E2E2F0" height="30.2969" style="stroke:#181818;stroke-width:0.5;" width="160" x="9" y="25.1328"/><rect fill="#E2E2F0" height="30.2969" style="stroke:#181818;stroke-width:0.5;" width="160" x="5" y="29.1328"/><text fill="#000000" font-family="sans-serif" font-size="14" lengthAdjust="spacing" textLength="146" x="12" y="49.1279">Gasp Finelizers (AVS)</text><rect fill="#E2E2F0" height="30.2969" style="stroke:#181818;stroke-width:0.5;" width="160" x="9" y="568.0938"/><rect fill="#E2E2F0" height="30.2969" style="stroke:#181818;stroke-width:0.5;" width="160" x="5" y="572.0938"/><text fill="#000000" font-family="sans-serif" font-size="14" lengthAdjust="spacing" textLength="146" x="12" y="592.0889">Gasp Finelizers (AVS)</text><rect fill="#E2E2F0" height="30.2969" rx="2.5" ry="2.5" style="stroke:#181818;stroke-width:0.5;" width="91" x="492.5" y="29.1328"/><text fill="#000000" font-family="sans-serif" font-size="14" lengthAdjust="spacing" textLength="77" x="499.5" y="49.1279">Aggregator</text><rect fill="#E2E2F0" height="30.2969" rx="2.5" ry="2.5" style="stroke:#181818;stroke-width:0.5;" width="91" x="492.5" y="568.0938"/><text fill="#000000" font-family="sans-serif" font-size="14" lengthAdjust="spacing" textLength="77" x="499.5" y="588.0889">Aggregator</text><rect fill="#E2E2F0" height="30.2969" rx="2.5" ry="2.5" style="stroke:#181818;stroke-width:0.5;" width="154" x="593.5" y="29.1328"/><text fill="#000000" font-family="sans-serif" font-size="14" lengthAdjust="spacing" textLength="140" x="600.5" y="49.1279">Eigen Layer contract</text><rect fill="#E2E2F0" height="30.2969" rx="2.5" ry="2.5" style="stroke:#181818;stroke-width:0.5;" width="154" x="593.5" y="568.0938"/><text fill="#000000" font-family="sans-serif" font-size="14" lengthAdjust="spacing" textLength="140" x="600.5" y="588.0889">Eigen Layer contract</text><rect fill="#E2E2F0" height="30.2969" rx="2.5" ry="2.5" style="stroke:#181818;stroke-width:0.5;" width="154" x="757.5" y="29.1328"/><text fill="#000000" font-family="sans-serif" font-size="14" lengthAdjust="spacing" textLength="140" x="764.5" y="49.1279">Gasp Eigen contract</text><rect fill="#E2E2F0" height="30.2969" rx="2.5" ry="2.5" style="stroke:#181818;stroke-width:0.5;" width="154" x="757.5" y="568.0938"/><text fill="#000000" font-family="sans-serif" font-size="14" lengthAdjust="spacing" textLength="140" x="764.5" y="588.0889">Gasp Eigen contract</text><rect fill="#E2E2F0" height="30.2969" style="stroke:#181818;stroke-width:0.5;" width="200" x="1126.5" y="25.1328"/><rect fill="#E2E2F0" height="30.2969" style="stroke:#181818;stroke-width:0.5;" width="200" x="1122.5" y="29.1328"/><text fill="#000000" font-family="sans-serif" font-size="14" lengthAdjust="spacing" textLength="186" x="1129.5" y="49.1279">Arbitrum OR Gasp Contract</text><rect fill="#E2E2F0" height="30.2969" style="stroke:#181818;stroke-width:0.5;" width="200" x="1126.5" y="568.0938"/><rect fill="#E2E2F0" height="30.2969" style="stroke:#181818;stroke-width:0.5;" width="200" x="1122.5" y="572.0938"/><text fill="#000000" font-family="sans-serif" font-size="14" lengthAdjust="spacing" textLength="186" x="1129.5" y="592.0889">Arbitrum OR Gasp Contract</text><rect fill="#E2E2F0" height="30.2969" style="stroke:#181818;stroke-width:0.5;" width="99" x="1647" y="25.1328"/><rect fill="#E2E2F0" height="30.2969" style="stroke:#181818;stroke-width:0.5;" width="99" x="1643" y="29.1328"/><text fill="#000000" font-family="sans-serif" font-size="14" lengthAdjust="spacing" textLength="85" x="1650" y="49.1279">Gasp Nodes</text><rect fill="#E2E2F0" height="30.2969" style="stroke:#181818;stroke-width:0.5;" width="99" x="1647" y="568.0938"/><rect fill="#E2E2F0" height="30.2969" style="stroke:#181818;stroke-width:0.5;" width="99" x="1643" y="572.0938"/><text fill="#000000" font-family="sans-serif" font-size="14" lengthAdjust="spacing" textLength="85" x="1650" y="592.0889">Gasp Nodes</text><rect fill="#E2E2F0" height="30.2969" style="stroke:#181818;stroke-width:0.5;" width="148" x="1760" y="25.1328"/><rect fill="#E2E2F0" height="30.2969" style="stroke:#181818;stroke-width:0.5;" width="148" x="1756" y="29.1328"/><text fill="#000000" font-family="sans-serif" font-size="14" lengthAdjust="spacing" textLength="134" x="1763" y="49.1279">Arb OR Eth Updater</text><rect fill="#E2E2F0" height="30.2969" style="stroke:#181818;stroke-width:0.5;" width="148" x="1760" y="568.0938"/><rect fill="#E2E2F0" height="30.2969" style="stroke:#181818;stroke-width:0.5;" width="148" x="1756" y="572.0938"/><text fill="#000000" font-family="sans-serif" font-size="14" lengthAdjust="spacing" textLength="134" x="1763" y="592.0889">Arb OR Eth Updater</text><path d="M406,75.4297 L406,100.4297 L670,100.4297 L670,85.4297 L660,75.4297 L406,75.4297 " fill="#FEFFDD" style="stroke:#181818;stroke-width:0.5;"/><path d="M660,75.4297 L660,85.4297 L670,85.4297 L660,75.4297 " fill="#FEFFDD" style="stroke:#181818;stroke-width:0.5;"/><text fill="#000000" font-family="sans-serif" font-size="13" lengthAdjust="spacing" textLength="243" x="412" y="92.4966">Trigger is N block or registration event</text><polygon fill="#181818" points="98,122.6953,88,126.6953,98,130.6953,94,126.6953" style="stroke:#181818;stroke-width:1.0;"/><line style="stroke:#181818;stroke-width:1.0;stroke-dasharray:2.0,2.0;" x1="92" x2="537" y1="126.6953" y2="126.6953"/><text fill="#000000" font-family="sans-serif" font-size="13" lengthAdjust="spacing" textLength="226" x="104" y="121.6294">Creates a task "Share operator list"</text><polygon fill="#181818" points="658.5,151.8281,668.5,155.8281,658.5,159.8281,662.5,155.8281" style="stroke:#181818;stroke-width:1.0;"/><line style="stroke:#181818;stroke-width:1.0;stroke-dasharray:2.0,2.0;" x1="87" x2="664.5" y1="155.8281" y2="155.8281"/><text fill="#000000" font-family="sans-serif" font-size="13" lengthAdjust="spacing" textLength="439" x="94" y="150.7622">Fetch the the current aggregated BLS key and operators stake value</text><polygon fill="#181818" points="526,180.9609,536,184.9609,526,188.9609,530,184.9609" style="stroke:#181818;stroke-width:1.0;"/><line style="stroke:#181818;stroke-width:1.0;stroke-dasharray:2.0,2.0;" x1="87" x2="532" y1="184.9609" y2="184.9609"/><text fill="#000000" font-family="sans-serif" font-size="13" lengthAdjust="spacing" textLength="427" x="94" y="179.895">Signed response of aggregated BLS key and operators stake value</text><path d="M429,197.9609 L429,222.9609 L646,222.9609 L646,207.9609 L636,197.9609 L429,197.9609 " fill="#FEFFDD" style="stroke:#181818;stroke-width:0.5;"/><path d="M636,197.9609 L636,207.9609 L646,207.9609 L636,197.9609 " fill="#FEFFDD" style="stroke:#181818;stroke-width:0.5;"/><text fill="#000000" font-family="sans-serif" font-size="13" lengthAdjust="spacing" textLength="196" x="435" y="215.0278">Currently we will sign with older</text><polygon fill="#181818" points="822.5,245.2266,832.5,249.2266,822.5,253.2266,826.5,249.2266" style="stroke:#181818;stroke-width:1.0;"/><line style="stroke:#181818;stroke-width:1.0;stroke-dasharray:2.0,2.0;" x1="538" x2="828.5" y1="249.2266" y2="249.2266"/><text fill="#000000" font-family="sans-serif" font-size="13" lengthAdjust="spacing" textLength="154" x="545" y="244.1606">Signs the task response</text><line style="stroke:#181818;stroke-width:1.0;" x1="834.5" x2="876.5" y1="278.3594" y2="278.3594"/><line style="stroke:#181818;stroke-width:1.0;" x1="876.5" x2="876.5" y1="278.3594" y2="291.3594"/><line style="stroke:#181818;stroke-width:1.0;" x1="835.5" x2="876.5" y1="291.3594" y2="291.3594"/><polygon fill="#181818" points="845.5,287.3594,835.5,291.3594,845.5,295.3594,841.5,291.3594" style="stroke:#181818;stroke-width:1.0;"/><text fill="#000000" font-family="sans-serif" font-size="13" lengthAdjust="spacing" textLength="329" x="841.5" y="273.2935">Verifies the new operator list with quorum threshold</text><line style="stroke:#181818;stroke-width:1.0;" x1="834.5" x2="876.5" y1="320.4922" y2="320.4922"/><line style="stroke:#181818;stroke-width:1.0;" x1="876.5" x2="876.5" y1="320.4922" y2="333.4922"/><line style="stroke:#181818;stroke-width:1.0;" x1="835.5" x2="876.5" y1="333.4922" y2="333.4922"/><polygon fill="#181818" points="845.5,329.4922,835.5,333.4922,845.5,337.4922,841.5,333.4922" style="stroke:#181818;stroke-width:1.0;"/><text fill="#000000" font-family="sans-serif" font-size="13" lengthAdjust="spacing" textLength="376" x="841.5" y="315.4263">(optional) Verifies the state, not only the quorum threshold</text><polygon fill="#181818" points="845.5,358.625,835.5,362.625,845.5,366.625,841.5,362.625" style="stroke:#181818;stroke-width:1.0;"/><line style="stroke:#181818;stroke-width:1.0;" x1="839.5" x2="1831" y1="362.625" y2="362.625"/><text fill="#000000" font-family="sans-serif" font-size="13" lengthAdjust="spacing" textLength="383" x="851.5" y="357.5591">On operator list change event, fetch the new list information</text><polygon fill="#181818" points="1235.5,387.7578,1225.5,391.7578,1235.5,395.7578,1231.5,391.7578" style="stroke:#181818;stroke-width:1.0;"/><line style="stroke:#181818;stroke-width:1.0;" x1="1229.5" x2="1831" y1="391.7578" y2="391.7578"/><text fill="#000000" font-family="sans-serif" font-size="13" lengthAdjust="spacing" textLength="159" x="1241.5" y="386.6919">Submits new information</text><line style="stroke:#181818;stroke-width:1.0;" x1="1224.5" x2="1266.5" y1="420.8906" y2="420.8906"/><line style="stroke:#181818;stroke-width:1.0;" x1="1266.5" x2="1266.5" y1="420.8906" y2="433.8906"/><line style="stroke:#181818;stroke-width:1.0;" x1="1225.5" x2="1266.5" y1="433.8906" y2="433.8906"/><polygon fill="#181818" points="1235.5,429.8906,1225.5,433.8906,1235.5,437.8906,1231.5,433.8906" style="stroke:#181818;stroke-width:1.0;"/><text fill="#000000" font-family="sans-serif" font-size="13" lengthAdjust="spacing" textLength="456" x="1231.5" y="415.8247">Validates the new list with older aggreagated key and stake information</text><path d="M1112.5,448.8906 L1176.5,448.8906 L1176.5,456.0234 L1166.5,466.0234 L1112.5,466.0234 L1112.5,448.8906 " fill="#EEEEEE" style="stroke:#000000;stroke-width:1.5;"/><rect fill="none" height="103.2031" style="stroke:#000000;stroke-width:1.5;" width="805.5" x="1112.5" y="448.8906"/><text fill="#000000" font-family="sans-serif" font-size="13" font-weight="bold" lengthAdjust="spacing" textLength="19" x="1127.5" y="461.9575">alt</text><text fill="#000000" font-family="sans-serif" font-size="11" font-weight="bold" lengthAdjust="spacing" textLength="144" x="1191.5" y="461.1011">[operator list is VALID]</text><line style="stroke:#181818;stroke-width:1.0;" x1="1224.5" x2="1266.5" y1="487.1563" y2="487.1563"/><line style="stroke:#181818;stroke-width:1.0;" x1="1266.5" x2="1266.5" y1="487.1563" y2="500.1563"/><line style="stroke:#181818;stroke-width:1.0;" x1="1225.5" x2="1266.5" y1="500.1563" y2="500.1563"/><polygon fill="#181818" points="1235.5,496.1563,1225.5,500.1563,1235.5,504.1563,1231.5,500.1563" style="stroke:#181818;stroke-width:1.0;"/><text fill="#000000" font-family="sans-serif" font-size="13" lengthAdjust="spacing" textLength="431" x="1231.5" y="482.0903">Updates the storage with new aggregated key and operator stakes.</text><line style="stroke:#000000;stroke-width:1.0;stroke-dasharray:2.0,2.0;" x1="1112.5" x2="1918" y1="509.1563" y2="509.1563"/><text fill="#000000" font-family="sans-serif" font-size="11" font-weight="bold" lengthAdjust="spacing" textLength="157" x="1117.5" y="519.3667">[operator list is INVALID]</text><polygon fill="#181818" points="1820,540.0938,1830,544.0938,1820,548.0938,1824,544.0938" style="stroke:#181818;stroke-width:1.0;"/><line style="stroke:#181818;stroke-width:1.0;" x1="1224.5" x2="1826" y1="544.0938" y2="544.0938"/><text fill="#000000" font-family="sans-serif" font-size="13" lengthAdjust="spacing" textLength="126" x="1231.5" y="539.0278">Failed tx, no update</text><!--SRC=[bLFRRk8m47tFLupIbrPg-m4yh4JPTbK9KQdi8ktZ91aS2sDdROVBVlsEOn8I258N2Gd6FXSV7sVc0Ech5AHXZaUoATpDfIZzYwefoOrIb7jfj8FuIN-Wg-1DQbBoBra7zzFLyY4zhQ83Kv55RsnIeVKobnLgtsAdGbWIORK7m6uu1kavWzneRp7tFJ25vNO-Xc_iHf8HkE3L8GNf0Z9pI98ivDAWFpc4mknrcynlKihinxAPsanwMs_XunCQwEnQ4ctMYDtCTc4ASZr0sDUaCouOj5vz2R-g0ZtrWwtZv7maRJo1sN6IlSm1Vbef10-bWmLaokGRC1PuNJes7_I0TgHZDe4ZESFXwUbRT-KJc5bYIJuaU7GRI9SbMkhMGJ5Z2adtFu07yK_WZNnUWY-f-UQrjQpS-QK2NkPBsD0HaCsqH0wSnmt13aDf1_HdgnDOIg6PmPAhE4FsjVu_uXlvpQ99TOGzmLug1Ow5-1VVYb75wGR6WhkgN_Jeulb3WgtNv6ehZEDNPELQKgJGj1-67qtzgKqegI-PlMI7NoQ_DrMe0wg7eGw7vEan716CvXp2x4haLCSRr1_wmcbUeXOKc_S8wwuMuKpD1gdNncwRVlQvs_V5KTRPLdhN87gR8Mct3BUlKCcYQUz0vdoDyTOnjgLjIkn7tmigVt4KVbYhwVpzEtTbN3g-tJPBOr5Gr0qkUXMzh6TKTyy9AKVNek-BCTbJLlpKK2eczOTmSwTngEe_]--></g></svg>