<svg xmlns="http://www.w3.org/2000/svg" xmlns:xlink="http://www.w3.org/1999/xlink" contentStyleType="text/css" height="849px" preserveAspectRatio="none" style="width:2294px;height:849px;background:#FFFFFF;" version="1.1" viewBox="0 0 2294 849" width="2294px" zoomAndPan="magnify"><defs/><g><rect fill="#FFFFE0" height="837.8594" style="stroke:#181818;stroke-width:0.5;" width="349.6216" x="1336.3359" y="6"/><text fill="#000000" font-family="sans-serif" font-size="13" font-weight="bold" lengthAdjust="spacing" textLength="102.7939" x="1459.7498" y="18.0669">Gasp Services</text><rect fill="none" height="90.2031" style="stroke:#000000;stroke-width:1.5;" width="1155.2866" x="10" y="98.2969"/><rect fill="none" height="147.3359" style="stroke:#000000;stroke-width:1.5;" width="438.1309" x="968.6597" y="260.7656"/><rect fill="none" height="116.2031" style="stroke:#000000;stroke-width:1.5;" width="418.1309" x="978.6597" y="284.8984"/><line style="stroke:#181818;stroke-width:0.5;stroke-dasharray:5.0,5.0;" x1="95" x2="95" y1="81.2969" y2="764.5625"/><line style="stroke:#181818;stroke-width:0.5;stroke-dasharray:5.0,5.0;" x1="497.7314" x2="497.7314" y1="81.2969" y2="764.5625"/><line style="stroke:#181818;stroke-width:0.5;stroke-dasharray:5.0,5.0;" x1="749.3921" x2="749.3921" y1="81.2969" y2="764.5625"/><line style="stroke:#181818;stroke-width:0.5;stroke-dasharray:5.0,5.0;" x1="1071.6597" x2="1071.6597" y1="81.2969" y2="764.5625"/><line style="stroke:#181818;stroke-width:0.5;stroke-dasharray:5.0,5.0;" x1="1391.3359" x2="1391.3359" y1="81.2969" y2="764.5625"/><line style="stroke:#181818;stroke-width:0.5;stroke-dasharray:5.0,5.0;" x1="1506.2451" x2="1506.2451" y1="81.2969" y2="764.5625"/><line style="stroke:#181818;stroke-width:0.5;stroke-dasharray:5.0,5.0;" x1="1634.9614" x2="1634.9614" y1="81.2969" y2="764.5625"/><line style="stroke:#181818;stroke-width:0.5;stroke-dasharray:5.0,5.0;" x1="1935.2139" x2="1935.2139" y1="81.2969" y2="764.5625"/><line style="stroke:#181818;stroke-width:0.5;stroke-dasharray:5.0,5.0;" x1="2218.2603" x2="2218.2603" y1="81.2969" y2="764.5625"/><text fill="#000000" font-family="sans-serif" font-size="14" lengthAdjust="spacing" textLength="145.2705" x="20" y="77.9951">User (Metamask, L1)</text><ellipse cx="95.6353" cy="13.5" fill="#E2E2F0" rx="8" ry="8" style="stroke:#181818;stroke-width:0.5;"/><path d="M95.6353,21.5 L95.6353,48.5 M82.6353,29.5 L108.6353,29.5 M95.6353,48.5 L82.6353,63.5 M95.6353,48.5 L108.6353,63.5 " fill="none" style="stroke:#181818;stroke-width:0.5;"/><text fill="#000000" font-family="sans-serif" font-size="14" lengthAdjust="spacing" textLength="145.2705" x="20" y="776.5576">User (Metamask, L1)</text><ellipse cx="95.6353" cy="788.3594" fill="#E2E2F0" rx="8" ry="8" style="stroke:#181818;stroke-width:0.5;"/><path d="M95.6353,796.3594 L95.6353,823.3594 M82.6353,804.3594 L108.6353,804.3594 M95.6353,823.3594 L82.6353,838.3594 M95.6353,823.3594 L108.6353,838.3594 " fill="none" style="stroke:#181818;stroke-width:0.5;"/><rect fill="#E2E2F0" height="30.2969" style="stroke:#181818;stroke-width:0.5;" width="163.6797" x="418.7314" y="46"/><rect fill="#E2E2F0" height="30.2969" style="stroke:#181818;stroke-width:0.5;" width="163.6797" x="414.7314" y="50"/><text fill="#000000" font-family="sans-serif" font-size="14" lengthAdjust="spacing" textLength="149.6797" x="421.7314" y="69.9951">L1 Rolldown Contract</text><rect fill="#E2E2F0" height="30.2969" style="stroke:#181818;stroke-width:0.5;" width="163.6797" x="418.7314" y="763.5625"/><rect fill="#E2E2F0" height="30.2969" style="stroke:#181818;stroke-width:0.5;" width="163.6797" x="414.7314" y="767.5625"/><text fill="#000000" font-family="sans-serif" font-size="14" lengthAdjust="spacing" textLength="149.6797" x="421.7314" y="787.5576">L1 Rolldown Contract</text><rect fill="#E2E2F0" height="30.2969" style="stroke:#181818;stroke-width:0.5;" width="88.8125" x="707.3921" y="46"/><rect fill="#E2E2F0" height="30.2969" style="stroke:#181818;stroke-width:0.5;" width="88.8125" x="703.3921" y="50"/><text fill="#000000" font-family="sans-serif" font-size="14" lengthAdjust="spacing" textLength="74.8125" x="710.3921" y="69.9951">Sequencer</text><rect fill="#E2E2F0" height="30.2969" style="stroke:#181818;stroke-width:0.5;" width="88.8125" x="707.3921" y="763.5625"/><rect fill="#E2E2F0" height="30.2969" style="stroke:#181818;stroke-width:0.5;" width="88.8125" x="703.3921" y="767.5625"/><text fill="#000000" font-family="sans-serif" font-size="14" lengthAdjust="spacing" textLength="74.8125" x="710.3921" y="787.5576">Sequencer</text><rect fill="#E2E2F0" height="30.2969" style="stroke:#181818;stroke-width:0.5;" width="162.627" x="992.6597" y="46"/><rect fill="#E2E2F0" height="30.2969" style="stroke:#181818;stroke-width:0.5;" width="162.627" x="988.6597" y="50"/><text fill="#000000" font-family="sans-serif" font-size="14" lengthAdjust="spacing" textLength="148.627" x="995.6597" y="69.9951">Collator (GASP Node)</text><rect fill="#E2E2F0" height="30.2969" style="stroke:#181818;stroke-width:0.5;" width="162.627" x="992.6597" y="763.5625"/><rect fill="#E2E2F0" height="30.2969" style="stroke:#181818;stroke-width:0.5;" width="162.627" x="988.6597" y="767.5625"/><text fill="#000000" font-family="sans-serif" font-size="14" lengthAdjust="spacing" textLength="148.627" x="995.6597" y="787.5576">Collator (GASP Node)</text><rect fill="#E2E2F0" height="30.2969" style="stroke:#181818;stroke-width:0.5;" width="98.9092" x="1344.3359" y="46"/><rect fill="#E2E2F0" height="30.2969" style="stroke:#181818;stroke-width:0.5;" width="98.9092" x="1340.3359" y="50"/><text fill="#000000" font-family="sans-serif" font-size="14" lengthAdjust="spacing" textLength="84.9092" x="1347.3359" y="69.9951">L1 Updaters</text><rect fill="#E2E2F0" height="30.2969" style="stroke:#181818;stroke-width:0.5;" width="98.9092" x="1344.3359" y="763.5625"/><rect fill="#E2E2F0" height="30.2969" style="stroke:#181818;stroke-width:0.5;" width="98.9092" x="1340.3359" y="767.5625"/><text fill="#000000" font-family="sans-serif" font-size="14" lengthAdjust="spacing" textLength="84.9092" x="1347.3359" y="787.5576">L1 Updaters</text><rect fill="#E2E2F0" height="30.2969" rx="2.5" ry="2.5" style="stroke:#181818;stroke-width:0.5;" width="107.6797" x="1453.2451" y="50"/><text fill="#000000" font-family="sans-serif" font-size="14" lengthAdjust="spacing" textLength="93.6797" x="1460.2451" y="69.9951">Archive Node</text><rect fill="#E2E2F0" height="30.2969" rx="2.5" ry="2.5" style="stroke:#181818;stroke-width:0.5;" width="107.6797" x="1453.2451" y="763.5625"/><text fill="#000000" font-family="sans-serif" font-size="14" lengthAdjust="spacing" textLength="93.6797" x="1460.2451" y="783.5576">Archive Node</text><rect fill="#E2E2F0" height="30.2969" rx="2.5" ry="2.5" style="stroke:#181818;stroke-width:0.5;" width="92.9961" x="1588.9614" y="50"/><text fill="#000000" font-family="sans-serif" font-size="14" lengthAdjust="spacing" textLength="78.9961" x="1595.9614" y="69.9951">Aggregator</text><rect fill="#E2E2F0" height="30.2969" rx="2.5" ry="2.5" style="stroke:#181818;stroke-width:0.5;" width="92.9961" x="1588.9614" y="763.5625"/><text fill="#000000" font-family="sans-serif" font-size="14" lengthAdjust="spacing" textLength="78.9961" x="1595.9614" y="783.5576">Aggregator</text><rect fill="#E2E2F0" height="30.2969" style="stroke:#181818;stroke-width:0.5;" width="109.1563" x="1883.2139" y="46"/><rect fill="#E2E2F0" height="30.2969" style="stroke:#181818;stroke-width:0.5;" width="109.1563" x="1879.2139" y="50"/><text fill="#000000" font-family="sans-serif" font-size="14" lengthAdjust="spacing" textLength="95.1563" x="1886.2139" y="69.9951">AVS Operator</text><rect fill="#E2E2F0" height="30.2969" style="stroke:#181818;stroke-width:0.5;" width="109.1563" x="1883.2139" y="763.5625"/><rect fill="#E2E2F0" height="30.2969" style="stroke:#181818;stroke-width:0.5;" width="109.1563" x="1879.2139" y="767.5625"/><text fill="#000000" font-family="sans-serif" font-size="14" lengthAdjust="spacing" textLength="95.1563" x="1886.2139" y="787.5576">AVS Operator</text><rect fill="#E2E2F0" height="30.2969" rx="2.5" ry="2.5" style="stroke:#181818;stroke-width:0.5;" width="139.0908" x="2149.2603" y="50"/><text fill="#000000" font-family="sans-serif" font-size="14" lengthAdjust="spacing" textLength="125.0908" x="2156.2603" y="69.9951">AVS ETH Contract</text><rect fill="#E2E2F0" height="30.2969" rx="2.5" ry="2.5" style="stroke:#181818;stroke-width:0.5;" width="139.0908" x="2149.2603" y="763.5625"/><text fill="#000000" font-family="sans-serif" font-size="14" lengthAdjust="spacing" textLength="125.0908" x="2156.2603" y="783.5576">AVS ETH Contract</text><path d="M10,98.2969 L74.4429,98.2969 L74.4429,105.4297 L64.4429,115.4297 L10,115.4297 L10,98.2969 " fill="#EEEEEE" style="stroke:#000000;stroke-width:1.5;"/><rect fill="none" height="90.2031" style="stroke:#000000;stroke-width:1.5;" width="1155.2866" x="10" y="98.2969"/><text fill="#000000" font-family="sans-serif" font-size="13" font-weight="bold" lengthAdjust="spacing" textLength="19.4429" x="25" y="111.3638">alt</text><text fill="#000000" font-family="sans-serif" font-size="11" font-weight="bold" lengthAdjust="spacing" textLength="95.1382" x="89.4429" y="110.5073">[User deposits]</text><polygon fill="#181818" points="486.5713,132.5625,496.5713,136.5625,486.5713,140.5625,490.5713,136.5625" style="stroke:#181818;stroke-width:1.0;"/><line style="stroke:#181818;stroke-width:1.0;stroke-dasharray:2.0,2.0;" x1="95.6353" x2="492.5713" y1="136.5625" y2="136.5625"/><text fill="#000000" font-family="sans-serif" font-size="13" lengthAdjust="spacing" textLength="150.1602" x="102.6353" y="131.4966">Executes tx for deposit</text><line style="stroke:#000000;stroke-width:1.0;stroke-dasharray:2.0,2.0;" x1="10" x2="1165.2866" y1="145.5625" y2="145.5625"/><text fill="#000000" font-family="sans-serif" font-size="11" font-weight="bold" lengthAdjust="spacing" textLength="106.7021" x="15" y="155.7729">[User withdraws]</text><polygon fill="#181818" points="1059.9731,176.5,1069.9731,180.5,1059.9731,184.5,1063.9731,180.5" style="stroke:#181818;stroke-width:1.0;"/><line style="stroke:#181818;stroke-width:1.0;stroke-dasharray:2.0,2.0;" x1="95.6353" x2="1065.9731" y1="180.5" y2="180.5"/><text fill="#000000" font-family="sans-serif" font-size="13" lengthAdjust="spacing" textLength="128.8765" x="102.6353" y="175.4341">Request withdrawal</text><polygon fill="#181818" points="509.5713,212.6328,499.5713,216.6328,509.5713,220.6328,505.5713,216.6328" style="stroke:#181818;stroke-width:1.0;"/><line style="stroke:#181818;stroke-width:1.0;stroke-dasharray:2.0,2.0;" x1="503.5713" x2="748.7983" y1="216.6328" y2="216.6328"/><text fill="#000000" font-family="sans-serif" font-size="13" lengthAdjust="spacing" textLength="227.2271" x="515.5713" y="211.5669">Fetch pending withdrawals in a job</text><polygon fill="#181818" points="1059.9731,241.7656,1069.9731,245.7656,1059.9731,249.7656,1063.9731,245.7656" style="stroke:#181818;stroke-width:1.0;"/><line style="stroke:#181818;stroke-width:1.0;stroke-dasharray:2.0,2.0;" x1="749.7983" x2="1065.9731" y1="245.7656" y2="245.7656"/><text fill="#000000" font-family="sans-serif" font-size="13" lengthAdjust="spacing" textLength="298.1748" x="756.7983" y="240.6997">Provide deposit info to collator using extrinsic</text><path d="M968.6597,260.7656 L1033.1025,260.7656 L1033.1025,267.8984 L1023.1025,277.8984 L968.6597,277.8984 L968.6597,260.7656 " fill="#EEEEEE" style="stroke:#000000;stroke-width:1.5;"/><rect fill="none" height="147.3359" style="stroke:#000000;stroke-width:1.5;" width="438.1309" x="968.6597" y="260.7656"/><text fill="#000000" font-family="sans-serif" font-size="13" font-weight="bold" lengthAdjust="spacing" textLength="19.4429" x="983.6597" y="273.8325">alt</text><text fill="#000000" font-family="sans-serif" font-size="11" font-weight="bold" lengthAdjust="spacing" textLength="135.2603" x="1048.1025" y="272.9761">[Dispute period ends]</text><path d="M978.6597,284.8984 L1043.1025,284.8984 L1043.1025,292.0313 L1033.1025,302.0313 L978.6597,302.0313 L978.6597,284.8984 " fill="#EEEEEE" style="stroke:#000000;stroke-width:1.5;"/><rect fill="none" height="116.2031" style="stroke:#000000;stroke-width:1.5;" width="418.1309" x="978.6597" y="284.8984"/><text fill="#000000" font-family="sans-serif" font-size="13" font-weight="bold" lengthAdjust="spacing" textLength="19.4429" x="993.6597" y="297.9653">alt</text><text fill="#000000" font-family="sans-serif" font-size="11" font-weight="bold" lengthAdjust="spacing" textLength="56.3965" x="1058.1025" y="297.1089">[deposit]</text><line style="stroke:#181818;stroke-width:1.0;stroke-dasharray:2.0,2.0;" x1="1071.9731" x2="1113.9731" y1="323.1641" y2="323.1641"/><line style="stroke:#181818;stroke-width:1.0;stroke-dasharray:2.0,2.0;" x1="1113.9731" x2="1113.9731" y1="323.1641" y2="336.1641"/><line style="stroke:#181818;stroke-width:1.0;stroke-dasharray:2.0,2.0;" x1="1072.9731" x2="1113.9731" y1="336.1641" y2="336.1641"/><polygon fill="#181818" points="1082.9731,332.1641,1072.9731,336.1641,1082.9731,340.1641,1078.9731,336.1641" style="stroke:#181818;stroke-width:1.0;"/><text fill="#000000" font-family="sans-serif" font-size="13" lengthAdjust="spacing" textLength="69.1133" x="1078.9731" y="318.0981">Mint token</text><line style="stroke:#000000;stroke-width:1.0;stroke-dasharray:2.0,2.0;" x1="978.6597" x2="1396.7905" y1="345.1641" y2="345.1641"/><text fill="#000000" font-family="sans-serif" font-size="11" font-weight="bold" lengthAdjust="spacing" textLength="79.1538" x="983.6597" y="355.3745">[withdrawal]</text><line style="stroke:#181818;stroke-width:1.0;stroke-dasharray:2.0,2.0;" x1="1071.9731" x2="1113.9731" y1="380.1016" y2="380.1016"/><line style="stroke:#181818;stroke-width:1.0;stroke-dasharray:2.0,2.0;" x1="1113.9731" x2="1113.9731" y1="380.1016" y2="393.1016"/><line style="stroke:#181818;stroke-width:1.0;stroke-dasharray:2.0,2.0;" x1="1072.9731" x2="1113.9731" y1="393.1016" y2="393.1016"/><polygon fill="#181818" points="1082.9731,389.1016,1072.9731,393.1016,1082.9731,397.1016,1078.9731,393.1016" style="stroke:#181818;stroke-width:1.0;"/><text fill="#000000" font-family="sans-serif" font-size="13" lengthAdjust="spacing" textLength="305.8174" x="1078.9731" y="375.0356">Burn token and create a batches of withdrawal</text><path d="M1771,420.1016 L1771,445.1016 L2098,445.1016 L2098,430.1016 L2088,420.1016 L1771,420.1016 " fill="#FEFFDD" style="stroke:#181818;stroke-width:0.5;"/><path d="M2088,420.1016 L2088,430.1016 L2098,430.1016 L2088,420.1016 " fill="#FEFFDD" style="stroke:#181818;stroke-width:0.5;"/><text fill="#000000" font-family="sans-serif" font-size="13" lengthAdjust="spacing" textLength="306.998" x="1777" y="437.1685">GASP node used as dtabase to get Merkle Root</text><polygon fill="#181818" points="1518.085,467.3672,1508.085,471.3672,1518.085,475.3672,1514.085,471.3672" style="stroke:#181818;stroke-width:1.0;"/><line style="stroke:#181818;stroke-width:1.0;stroke-dasharray:2.0,2.0;" x1="1512.085" x2="1634.4595" y1="471.3672" y2="471.3672"/><text fill="#000000" font-family="sans-serif" font-size="13" lengthAdjust="spacing" textLength="104.3745" x="1524.085" y="466.3013">Fetch last batch</text><polygon fill="#181818" points="1923.792,496.5,1933.792,500.5,1923.792,504.5,1927.792,500.5" style="stroke:#181818;stroke-width:1.0;"/><line style="stroke:#181818;stroke-width:1.0;stroke-dasharray:2.0,2.0;" x1="1635.4595" x2="1929.792" y1="500.5" y2="500.5"/><text fill="#000000" font-family="sans-serif" font-size="13" lengthAdjust="spacing" textLength="276.3325" x="1642.4595" y="495.4341">Task for forming a Merkle Root for 1 batch</text><line style="stroke:#181818;stroke-width:1.0;stroke-dasharray:2.0,2.0;" x1="1935.792" x2="1977.792" y1="529.6328" y2="529.6328"/><line style="stroke:#181818;stroke-width:1.0;stroke-dasharray:2.0,2.0;" x1="1977.792" x2="1977.792" y1="529.6328" y2="542.6328"/><line style="stroke:#181818;stroke-width:1.0;stroke-dasharray:2.0,2.0;" x1="1936.792" x2="1977.792" y1="542.6328" y2="542.6328"/><polygon fill="#181818" points="1946.792,538.6328,1936.792,542.6328,1946.792,546.6328,1942.792,542.6328" style="stroke:#181818;stroke-width:1.0;"/><text fill="#000000" font-family="sans-serif" font-size="13" lengthAdjust="spacing" textLength="269.0137" x="1942.792" y="524.5669">Form and Signs the Merkle Root with BLS</text><polygon fill="#181818" points="1646.4595,567.7656,1636.4595,571.7656,1646.4595,575.7656,1642.4595,571.7656" style="stroke:#181818;stroke-width:1.0;"/><line style="stroke:#181818;stroke-width:1.0;stroke-dasharray:2.0,2.0;" x1="1640.4595" x2="1934.792" y1="571.7656" y2="571.7656"/><text fill="#000000" font-family="sans-serif" font-size="13" lengthAdjust="spacing" textLength="78.7744" x="1652.4595" y="566.6997">Signed Root</text><polygon fill="#181818" points="2206.8057,596.8984,2216.8057,600.8984,2206.8057,604.8984,2210.8057,600.8984" style="stroke:#181818;stroke-width:1.0;"/><line style="stroke:#181818;stroke-width:1.0;stroke-dasharray:2.0,2.0;" x1="1635.4595" x2="2212.8057" y1="600.8984" y2="600.8984"/><text fill="#000000" font-family="sans-serif" font-size="13" lengthAdjust="spacing" textLength="269.147" x="1642.4595" y="595.8325">Submit task response to ETH Eigen Layer</text><polygon fill="#181818" points="2206.8057,626.0313,2216.8057,630.0313,2206.8057,634.0313,2210.8057,630.0313" style="stroke:#181818;stroke-width:1.0;"/><line style="stroke:#181818;stroke-width:1.0;stroke-dasharray:2.0,2.0;" x1="1391.7905" x2="2212.8057" y1="630.0313" y2="630.0313"/><text fill="#000000" font-family="sans-serif" font-size="13" lengthAdjust="spacing" textLength="211.1294" x="1398.7905" y="624.9653">get the latest task (Merkle Root)</text><polygon fill="#181818" points="509.5713,655.1641,499.5713,659.1641,509.5713,663.1641,505.5713,659.1641" style="stroke:#181818;stroke-width:1.0;"/><line style="stroke:#181818;stroke-width:1.0;stroke-dasharray:2.0,2.0;" x1="503.5713" x2="1390.7905" y1="659.1641" y2="659.1641"/><text fill="#000000" font-family="sans-serif" font-size="13" lengthAdjust="spacing" textLength="241.9473" x="515.5713" y="654.0981">Store Merkle Root executing tx on L1</text><polygon fill="#181818" points="1495.085,684.2969,1505.085,688.2969,1495.085,692.2969,1499.085,688.2969" style="stroke:#181818;stroke-width:1.0;"/><line style="stroke:#181818;stroke-width:1.0;stroke-dasharray:2.0,2.0;" x1="95.6353" x2="1501.085" y1="688.2969" y2="688.2969"/><text fill="#000000" font-family="sans-serif" font-size="13" lengthAdjust="spacing" textLength="136.8682" x="102.6353" y="683.231">Get withdrawal proof</text><polygon fill="#181818" points="486.5713,713.4297,496.5713,717.4297,486.5713,721.4297,490.5713,717.4297" style="stroke:#181818;stroke-width:1.0;"/><line style="stroke:#181818;stroke-width:1.0;stroke-dasharray:2.0,2.0;" x1="95.6353" x2="492.5713" y1="717.4297" y2="717.4297"/><text fill="#000000" font-family="sans-serif" font-size="13" lengthAdjust="spacing" textLength="255.4805" x="102.6353" y="712.3638">Complete withdrawal with Merkle Proof</text><polygon fill="#181818" points="106.6353,742.5625,96.6353,746.5625,106.6353,750.5625,102.6353,746.5625" style="stroke:#181818;stroke-width:1.0;"/><line style="stroke:#181818;stroke-width:1.0;stroke-dasharray:2.0,2.0;" x1="100.6353" x2="497.5713" y1="746.5625" y2="746.5625"/><text fill="#000000" font-family="sans-serif" font-size="13" lengthAdjust="spacing" textLength="378.936" x="112.6353" y="741.4966">Validates Merkle Proof agains Merkle Root and send funds</text><!--SRC=[XLHDRzim3BthLn3P9GNMGwuv36YxD3iaMr2t1NPKPCRHuaYUn7niltwax3YsaM8134JMu-FZ8sbjo0UeVwEtY076IoIzrt7t6HQJkn7e20T-hvJnPOc6h7SHHei9lF0vzoS7JzvHq8OIjj2nCisBGKo6lm_e38O4Z9TJ7_J41osQnlE7R0NVVOwr2DDSABNsPnZDEGza68xMO1p1fuKjjlGJozAVb1GpLFjMvPemnBgW-f20bGvaZQsq8nWz1BErHqnf4rBNBsuWYo9W8O9gN7jKw79WYOFY7zup-55XQ2CsrkdI_XLd-yGCdBr-wxkAjc2lMbjrIP2QbMFbewMOz4cRuFx-Iwy7KvYTqHm88z0PDhwDKLX6h5bEbhPvqAS1pSNnARn8hoArG5rAbGcjsZxUIFsCPBPGCTQweXCTmJhGyCkl1-7NbAlWZpR7YreEs7WWto9Ofd3YcO9rqHfLk_BLnegBvPp1-XmuSrsKt5qARyRzIjNFlBJS1l8xT0cPREeK_f_enqDmTJHe7WGJa2UDQrrhjeARu3T3ijP9-QESPxW_iX_N0P7Rj0sEnrBwayjCvAJNchMnAGKIB37iIkIjz9H6K8ZKTIoJp6QQBuqfDVSq2Hi2sznJUELFGPeRVlPYkUwcIZUJXaIrOKEIPuvDVcIsu6sWBVP8n15uN6G3WgkeQGhakbDvGxMzxM3eORtdYI4H7Z1Ml7_99TcgcK1XeV_8tZMVWLiSugYevAxAu2UkSKVoNI-uF_KPw-hNXsa5nJpUGS_v9y3PBtlMTcMEtHM3AdY_KHzizPFVLoLITpHh6vkygnIika69HUYcyCukY_pOWxFXcfUf9rsQ5cMUDWVUfNy0]--></g></svg>